<mxfile host="app.diagrams.net" modified="2023-03-29T09:09:25.664Z" agent="5.0 (Windows NT 10.0; Win64; x64) AppleWebKit/537.36 (KHTML, like Gecko) Chrome/111.0.0.0 Safari/537.36" etag="jLbRGHnuzn7AJ2aVOHeC" version="20.8.23" type="github">
  <diagram name="Page-1" id="4B_d6xdbd9GXfgGYgP8R">
    <mxGraphModel dx="794" dy="470" grid="1" gridSize="10" guides="1" tooltips="1" connect="1" arrows="1" fold="1" page="1" pageScale="1" pageWidth="850" pageHeight="1100" math="0" shadow="0">
      <root>
        <mxCell id="0" />
        <mxCell id="1" parent="0" />
        <mxCell id="DQa-gl1qMOEUVgbhVwgR-1" value="" style="rounded=0;whiteSpace=wrap;html=1;strokeColor=none;" vertex="1" parent="1">
          <mxGeometry x="40" y="40" width="720" height="440" as="geometry" />
        </mxCell>
        <mxCell id="DQa-gl1qMOEUVgbhVwgR-2" value="" style="shape=image;verticalLabelPosition=bottom;labelBackgroundColor=default;verticalAlign=top;aspect=fixed;imageAspect=0;image=data:image/jpeg,/9j/4AAQSkZJRgABAQAAAQABAAD/4gIoSUNDX1BST0ZJTEUAAQEAAAIYAAAAAAIQAABtbnRyUkdCIFhZWiAAAAAAAAAAAAAAAABhY3NwAAAAAAAAAAAAAAAAAAAAAAAAAAAAAAAAAAAAAQAA9tYAAQAAAADTLQAAAAAAAAAAAAAAAAAAAAAAAAAAAAAAAAAAAAAAAAAAAAAAAAAAAAAAAAAAAAAAAAAAAAlkZXNjAAAA8AAAAHRyWFlaAAABZAAAABRnWFlaAAABeAAAABRiWFlaAAABjAAAABRyVFJDAAABoAAAAChnVFJDAAABoAAAAChiVFJDAAABoAAAACh3dHB0AAAByAAAABRjcHJ0AAAB3AAAADxtbHVjAAAAAAAAAAEAAAAMZW5VUwAAAFgAAAAcAHMAUgBHAEIAAAAAAAAAAAAAAAAAAAAAAAAAAAAAAAAAAAAAAAAAAAAAAAAAAAAAAAAAAAAAAAAAAAAAAAAAAAAAAAAAAAAAAAAAAAAAAAAAAAAAAAAAAFhZWiAAAAAAAABvogAAOPUAAAOQWFlaIAAAAAAAAGKZAAC3hQAAGNpYWVogAAAAAAAAJKAAAA+EAAC2z3BhcmEAAAAAAAQAAAACZmYAAPKnAAANWQAAE9AAAApbAAAAAAAAAABYWVogAAAAAAAA9tYAAQAAAADTLW1sdWMAAAAAAAAAAQAAAAxlblVTAAAAIAAAABwARwBvAG8AZwBsAGUAIABJAG4AYwAuACAAMgAwADEANv/bAEMAEAsMDgwKEA4NDhIREBMYKBoYFhYYMSMlHSg6Mz08OTM4N0BIXE5ARFdFNzhQbVFXX2JnaGc+TXF5cGR4XGVnY//bAEMBERISGBUYLxoaL2NCOEJjY2NjY2NjY2NjY2NjY2NjY2NjY2NjY2NjY2NjY2NjY2NjY2NjY2NjY2NjY2NjY2NjY//AABEICSQEOAMBIgACEQEDEQH/xAAbAAEBAAMBAQEAAAAAAAAAAAAAAQIEBQMGB//EAFgQAQABAwIDBAYGBQgGBQsDBQABAgMRBAUSITEGE0FRFFNhcYGRIjIzUqKxFXKhwdEHIzQ1NkJzshZUdMLh8CRigpOjFyVDVmWDkrPS4vEmN0RVY0eElP/EABoBAQEBAQEBAQAAAAAAAAAAAAABAgMEBQb/xAAmEQEAAgEDBAMBAQEBAQAAAAAAAQIRAxNREhQhMQQyQSJhcTOR/9oADAMBAAIRAxEAPwD9AAAAAAAAAAAAAAAAAAAAAAAAAAAAAAAAAAAAAAAAAAAAAAAAAAAAAAAAAAAAAAAAAAAAAAAAAAAAAAAAAAAAAAAAAAAAAAAAAAAAAAAAAAAAAAAAAAAAAAAAAAAAAAAAAAAAAAAAAAAAAAAAAAAAAAAAAAAAAAAAAAAAABoazdtBoauHU6q3RX93rPyjmDfGhot20Guq4dNqrddf3ek/Keb1q1+lp1lOkqv0RqKozFvPMG0AAAAAAAADna3edu0FcW9VqqKK5/uxE1THviM4+IOiON/pTs3+uf8AhV/wP9Kdm/1z/wAKv+AOyORY7R7TeuRbp1tEVT046aqY+cxEOuAAAAAAAAAAAAAAAAAAAAAAAAAAAAAAAAAAAAAAAAADxs37V+marNdNymmqaZmmc4mPAHsNP9J6Hv8AuPTLHe5xwccZz5NwAAAAAAAAAAAAAAAAAAAAAYzMUxmZiI9rGi7br5UV01e6cg9AAAAAAAAAAAAAAAAAAAAAAAAAAAAAAAAHnduUWrdVy5XTTRTGaqqpxEQ9HyHa7U16jX6ba6LkUW6sVXapnEc55Z9kRmQbtztboI1NNmzTdvZqinjiIin9vN9E+b0G7dntvinT6e7TTjlNybc/SnzmrDv95TNrvKPp044o4eefcD1a+p1en0lvj1N6i1T511Yc3YN7ubvVfivSzZ7qYxOcxz8Pemr7OaPXblc1eqquXOLERbicUxiIj3g9tv3vR7lrLljSzXXwUcU18OInnjl4uq+K7I0U2+0GvoojFNNNURHlHHD63W6mNHor2pqjMWqJqx54Bqbpveh2zEai5M3JjMW6IzV/wTZt3s7vbu12bddEW6oiePHP5Pldnu7fx3d03m7TcvXK57u3VHF75x+yPc+u23dNBuFMxo7tMzT1oxwzHwB0HN3jdrW06ei9eorriurhiKMeWfF0nzHbv+rNP/jf7sgf6baH/VtR+H+LobZ2g0G5193arqou+Fu5GJn3eEvXZbdudm0UzRTObFHh7Hy/a6za0G66a/o6YtXqo45iiMc4nlOP+egPqN43a1tOnou3bddyK6uGIpx1xldn3axu2mqvWaaqOCrhqpq6w4/bmZna9NMxie9/3ZaPZuudr3yNJXM91q7VNdEz4zMcUfvgH2756/2r0lnX1aSLN2uaa+7muMYznDqbprI0O239TOM0U/Rz41dI/a/O6dLXaq0GouTM1aivi5+UVRGfzB+og+Z1u46mrdN40c1RFizoqq6IiMTFXDHPP/akG52n3SvbNtzZnF+9VwUT93zn/nzczZ+y1m9p6NVuc13bt2OPu+KYxnznrMuLulVU9ndlzMz9t1nyqjD6jtBv1G1W+40+K9XXH0afCiPOf3QDgdptBt223bUaGu5b1WYnu6asxTHhOesS6/ZzYrlq7+kdy4qtVX9KmmqedOfGfb+X5Ts9sNdu5+ktzzXqq54qaa+c0+2fb+X5aF7eL267RvV2c27dEWabdET9WJrnPxnxB9uPmdFuOpp3TZ9HTVE2b2iprriYzMzwzzz/ANmH0wI+T1HbOvT37lm5tk01UVTTMVXsT/lfWvje3Ojs0xY1lNOLtdXBVMf3oxyBl/p1/wCzv/H/APtP9Ov/AGd/4/8A9pt+s3KjQaem3sVu7RFumKbnL6UY6/Fs+nbr/wCrtv8AYD12btTb3PW06WrSzZrrieGYr4onEZ8ofRPgdlquV9sqKrtmLFya65qtx/dnhnk++Bra+9VptBqb9ERNVq1VXET0zETL8qrrquXKq7lU1V1TM1VTOZmfN+o7x/U2u/2e5/ll+WAAAPv+xuou6jZopuzxdzcm3TM9eHETH5492HwD7zsL/U17/aKv8tIPpAAeOpv29Lp7l+7Vw27dM1VS+T2LtLev7xXb1VeLN+cW48Lc+EfuTtruuaqdttVcoxVdx5+Efv8Ak0N02rTaPYNFrrHHF+7wcUzVy50zPL4wD9CHJ7O7nG6bdTcqmO+t/QuR7fP4usAAAAAAAAAAAAAAAAAAAAAAAAAAAAD5ntTvuo229b02kxTcro46q5jOIziMZ5eEuHc3vtDbu2rVd+qK70U1W6e6o+lE9Mcnt25/rmz/ALPT/mqem1a/SVbVb1OrqidVtkVRapmfrxMfR+U/LANO72h36zeuWrmpmm5bmYqjuqOX7Hn/AKU7z/rn/hUfwdXZtyt/o+1NGvsaW7F6q5q++pjN6JnPL4cnze5XLF3cdRc0tPDZquTNEYxy9wPsOyu+39yuXNNq8VXaKeOmqIxmM4nPzh9O+D7C/wBc3v8AZ6v81L7wHO3G9XVVRotNVNN+/nNUf+jo8av3R7Zce3PoXZzd40/0O71F2ijHhGYj8nd1G26TVXu+vWIquY4eLMxOGlotjs2dPrLNymnGorrxNFU8qJnlHPxgF1lvbtHtlOj1FuabFVE0xwWpqxiOuYicT45l0NHXbuaOzXbuTct1URNNdXWqMdZc/wBH3aNLOkzpblE0cHf1TVFWMYzNOOvxdDR6eNLo7OniqaotURREz44jANged27RZt1XLtcUUUxmqqqcREOftu9aTc9RetaXjnuoieKqnEVR7PEG/Vct0XKaKq6Yrq+rTM8590Ple1O+63R6z0PSVRaiKYqmuIzVOfycnb712/2ttV3rlVdXfzGapzy58mfbL+vq/wDDpB95pq5uaa1XVzqqoiZ9+Hy3aTtDq9LuE6LQ1RRNERxVzTEzMzGcc+WMTD6jR/0Ox/h0/k/Pu1n9o9X/ANj/ACUg2f0z2j9N9C72r0jOO77qjPTPl5Nee029xnOrn6M4n+ao5fsdGNz036JjdeOP0lFn0XGeefv+/Hj8Gxtu4aW3oNJw63T2dLbtTTqtNXRE13Ksc5jxnMg4v+lO8/65/wCFR/B9V2X3i5uuluxqIjvrMxFVVMYiqJziffyl+f3Jpm5VNETFMzOInwh9d2A//n/+7/3gfYAAA5W675otqxTfqqquzzi3bjNWPP2A6kziMz0aWv11Om2u/rLE0XYt0TNOJzEz74cPtpqa/wBGabublVNF6rNUROOKMcsvDbv7Car/ALf5wDY7KbtrNz1mq9Ku8VMUxVTTEREU8/B9S+J7Bf0zVf4cfm+2Bq63WafQaeb2puRRRHzn2Q+Q1/arXa27Nnbrc26Z5Rwxmuf4Ov2j2HUbrqLNyzfxTTHDVRV0j2w52o3HQ9nKJ0m32qb2qjlcuVeEg0rfZ/fNbMXL1U0zPjduc2dXZLdaIzRdtzPlFcw8qZ7Qbv8ATpm9NE9Jj6NLKdn7QaaOOibszHP6FzMgxjV79sdUd73vdx4V/SpfS7L2k025zFq7EWdR92Z5Ve5wtJ2l1emrnTbtZm9bnlVFdP0o/i2NT2Zta65Z1mz3qaLFyczz+p7Y/gD7IedumaLVNE1TXNMRE1T1n2vQHG7Q7pXtmjomxRx6i9VwW4mM/HH/AD1c+3sm836Yuave71i5VzmmiZxHymIevafnvGxxPT0j/eodu/8AafAHC/0e1/8A6yan8X/1rHZzcZ6dotVP/wAX/wBbrXOPu6u7xx4nh4umfBwNRoKtHtd/V6rdL0a6jNUTTemKc+ERSDZ/0c3L/wBYdX8qv/rP9HNy/wDWHV/Kr/621Xa3Dcdq0cRf9FmummrUVRmmvGPDyalun9H9oNJptFqrt61epqm9bruccUxHSfYC/wCjm5f+sOr+VX/1vDV7dve1WatVpt1uauLf0q7dyJnMePKZl9Y8r8RVp7kT0miYn5A1tp19O5bda1VMcM1RiqnymOrefD7Zu17aey1F2zRRXXVqZojjziIxnwfZaa73+mtXsY7yiKseWYyD2AAAAAAAAAAAAAAAAAAfC71pY1nbOjT3fs7k0RPtpxGf3vunzfaTZ9TqL9ncNBz1FnGafGYicxMe0Htu+x6Crar/AHWmtWq7dua6K6KcTmIzznxePYnUVXdprtVzMxZuTFPsiYzj82jrN13rctJVobe1XbVy5HDXXwzjHj1jEfN29j22raNr7nlXfnNdeJ5TVjp+yAdZXE2DXbnrKtRG5aXuYomOCeCac+cc+rtg+N7J/wBo9x91f+eHc7T5/wBHtZw9eGP80OR2a0uosb9r7l6xet26oq4aq6JiJ+nHSZfT6ixRqtNcsXYzRcpmmfdIPmOyO06O9ts6rU2Ld65XXMRx08UUxHsn4tPctPRs3anSV6SO7ouTTVNEdIzOJj3PXRzu3Zqu7p40VWs01VXFTVRnr58onHul6aLQa/eN6o3PcLE6ezaxNFFUYmcc4jHXrzyD7B8x27/qzT/43+7L6d852z09/U7fYp09i5eqi7mYt0TVMRifIGht+h7SV6DT1abX2qLFVuJopmecU45f3W3oezF2ddTrN11XpN2mYmKYzMZjpmZ8PY7Oz0V0bRpKLlNVFdNmmJpqjExOG8D5jt3/AFZp/wDG/wB2WjvNiujZNo3Szyu6e3bpmfZiJifn+bpds9Pf1O32KdPYuXqou5mLdE1TEYnybun0PpHZu1o71M0VV6amiYqjE0zjy9kg4vaPW/pSjbtDpZ56rhuT7M8oz+35PDtRbosbrtmntxii1bpppj2cWP3M+ye06m3uNeo1ti5bixTw2+8pmMzPln4/N69qdJqdRveiuWNPeu0U008VVFEzEfSnrMA+vaGo2zS3qtVci3FF7U2ps13Y64mMfw+Tfam516m3oL1WioivURT9CmQfDdoYs6W3otqs3JvVaOK+OvGMzVMTjDudnthrt3P0luea9VXPFTRXz4fbPt/L8sez+wVaeZ3DcKJuamc1UW5mJmJ85/635flNVc7WXNRXXp7EWLUz9GiKrVWI98g+rfnu16eLd7X7Hraps3NTwUxcxmIqpnMfCcul/wDrL/nuWhrNn7R669Te1Wniu7TGIriq3TP7JgH2Gm2zS2atLcm3Fd7TWos0XZ64iMfx+bfa+ipv06KzTqqoqvxREXJjxnxbAD5bt3/QNN/iz+T6lzN72mjd9LTZruzaqoq4qaojP7AcLb9Huleg09VrfLdqibdM00cp4Yx0+Dl7juu76HW3NN+kqrvBj6dGMTmMup/oL/7R/wDA/wDuP9Bf/aP/AIH/ANwOV2ZvXNR2n0929XNdyua5qqnxnhl+ivndn7LW9s1tOqnVTeroieGIo4YjMY85fRA0t4/qbXf7Pc/yy/LH6tr7NWp0GpsUTEV3bVVFMz0zMTD8qroqt11UV0zTXTOKqaoxMT5SCAAPvOwv9TXv9oq/y0vg33/Y3TXdPs3Fdp4e+uTcpievDiIif2fLAPoWluuvo23QXdTXiZpjFNP3qvCG6+Z7U7XuO53bNOliidPRTmYqqxPF/wDj94PiL96vUXq712rirrqmqqfOZdzdr+4V9ntDb1OjotaWng7u7FcTNX0Zxyzy5Mf9Ed29Vb/7yG3qdm7Q6rR2tHe7qqxZxwU8VMYxGI59egOZ2c3Ods3Kmquf5i59C5Hs8J+D9JiYmMxOYl+ff6I7t6q3/wB5D7LY7Oq0212bOtmJu244eU55eH7AdEAAAAAAAAAAAAAAAAAAAAAAAAAAAHwfbn+ubP8As9P+apo7jpdLo7W13qbPFF2zTcvU8cxx8+fPwz7Hc7Y7RqtXqLWs0tqq9FNvu6qKIzMYmZicePVpRf1tWlsWNR2drv8AcURRTVXarzj5Aw1sbTa2bT6y3tXDXqouU0/9Irnu5icZ9vm2NXtui0u3WrlO2W7s1aem5Vdq1c0TFUx93xcu/Y3S/tul0U7bqYp001TFUWaszxTnyb12/rL+nt27/Z2u5XbtRapuTarzERHLwA7C/wBc3v8AZ6v81L7x8l2O2nVaS/d1mqt1WYqo7uiiuMTOZiZnHh0fT6m3Xe09y3bu1Wq6qcU109aZ8wc+N4id31eg7if+jWe9mvi+tyicYx/1nnsfaCxu/Hb4O5v08+7mrOY84lyNo0O529619etouV11aaqiL2Po1z9HGJ90N7srtduzobd/U6Xu9XTXViqumYqiOniD6Jye0G7zs+kouUWouXLlXDTEziI5dZfK9qNZr9Rud7TVTc7i3ViiimJiJ9vtdPtfbu1bPofoVTNMxxcuk8PiD3/SF7cuxuq1GoinvOGqmeGMRylodgv6Zqv8OPzbG3Wrn+g2pp7urimK5iMc5jLx7C27lOr1VVVFURwRGZj2g5e0/wBqrX+0T+cvbtl/X1f+HSx2qxdjtVbzarjF+qZ+jPLq9e2Nq5VvkzFuqYm3TiYjqD7jR/0Ox/h0/k/Pu1n9o9X/ANj/ACUv0HSRMaSzTVExMW6YmJ9z47tXs2tubpc1mnsV37d2Kc93HFNMxER0jn4A0N30+i2ze6KfRe908W6aqrPeTGZmPPrHPm2N3t7Zp7Glos7bwXNXZouxX39U93memJ6s9Zf1mut1d92erm7Nvgi73VeY5YiejU1trddZ6JxbZqafRrVNqnFmvnEeM8gb+/7fo9Bav02dttxFOIpvelTNUTOP7jY7Af8A8/8A93/vNLcLut3CLtVzs9XTfuREd7FqvijHw9jtdkNr1G36a/d1VM267804onrERnr8wfRo5XaLVanSbTcu6PMXcxGYpziJnq4fYqdRXrdZdv8AeVTVTGaq885yDYs9p7+q3+1o7VqijTzcmieLnVV7fY4/bL+vq/8ADpY7VYux2qt5tVxi/VM/Rnl1evbG1cq3yZi3VMTbpxMR1Bvdr/6m234f5YNu/sJqv+3+cM+19q5Oz7fEUVTNMxFWI6fRNutXP9BtTT3dXFMVzEY5zGQa/YL+mar/AA4/N9s+L7C27lOr1VVVFURwRGZj2vtAHFv7Dt9OvubjctzViJrqo6xM9ZnDtID4TU9otz3C/NjbLdVqiOVNNunNWHnc1XaPbo769N+KPHjjMPqNxtVbbt+pv7XpaIv1TxVYjw8Z/wCDi9nN23PcdbVY1FMX9NMT3k1U/V/58gbOgvaXtVo7lrV2OC/aiP5ymPyn9zet12tv0tvQbTVZu34qxMV19POqXnudq3t2ksaPQxTpqdVfi3Xcj+7E9efm1rmiqsavutBo9NqIs8NVuuLmK7dXnV55nMg6m2a6/e1Go0mst0037HDOaJ5VRPSXUc7bNBOkpuXL1fe6m/MVXbnnPhEeyHRB812n5bxsUz09I/3qHcv/AGnwaHaLaq9z0lHcVRRqLVXHbmZxn2Odb3vebFMW9Xsl6/cp5TVRE4n5RMA7N2ubdmuuKJrmmmZimnrPshwNXe2TX7Xf19VVFrW8MzT9PFyK4j6PLPshs/6Q6/8A9W9T+L/6GtO53Jvd9PZOubuc8fdznPv4AdGNzjT7Tof0rarqp1VHBdrmOVOY/ve+P3tKmNHpN/0NGy10zF3ijUUWq+Onh8JnnPtZ3N/112iaLvZzU10T1pqiqYn8DDT7xqNLn0fstes568FMxn5UA+reV+YpsXJnpFMzPyfP/wCke5f+r2r+dX/0PDV7jve62atLptquaSLn0a7lyZjEePOYgGntm03d27MUWrNyi3VTqZrzXnExjD7LTWu401qznPd0RTnzxGGvtOgp23brWlpnimmM1Vecz1bwAAAAAAAAAAAw46ZnET+xkCgAAAAAAAAAAAAAAAAAAAAAAAAAOPu/Z7R7rVF25xW70Rjjo8ffHi7ADj7R2e0e1VTdt8Vy9MY46/D3R4OwAAAAAAAAADm63Ztu11zvdTpaa7nnEzTM+/Exnp4ukA43+i2zf6n/AOLX/E/0W2b/AFP/AMWv+LsgOPb7N7RariujRUzMdOKuqqPlM4l2AAAAAAAAAAAAAAAAAAAAAAAAAAAAAAAAAAAAAAAAAAAAAARQEUAAAAAAAAARQAABFAAAB5WrNqzE91bot8U5nhpiMy9QHhqdNZ1dmbOot03Lc9aZeei0Gl0FFVGls024qnM46z8W2AAAAAAAAAAAAAAAAAAAAgKMOOmJxM/sAKKeGn2+LMAAAAAAAAAAAAAAAAAAAAAAAAAAAAAAAAAAAAAAAAAAAAAAAAAAAAAAAAAAAAAAAAAAAAAAAAAAAAAAAAAAAAAAAAAAAAAAAAAAAAAAAAAAAAAAAAAAAAAAAAAAAAAAAAAAAAAYV08VPt8BmAAAAAAAAAAAAAAAAAAAAAAAAAAAAAAAAAAAAAAAAAAAAAAAAAAAAAAAAAAAAAAAAAAAAAAAAAAAAAAAAAAAAAAAAAAAAAAAAAAAAAAAAAAAAAAAAAAAAAAAAAAAAAAAAAAAAAAAAAAAAAAAAAAAAAAAAAAAAAAAAAAAAAAAAAAAAAAAAAAAAAAAAAAAAAAAAAAAAAAAAAAAAAAAAAAAAAAAAAAAAAAAAAAAAAAAAAAAAAAAAAAAAAAAAAAAAAAAAAAAAAAAAAAAAAAAAAAAAAAAAAAAAAAAAAAAAAAAAAAAAAAAAAAAAAAAAAAAAAAAAAAAAAAAAAAAAAAAAAAAAAAAAAAAAAAAAAAAAAAAAAAAAAAAAAAAAAAAAAAAAAAAAAAAAAAAAAAAAAAAAAAAAAAAAAAAAAAAAAA1NfrtPt+kr1Oprii3R85nyj2ga/Xafb9JXqdTXFFuj5zPlHtfK7J2p1+579VajT8eludKaetqI/vTP5/scPV6rX9rt2ps2aZi3E/Qoz9G3T96X32zbRptm0cWLEZqnnXcmOdc/wDPgDpgAAAAAAAAAAAAAAAAAAAAAAAAAAAAAAAAAAAAAAAA+e7Vdop2axRbsU01aq7EzTxdKI85B9Cj8ss3e0e8zXcsXdZeiJxM0VzTTE/sgsb9vmzavu7169M0z9KzqM1RPz5x8Afqg0Nn3K1u2329XZ+jFXKqmf7tUdYb4AkzEdZAVo/pbbe87v0/S95nh4e+pznyxluvyGn+0cf7X/vg/XwABImJ6SAoICiRMT0nKgD5jtvuGq2/Qaa5o79Vmqq7iZp8Ywx7Dbhq9w0eqr1l+q9VRciKZq8IwD6kAAfn3bPdNfpN8m1ptZfs2+7pnhormIy+v2C7cv7Ho7t2uqu5XaiaqqpzMyDoq/J9XvO7fpC/ata/Vfa1U0003KvPlEQ9u+7VUfSn9Kxjzor/AIA/Ukfmmh7Y7tor3Bq5jUURP0qLlPDVHxj9+X3u07rpt30canTVculVM9aJ8pBvgAAAAAAAAAAAAAAAAAAAAAAAAAAAAAAAAAAAAAAAAAAAAAAAAAAAAAAAAAAAAAAA1ddrbO36O5qtRVw27cZnz9z8t37e9RvWq7y5mizR9naieVMfxfrF23Ret1W7tEV0VxiqmqMxMPzXtR2ar2q7Op00TXoq598258p9nlINzZe0207Po4s2dFqKq553Lk8Oa5+fT2On/wCUDRf6nqPnT/Fp9mdN2f3ix3V7Q0UauiPpU95XiuPOOf7Hf/0S2L/UI/7yv+IOZ/5QNF/qeo+dP8T/AMoGi/1PUfOn+Lqf6JbH/qEf95X/ABT/AES2L/UI/wC8r/iDqaPUU6vR2NTRE003rdNyInrETGWw8bFm3p7Fuzap4bdumKKac9IiMRD2AAAAAAAAAAAAAAAAAAAAAAAAAAAAAAAAAAAAAfnX8oVm5TvFm7VE93XYiKZ9sTOY/bHzforS3LbdLummnT6u3x0dYnpNM+cSD5rsdvu32tqtaC/dos3rdVXOucRXmZnr8cO5uexbdvNVu9qqJrminFNVFWMx8Hy2v7A36JmrQaqi5T4UXY4Z+ccp/Y4kXN57OaqLfFe01XXgmc0VfDpIP0vatq0u02a7OjiqmiurjmKqs88Y/c+U7Wdqb9rVV7ft1zu+75XbtPXPlHljzfQdn96jd9qnUzRFN61mm5THTMRnMeyX5hZ1PDrqNTeoi9MXIuVU1Tyr55xIOvZ7M75uFqNVVZmeKMxN65iqr5/vY6PeN37Pazub83OGmfp6e7OYmPZ5e+HX/wDKDf8A/wCn2/8AvJ/g4faDfZ3y7ZuV6aizXaiac01Z4on+HP5iv1DQay1r9Fa1Vic27tPFHs9j8pp/tHH+1/777X+T67VXsVyiqeVu/VFPuxE/nMviqf7Rx/tf++I/VtdrLWg0V3VX5xbtU8U+32PzTV7xvHaLW9xp6rnDVP0LFucREe3z98vqf5QbtVGyWrdM4i5fiKvbERM/nh8l2f36dirvV0aWi9XdiI4qqscMR4f8+QPW/wBmN8261Oqi1VHDGZmzczVT8ufydnsl2pv3dVRt+43O87zlau1dc+U+efNh/wCUG/8A/wBPt/8AeT/B8lc1EzratTapi1M3JuU0x0p55iPgK/Wt53O1tO3XNXdjixyoo+9VPSH5xd1m89pNZNuiq7emefdUTiimPy+Mu7/KLdq4dvtRypnjrmPby/jLd/k909FG0X78RHeXL00zPsiIxH7ZEfJ6raN52KI1NdFyxTmI7y1c5RPtmJfW9kO0lzcpq0esmJ1NFPFTXjHHHjn2vptRYtamxXZv0Rct1xiqmrpLS0uybZpL9N/T6O3bu0fVqpzmPAHwXa7Q6+zuN/U6iiqNLdvT3UzXExPwzyaW1bXuu4W7le2266qKZxVw3Yp5/GYfXfyi/wBWaT/Gn/LLH+Tn+gaz/Fj8hXf2Cxf02y6WxqomL9FMxXE1cU5zPi6SKI/M+3n9oav8Kn977js3/Z7Qf4NL4ft5/aGr/Cp/e+47N/2e0H+DSD80p/tHH+1/779efkNP9o4/2v8A336+DgdqNltbpt925Tbj0q1TNVuuI5zj+7L4/sVuFej323Zz/Nan+bqj2+E/P836TqK6bOnu3K5xTRRNU+6Ifk3Z6iq52g0FNPWL9FXwicz+QP18AAAAAAAAAAAAAAAAAAAAAAAAAAAAAAAAAAAAAAAAAAAAAAAAAAAAAAAAAAAAAAAB53bdF63Vbu0RXRXGKqaozEw9AH5t2h2HUbDqqdft9VcaeKs01UzztT5T7Pb8Pf8AU9me0VrebHdXeG3rKI+nR4VR96Hcu26L1uq3doiuiuMVU1RmJh83t/ZHTaDeatbTcrm1RPFZt9Jpn2z4x/zIPqAAAAAAAAAAAAAAAAAAAAAAAAAAAAAAAAAAAAAAAAHxnbLdd32rXWatHqO7012j1dM/SiefOY8sPsmrrtDp9w09Wn1VqLlurwnwnzifCQfOdnO1mnv6Lu901VNGqomc11xFMVx4dIx7HK7b7zotwpsafSVxem1VNVVyOkZjpE+Ld1X8n9qquZ0uvqop+7ct8WPjEw9dB2D01q5Fet1VeoiJzwUU8ET75zM/kDL+T3S3Le16i/ciYpvXMU58YiOvzn9j5LXaa9sHaCY4PsLsXLeelVOcw/WLNqixaptWqKaLdMYpppjERDR3fZdFvFmLeqonip+pcp5VU+6Qaek7S7LqdN3s6i1ZnH0rdyMVRPl7fg4Wv7c029VXRodHZu2I5RXciYmr248lufye1cc91uMcHhxWucftdPZ+x2i2+7Tfv1zqb1POnipxTTPnj+IOztVy9f261e1VmixduRxTbp/u56fHGH5dT/aOP9r/AN9+vPj47D43KNX+kel7veDuPbnGeIHU7X7fXuOx3KbVPFds1RdpiOs46x8pl8Z2Q3uxtOqu29XT/wBHvxGa8Z4Jjx93N+nvmd47HaHcbtd+xXVpr1XOrhjNMz54/gDY1vabZtLpqrtu/Zv14+jbtxmZn9zkbN2q1m67ja0lvbtNEVTmuqM/Rp8ZeVv+T6rjjvdxp4PHhtc5/a+p2jZdHs9ibeloniq+vcq51Ve+QcXt9t9eq2y1q7VPFVpapmqI+7PWfhMQ4nY3tDp9rpu6TWVTRZuVcdNzGYpq6Tn5Q/RZiKqZiqImJ5TE+L5Tc+w2j1N2q5or1WlmqczRw8VPw8ge289sNDpNJV6Beo1Gpq5URETNMe2Wr2X3/dt63GaLtNmNNbpmq5VTRMT7Iznz/KWvp/5PoiuJ1OvzR4xbt4mfjM/ufWbdt2l23TRp9JbiiiOc+M1T5zPiD57+UOiqraNNXETMU3+fszTLldit80O2WNTZ1l6bU11RVTVNMzE8vY+71ujs67S16fU0RXarjExL5K9/J9ZqrmbG4XLdPlXaiqfnEwD63Samzq9NRf09fHarjNNWJjPzbDR2rQ/o7bLGj7zvO6jHHw4zzz0bwPzPt5/aGr/Cp/e+47N/2e0H+DS5m/8AZL9MbhOr9N7nNEU8PdcXT28UO5tuk9B27T6Tj4+5oijixjOPYD8pquU2t/m5XOKKNVxVT5RFb9Eq7X7HTGfTs+yLVf8ABx9R2B7+/du/pPh7yuasdxnGZz95jT/J7GfpbnMx7LGP94Gp2l7XU67T16Pb6a6bVfK5crjE1R5RHk9uwmy3O/8A0pqKJpoiJixE/wB6Z5TV7scvi6239i9r0lyK70XNVXHSLk/R+UfvfSUxFMRFMRERyiI8AZAAAAAAAAAAAAAAAAAAAAAAAAAAAAAAAAAAAAAAAAAAAAAAAAAAAAAAAAAAAAAAAAAAAAAAAAAAAAAAAAAAAAAAAAAAAAAAAAAAAAAAAAAAAAAAAAAAAAAAAAAAAAAAAAAAAAAAAAAAAAAAAAAAAAAAAAAAAAAAAAAAAAAAAAAAAAAAAAAAAAAAAAAAAAAAAAAAAAAAAAAAAAAAAAAAAAAAAAAAAAAAAAAAAAAAAAAAAAAAAAAAAAAAAAAAAAAAAAAAAAAAAAAAAAAAAAAAAAAAAAAAAAAAAAAAAAAAAAAAAAAAAAAAAAAAAAAAAAAAAAAAAAAAAAAAAAAAAAAAAAAAAAAAAAAAAAAAAAAAAAAAAAAAAAAAAAAAAAAAAAAAAAAAAAAAAAAAAAAAAAAAAAAAAAAAAAAAAAAAAAAAAAAAAAAAAAAAAAAAAAAAAAAAAAAAAAAAAAAAAAAAAAivK3cjHDVOJh6AogCiAKIAogCiAKIAogCiAKIAogCiAKIAogCiAKIAogCiAKIAogCiAKIAogCiAKIAogCiAKIAogCiAKIAogCiAKIAogCiAKIAogCiAKIAogCiAKIAogCiAKIAogCiAKIAogCiAKIAogCiAKIAogCiAKIAogCiAKIAogCiAKIAogCiAKIADzuXIxw085kB5TEyx4fbL1wYRXlw+2Th9svXBgHlw+2Th9svXBgHlw+2Th9svXBgHlw+2Th9svXBgHlw+2Th9svXBgHlw+2Th9svXBgHlw+2Th9svXBgHlw+2Th9svXBgHlw+2Th9svXBgHlw+2Th9svXBgHlw+2Th9svXBgHlw+2Th9svXBgHlw+2Th9svXBgHlw+2Th9svXBgHlw+2Th9svXBgHlw+2Th9svXBgHlw+2Th9svXBgHlw+2Th9svXBgHlw+2Th9svXBgHlw+2Th9svXBgHlw+2Th9svXBgHlw+2Th9svXBgHlw+2Th9svXBgHlw+2Th9svXBgHlw+2Th9svXBgHlw+2Th9svXBgHlw+2Th9svXBgHlw+2Th9svXBgHlw+2Th9svXBgHlw+2Th9svXBgHlw+2Th9svXBgHlw+2Th9svXBgHlw+2Th9svXBgHlw+2Th9svXBgHlw+2Th9svXBgHlw+2Th9svXBgHlw+2Th9svXBgHlw+2Th9svXBgHlw+2Th9svXBgHlw+2Th9svXBgHlw+2Th9svXBgHlw+2Th9svXBgHlw+2Th9svXBgHlw+2Th9svXBgHlw+2Th9svXBgHlw+2Th9svXBgHlw+2Th9svXBgHlw+2Th9svXBgHlw+2Th9svXBgHlw+2Th9svXBgHlw+2Th9svXBgHlw+2Th9svXBgHlw+2Th9svXBgHlw+2Th9svXBgHlw+2Th9svXBgHlw+2Th9svXBgHlw+2Th9svXBgHlw+2Th9svXBgHlw+2Th9svXBgHlw+2Th9svXBgHlw+2Th9svXBgHlw+2Th9svXBgHlw+2Th9svXBgHlw+2Th9svXBgHlw+2Th9svXBgHlw+2Th9svXBgGERMDPACigiCgIKAgoCCgIKAgoCCgIKAgoCCgIKAgoCCgIKAgoCCgIKAgoCCgIKAgoCCgIKAgoCCgIKAgoCCgIKAgoCCgIKAgoCCgIKAgoCCgIKAgoCCgIKAgoCCgIKAgoCCgIKAgoCCgIKAgoCCgIKAgoCCgIKAgoCCgIKAgoCCgIKAgoCCgIKAgoCCgAAAAAAAAAAAAAAAAAAAAAAAAAAAAAAAAAAAAAAAAAAAAAAAAAAAAAAAAAAAAAAAAAAAAAAAAAAAAAAAAAAAAAAAAAAAAAAAAAAAAAAAAAAAAAAAAAAAAAAAAAAAAAAAAAAAAAAAAAAAAAAAICiGQUY5MgyGOTIMhjkyDIY5MgyGOTIMhjkyDIY5MgyGOTIMhjkyDIY5MgyGOTIMhjkyDIY5MgyGOTIMhjkyDIY5MgyGOTIMhjkyDIY5MgyGOTIMhjkyDIY5MgyGOTIMhjkyDIY5MgyGOTIMhjkyDIY5MgyGOTIMhjkyDIY5MgyGOTIMhjkyDIY5MgyGOTIMhjkyDIY5MgyGOTIMhjkyDIY5MgyGOTIMhjkyDIY5MgyGOTIMhjkyDIY5MgyGOTIMhjkyDIY5MgyGOTIMhjkyDIY5MgyGOTIMhjkyDIY5MgyGOTIMhjkyDIY5MgyEyAoAAAAAAAAAAAAAITJLCqrAE1YSIqq5xGI82Vq3x/Tq6eEPYHlTaietUr3VOcZqegK8+5j71R3MfeqZzTErjlgHn3NP3qjuafOp6RGEjOeoMO5p86juafOpnmckziOgMO5p86juafOp6ROYMwDz7mnzqO5p86nooPLuafOo7mnzqeoI8u5p86juafOp6Arz7mnzqO5p86noA8+5jzlItecy9QHl3dOcZqXuqfvS9EmInqgw7mn70nc0+dTPHLkRnxUYdzT51Hc0+dTLizPRcx5oMO5p86juafOp6GVHn3NPnUdzHnLPJOUHn3VPnJ3UeEy9MAPKbXtlYtU461PQFYd1T96U7qPOWeMJzz1Bj3UecndR5yzyojz7qPOTuo85eiAw7qPOTu485Zgrz7rn1nBNumPGp6oDDuo85O6jzllOfBc46hhh3UecndR5yzicqI8+6jzk7qPOWYKw7qPOUm3EeMs1wDzi3E+Mr3UecspjJziAY91HnJ3Uecs4nKiPPuo85O6jzl6APPuo85SbdMeNT1QGHdR5yd1T5yynPgsGVww7qPOTuo85egI8+6jzk7qPOXoKPKLcZxM1Mu5p86maRnPNBj3NPnUdzT51PQyo8+5p86juqfOpnzMIPObcR41LFqnzqejGeXQGPc0+dR3NPnU9IFHn3NPnUdzT51PRAefdRE85nC9zT51M8EZzzQYdzHnUdzT51PUUeXc0+dR3MedT0AefdU/eqO5jzqZ8OJyoPPuafOo7mnzqeqA8+5p86k7qnOM1PVMeIMO5jzqXuafOp6RORUefc0+dR3NPnU9AHn3MfeqTuY86nrgQefc0+dR3NPnU9DKjz7mPvVJ3NPnU9RB59zT51Hc0+dT0MqPLuKfvVHc0+dT1EHn3NPnUdzT51PQUefc0+dSdzHnU9cAPPuafOo7mPvVPTIDz7mnzqO5p86noZB59zH3qjuafOp6YAeU2I8KpYVUV0+2PY2Oog16assokvW/79HXxjzYU1ZB6KkKAAAAAAAAAAAioCTLymOOuKfOXpUwtfb+6BW1EYjECZ5ZIqiRFEzAKogqKAAACGIURWOOfUmJ81ATMxBEz4xhQE4o6ZXKYgmMgokxyIzEAokTOeZxRnBkUMplBROZgDKTGfBlhASYmfE6R5qGFInPUzkTHMRRjOc8lmcCqGUyCoczAE80mJnxwqgx6R5rE5VAFYxGDPPmDJAAABMECoJnPiphOefYChkUAAMJEz4qIETkTHPJnngFMCqCTGVATOI5yqHSAUSJyuQDKdVBjic9WUYExzyDISJiVEAygJM46LnK4YzmJ5AuFBQJ6JkwBTM9JVJjlyWOnMBRAEj6PiqTGYBepgjlGFBFQBMxTLLqkxlYAwBlUVMgAKgAABhUBUOoABkAMAAkzERmZxhjbuUXaIrt101Uz0qpnMSDPqAAAAAA1a44Lsx4TzhtNfUcq6J88oLTLJhSzgFAAAAAAAAAARUBhUxsfbz+qyqY2Pt5/VBsioBgmIlXH3PcL2l1NNu1FGJpzzj2yxe8UjMtUrN5xDr45YIjDm63W3LGitXaIp4q5jOY5c4y0I3jWTGYoomP1Z/i5316VnEuldG9ozD6D6WevJJnDlaPeqblcUaimKJnpVHR14dKalbxmssXpak4tCcXLosTlo7nq6tJbpqt8M1TViYnyxK7frPSbHHdmimrMxiE3K9XT+m3bp6vxu5gYU1W6pxTVTM+yVqxTGZmIj2t5ZwyHnx0zGYrjEdZyRcp4ZmKomI9pmFw9B50Xaa88NVM48pyy4oMwYlkPLv7cVcPHTnyy9OviZifRjCmUwuBEyYUBjNMSdI5KCpGfEirn0UAzAkxEk58JBRMzEEVZMiiZyYABQSYz1IjCgJnzMwJiM5BVYyZ5c+QMkImJ6AAggTESTMwoCRzVJjJziPMFEicqoAAk0xJM4VMoqmWMxM+OFjlHMQU6gACic8+xRMIMhM+BlRUAEnOOSx0VJjMAokTiOaiAZQUxETkicrhOnMGWBKZz71EBM+RgEzMSuMrhjGcznoDIDKgxq6xhecmAWJyJETEsgBAEmOeVyYSmMZBcCoCseUTlUmMwDLqYI6CoBkAMCggABgAAyYBOqp73A3DtD3Opqs2LUVRROKqpnGZ8Yj+KxGW9PTtqTisOpqtws6aeGqeKr7tPV46fXxqL9XDVMRw/RoqjnLgW9X6ZxXZ5VzP0o8pekV93VFfFFMxOYn2vkanyLzfD29rFa+fbtV1cVNVNyZqpqiYqiZ6xLV3LRVXNuo0+3zHBTVmqiKvrfH/n9jKu/TfuVTTVTMeERKRMxOYnEvHp/JtozatvMS5Vp5i0e4XRa+NJpbdjUTXXcozFUxzxz6Z9nR7aPXXoqv3NdVZs6easWa5riOKOft9jl3bdVvNdc000cWOOqqIj9rPWaG3umgsWtJrLFV3T5mqOPlifPD63xNS2rObeK8s/IrFKTakZmX0dFdNyiKqKoqpqjMTE5iYZQ5W0d3odDZ0tdfFNGc14xGZmZ/e6r011KXmeicvNGceVAbBr6r61v4tjq19V9a38UChnDChnAKAAAAAAAAAAioDCpjY+3n9VlUxsfbz+qK2YnKcUZwoBnD57ff6bH+HH5y+hxl89vnLW0/wCHH5y8/wAn6O/x/u2N0/qyx76fyl7bFH/QZ/Xl4bnGNr0/vp/KXjt+429Jp+7qprmeKZ5Q4dUV1c24dembaWI5Xe7FFq9broiImvOYj2f/AJdXbbk3NDamrnOMfLk4Wq1F3ctTTFFE+VNP730Omtej6ei1HPhjDejOdS1q+mdbxp1rb25G+WJi5Tf4uU4p4ce9jtWh72ab81xwxMxNOOvJtb5FVWlpnHKmqJn5S8dn1luimnTzFXHVVOJ8GbVpveW62ts+GnTnQblielFWPfTP/Bub5qeKm3Zpnr9Kf3Lvun+pepjp9Gr9zR0lFWs1lumucxERn3Q526qTOnH61XF4jVn8btWn7jYq8xiqvFU/OGnodLe1fFbor4bcYmrP7HZ3b+rLvw/OHJ2zW06SquK4maK/GPCV1KxXUrW3rCadrW07Wj3l537N7btTTivn1iqPFubnr6qrFmm1PD3lPFVj8mpuGq9Nv093TPDHKmJ6y9Ny0ldmzYrmMxFEUVeyWczEWinpvETNJv7eUaSibHHOptxXjPDmPl1buzauuqqqxXVMxEZpmfD2NWm5oI08TVZqm5Ec6eKcTLd2im1cuVXaNP3cUxji45nLWlH9x0yxqTPTPVDrRyMzlR9B4iaohUSYiRFE6RySOLxMqyGOV5QBkUBMGFATHNJznkyASZxHMicgArGMxPsOLmChkARcCCYIiY69FATMZwphjPFnl0BkJlVAADCRmFTKKZgycPNOcSC4UyCACiYxHIicqIAkZ8VyAIoJjJnE+xQBWM5ifYqiiAE80jlCkxkCIVM4UATIBM46FPOMyqTMx0BkJE5hRBJ6HVcAxjPSWWEqjyWAATKhPQiZME5zyQXACisaonHJQEieS4SMxLIEABMYlkxnoyjoAqCoAAYA9wB1MAAAPDUX6LUYqzMz4Q+L3DS3bF65XFuqbU1TNMxz+Db3LddRVrrvdVxFumeGnEROYjxy8r+vjU6OqLkxbuUTFUxHSqPY8U62rXVzH1a0PlxpzMU9tbS97aiqrhpiap50y2NNT6XXFznVVnEUR4MNPHpVdNFj6dVU4iIfVbbttjb7WLdOblX1q56z/wAHr+T8bTnFq+Jlwp8n5GraeufDl2Np1szFcRTbmOccVX8G9OivxTEzwzPjFMuqPLf4WnePL0VvNfT8+36bsbjVbuxVTTREcETGOXn8/wAmjYvV6e9Tdtziqmcw/Q9dt+n3CxNvUURMT0qjrTPnEvk7uwXNJNyq9cpriic0xTH1oz1l6c6WlpRS3r0+pp/M09mYtHmI/wDroXNys0TViK6seMQ2tk3WrVV1Wr1cVTPOiYjHvj/n2uHFfnDw0t70XVzXp5n6FUTz6Z8YctHR0dGs2rL4/wAXVvr2mlq/8foJ1edq5TdtUXLc5pqiJifY9HoUa+q+tb+LYa+q+tb+IFDOGFDOEFAAAAAAAAAARUBhUxsfbz+qyqY2Pt5/VFbIkzMScURHMFxPm1b+hsamuK7tHFVEYzmYbOYkiqJZmInxKxMx5h4XdHYvWqbVyjNFPSMy8P0To/Vfin+LfEnTpPuCL2j1Lxs6a1YjFu3TTnyh7A1ERHiEmZn2xroprpmmqImJ6xLWt7dpbV2LlFvFcc4nMtpUmsT5mCLTHiJcre71NGni3GOKuf2Qmx6fhs1XZjnXOI90NnU7da1VzvLlVecYiIltWrdNq3FFMYppjEOMaczqdcu25EafRDT3aJjb7mZ8vzhobPYt6i1dou0RVTmPg7Gps0aixVbrzw1dcPLSaS3o4qiiap4uuZS2lNtWLfi11IjTmv6mn0On09fHRb+l5zOcNmuKK6JpriJiesSpjPV2isRGIhxm0zOZaf6K0k1cXd/DinDbt26LdEU0UxTTHSIXCRGPEikV9Qs2mfcrkTnlZmYaQXCZ5LE5AAEEmInqoCY5ciM+KoKkSokwDIYzM+BnlzMmFMpHNQDAIJjxJ5KAkTy58lExgFEiZ8VAAyokxE9SYxHIz5CKZOpgxjoC4EifNRAAEmDOOqoKok8uhkFMooidSIwoKkTlUx5ET5iKCKKk5yogKxxzysSoomQCeaZ54lQFEieeFEBFwKxmZyywJTPPAMgTIisecTy5rgmOXIDCpTnpKqAkydQKZnM5VJ5dFjnACiZBKsxGYInkqUznILgVAEpmeeVSJxVgGXUBUVAAFQFTJ1AMPHVXO40t279yiavlD2a+tiKtHfpmMxNurl8EmcQk+nwfeW58f2PGaap1kT/dinMOhXodPmaomuI8olsaK1Zqoqs1URNPWM/xfN1NaK1mYc/hadq60Wv6bPZXTW/Sr9+IiJppimPLn/8Aj9r6hzdntW7NFdNuiKY5dPF03s+Pfr04s9evMTqTMADu4jT19uK7fFMZxyn3Nvq5u+an0Xbq6qZiK6pimn3/AP4iXD5Gnuac1OqK+Zc2rbLFVUzE10x5RLj6vTTpL9dM08NFUzNM+EvSNz1cTnvc/wDZhnY186uue95V+ER0x7HytPS1qebTmGtH5mlp2/mPMvq9s/q7Tf4VP5Q2njo/6JY/w6fye77VfUJM5nJ1a+q+vb+P7mw19V9e38f3KhQzhhQzgFAAAAAAAAAARUBhUxsfbz+qyqY2Pt5/VFbIZMwAYTLibz2m0uy6mjT6i1erqro44m3EYxmY8Z9gO3NMTOSacw1tu11ncdFb1OnnNu5GefWJ8Yn2uVuPanSbfuc6G9Zv1XI4fpUxGOce/wBqDvRGEjPiuDAqcXPoTVhXG3btLodo1VOn1dN6a6qIrjgpiYxMzHn7BHYicr18WnrL16dru39HRx3ptTXapmOs4zD57shr951esv0bjTcqsRRmK7lvhxVnpHKPb8hX1uIExOepOfMFEzyInPgCiZhRBFAQiHy269rLug3urb6dJRXTFVEcc1zE/SiJ6Y9r6kVMTkmZh56nU2dJYqvai5Tbt085qqnlD5u92722i5NNuzqLtMf3opiIn5yD6nJlydp7Qbfu/wBCxdmm7EZm1cjFX/H4OriIgFyJETHiZ59EDCmYAAcjtJvVeyaO1fos03prucGJqxjlM/uUdfCRmJ9jn7DuVW7bXb1lVuLc1zVHDE5xicOiCZ5qJMZ6IKJMzEeZkFEyArFcKKxzOea8lSYyCiZmCJyCgCIkZyyBUyrHEGZzjAKZMAGCYyoCZx1VJjKdIBkJk6iKnuXACR7VJSPaCggKmOeVAIVj0XKioGARY5hM4BQicwZEEmcdBRUpzMc2TGZxLIQBOoJVM5jC9TBE5mQUBQSKs59hzlM4nHmgyBVBjmInCpMeMguTBCghMxHMSecAyyEdBUAAMmBQQDqAkxExMTziVAfIXLNdN2u1jNVMzTOHpprFVmJ44xVPh5O3rbfDc446Vfm1ZpirrES/O/J1bUvNJh6tGsR/Tn2d29E3Ki3P2X1bk+Wek/D+L6mJ4ozD8/1dM06y9Exj6c/m6u2b3c0tum3eibluI5Y+tT/F9f4f06Yej5HxuqIvR9YNGzuuiu05i/RT7K54Z/ayq3DRxTNUam1VEdeGqKp/Y9mJfNtHR9vDbfKdo9fRf1NOmor+jan6WJ5TV/w/fLd3Dd5u267Wm4qImMTc6T8HyldFVuuaao5pqUtFfL53yPkxMdNWxER55eP0rVyKo8JzEsYud3zmeTq7JYjcNdTTETVat/TrmY5eyPj/ABeaKznDzUibzGH1+lomjTWqaoxNNERMfB7A9ERiMPtGWvqvrW/i2GvqvrW/iBQzhhQzgFAAAAAAAAAARUBhUwsxm9PuZ1MbH28/qiveYnwXnjoogkZ8Yfnn8oc53nT/AOzx/mqfoj87/lD/AK60/wDs8f5qlgTsnutzZtynQa3NFm/Mdf7lUxyn3TGP2PHtb/bCv32/yh2O02y+mbLp9fp6M37FmnjiP79GP3fxfH1au9rdfYu36uKuJoomrziMRGQfoXazf6tn09u3p4pnU3s8M1RmKIjxfN6Lce1dVr0+131+xHOeKmJpqj2R1+TP+UO1XTummuznu6rPDHviqc/nD6XaN5239C2LvpNq1TatU010VVRE0zEdMA+a2LtFuWv7RWLVzU1dxduVT3WIxEYmYjOHK7URr43m5+kOLi591nH2fFPD0+L27PXKb3bCxdtRw0V3q6qY8omJw3P5QYn9OWZmOU6en/NUDr7LXvljadxu7jVXTTRpuLTzPDyxTM8sfDq8+xO76/cdbqaNZqar1NFuJpiYjlOfY7F3VWNR2Z1HcXrdyY0dWYpqicfQnq+Z/k7/AKw1f+FH5g9d97U669uVWg2fNPDXwcdNPFVXV449jTubx2m2S9br183Jor6U3Yiqmr2Zjp82p2cvW9r7T0enzFHBVXbqrq/u1YmMz/z4voe3e46O7tdvTW71u7equRXEUVRPDERPMG/uG9Tf7I3dz0Nc2rnDTjxmieKImPzfNbZvnaPcLV3TaKar97MVTcmKc0R5c+UNjR2rlv8Ak61tVecXLvFRny4qI/OJbn8nUR6JrZxzm5TH7JBzNH2l3fat0ixutVVdEVRF2i5TGaYnxiYfR9rN/q2jTW6NNidTezNMzzimPN812+iI3+nHjYp/OWfby1XGt0V2c8FWmimPfEzn84BNFuPaqq16fa76/YjnPFTE01R7uvyemxdoty13aKxbuamruLtyqe6xGIjEzEZw+m2nett/Qunuek2bVNq1TTVRNURNMxGMYfFdnrlF7thYu244aK71dVMeUTE4B69qOfbKv9e1/lpfpT817Uf2zr/Xtf5aX6TMZSVfAdvtbcvbnb0NMz3dqmKppjxqn/hh3du7H7ZY0dNGqsd/fmn6ddVUxz9mJ5Pnu3ekuafeqNXETwXqIxV/1qeWPyfV7f2k23V6Oi9Xq7NmvH07dyuKZifHr1UcSvsVf0+4+k7drabVNFUVW4riZqp9mfF0u1O/V7PpLVuzFM6q9HKZ5xREdZ/g1b/bezGtnT6PR16qJqimiuK+Hjn2Rhyv5Qbdz9JaW9XGKa7HDjOYiYmZn84Bhotw7V1WvT7XfX7Ec54qYmmqPZHX5PTYu0O5a/tHYtXNTV3F25VPdcsRGJmIzh9NtO9bb+hbF30mzaptWqaaqJqiJpmIxjD4rs9covdsLFy3HDRXerqpjyiYnAjpdpN93DQ9or1mzqa6bFE0TwREdOGJnwbmwb3ue5bxVd1NNdrQ93VVTTFGKIx7cc3F7V0xX2wu0VRmKqrcTH/Zpff7lZqubTq7FmMVVWK6KIjz4ZiBXw+r7Tbvuu49ztc126JmYt27cRxTHnMtTfddu9Wjt6DeLUxXTX3lFyqIiZjExjlynq9exGt02j3a5Gqrpt97b4KK6pxETmJxnwy6Xb3cNHfs6bTWLtF27TXNdU0TE8MY6Z9v7gdnsR/Zqx+tX/ml33z/AGJz/o3Yx96v/NLvZ54lJGWUyQqKhhQGMRjxWJVAUY4mJ5LkFEURDHkGRUiZ8VydWMU4BlkSJZAmAATnlciTHPIMkTi54UDJ1MKDGeXRlEoTmOgKJk6gZJjKgJHLqqTGSOQihkBDop1AVM88CipIYBMssJJE5BQTIhJFWTBmIn3irhQEGMziY9q5SY8ZBepgjoqgk46yqTzjALnkJEMgQmMwqAQZSI6qBgmOSoBTGIVjRnmyAAVAOoBhRMgHUAYXLdNyiaaukuZct1W6ppq//LqvK9ZpvUTTPLlymOsPD8v4sa8Zj3Dpp36ZfHbtTTdvzcsRmYjFXt9zmzqJtUzxx05O/qttvaWZmY47cf36f3+TjbvH8zROIxxOXx5to2ij69dSu3/PloV3rl2ZzVOPKOjGzeu2Z/m65j2eE/BnT9SPc8JjE4foq+nyfkT1/Z3NJqY1NrixiqOVUPS7TRVRM3IiYiM+5z9o4u8ufdxGff8A85di1ob+tt1UWqeUxMcdXKmGpmMf0+Bq6WNSa1cOmzXqtRTbs0TVXXOKaIfd7RttG26Om1GJuTzrqjxn+DHatnsbZRM0/wA5eqjFVyY5+6PKHSeLUtWfFY8PofH0NuM29qA5vUrW1X1rfxbDX1X17fx/cgUM4YUM4BQAAAAAAAAAEVAYVMbM4vTn7rKphZx3058hW1ExIx9yREx4oM3znaHsv+nNbb1HpnccFuKOHuuLPOZz1jzfQTEzPVZyZXDzsWu501uzM8XBRFOcdcRh8rf7DWq9wq1FjWdzbmvji13WeH2Zy+tjOOZGfGDI0t32rTbvo50+picROaa6etM+cPm7HYC1Tfiq/rqrlqJ+rTb4Zn45l9lmM4MxBkfL7f2Qp0G8Ua+3rM00V1VU2u6xiJzyzxeGXR33YNNvVujvqqrd23nhuU+XlMeLsID5zaeyv6M02vsxrO89Ltd3nuscHKYz159Xp2d7M/oPUXrvpff95RFOO74cc8+cvoAR8/vnZTSbvdm/TXVp9RPWumMxV74c3R9gbNu9FWr1lV6iJ+pRRw5985l9kgrnbltdOu2a5t1uqLFFVNNNMxTmKYiYnpy8mv2c2P8AQdm/b9I7/vaoqzwcOMfGXZAfN7/2W/Te4U6r0zuMW4o4e64ukzzzmPN1Ny2nS7poKdJqczwxHDXTymmcdYdBMA+OsdgLVN+Kr+uquWon6tNvhmfjmW1t/Y+jQbxRr7eszTRXVVTZ7rGInPLPF4ZfTzHtOeDJh81ufZP9I7zVuHpvd5mme77rP1YiOufY+mSJMxINbX6HTbjpatPqrcXLdXzifOJ8JfLX/wCT+3VczY3Cqijyrt8Ux8YmH2ZkHC2Xstodpuxfiar+ojpXX0p90eDe3badNu2knT6mJxnNNVPWmfOG8A+Ns9gbVGoiq/rqrlqJ+rTb4Zn45ltaDshRoN3o19Gsjgorqqps91jETnlni8MvqMGIkzI+Z3Psp+kN5q3H03u8zTPd91n6sRHXPsfTczHLkRlFfL7t2K0+u1NWo02onTVVzmung4qZnzjnGHhV2D0/okW6dZVF/iiqq7NvMYxPKIzy+b6+KoVco52ybZ+idtt6Pvu+4JmePh4c5nPTMugogkxnoc4jzVBSJyqYSMxIMhIqiQFSYyZASeXQ4uS4SYyCmE6QsTkAABIz4qmQUymPaRiQMqAGEziVABjmcssAAoMZjyZDGY55BkJkwBlJpyyASFTHPK5EBFwCSRzVOUAqoKCTMQpMQAqROVASYjxXKdQXIlMYlkIATIJBlMc2QJhQUSmMTKsZzxRhkAYFBjGYyyYzOKoXqBkwAFOcc1Y01ZiWQGTAKgAAACoZAHz/AGu1ly1t9G36Tnqtwr7i3HlTP1p92Jx7M58H0DWu6LTXdZZ1Vy1TVqLMTFu540xMYn8wfHbV2lt7Ntl7bdXRe1er0N25aim3EzminpVMz0p6x44iI5OjqNfs1/ZtLrd2txovS4maKJzNWfOOGOcdJzjxjzbXaLa7+42LWk0tui3Y1Oopq1tynFNVVFPw5zyjn7I8M45+/a2xtnajZp1FMafQaWzcmmuKZmnM0zTwxER4Yp+aTET7WJmPTDSbfsO5RTToN1mblUzFNFVURVOOv0ZiJL2y7JprldGu3eii7RGaqOOiiqOWek5no8rt7Z907V7JVtk2ap4rty7Vat8EzMUxNPFyiesT1ae5aa3ot93aaNXs81XK6a5jXUVVXLUzHF9GJpmJ6+GfDo6bluSZmXX0eo2DSbRqNdoePXW9PMd5GM18+UZpnHL248JeG8b3eu6+jSUa+1tm23dNGoo1UUzNd2mY6U+U+zry9uGHZS7TuNe67feqsX7VdumKtRp9PFqKommYmmcRHTM4zHhLOzsGt3Ds1obGrtxY1233Zi3VfxXTVRFXTEZzGMRjx4Y8JZmZn2zERHmE7I2Zp3nU3tsp1le13bX072qxHe3Yqn6VM4zPj85z4Q+0BFMgoI19V9a38Wy1tV9a38QKGcMKGcIKAAAAAAAAAAioDCpjZ+2n9VlUxs/bT+qK2BOLn0JnHgiqJE8jMSCiZURDCgqY5YSIwoCc8+wmcKIGeRnInJRRjjE8icoMhjMyvhzBUyclBDh5qCsZifBZnEKAkSqYIjAKMYmc4wuYEUAESYnOYZAqTODqJPTkDJEjPiRzBcmTACYOefYoArGY5mcAoACe4yARPmEwRyBcB1AEWUyBFWZXLHBTOfBBVwCgkZiVABjGWWAMmBRGMRiWSEcusiqIYEEiMMkqjIqgKgkxkXCB1EiMSyUEDIJHKVSYzhkBgARJjmyYzz6LTHLmB1IhQGNUc4ZJVOISJmYBllOq4FGM8qoZsZnC5AABJn6UQyYzjihQDIAU81Sn2KQioChgVADqAAAAAHUAGtb0WlsX679rTWbd2v61yi3EVVe+Y5yx1G26HV195qtFp79yIxxXLVNU48szDbwAwt0U26Iot0000xGIppjEQzAAVAVDJgBr6r61v4thr6r61v4oFDOGFDOAUAAAAAAAAABFQGFTGz9tP6rKphZ+2n3CtlDMCKNfU3+6+jR9afHybHNz72ar1cz5rEI8apqrnNUzM+1OF6YMNI8+E4XpgwDz4ThemDAPPhOF6YMA8+E4XpgwDz4ThemDAPPhTheuE4QecU9V4WcQYBhwnCzwYB58K8LPBgGHCYemDhB54MPTBgHlwrh6cJwg8uEw9MGAYcKcL1wmAefCcL04VwDy4VxL0wcIM7GoromIrmaqfb4N9zOFvWOdmnLNoah65RcDKsZz4LHQJBRInEc1yBKEoBnCxOXIvbxNu7Xb7iJ4apjPF1/Yxje6o/8AQR/8X/Bx36ROMuuzeYzh2cBFWYiR2chIXPJx6dxvzr+6zTwd5NPTwy531IpjP61Sk2zh2InC5cjc9bd02opotzTiac849sunYqmuzRVV1mmJkrqRa01j8LUmIi3LNcA6Mk9CM+Ixq9gM0SJyoCTGVAWBj0llkAQ5AkROfYySYyogCZUJXKYKeUIKKKJPQp6cyUjMyC5FASenJaegkTzmAZJk6qIk8oyR0WeiRPIFEyYUJWOhMcgFQASfrLhMc8sgQEqzMcgWmMLgiMQCKgdVDIAAAAdQAAADIB1ABUADqYUEUQFa2q+tb+LYa+q+tb+IFDOGFDOEFAAAAAAAAAARUBhUws/bT7mdTCz9tPuFe80xM5JjlyUZU54aNf2lXvlvNG59pV75aqkscArSICggoCCgIYVJnkByTkwqrinq09TuFFiJ5xHvBvpmHzep3y5NXDZriI8ascnPvbre/wBZuVT7JwD7LjpjPNhVqLNNcU1XKYmfDL4e5uepucqr1cx73hN+uf70/NR91f3DTWM95dpifLLWp3vRVTMccxMecPiKqpnnnLDikH3Fe+6OLU10V5mP7sxiZY0doNLVVTFVNcTPXHOIfFcc4IuzE5yD9Hs6m1e5266aseUvaJiX55pNbdsXYrormJh9Xtu9WdRREXaooufmg7IxpqiY5TlkAACYFAEwoCKAAAJht2ZmLVLVbVif5qlLelh6jGYmfHCsNEyigJjPU+qoB1EzgzyB83XXTb3KuuuM003Zmfm62n1um1F6LdFueKfOmHL4Kbm6TTVGaZuzEx8XataKxZuRXbtxTVHi8OhFpmcesvXrTWIjPvDl7xcro1kRTXVTHBHKJx4y61MzOkic8+D9zk73TMauirHKaP3tr9JWfQvrfT4McOOecLF4re2ZSazalcQ1dnuV1ayYqrqmOCeUy8qP63/99P5stm/pk/qT+5jR/W//AL6fzconNa/9dpjF7f8AHpvf9Mj9SPzl2NNn0a1+rH5ONvX9Mj9SPzl2tN/RrX6sfk76X/rZ59T/AM6udvdyuibPDVVTniziceTVtWtbqbFNVNc8FPKImrGXvv3Wz/2v3N7bMegW/d+9Jr16tomWot0aUTEOdteru06mLNyqaqasx9LwlNy1l25qZs2apimmeHFPWqXnpv62j/Eq/ewv50+51V1RnFzi98Zy49dujGf126a7mcfj0rs63S2qq5qngmMVRFWcNjZLlddy9xV1Vco6zl6a7cdPc0lVFuriqrjGMdHhsf2l79WGoxXUiKzmGJmbaczaMS1LF3UVXYptV1zVVyjmzvU6vR1U113KomelUVZXaf6fR7p/Jv79/R7f6/7ma1zpzfPpq1sakUx7avFrdxp46J4aKeWInETLHb9Xesaqm1dqqmmqrhmmqc4l0dm/oFPvn83Lu/1v/wC9j825iaxW+fMsxMWm1MeIbm7a65Tc7izMxOPpTHX3NWvSayxa76bk8uc4rnMJu1vg11VUxPDXETHywXLOgotRXF+5VM/3Yxlm8za9s/n+rWIrSuP3/HT2rWVamzVTc+vR1nzhvRM5w5mzW7WLly13mJxH08fudSeT2aMzNIy8mpERecKA7OYkZ4vYrGZwgyDCqImebJJmIBRDABTjMqRjMgoIIT0IgmOREYBQTKhMZXwY4maoZAYUQEpzzyuUjMqBhJzjkyY5+lgGUdDIKgGTAAAAAAAAAAAKmQwACgCGQDJgAw19V9a38Wy1tV9a38UChnDChnAKAAAAAAAAAAioDCphaz3048mdTC19tPuRXvGccyJ8zJn2I0TVEThpXPtKvfLdaNz7Sr3y1VmUAaRUABUAUAEl53K4p+T0mXN3K7NFmvE4kHM3Ddao4ot8vCJy+f1OquXKudXJ66y5M19eUtGqYwBNyqeWZYzMsYnMrVMZwBnBNWI6sZ6ZY9MTlR6ccwy4ol4TKxUD1MMIqM5BnHJlF2aZ69GEZY1RIPp9o32bdNNm/OYzyqy+msXqb1uK6Z5TD8zprmmY5vpNj3aaZizXVmZnlmfAH1w87VyLlOWaCgAAAIoAAA2rH2VLVbVj7KlLLD0SYyqZYaM4VJ5p0QZZRRRME8lEGjG2Wo1PpEV18XFxYzGM/JvQmcSuUrWK+lmZn28NTprept8F2nOOk+MNa3tFi3VmZqr8uKW+M2062nMw1F7VjES0tNt1rTXeOiquZxjnMEbXajUd9xV8XFxYzGM/JukZ8SNOvrCddveWnqtutamuK66q4mIx9GYbdumKKKaI6UxhkNRWInMJNpmMS1dZorer4O8qqjgzjheumsxYs026ZmYp6ZeqTM+B0xE9X6dUzGGnRtlq3qO/iuvi4pqxmMfk9NVobOqiOKJiqOlUdWzCpt1xjC9Vs5y51vZ7FFNUTNVUzGMzPR66Xb7ekqqmiqueKMTxS3IJSNKkeYgnUvPiZaOm2y1prsXaK65mPCZj+D21mjo1dFNFyaoiJz9F7xPEuVilYjGPCTe2c58vHTaanTWYtUTMxHPm1q9sszqO/wCKvi4uLGYxn5N/ATSsxjBFrROcvHUaW3qLfDcpzHhPjDSp2SxFWZruTHlmHSp5si2nS05mFjUtXxEsbdui1RFFumKaY6RCyqZb9MkTmAjnCiBIAROYEjpyVQykxnGVSYzMAyBMiKkdZCmOcirhQESrnBHKCqeXIjnHMDquAUSfrQyYxPVQMpPKMqTjoBHRU6AGUp5816EcugKdQVADAHUADIAAAGAAAwAKIAZAAVAUEBWtqvrW/i2MtfVfWt/EChnDChnCCgAAAAAAAAAIqAwqYWpxen3M6mFr7afciw94mCJiTBhGlaFz7Wv3y3ZjnnLSufaVe+WqpKANMgAKACCoCV/VcjdKJqt1eMxOXYlq6uz3lE8ukA+E1sTF2c+bSuVc3W3azFFyYxw1R1iXJ4ZmQeeebKKap5tmzpZqxLfsaOInnDM2w3FJlyZt1eR3VXk+gp0dvyWdHR4RDO46bT57up8mM0Ydq/pKoicRGHhGjnrK9bM6cuZFEx1HTq0XlDxu7fVEZpIvCdEtLMwyieLlKVUVW5xVCRV9JtiVmllZuzbriYzEwT0YdJyI++2XX0avS0RHKqmMVQ6sPgdk1s6PWU1zzpnlMPu7NU126asYzAPQACQAAAAAGzZ+yp5tZs2YzapZt6WHrgTPgrLQioBnnzVCOqKuUUVEwQldVNFFVdU4ppjMzPhDkaftRtGp1FuxZ1WblyqKaYm3VGZ98wDshHRAVJnHMMIpnMBE88KqAAFM5VjnEqCooCR1wqTy5tfcNRVpNv1Got25uVWrc1RR5zEA2kfLdle0Ws3jV3rGqtW4poo44rt0zERzxief/OH1IiZiJwqYiJyyFTCgqJGI5Kni0Ny3fRbVFuddem33ueHFM1ZxjPSPbCDoJ1h46TU2dZpreosVcVq5GaasYzHxc6ntNtNer9Ft6ma7018EU0W6pzPsmIUdemMQySnoArGrrCpPLAKoAJTnMrM4hKZyIuTquAEmcTEKk4yZBUmeQTjooRHiySOgAnKZ5eCpTTjIKGQEn6XJlEYSI55lQAwKgGQAADIYAAMACoCoZADAoIqGQDJgAMKAjX1X1rfxbLW1X1rfxAoZwwoZwgoAAAAAAAAACKgMKmFr7afczqYWozen3IsPfmczCRmPFGlw0bn2lXvlu5nPRpXPtK/fLVUlAGmRUAMgAAAktLcdVGl09Vc+XWW6+e7VVzTatUxPKqZzAPndZfr1N6a7kzMz4eTDT2uK57mEzzbehpmasyk+mqxmW7btRERye9EYSIZxDzy9cQyhlgphlhGnnVRlJt+x7YQHjwR5MKqInwbOGFUcgcvVaaKomMQ5F21Nq5iYfS1U56tDW2ImnOMulbYcdSmXImccmOMs7lExUxdnmelmcTyfom2XYu6CzXE5zTGX51ZpzXETPi/RdtsxY0VmiPCmOfmDbAAAARQAQBW1Z+ypajbsfZUpZYZ9TOZVHNsVM5VUEACJzAkzhUVwu2Ov9D2K5RTOLmonuo909f2fm/Pq9JqNJo9Jr/q03qqu7mPCaZj/AJ+Dt9u9d6Ru9Olpn6GmpxP6085/Zh57pvmg1mwWNus6a7RXY4eCurGMxyn55luGZfe7bq6dft+n1VPS7RFUx5T4x83yOr7Ya7R71fsV0W69PZvVUcMU/SmImYjnltdgNd3mjv6GqfpWquOj9Wev7fzcS3RTc7dzTXETE62qcT+tKYG3qO12+WLtNy7pKLNqqfo012qoiY989X01je41vZu/uWnpim5btVzNFXPhrpjOPyePbaimrs5emqImaa6JpnyniiP3uL2Ziaux+8Uxz5XOX/YB0uye/azd7+pp1fd4t0xNPBTjrK9rd+1mz3dNTpO7xdpqmrjpz0w5H8n1yiNfqrdVURVXbiaY88Tz/M/lBu0Va3SW6aomui3VNUeWZ5fkfp+Ozuu+azSdmdFuFru+/vcHFmnMc6ZmeXwcWrtxrI0NFNNq1OqmZ4q5p+jTHhERnq2O0H9hNs99r/JLd7C6PT/oerUVWqKrtdyYmqqmJnEY5A9e0Hab9Faexbs0U3NXdtxXPF9WiPOXH0nbDdrWL+s0sXNLVy46bc04909Gh2wiae1N3vonusW8R/1eGM/vfe6u5ov0Ndrrqtzo5sz+rNOOWAfP9lu0mv3bdJ02qi13cW5q+hTicxMe32tTV9sNdo97v2K6Ldens3qqOGmn6UxEzEc8tLsF/X8/4NX5w87dFNzt3VTXETT6bVyn9aVG5qe12+WLlNy9pKLNqqfo012qoiY989X0+l3qNf2dvbjp6YouW7VczRPPhrpjOPyeHbaimrs3eqmImaK6JpnyniiP3uP2U/sju8ey5/8ALQbnY7e9Tumq1Fq/bsUU0URVHdUcOZz4vDf+2N7T62vSbbRRM26uGq5VGc1eUQ1P5PP6w1f+FH5ub2YqtW+09n07EVRVVGa+kV4nH7f2qOlX2x3XT6au3q9LFu/VibVdVuaYnnzzE9eXk6+xb7rNfsO4a2/3fe6eK+DhpxHKnMZ+K9vKrH6Eim5NPezcjuo8c+P7HM7Kf2R3j3XP/loPDSdtdzuTctzpqL96qMWqbdE9fOYicz7ls9s900urijcdNTwZ+nRwTRXEezP70/k8opq3PU1zETVTZxE+WZh7fyiUUxqdDXERxTRXEz5xExj85Ufa2blF63Ret1cVFdMVUz5xPR8f/KP9Tb/fc/3X0fZ6ZnYtB/gU/k+c/lH+pt/vuf7qQS09Zv8A6H2W0W36Wv8A6RdtfzlUT9SnM8vfLr9juz/oFiNfqqP+k3KfoUzH2dP8ZfJ6rar2g0Gg3Wzmq1diKpmYzwVxPj7OT9A7P7za3nQRdjFN6jldo8p8/dKyON2p7Sa/adyo0+mi1wVWornjpzOczHn7H1MXKp0UXeXF3fF8cZfAfygRP6cszMcp09OP/iqfb06mz+go1PeU916PxcWeWOFB8/2W7Sa/dtzq0+qi13cWpr+hTicxMe32tPWdsNdo961Fiui1Xp7N6qjhinFUxEzEc8tPsB/X1f8AgVfnS8bdFN3t5VTXTFVM66rlP60qjcvdst7s3abl3S27duqc00V2qoiY9+W5qu2l/U2rVG06Oqu/NPFc4qZr4PZER197q9t6Kauzl6qqImaK6JpnyniiP3tD+TyimNu1Vzhjjm7FMz7IiP4yDW2btlqa9dRptzt0cNdXBx00zTNE9OcO/wBot+t7Jo6Kooi5fu5i3RM8uXWZ9j4ztvRTb7R3KqIimaqKKpx546/sbX8ocVxu2mmfs+4+j7+Kc/uBlpu2G95nUV6Wi9pqZ+nw2piIj9bw+LZ2ftZrtw3+1pZi1Gmu3KoiOD6XDiZjnnq+l2e5pZ2LS1WZojTxZji6Yjlzz+3L4Hs93U9sLE2PspvV8H6uJx+wHc37tTrtt367pLXddxRNGc0ZnExEz4+1s7F2ov7vv1Wnpt0W9LFFVVMYzVOPOXzvay3Fztdet1dKqrcT8aaX6Pp9Lp9NbposWbdummMRFNMQD3TGZVjTE5kGQAJVGYwJETM82QCVdOS5SImZzPQFjooZVA6mAAMgAqZAOphQQAAABUAAwAYFQFAAAAa2q+tb+LZa2q+tb+IFDOGFDOEFAAAAAAAAAARUBhUwtfbT7mdTC19tPuRYe6YJnHgZRow0q/tKvfLey0bn2lXvlqqSxVBplQAAAAQFfM9rY52J/Wj8n0r5/tXbmdLbux/dqwD5SOrf0XsaEOjt9OYZt6bp7dCl6RDGiHpDhL1QyphkUU5ek0xCKwMMuFYiBcvOYYVQ95inxl518PmYTLwqh43aYmOb1ruUR/ej5sJmJjMc4UzlxNZa4KplpzV5Ozr7XHamYjnDiTHN3pOYeXUriXtp4zcjHXOH6VYjhs0U+VMPz7Z9POp3C1a8JnM/B+h09IalzZwIoAAAIAL4ADasfZUtVtWPsoS3pYeiAw0SdVTPPCKCioiZ646qZxKK+P0HZTV/pv07c7mmvW5rquVUUzNXFM5xymOmX0s7Vt0xMTodNif/AO1T/Bti5R8jsnZjcNp3mnVU3tPVp81UzTxVcU0T08OvQt9l9bR2n/SU3dP3M6iq7wxVVxYmZnyxn4vr0nHUyYcztBt93dNpu6SxNFNyuaZia5mI5TE+ES1uzGzX9o0F/T6uq1cm7XxfzczMYxEc8xDuKD4bWdh9VRq5ubbqrdNvOae8qmmqj4xE5TVdhtZVRbm1q7Vy9OZu1XZqjn4Y5T+19yniZMPntz2LVazs1o9tt12YvWODiqqqnhnFMxOOWfHybvZvbb207XGl1FVuquK5qzbmZjn74h1VBw+0nZ23vVFFyiuLWptximuY5VR5S4Oi7Ea2bkUa3VW6bFM54LdUzn5xy977pMfSMj5Xsz2Y1u0bnOp1F3T1UTbmjFuqqZzOPOI8mFrsvraO087lN3T9z6RVd4eKrixMzPljPxfXi5HM7Q6C7um03dJYmim5XNMxNczEcpifCJcrbdn1Gzdmd0s6mu1VVXbuVRNuZmMcGPGIfTvne1e3bpuNvT29urqijFcXqYu8EVROMZjx8UyOL/J5/WGr/wAKPzb+/wDY6ddq69XoLlu3XcnNduvMRM+cTDd7Kdn7mzW71zU101Xr2IxRzimI9r6Jco+CjsRra9LXVf1durU4iLdPFVNMRnnmcZ6eGHZ2XYNZt+x6/Q3rlmq5qIqiiaJmaYzTjnmH0dU4XJkfL9lOz2s2XVX7upuWK6blEUx3dUzPX2xD07V7Bqt7r0tWluWaItRVFXeVTGc46YifJ9GYMjT2rT3NHtum0tyaZrtW4pqmnpMx5OX2r2HVb3TpY0tyzR3M1cXeTMZzjpiJ8n0EYyqQS5mg2qKNgtbZrYouRFvgr4Z5T7nz+29l922jc/SNHqdNVZ4sTTXVVE10eU4p6vs0nC5HF7Sdn6N7s25puRa1FrPBVMZiYnrEuBo+xOume71mtojTxz7u1VVPFPxiIh90A+S7MdmNbs+51anU3dPVRNqaMW6qpnMzHnEeTGz2X11Haedym7p+49Iqu8PFVxYmZnyxn4vr56ERiAcztFt97ddou6SxNFNyuaZia5mI5TE+ES1uyuz6jZdFes6mu1XVXc44m3MzGMRHjEO6gj5DtL2W127brOq093T00TRTTi5VVE8vdEu1v+x2d60dNuuru7tHO3ciM4ny9zq0xiZlkD8/0/Ybce87u9rLNGnmfpcFVUzPwxDc2rshrNv3y3q+9086a3cqmKYqqmvhxMR4YzzfaMYnnK5HyO8dltdr9/q19m5p6bU1UTiuqqKuURE+HsfX58jCgxmOTKOUMYmZlkAk9OSsczMgyjodTACT05Mo6MYmZllgDqAqAYAAyAdQADIYAAyAAAKAAAAgKJkyCoczAGWvqvrW/i2GvqvrW/igUM4YUM4BQAAAAAAAAAEVAYVMLX20+5nUwtfbT7kWHtiUmGSSjSRGGlX9pV75bzRufaVe+WqpLFYBplQAAAAASXJ7R0cW03JjrExP7XWam5Wu/wBDet+M0yD8/nydbQW+CzEz1mMuZFH87TT/ANZ2blNVOnmKOuMQxeXXT5eWo1lNuMUTz8WtOvrz1zDZtaS3RH85zn2lVrTdIpifdDPhvFpeVO6109YjDb0+503KopmOctSvS2fCmUt6eimqMTMYScEdTvU3ImMvO/e4Lcz4MLPOiMMdRETRzc3Vy9TudcVYpiIatWsvVz9aW3NmiZmcZZW7dMRnlEOsTDlMTy04p1F3pE+960xqdPGeseUtzixH0KolabvFmm5BNiKsaK4vWs469YcbWWe6vY8J6O7RRFMzjpLR3S19GmrHsKz5Lx4e3ZW1Ne5xX4W6Zl9rD5jshREV6iqeuIh9REOrzqigAAAigIqSA2rM/wA1S1G3Z+ypZt6aq9RjmTmw0yScGDn5ARORI5LkDCyCoisYmnPKYVFVJ5wmY6Zhcx0zGTJggTMRPOYhYqiekwZAnoE9AWOgkSKipmeJU6SCrgAEpnMKkTnoCmQwCTKxBOJ5KACTIhGMKkRiFBDHNUiOeQZCCiVeCpETxSyASVTxBaeULlFwIxnOFp6JnM4XIqsZnlyXBE5lUWOgAJMrCROVAykyvTnJTz6gsRgDCodQMgAAKh1AMAAGTABhQAAAQyAZADJgUEwqKAAA1tV9a38Wy1tV9a38QKGcMKGcIKAAAAAAAAAAioDCpha+2n3M6mFr7afciw9uYojSYaNf2tXvlvNG59rV75aqkoEDTKgAAAIqANLWa6zpquGvNU+MRHRuvntTRN3WXKs9asM2nDdK9UuFVbpncZiic0zczE+x1qo+j7mtdsRRrbUxGJ4ubcmMwxacu1a4c7UXMdc+6Gen01y7o7l7nTNMTw0U9W1XYiqGFuLtifoTOPJImIWazLmaeqq7qKbdu5XVM1RGJjrHjPsbtdqq1cmiuMT4THi9YpuRcmuiimiZ6zTEQs2ZnnVmZ9paYkrWYeumq+jg1GeFbVPCyuxmHN1c+eUYjrPgur0VU2KLlmqLtcfXji/KGxFvn0X0fM5hus4c7Vy09JpKYs3KtTTTRMxEUxHX3sLVFzjmmZmqnwmW/wCi56y9bdiKfAm2StcPKi3MUvDcLfFp5ny5t/h5PDU0xNmuJ8krPlbemrtlV6zbqmiuqimZ8OWX1O26irU6Wmuv60TiXA0dvOjpmY545Oxs3Ki5R4RVl0i3lytSOl0gHRwAAAAElUAbdj7Klqtqx9lSllhnjEqkwObaiCoTATGYIjEIqYnwJjMTFXiyDA+bt50e5RE9KasfCXe1F2LWnruT/djLlb3Y4blF2OlUcM+9NZq+8261Tn6Vf1vg8dbbfVV6rV3OmzDaLU3tZNyrnFEZmfbLCj+t/wD30/m6W0We70vHP1q5z8PBzaP63/8AfT+bE16aV/2W4t1Wt/x6b1/TKf1I/OWMbXfm1TcoqpnMZiOkrvX9Mp/Uj85dnTf0W3+rH5NV04ve2WZ1Jpp1w5G3667avxZvTM0zPD9LrTLuPnNbircq+7+9ERjz5Poqfquvx5nzWfxz1ojxaP1YVIV6XnDPNMniDJFwAmCIiOhKxGAUTJzBP72VSI8ZZAmCqPJU58XsBQQQmSM4PFkCE9FY554UWnpzVMmAJnlyKecZkzzwyEEmcQZSMTPuAjnzZCTKhM4IgjE81ASasTEeZM4IiJ5goJNXPAGeeGSRCgBkVAAAAAADIYAFAAQADCgmAUAAAAAAAABrar61v4tlrar61v4gUM4YUM4QUAAAAAAAAABFQGFTC19tPuZ1MLX20+5Fh7czCiNJho3PtKvfLeaNz7Wr3y1VJSBFhplQQDCgAigJ4Pn5mKblXF4VS+gfP66nhvXMeFTnd20vbWv5q1NqrhxTmefm96YyXY4tNRNOJinnJRLn+Ov6y4F4fYyhnjLLTx4M+CVU4h74w171cRAsMKfrMrnKGNmJqnL2uUTw9BXhTPN70xya0cqstq3MYCWUQkwylJ6CMJeF76k+57VS179URTzWEksxNmKaM5jEOvtEcrs+2IcbiqrqirE00x5u5tEf9HqqmOdVTdfbGpP8t5QdnlAAAAQUAbVn7KlqZbdj7KlLLDPBjmqS5tqBlUEjqJGZmcoqmRVRqbjZm/pK6YjNUc497h29JqLldNE2rkRM4zNM4h9PPRIh59TQjUtmXbT1ppGIY26YotxTEYiIxDh0WL36U4u6r4e9meLhnGMu8Q3fTi+P8Ypea5/1xd4tXbmriaLddUcERmmmZ8ZeUXdxmiLcU3IpxjlRj9uHenEyYhznQzaZifbpGtisRMenK27ba6LkXr/KY5xT15+cutkJ6OtNOKRiHO95vOZIXBA6MCY55VIBkIYAnnHI5n95kCYJVjM88AsdOapkwBMpTMzCzOFAwCTOBFpnMZD3ChM8kp5xlfYvQAmcGUjnIhE/NcKAkzEEYhJ+kuAOpOOhM4IjxBY5AkzHRQzE8lTHkvQEnlGZWIieaROcsgAwKgABkwAAdQAUAEAAwAYUAAAAABAFQycwVDmYAyZABr6r61v4thr6r61v4oFDOGFDOAUAAAAAAAAABFQGFTC19tPuZ1MLX20+5Fh7czmojSS0LkfztXvl0JaFz7Wr3y1VJYrCLDTKgAigAACOTulqaL8XI6VxzdZhdt03aJorjMSloy1WcTl8zVFMxyiYn3va3OYdCrbJiqeGaZjzlp3LU2Ls0TjMOM1mHoi0SyhnDCJXiYbZVTyad2qIqzV0bFVcYa9zhmJicSK8rWstxcxTPT2Nm5q4miecNCaImeHGISLcTPDlrDOWdOqzVwzRVHtluWJmYiZaNExTX9KIn2ty1dp8JSWoltz0w86ui8WYYVSgwqlr1xNdcRD1ql1Nu0tFWkmblEVcc55+DdYy52t0uVatXa66aMdekPo9PaizZoojwjmlnT2rM5opiJ83q61rhxvfqFRWnMABFABFQBt2PsqWpLbsfY0pb0sMycqT0c20jnCpHOFATPNUmYBRDAhOMEExyI5QKGFATrKscTEqCpPOBJzmAUXAqItKTOGUAAkziAKfauUXACRzWZxCwACTMQIRz5qkRiFwCZIjPMWIwACTznCixjqERhQTosRhOVS5BWM8+S+8xiciERiMEydTlPIEiM82REYgUJnCRHidVASZ546k1c8MogEiFBUAAMAAZBQRUMgBgAwKAAACGQVDmYAyGFBDCgIoAAAAANbVfWt/FstbVfWt/EChnDChnCCgAAAAAAAAAIqAwqYWvtp9zOpha+2n3IsPfmcwRpObRufa1e+W+0Ln2tfvlqqSxwqK0yKgCgAAAIoCS5W5UTF6mrHKqHVauvs97ZnH1o5wlozDVZxLlRPJjVKZSZeeXqiXhdrmJl5xdtR1qiVvUcc4zyl506eLf1Yifg14Tyy7+jOYhe8t44sfSZ01W/79NLLNnP1aRqGtVeo6cOcsO/pi5FMZpmfNs3Zo/uUx8Hj3UVzxVdTwkw2rNyZ5TL1qqa1v6LOa8s4MvSimbtymiOtU4fRW6YooimmOURiHH2i1x3qrk/3IxHvdl3pGIee85lVyiNObIQBVYwoKIABkBJluaf7Gn4/m025Yj+ZpZssPRJlcE9GG0jpyMEdFAwkwqY5gohlUfF9p9312o3inZ9tuVUTmKaponE1VTzxnwiI/e0b+k7R7DftXab9y/wAXPFuqq5T7qomGpqtTqdP2w1F7TW+81EX66bdMxnnOaY/Nt63Xdp9muW7+tvVcNc8oq4aqZnynHRpH2dzdKbOyTuV23VRi1xzbq5TE/d+fJ8JZr3/tJqLtyxduzFHOYpucFFOekRzfQdoNfG5difS6I4YuzRxU+UxViY+cL/J/ERs2omPrekT/AJaU9Dk7DvW4bbvFO3blcuVUVVxbqpuVcU0VT0mJ8unsfRdrd2vbTttM6blevV8EVzGeGMc5975btn9DtNxW/r8FE/H/AJw+l7azov0Nw6yau8mr+Z4OvFj8vMHzWm23ftdt1W50a25NOKqoiq9VFdUR1x8na7Fb3qtfXd0errm7Vbo46LlXXGcTEz49YcHQ6zf7exV2tLauTosVRxxbzMRPXE+XV1/5P6tFFOoppmr02YzVxdODPh+/4EjW3vXbvu291aHRzetWabk26IpzTFWOtUz5NK9f3nsxuFum9qZrzEVcPeTVRXGfa+/3S5qbe26ivR0zVqKaM24iM5n3Pzm7du6rerU9o6tRbpjETHd8MxGfLliOvOCB9d2i0267jb0VzaLty3HDVVXw3eDOcYzz5+L5vX6LtLt2kq1Oq12ootUzETMaqZnn7Mv0W1FHd0zbxwYjhx0w+I7e7hVf1ljbLOauDFdcR41T0j5fmQS2+x2t1MbTuGu1169etWudM3K5q+rEzOM/BxLFze+0+tuzZv1U00c5p7yaaKInpHJ9rpdoosdnP0ZmImqzNFdUfeqjnPzl8Pt2u3Dsrrr1u7pM95imqmvMRVjpMT8ZBvbLum5bNv1O27jdrrt11xRVTXVxcMz0mJ8uj9AflO46nWavfbOr1lmbNy7VRVRRjGKc4j8n2na3fP0Xoe4sVY1V+MU4/uU+NX8P+BI43avtLf8ATvRNtv1W6LEz3lyifrVeXuh1exOt1Wu23UV6q/Xerpu8MTXOcRiHDsbPTo+x+t12ox6TqKKeGJ600cUftnr8nV/k8mP0XqYzGe/6f9mFHM/Qna3/AFu//wD9c/xcyq/vVjdqNBc1+pqv95TRNNOoqqjM45dfa/SNy1lG36C/qrnS1RM4858I+Mvi+xOjr1+8X9z1H0u6zOZ8a6v+GfnAOv2y3y7tlm1ptJVwX70TVNfjTT7PbP7nzVWh7R29D+kqrupi3jj4u/niiPPGcvbt7Mz2gjPSLNOPnL73WUUVbbeo5cHc1Rj2YPQ43Y/e7m7aS5b1VXFqLGImrpxUz0n38nL7UbvrtRvFOz7ZcqtzmKaponE1VTzxnwiI/e1f5PJq/S+op/uzYmZ9/FGP3tHV6nU6ftjqb2lt95qI1FdNumYzmZzTH5iNrUaPtHsOotXab92/x88W6qrlM+yqJh9NvFvct12PS3Nsm7p9RXVTXXTFybcxHDOYmffh81rtf2o2a5b1GtvVcNc8oq4aqJnynHR9xtGup3LbLGsppx3lPOnymOUx84FfD6na+1Ok01zUX9bfpt26Zqqn0uekfFudiNbrL+p1l7V6m/esWrXPvLk1RE5z4+yJbPb/AHLutHa2+3V9K9PHc/Vjp85/J1Oye2RoditU3aI7y/HeXImPPpHywI+SjWbz2o3Ou1pL9Vq3ETVFEVzTTRT7cdZZ7Tum57Lv9Og1t6u5bm5Fu5RVVxRGekxM++Jfb6u9oNn0tzVXLdqzTTGPoUxE1eyPN8Ls1i/2i7UVa6ujhtU3Iu3J8IiPq0/siAdjt9qtTpqdBOm1F2zNU3M93XNOfq9cOVptq7U6rTW9Ra1Wom3dpiumZ1cxmJ5x4ur2+0mo1FGgjTae7e4ZucXd0TVj6vk5XoHaadqo1Xf3rNmxbxTai5NFUU0x92Pd7wfQbTot502xbhZ1ly7Xq7lNXcTN7imJ4eWJzy5vjNbq972/U1afVa3WW7tMRM0+kTPX3S+w7Fb3f3O1e0+sq7y9ZiKqa561Uz5+7975rtv/AGmv/q0f5YB9l2r3ivZ9spmxj0i7Vw0TPPh85/583xtjRdo9w0lW4W7upro51RPfTEzjyjLp/wAo1UzqNDHhFFf5w+s2CmI2Lb4p6ej0T+GAfP8AYrf7+vquaLW1zcu0U8du5PWY8Ynz8Gr2v3vWzukbXoLldvHDTVNucVV1VdIz5c4c/st/N9s4ptx9Djuxy8sVf8G12u23WaPe43bTW6q6Kppr4ojPBVTjr8oBp6zSb/2fpt6y5qq4pqqxmm7NURPlVEvvdl18bntOn1mIiq5T9KPKqOU/th8HvO/7hvm2cM6OLWmtVRVduU5mJnpHOff0fT9gsz2dpz0i7Vj9ij6XqAIGQAwogKmQAFAAQFEyABgAwKAigAAAAAAAAAAA1tV9a38Wy1tV9a38QKGcMKGcIKAAAAAAAAAAioDCpha+2n3M6mFr7afciw9hRGkaNz7Wr3y32hc+1r98tVSWKwg0yoACgAAAACJMZhSQcHcLcWdVMU8onnENXibO7VTVrKonwiMNGKvNxmHprOIekRlcZ5MaKomXvTiWJbhrV2Zq8Hn6LXOczLoUxleEyuGjFmaY5kxjk26oiGtc5TkGM1YYTVyY1VrR5y0z7d/Z6MaSavvVOhlpbXNPodMROZjOW47R6eafa5MoKiqgIoigogCoADcsfY0tNuWPsaUt6WHoT0QmOTm2RygyR0UESInM5ZSkAKCo/P8AtLZv7N2no3O3b4rVdcXKZnpM4xNP/Pm1+0PaOrfrNjS2dJVbiK+LGeKaqsTERGI9r9FuUW71M0XKKa6Z6xVGYl4WNv0Wmr49PpLFqv71FuKZ/YuTDj6fZLn+h0bZdxF6q3NXPwrzxRHzxD5PaN71vZy7f01eniqKp+lbuZiaao8X6a8bum0+on+esW7uOnHRE/mmTD892uzq+0faONXeo/m4riu5VEfRpiOlP7Ih3O32hv6jSabVWqZqosTVFcR4ROOf7H1Vu3Raoim3RTRTHSKYxDLquTD4Xbe2VnR7Pb0telrqvWqOCnExw1eWWHYPRX6tyua3hmLFFE0cXhVVOOUPrqtl2u5cm5VoNNNWec93HNvUUU2qIpt0xTRHSIjEQZHweu3jd9j7QVRqrt29pormqmiqcU10T0xPsz84aG/7vV2j12no0ulrpmmOCmnrVVMv0i/Ysam3waizbu0fdrpiqP2vPTaDR6WqatNpbNmZ6zbtxTn5GUw8rM07Vslv0irlpbERXPnw0viuy9iveu0tzX6iM026pvVeXFM/Rj/nyff3rNvUWqrV+3Rct1daK6YmJ+EsdPo9NpIqjTae1YirrFuiKc/IyPS5E1UVU01cNUxynyfC2e0+67TudyxvMVX6aeXDFNNMx5VRiOcPvYh46jSabVUxGp09q9EdIuURVj5pCvgNPXe7T9q7WopszRYt1U1VePDRTz5z5zP5u52i7LajeNy9Ktai1bp7uKMVROeWf4vpbNizprfd2LVu1R92imKY/Y9IjC5R+a7v2S1O1bfXrLmptXKaJiJppic85w2ew203L+uo3OLlEW9PXVRNE9ZzTP8AF97fs2dRam1ftUXbc9aa6YqifhLCxpLGmomjS2LVimZzMW6IpiZ+Bkw+R/lA3HEWdut1df5y5j9kfnPyfQdmdu/Rmy2LNVOLtcd5c/Wn+EYj4Nu7tuhvXu+vaPT3Ls4+nXapmrl7Zhtg+M7ebVdvRa3CxRNfd08F2IjnEZzE/tlyLvbDW3dpnQzatxXVb7uq9mczGMdPPD9JxmfY8Y0Oki53kaWxFf3u7jPzB812D2q7pNLe1moomiq/iKKZjE8MePx/c5PaWzf2btPTudu3xWq64uUzPTOMTTP/AD4v0JhctUXaJou0U10z1pqjMSZH5z2h7STv1ixpLGkqtxFfFjPFNVWJiIjEe19p2d0Ve27Fp7F/6NdNM115/uzMzOPhlt6fbtFpq+PT6PT2a/vW7cUz+x710UXaKrddMVUVRiqmYzEx5A/ObET2n7YcVUTNjj4pifC3T0j48vm/RtRcixp7l3GYt0TVjzxDy02g0ekqmrTaSxZqmMTNu3FMzHwbNURVExVETE8piRH5Ju286nd9ZF3VzPdUz9G1ROIpj2e32u7tfa/SbfYt6XS7VNFGcZ77nM+c/R5y+29A0mc+i2P+7hfQdJ19Fsf93Cjj9rLu66bR29Ttd2qnu5nvaaaIqmY8J5x4fvfNT221Fe016a7p4r1NVE0Te4sROfHhx1fokTE5hrTt2hqr7yrR6eq596bVMz88A+V/k+2+7ap1Guu0TRRdpii3mPrR1mfd0cTtv/aa/wDq0f5Yfp0/RiIat7bdBqa5uajRaa7cnrVXapqmfjMA4fbfabuv263f09E13dPMzNMdZpnrj5Q+b0HbDW6Da40VNm3VVbpmm3cqzmmPd44fpbWq0Wlu3e8r0tmqv7024mfmD43sDtV6dTc3K/TVFHDNFuav70z1n/nzbva/cN62vU2tRo7006OqmImO7pmKas9JmYzz5Pr4iIjEdGNVNNdM010xVTPKYmMxKo/Ot+7Vfprb6NDY0lduquqJr55zMeEfF9l2a0Fe3bJptPd5XcTVXHlMznHw6Nqzt2h09feWNHp7Vyf71FqmJ+cQ2wOpgUEDIAYFBFEBUMmAMgAKAAAAAAgCiAKJkADmYAMmADJkAGvqvrW/i2GvqvrW/igUM4YUM4BQAAAAAAAAAEVAYVMLX20+5nUwtfbT7kWHtzOaiNJzaNz7Wr3y32hc+1r98tVSWIDTIACgAoigAgBPQkjmkysOFuuJ1Ptw59VPLLp7vaqp1MVeFUNHh5c3GXpr6a3FNM+xnTe9pXTip5VW+eY6ovpsxqPDL09IiI6tCaa4jlMpw1z4mDMtuvUZeFV3PLrLzqt1R1mZZUUcPPAeZZU0c8zLNIZxA1EOvsv2Vz21Ok0Nmoxp6qvOqXQnq7Vea/tFQaYUyZMguRFEUAAAEbun+xpabcsT/M0pb0sPRJnBlJnn0c21VFESZ5ETmCcQCgqSBGFQVAiEnmqKqZExmQWORhRUY48GURhMZWEFSYzyVI5KLHQEmAOs5UiMQoCUxPic8+xRBJ5xyVIjHUFgMpMcXioYzPsZHSEmcATPgRCxTGcrM4EOjGfpH1liMAYM88E1c8QsR4gkR5LPInokTnnKixzjMgmJyBiZn3MgAOpgVBUMgBgAUQFQyYAyYABUMwAJnyM+wFEymfamVwyGGZ8zmZMM8wZhjgxBkwuVYhkZGGJz8zIyGOZOIyYZKx4jihUZCAKAA1tV9a38Wy1tV9a38QKGcMKGcIKAAAAAAAAAAioDCpha+2n3M6mFr7afciw9uZzURpObQufa1/rS6Dn3fta/1paqksRFaZBQAADK5RYgyBLOKYSYZy1EMJ6wyPGFRXP3izVXpYuU05m3PFPucimImMx0fT5irlPSXB3DS+g6iKqI/ma+keUudodaW/GpXR4vKaPJtTHFHJ44xUw6vDExPTkzmaYpes0ZeNVqZlTDzmczyIjL07ufJ6W7Zkwxoo5LVEUUzM+D3xEeC6LTzrdZFP8Act4mr+BHmSZxDsbdZmxobVFUYqxmWxLKrlJP1XV558sZp8WL1j6pNGWolmYeQzm35MJiY6rllQFFEBFEAVuaf7Gn4/m0m7pvsKfj+aWWHqnispGHNtRCRDlMhEGBTKc8rPQ6QDU1uut6SIic1Vz0phpfpurP2MY/WadumdbuGK5nFdUzPudPUegWP5q5RRE4+5Ofm8m5e+bROIeropTFZjMtjRa21qonh5VR1plszlxtJGhtaiiq1qLk15xETHXPwTcNZeu6juLNUxETw8uUzLca3TTNvM/45zpdV8V9f67XJPquBesarRRFzvfHrTVM497buaydRtNdeeG5TMROPPMLGvnOYxMJOj6mJzEurmE5VdHz2ljV6imu3auVY61TNSUX9TodRw11Vcp+lTM5iYZ7nxEzHhvt5zMRPl9J4JMxLm7prarNFNuzOKq4zM+UNGNJq5s9/wB5PTixxzxNX18T0xGWK6OYzM4fQc+JlmHK2rW13oqtXZzVTGYq84cyxqdRRd/m666q55RGcpPyKxETj2saFpmY4fURzhImInm49m7qNHpLld6KuOqqIp4pzlqWLer1lVVdFdU461TVhZ+R6iI8pGj7mZ8PpOUNTcNX6Lbpr4OPNWMZw4eou6qm7wXa64rpjHVs7tauxFu7NWbcxEYz4sW+RM1npj03XQiLR1T7dbRar0uxx8PDzxjOWzyhwNqsX5rovU1fzUTOY4v3JqNVqNbqu6s1TTRnERE4z7ZWuvMUibR5ZtoxN5is+Hf5Zyr5y7Rq9vrpqm7mJ8qsxPvb+q3KY2+3Xa5XLnL3ebVdePPVGMMzoT46Zzl0sx0ci9uN63r5s0zTwcUR0amnsazURN63XV7Kpqxl4xVXVraZu/X44ir3uWpr2mIxGHbT0KxM5nL6rPmkYnmRiaebiblrrtd+bFmqaYieH6PWqXpvqRpxmXmpSbziHczEpyfO3bGt0dMXZrqiPGaas497f0+snUbdemeVyiiYmY93ViuvmcTGJbto4jMTmHUiaYhJqiXzOlr1V65VbtXKuKqOczV0hlcnV6G/HFXVnrHPMSz3PjOPDfb+cZ8vp4gmcPKxdi9ZouRGOKmJekROeb1ROY8PLMckTM+5egnVRZjPQjlBHTkuAAFRUOoAACoZAMh0MgCcxFMmZAEDIgGTAAYAAAAAAAAABAFAAFzMIAvF5sswwDKYZtfVfWt/F65mHjqJzVR8VyYWhnDChnAigAAAAAAAAAIqAwqYWvtp9zOpha+2n3IsPbAojSOfd+1r/Wl0XOuz/O1/rS1VJYiK0yoixEgqxTMsqacc2cSzMtRDDGIWIZTHJjCNMo5dWNUrMpKDCYWei+B4KMaJ55mE1enp1Onqt1Rynp7JZ08uUNfW62LMTTRiqv8AJLStYfP/AE9Ndqs3OsT1SqeJ1q9LGv02btWLmcxVj9jj3bdzS193epxPhPm5TDvW2WUV45TDKZjDCJzHmcUMtrNWZxEM6IimObyywu3uGnl1BnfuzMxbtxmqeXJ9BtmljSaSmmYxXVzqn2ufsWh//l3YnM/Uz5ebuVdHWIw4Wtl5/wB5lMJT1JaYPYzjoxpjLOFRJ5rjMc08WQjyqtx4MJjDYYzGVyYeA9ZoiWFVEwsSzhjkyCoN7T/Y0/H82i3tN9hT8fzS3pYekxkxEGOaubYkxnAR1AUSVQ55WUjoA+crirQ7hxcPKmrMe2Jbl6/tuo/nbuZrxjHOJdC/p7WoiKbtETHhPjDV/QunznjuY8sx/B4tq9ZmK+YeqNWlsTbMS5ujteka6mbdPDRTVxY64iGOrtxb11dN3MUzXnMeUvobGntaejhtURTH5sNTo7WqjFynnHSqOsLPx56MfpGvHXn8cW5a0NumJi7duTPhTjk2Jt2qdou1WorxVMT9PGesNm3s+npqzVVXXHlMtrUaa3d082pzTTOPq+GCujbEzMJbVrmMTLQ2H6t33w1t5/pv/Yj97r6PR29JTVFFVU8XXieep223qrveV1VxOMcpj+DU6Np04r+katY1Zv8Ajm7tbqiu1cx9GaIj4/8AMvOmzou4i5VeucWOdEYzl3bmnou24tVU8VOPFpfoWzxZ468eWYYvoW6sxGVrrV6cTOHhtVuxVdrrtRezTTiZrxjm1trjOuo90/k71nT27Fvu7VMUw1tNtlvT3ou01VzVHhMx/BvYn+f8ZjWj+v8AXnvNuqvRxMR9SqJn8mttWutWLVVq5VwznMTjq7VdEV0zFURMT1iXNubPZmvMTXTTPhErqad4v10TTvSadF3M3DUU6nVVXKPq4xE+bo7vGdBamPCqPyl6V7PYrmMTXRERjFMw3a7FFyz3VccVOMYliujfFur9atrU/np/HM2nUW408WJrxcmqcRjq5lFqijU91qJqopiZiZjwdyxtVmxepu01V5pnMRMxh6avb7OpniqiYr+9T1J0L2pGfcLGtWLTj1LjXrWhtVREXLtftpxyZ62xFGhsVW4r4Of1usZdCxs9i3VFVU1V48KujeuW6K7c0V0xNMxiYWPjzMTnwzOtETGPLl7buNi1pIt3KuCqjPh1c+u7F7cO8iMRVcjHzdONmsTXmKrnD5Zev6Hsd7FyKq6cTExTExjl8GZ0tS0RWfxqNXTrM2j9b8Rml81fzpdzqqrjMRc4/fGcvpZqxya+q0VnV04uU846VR1h31dObxGPcOGjqRSZz6lobhuFi5paqLdXFVXjw6PDbrVUaDV3JjlVRMR8In+Lco2SxTVmqquuPKZbs2KZsVWccNE0zTinwhzjSva3VZ0nUpWvTVyNh/pVz9T97Lf/ALS17p/c39Ht9rR3Jroqrmaox9KYXWaC3rZpmuqunh6cMwuzba6P03a7vX+Lt0f9Ctfqw2ujCzbpsWabdMzMUxiMso+k9NIxWIee05mZX63TosRiFiMDTIGRQMAAqGQBMiKGQA94JkFTIAGFRAURQAAAQAAAAAQUAAAyACcwUTmIKhgAy8b/ANaj4vZ43/rUfFSWVDOGFDOFZUAAAAAAAAABFQGFTC19tPuZ1MLX20+5Fh7czmojSc3Ou/a1/rS6Tm3Imb1cR96fzaqksVimZ6MqaPN6YwsymGEUM4hYwSy1ECsY5LEoq5SFmOTGOiipMMoSUGCwYxKqPK/cm3bqmn63g4kxdquZnM5nm7GpjMUx7WNFqOc4YmMtxOIZ6emIoiOnJq7jo6dbp6rccq6edNXlPk36aOU0+MEW808p97WGc4l8fEV2a5t15iY5TEvaqaZpy6O5bbVTVXfpnMTOZjycy1b4uTlMYemsxMMMzLf23Q0Xpqv36c0Uzimmf70vLuYiOUOxYpmnSWqZiImKIzEea1ZvPhp6jcLtm7EW4ppop5cMRydSxfp1Fim7TP1o6eUuPXpJquzNXi6O32u6tTR4ZzCxlztjDcjok86mXgkQ2wypjEMoRYVGM9VWUBcB4MZlBU6wpIMJpiWM0Q9JwkdVhMPGYx1b2n/o9Px/NrTEeMNjT5i1TH/PVZnwkR5esdOaoMNEhEKIiRzlZnCwKYSeipnMqhGVAEnPgpGVkEKU8WQCTnHJy9R2g27Tbh6Dcu1ekcVNPDFEzznGIz8YdSM+ILHQEnnIERzzLLKE9OQJOZ5MoSHKtdotuvbj6BbvVVajjmjh4JxmM55/AR1fzSOU81xmcrgUMRKdTOPARl0YzMzOCc+DLwUWIwxqnHQmZ8FiBCI8ZJkmSI55kEpiesssxBMxHVPreCh15yLgjOeYJTz9zIBABQVMwnF5AqTKYnzXGEU5gAAmQVMmFBMeagAAACAAAAIAmQVUDABkwAZAAMAAAAAAAAAgPDUfWo+L2eN/61HxUllQzhhQzhWVAAAAAAAAAARUBhUwtfbT7mdTC19tPuRXuAjQ0a4xdrnx4pbzSufaVfrSsBC9ViOZPIGHSWUMZ5wtM5FXAogk9Ep+qs9COgLHQIFEmCIUB5VUcUx7GUUxHJmIMOcTnxelEx4dJ6McZTHDVnwn81gZXaIrt1UzHKYw+Zpoi3qK6PGJw+mrqxTmI5OTXpe93Cbn9yYzUloy1ScMtHpYmnvLke6GzjM4h6YmfDl4MqLeOrMQTOXl3MVTmS3HDcmlsYYV2+LnHWOjSMuvJljDGM5zMMuoh1VFwCT1VJUEnoiyAqKkgix5oR0kEbNj7KGs2bP2VKyj0SSehHRBSRM+AEc1AEmcKRzUHK3nf9Fs0UxqKqq7tUZpt0RmrHn7IczSduNuvXoovWr1imZxx1RExHvw+bqt/pztpXavzM2679VMxE/3ac8vlDq9sNg0Wi2yjVaKzFmqiuKaoiZmJiff45XCPtqaqaqYqpmJpmMxMdJh81r+2236a/Vas27mo4ZxNdGIp+E+K9lble49lJsVXaqaqeOxxx1pjHL5RLXtbDsvZ7Oo3O9TepuRw0Ret5iJ8cRGeYOps3aTQ7vXNq1x2r8Rnu7kc5j2ebs9H5t2fsRqu1sXtut1U6W3dqrzjlTRzx8+j7jfdVOk2bV34nE02pimfbPKP2ySr4rZP/O3bWdRP0qIu13vhH1f3Psd43/RbNFMaiaq7tUZpt0Rmcefsh85/J3pc3NZq5jpEW6Z9/Ofyhu6/snf3DfqtdqNRbqsVXImbfPPDHh+wRnpe2+36i9Fu9bu6eKpxFdWJpj346PpLt61p9PVfu3KaLVFPFVXM8oh+f8AbjR6HRazTW9Hat2q5omblNEYjGeXL5u5uWl1ep7CWbVFNVV6mzbqqo8ZiMTj/nyMCX+3m30XJptae/cpj+9iIz+11dn33RbxTV6NXVTcp51W64xVEefth8l2WvbFa2/URulNnv8Ajn7WjP0cR0+OenNh2L01y72gq1Onprp0tqK8zPlPSPf0n4GB9/qr9Om0t6/V9W1RNc/CMvg+wlirVb7e1dzn3dE1TP8A1qp//L6TtlqvRuzt+InFV2Ytx8Z5/siWl/J9pe62q/qZjE3ruInzimP4zIOhvPafQ7Td7i5x3r/WaLcR9H3zLX2ztlt+4amnT10XNPXXOKZrxNMz5Zhp6bshcq3urW7hetai1VXVXVbxPOZzjL5/tbp9Np9+mzoLdNGKKeKi3HKK/ZHuwo/RNw3DTbZpatRq7nBbjlHjNU+UQ+d/0+0M149E1EUZ+t9HPyy6W97D+nLOmpvamu13MTmKYiczOOf7Hzu+Wth27Z7m3Wooua+3iOOKPp8WeczPu8EH2mg1un3DS0anS3OO3V4+MT5S2Jzjk+X7A6a/Y2m9cu0zTReucVuJ8Yx1/wCfJ9VHKOYJGYjmTUTK8MZyBEeJM4hJIjlzBY+lHNU5Jw88qjKInOZVMGAFygBmQATC4AAEyCpnyMKCYUAAQFBAVDJlAAwBlOagqYUAABAQFAAAAAAAAAAAEBAAeN/61Hxezxv/AFqPipLKhnDChnCsqAAAAAAAAAAioDCpha+2n3M6mFr7afcivfBgEaTDUq+0q98txpVTi5V+tKwMirmdYJ6e4WE8GPSWWU6wDKJGNPKWYJKR0WUjoDKAgBAkBUUBE65hUlBjcn6PJjTTw08lzmrC09efQkhlTTy5qsyhCyJKwCBhRQDIDGeqkwIJgDwBUlUkEnlBT9Uq6YKfABs2fsoastm1OLVKyM888KQIhM4IjxTlMsgRInM4JnDKAEnoqRPOcg/NdFcp2vtvNWpmKKKNRXE1T0iKsxE/th9D261+n/Q1Onou0V3LtyJimmqJ5Rzz+TY7QdlrW73I1Nm73GoxiqcZiuPDPt9rj6XsHd76PS9ZR3cTzi1E5n59Fyjo9kK6du7K3NVfiqLc113ZxGZxGI/c9qq9p7X25s03L/8A0eeLEfRnny8c5d2jSWKNHGkpt09xFHd8Hhw4xh8bq+xOrs6iq5tmsoiiekV1TTVTHlmOoNHbb97Yu1P6P09+q7p6r8WqqfCrOIzjzjP7He7f6nutmtaeJ53rsZ90c/zww7P9kJ2/WU6zXXqbt2jnRRRnET5zM9XK7faib+8WNLRz7q3HKPvVT/CIP0fRditN6N2etVTGKr9VVyfyj9kQ9N/7QafZbU05i7qqo+haientnyh09Fp6dLo7Finpat00R8Iw+U3XsZqtfueo1dOrtU03a5qiJicwDS2HZNTvmundN1zNmqrixVH2s+Uf9V3+2muv6DZYnTVTRVduRb4qeU0xiZ5fJxI7Ca7GI19rHuqfRW9houdnLe16yvj4Yn+cp8JzMxMfMHzvZjszoNz2mdXqrlyq5XVVTiirHBj9/i1ezWou7b2onQWb03NPXdrtVR4VYzir38nvPY/edLXXRotbR3VXWablVGffDsdm+ysbVejV6q5Td1MRimKfq0Z6++VGh/KJqf6HpIn71yqP2R+99J2f0s6PY9HY4cTFuKqo9s85/N8V2hzuvbKNLHOmK6LEY8vH9sy/R4iIiIiMRCD5vtJ2otbVRVptJVTc1kxifGLftn2+xzeyvZy9d1MbrucVcUzx26K+tVX3ped/sLq7uouV+m2fp1TV9WfGU/0D1/8A/ULXyqVH1G6b5otnrt0aybkTciZp4ac9Hz+/7Ht2t2y/venv3Ka66O+jMxw1ezHhPg7O59n7W57Rp9JeucN6xREUXaYziYiIn4Th8z/oRu32PpljuM5+vVj38OOpA63YPctTrdJqLGprquTp5p4K6pzOJzyz8H1Uzj2uZsWzWtl0U2LVU3Llc8Vy5MY4p/g6iBiOpOQiMKEZgmrCTVzxDKIjqCY55VUAAAAAAyAZMAJhQAAAEMgqZMGEAwAAAAAAAAACKgoAAAAAAAACAKmTKKqHM5gBgwBl43/rUfF7PG/9aj4iSyoZwwoZw0yoAAAAAAAAACKgMKmFr7afczqYWvtp9yK2EVEUaVyPpV485brUr+tV75VWNurPLxZ+Dx+rVl6xOcSKk8kziorY5QZT1ZRPJjPRaegLPRFkhQhUUAAAABjKyIPKPr1PSnnyY0x9KXpApMdEws9EkAARYPFFUAASUWQEkjoeIgssVlJ5U5BhM8VU+TLOKnna51ex6TP0hUq6tuxztQ06vrN2zytQMsk9hmIWOuQWIwkziBI5yBE5jKrjCTkE5zLLATIJM4nCkdDICRGM5IzMrPtAmcOFf7L6TU7v+krt6/N3vKa+HMcPLGI6dOTuYyy6AdExk6nQFTPPCTnOGURgQiEnPgvWORHJRwtJ2W0el3b9JRev3L3HVXiuY4c1Z9ntd3OZwmeeGUREAU0xBxRnCTVzwsRECJELPsSeccliOQpBE+BE55R0IiI6CERhJmqZxBiZ8WQCodVAAADIBk6gAAAAAmTAGQVBMKCggAAIAAAAAIKqGTIAHMAAAMAJkyognMVAMGFQUAAAAAAeN/61Hxezxv8A1qPiJLKhnDChnDTKgAAAAAAAAAIqAwqYWvtp9zOpha+2n3IrYRRFRqVfXq98ttpzzuV8/wC9IrCoonHJZY55qrOZ5vOZxLKZ+j7mFfOIlFelPOJhlDzonnHtegiyAoKigAAAgEoqSglvrV72bztf3ve9BSr6rHLKrpKAiplRBSEBcoChKZVAIUEElhcnFEvR4aieQsMKauH3+D1jq1aauLUU0x0pjilsRmZx4JCyyj62W5Z+yhqZiiG1p54rNOf+eass8RLIiMJM4EM88KEgkrHTmkTK8wJ5JE5IzMsukAwmqKYzVOIY0zTcnNNUT7pfP6i5c1mt4Kq8RNfDTE9Ieleg1emuxNjir8Ymnk8vcTM+K5h6NiIjzbEvoJ5ETxORueqq9Dot3KJpuXIiZ9kxMNba9ZTppm3VE1TcqiImPBqfkVi8VZjQtNOp9D0TMTyaes19rTYirNVU/wB2Gva3mzNNXFRVTMRmI83SdWkTiZYjSvMZiHUiEmrnhoWt0ovW7tdNFUd3Tmc+LkUamKdb30xM08c1Yc7/ACK1xj9bpoWtnP4+oSWhXulFOlovd3Viqrhw2NFqadVZ72mmYiZxiXWNStpxDlNLRGZhsRBnnyc+7ulFGr7ju6s8UU5e+s11rSURx5mqelMdTcpiZz6Nu2Y8e217UmeeIcuje7VVcRXbqojz6unRVFdMVRMTExmJhaalb/WS1LU+0MsRCdeh9ZYiIbYIjCRVMz05GZz7FnkKdDGTESqoAAYAADqYAAAAyAIYAMKAAAAAIAAJlFUTmkyDJMp1jkRAHFGcEzPhBhUEnOOSRnHNkgqRHMxz6qATkiZwAJEznnHJeKOgAoxmMnOI5AyGMTPisTEgoIIACgAAAAADxv8A1qPi9njf+tR8RJZUM4YUM4aZUAAAAAAAAABFQGFTC19tPuZ1MLX20+5Fe6pgwjQ0auV6v9aW9hz65/nq/wBaQZSwnlLOejGqOQqVTyywonNEwVT/ADc4eemucczHiivWjp7ntTOYeWMTJE8M+xYR7iUzmFUAAMqhkFSQASVSQS3y4vezYUdamaKVdJRauksQkFSBGUJKKCKigkhJAKDGZwCz0aepr5+7m2K6uTk7hfxdi3TP0pj9jNvTVYzLZ0UcXHd+9PL3NriiOUc5eNinu7FFMeEPa3TnpC19EsqaJqnNTdsRHdRMNbh85bNnHdRjorMs5nBE5joRzUQ5pick5mWQInPJOfBkAk8zMTyIjEA5Ot2nvLlVyzXETPOaZ82pGp1uguRRcmZj7tXOJ+LLV6HUafUTdsxVVTxcUTTzmPgwuW9brq6YrtTGOUTNPDEPn38TPTExL208xHVMTDe3Cbep2z0iKY4sRiZ6xzjLw2WzbuRXVXbpqqpqjEzHRvXNF/5u9Gonnw8p9ucuZpKdbpb8UU266aaqo4vo5j5t3iYvW0wxSYnTtWJeV6PSN0qprnEVXOH4Zw6Wv0Gnp0VdVuiKKqIzEw1ty0F2m/N+xTNUVc5inrEvOY3DVWpprpr4KYzOacZ/ixjp6q2rmZbz1RWYtiIeux0011X6aoiYmmMxLWtW6J3Tu5pjg72Yx4Yy3NltXaLtzvKK6cxH1omHhrNHqLGtqu2aKqomripmmM4TonbrOPUr1RuWjPuGzvNqizorcW6Ypp4+ke6Xts3PQREfelhNm9rtriLkTF2JzEVRhoaedfppm1at1xmek05h1menUi2PEw5xHVpzTPmJNR/W8/4kfubO8aS7Xepu26Zrp4cTEc5hq06bURraZuW66p44mqqKZmOvm39z0+q72Ltiu5NOOdMVTy+DFazNbZj9btbFq4n8aVWpsXOGjVafgmnlxUcv2O5pabcaaim1MzbiPozPk4d6dZrqqKKrE5p8eCY/a7eiszptJRaqnM0xzdPj56p45ctbEVjnhs8oY88mMz1Wc45PY8p0WI8ZSOUc1UDAABkAAAAAEUE6rgAAAATIKJkQMmTAAYEiqJ6AqTVz6Jjn1UVJ5+5QAAAQmYjqTPkgBGcdEjOegqiTTM+JMZjqCiRExHUjOQUY5nPRZmI6gokTlQExCoCc89eS5jzCYgFGMzMdIWJ5cwUEyCiAKgYAeN761Hxezyv/AFqPiQksqGcMKGcNMqAAAAAAAAAAioDCpha+2n3M6mFr7afcitgBFRz7k/ztf60ug5l6cXq/1pVXpEsaqmNNXJJnmSrCqrhq59JedFMUamJz9bkzufVa9XOqifGmcwzMK6GMwwqWKvopPNUZW6nrlrdJesVZ5qPTJlhxHEDPJlhkyDPJlhkyDPJlhkyDKifpVMsw8qZ+t714vYivSroxYzXySahHpkyw4jIM8mWGTIM8mWGTIMplcvOZTiDD0mphVVhjVU86qsgtVWXHzF/dq8c+HET8Hvumv9Etxbo53a45R5e14bTbmM1V866ucz7WJn8brGIy60YjD2pqnGGvE83tTLcMyzmW3ppzZpj3/m0Zb+m+wp+IkvQnPgTKRygRYjEEycyI8wI6Ez4EzgxzyBERBMrPTkR05iJ7yZx0JnyIzgF96TzUiMAkRgmfCFnPgeAHRPrRiD6zKIimFCIimEmIqJ+lHMjyA9kERPiRE55rVOOgE1RSmMzlceMk845CE5x9EiMQsRiOS4URUAAAAADIYBOqgAAAJkBUyYEAwqAAkzgFSZ5ck6wsRgVIz4qAAJM4BUyc5jkRGEEirJic82QKmBUEAAAyZFBMgKgATHJIjCmASJnPM4oVJpieaKuTmk8jPnyEVJpyoCRyhYmJE6dAZDGJnxVRUAB5X/rUfF6vK/8AWo+JCSyoZwwoZw0yoAAAAAAAAACKgMKmFr7afczqYWvtp9yLD35nNRGk5ubfj+dr98uk0NbTNFfHEZpq8fKQeFM4JlhFUZY11eSqzrmJjDWrnGWXFLxrrxPOGZVt2b0VU48npxOb3sRzpnmzsauLvFHSqnrBEmHQysS1abvPm9oqaR68S5eeSagZ8RxPPiOIHpxHE88nED04kmphxJxAzpqzmHrRcmnGOnk16J+lL04kMMp6c2MyxqnkmQZ5WJ5PPJFQQ9YmJzz6dTLUvafjr7y3cqtXPGafH3ww9CtzzuXLtyfOquf3Hgb2U4njbpi3RFNOcR5zllxIrOakywmpOIXLKZec1JVUwmoHD1Nff7pdqnpRih1dFERT8Hztq9/53v0VT9aufzfRaWcUMRHluZ8Numeb1zGGtTU9ImZdHN6xU6Ol56en4/m5tu3NyuKaesurbo4KYpjpEYGZZRTzyomOYhEeJM4WZwkc4A6rKEU88yBGScqnDM0zGZiZjrHgBEea5fC7V2g3Sz2kp0G5anvLfeTZqiaKY59InlHnj5vtr12jT2Ll65OKLdM1VT5REZXA9IjBV05PhuzW87tu++cFzUz6NTFVyuiKKcRHhGcecw+w1eu0m30RVq9RbsxV046sZ9wNmOhHNo0bxt9zT1aijWWZs0TEV18X1c9M+Tz1mv0+q2TX3dHqKLkUWa44rdXSeGQdPlENWNx0dWrnSRqbM6j1fHHF8nyHYHU6jUa/VU37925EWomIrrmcc/atvZNBT2pi9G72pqjUcfcx9pxZzw/MR9vyginE5lhevWdNaqvX7lNu3T1qrnEQ0be8bfrYrtaXW2blzhnFMVc/gK6MzPSF6c3572G1epvb5NN7UXblPc1TiuuZjrD9Bicqi9Ya2s1lnQ2Ju3qsR4RHWZ8obOMQ+I3zW1avcLnP+btzNFEe7rKTOHHW1Oivht6ntNqq657iii3R4ZjiljY7S62iqO9pt3afGMYlxW5tm3XdwvcFH0bdP16/CI/ixmXhjU1LT4l9jt25WNxtTVanFUfWonrDbw+NvX9Ptu7W69BVVNNvFNznmKvP/nzfZU1RVTFUc4mMtxOXu0r9XifcKGTCuwYAAAATJgDIogAKAIAJMxCT9LCKtUz4JjzXoACZMgqTOE4pmeRw88plcE5nouDBgDJkAMmZSaoiScz0BcpnPiY5KgxjJzZAJMZTHJkgJETHic1ASZmOkLnlzAEiYnoonDic5FUSZmAQJjIKHSCJyGEASMx16KARy6yqAsTnoMYjGZWJyCvK/wDWo+L1eV/61HxWEllQzhhQzhplQAAAAAAAAAEVAYVMLX20+5nUwtfbT7kVsCZMwikpNMTGJiJifCSJXIrTr26zXOYqro9lMx++GM7Zbnrdu/On+DeAaP6Ltetu/h/gxq2izV1vXvnT/B0AHLnY7Eznv78T76f4JRsOnt3JuU37/FMYnnT/AAdQDLQ/RNr1178P8Gcbdbj/ANLd/D/BuANP9H0etu/h/gfo+j1t39n8G4A0/wBH0etu/s/gfo+j1t39n8G4gNT9H0etufs/gfo+j1t39n8G3EANP9HUetu/s/gsbdR627+z+DazzZZBpxt1uJmYu3f2fwI0NM9btz9n8G3MgNWdvon/ANLd/Z/BP0fRn7W7+z+DbnPksZgGp+j6PW3fw/wT9H0eF27+z+DcnolMT4g1f0fb9bd/Z/BP0fb9dd/D/BuHDzyDT/R1Hrbv4f4H6Po9bd/D/BupiZn2A0/0bRPW7d/Z/BP0Zbj/ANNd/D/BvJ9YMtL9F2pj7W9+H+Cfoq1667+H+DoMevIHCjslofSatRF/U8czxfWpxn/4W9Ts9miOV6986f4OjEYTxDLQp2q1n7a9+H+DOnbbVP8A6W7PvmP4N1J5+IMLdmi3GKIiIeidISYz4guMmVxEJE5n2CJHNlyOUQmM8wMc+akpjnzUWI55kmcEzPgRHLmD897daOrSbza11rNPf0xOY8K6f+GHY7S7zTc7JWrtucV62KacR4eNX5Y+Ld7ZaGNdsV2qmM3NPPe0+6Ov7MvzqL2o1tvSaCPpRRXNNqn21TH71R9z2A0HcbZd1lcYq1FeKf1aeX55fL003+1HaOaars0xdqnEzz4KI8Ij3ftfpWj01Oj0djTW/qWqIoj24h+bXadV2W7Rd5FvMUVTNGelyifb7v2g3e0XZanaNvnVaTU3K7eYpu01+Uzynl7ccm32U/slvH6tz/5bS37tNd3nQVWNPpKrVmmYru1TPF48o9nNu9lJ/wD0jvHuuf8AyweP8nc43DV/4Ufm1NP/AG/n/bav80tz+Tr+sNX/AIUfm0rHPt/P+21/5pB7duNde1W9U6Ciqe7sxTEUR0muqM5+UxDeu9hu42+b1nWXPTbdPHGIxTmOeI8Y97U7c7de0+6RuNume6uxTmuP7tccufwiHvV211Oq0Xo1nRzOsuU8HFTVmMz4xGAaXYH+0E/4FX5w/ScPzfsB/aCr/Aq/OH6QBL4Ozeo0e61137cXKaLkxVE+/q+8fL9o9rqi7VrLFM1UVfaRHhPmlnm16zMRaPxb+xW9Xft39DcpjT3edX/U938HluW429LZ/R+3fRop5XLkdZnx5/vcqxrdRYs12rVyqmivrENdjPDyTqRj+YxMq/Q9NRNGmtUVdaaIifk+T2Ha69XqKb92mYs0Tnn/AH58vc+wjq1WHp+NSYiZlQGnrDKGAOphQAAAEyCoZRBWM1Y5RBOZlYgVMZUARRInOQMpETnnKxEQqKACBKTOISMz1FXKRnPXkYiFBMKAAJmOgKMZmc9CcoKJicdSImPEFGOJz1WYnzFUTnEETPjAKJFUSoCTESoIk8oInMBIoJEY6ysVRICRGFAInKscETOcTAKCiJE58Hnf+tR8Xo8bueKnPtWCXpQzhhQzhphQAAAAAAAAAEVAYVMLX20+5nUwtfbT7kV7nUEaDCgiYTCgqYMKAmEwsgJgwoCYMKAmEmMypCBgnoqRnMgR0J5QqdZUWOgrGc9AIznLISqZ8AMzM+xSOhIJPNUpjCyCTz6LCU8oJnALnwIjB7SZwBmM4IiIIp8SeQJMz4LzKenMmQOvIiMQsR4nsETryWIxBEYSc+Chmcr0EznkB9ZcxBjEGMgmM816Qs8oKYnxApjzJnngmcSchGNVNM0zTVETExiYnpLUo2rb7Vym5Z0Glt10zmKqbNMTE+ycNyY4l6RgCIw8NTo9Pq6ODVWLd6iOlNdMVR+174zOSqeWIBqfo/RUaedNTpLEWapzNvu44Zn2wytaLSWLNdq1pbNu3X9aii3EU1eHOI6tmI8ZM55A1tNodHppqnTaWxYqmMTNu3FMzHwSNu0NOo9IjRaeL2eLvO6p4s+ecZy2sxHIinnmVGFdqm7TNN2mmuieU01RmJeOn23Q6SqatPpLFqqeUzRbiJltoDV0+3aLS195ptHp7NzGOK3appnHviG1gAAAczUbJoNRVNc2eCqes0Tj9nRjY2DQWa4qm3NyY+/OY+TqhiGNuuc4SmIppimmIiI5REKmV942mTCgAAAmRAyZMAAJNWAWZiGMxmTETOVFAAEk6xyIjCBGfFQABjM+QLM4hJ+lB16qKkRiFAATMJMz4AszhJnlyXHmIJGfEiIhQAAAABAFAAMJMZnKgJMzELE5gSYyCiRyInIKmMdFASJnPNRMTE+wFDMAJGYlRMY5gryvfWo+L1iYl5XvrUfFYSWdDOGFDOGmFAAAAAAAAAARUBhUwtfbT7mdTGxGb8/qivaFSYMMtKJgADmnMFE5nMFlDmnMFDmcwBOZOcAnPLJIzg5gTPPCpGZ8FBJnCwkc5XALPRI9qYmZZYBMwRJ1n2KBlMTnKzGQDCRE5yTmZZAnIjEmYnkoHROUnVRBIzk559igTOExzycqlyBM4TERzMZ5rIJMz4QsROOZT05kyonKZwsRiFxhInM4A6suiRiE5zILic80mrHQnosdOYJEea8p5QZzyOVMCHKmCYicSnKpQJzjkUxiOZEYTM59ii5zPRJnHKCZZRHigkUxnPiyTIoAAAAAnUFRQAAAQwBkwogiiKKgk58ECZnOIgwAoCTOAWZwmcwRmeqoJEYUAEmYjqkzzwY8xSefioAAmQVjxc+RGc81QTHmoAAmQVJmITM5MCrM46RlMzMKAkZ8zE56qIJMTPjg546qAkZjxyZnyUBJqiOqpiCYyCjHpCxVEgqYUBIzCxImOeQUTPPCqJw88wcUZwpgATM55qCYiOcQ8705qo+L1YaiMTb+KwkytDOGFDOGmFAAAAAAAAAARUBhUlj7ef1VqSx9vP6oNiYyxZkxkmFywGXCcPtTC5YDPh9qcHtMGWIy4PacHtMGWKM+D2nB7TBlgM+D2nB7TBlgmeb04PacHtMSZhgeLPg9pwe0xJmGKT1wz4PacHtMSZhjEYSZ5cmfB7SKPaYMsY6JM4enD7U4PaYkyxgn2M+H2seDnnJgykRglnw+1OCc5yYMsYgmfBnw+1ODnnJiTLGIwTMZwy4PacEZyYkyxiMJOfB6cPtSKcdZyYMpzTESz4faRTgwZY9DHFDKac+JFODCZRIzleHn1XBgyxmcLEeK8MGPauDLGao6Eco5MuGM5Jpz4pgYzHFjmvSFinEYIjn1XBlIzPUmeeGWE4TBlOUJ9ZlwmMGDKco5ERheHnmSYmfHAMZznks8oWIwY9oEC4MAguDAILgwCGVwYBBcGAQXCcIJkwywYBBcGAQXBgGJM4XCVUcXiCTz6DKKcQcPtTBliMuH2pNHLqYGPuIzjmyijEdcrw+0wuWIy4facPtMGWLGZnPJlNEzP1l4PaYkzDEZcHtOD2mDLEZcHtTg9piTMMYnKRGHpwe04PamJXLAZ8HtOD2mJTMMEmcQzm3n+8Rbx4mJXMPOMzHNcM+79p3ftMSZhgM+79p3ftMSZhgM+79p3ftMSZhgMu6nP1v2E2pn+9+xMSZhiMu7nH1v2EW5+9+wxJmGIyi3P3v2L3ftMSZhgM+79p3ftMSZh5j07v2nd+0xJmHlGY9yxL07v2p3UeZ0ydUMRn3ftO79piTMPPBmYn2PTu/ad37TpkzDAZd1OfrfsXu/auJMwwSM5evB7VimIOk6kpp83jqfrW/i2GvqfrW/i0yUM4YUM4EUAAAAAAAAABFQGFSWPt5/VWpLH28/qg2gRRUAAeF/U2dNb4712minzqlw9V2ot0VcOlszciJ51Vcon3QkzEMW1K19y+iVx9D2g0mpxTcq7m5PhX0+brxMTGYnMSucrW0W8wqoDSgAAAAAAAAAAAAAAAAAAAAAAAAAAAAAgoAAAAAACCgIKAgoCCgIKAgoCCgIKAgoCCgIKAgoAACCgAAAAAAAAAAIKAAAAAAAAAAAAAAAAAAAAAAAAAAAAAAAjX1X1rfxbLW1X1rfxAoZwwoZwgoAAAAAAAAACKgMKksfbz+qtSWPt5/VBtIqKNPWbhptFT/P3aaZ8KY5zPwcDW9pr1zNOktxap+/Vzq+XSP2ufvf9b6n9b90NBzm0vBq69szEPS9eu37k13rlVdU+NU5eYMvLM5G3o9y1WimO5uzw/cq50/JqAsTMTmH1eh7S2LuKdVRNmr70c6f+Dt2btu9RFdqumumek0zmH5y+q7Jf0S//ifubrbL26Ota09MvoRFbesAAAAAAAAAAAAAAAAAAAAAAAAAAAAAAAAAAAAAAAAAAAAAAAAAAAAAAAAAAAAAAAAAAAAAAAAAAAAAAAAAAAAAAAAAAAAAAAAAAAAAAAAAAa2q+tb+LZa2q+tb+IFDOGFDOEFAAAAAAAAAARUBhUlj7ef1VqSx9vP6oNpFRR8Jvf8AW+p/W/dDQdDfIxvGp/Wj8oaum093VXqbVmnirq/Z7ZcZ9vk3jN5h4j0vWLmnu1W7tM010ziYksWbl+7TatUTXXVOIiBnE5wWLNzUXqbVqma66pxEQ+r0mx6bT6GujUxTXXXTmuueXD7vLD22rbLO2aea7k0zcmM11z0iPKPY4e97zVrapsaeZjTxPOfv/wDBvGI8vVFK6Veq3tyr9Nui9XTar47cTMU1YxmH03ZL+h3/APE/c+VfV9ko/wChXp//ALn7oSvtj4//AKO+qK6PogAD5Dcu21vQ7ne0lGj76i1XwTci7jM+PLHhOfF9Fuusp2/bdRq6sfzVEzET4z4R88PzvQ7NXr+zu47lXmq7RXFVEz4451z8p/YD9Nt3Kbtumuic01RFUT5xL0fO9itd6ZsVu3VObmmnup93h+zl8Gl2u33VafVWtr22Zp1F3HFXT15ziKY8pB9cPg9R2c3/AEWm9KsbldvainE1W6K6pn4ebs6f9Kbz2duWNTF3Qa6Kop72aZo4oiYnMY8+gPXYO0lG+37tq3pqrPd0xVma855+5j2ro3qu1p/0NNcYqnvYtzEVeGOvh1fFdmNs1e56i/Ro9bVpKqKImqqmZjijPTlL6Ptve1Oh23b6LWpu0VxM01V0VzTNWKYB9VoIvxobEayYnURbjvJj72ObZfF9pqdXHZrbtfp9Tfoqt26IuzRcmOKKqY5z58/zd/Ydwp1uw6fV3KucUYuTPnTymf2ZB1UfDdk9Rq927QarWXb970e3M1RbmueGJqmeGMdOUZ+Tw3Pc9y3/AHyvbttu1WbNuqY+jVNMTEdaqpjw/wCAP0AfAbjot+2Db7tyNwq1Gmqp4Ln0qs289JjPTn4w2uzdvW7x2W1lmNbdov1ajFN6quqZpiIpnGc58/mDr9n+0lG+3rtq3pqrPd0xVma855+5335T2Y2zV7nqL9Gj1tWkqooiaqqZmOKM9OUvrO1G839l2/TaTT151dyjE3J54iIxM++ZB9Sr4WnsvvtemjUVbvcp1Uxxd3NyrlPlxZ6t7sl2gvay3qNJuNX8/pqZr455TNMcpz7YB9Y4/abcb+1bPXqtNwd5FdMfSjMc5fI06rd+1u6XKNJfq0+mo54iqaaaKfDOOsyw7QaTedp230bV6n0vRXqoxXMzM0VRzxz5x4+wH2nZvX3tz2Sxq9Rw95cmrPDGI5VTH7m7rNTTpNFf1NUZps26q5iPHEZcjsV/ZfSe+v8AzydsNHe1WyXKrOomzFmKrlcRM/Tpimfo8gcfs5uO+b5unpNV6mnRWq/5y3GIjnE8o8Z+L7Z+ediNu1WpuxrLWsqtWbN6OOzEzivl8mxuO6bnvu917ZtV6bFm3MxNdNXDnHWqZjnjPgD7sfn2v0G+9mqKdba3Cq/aiYiv6UzEZ86Z8Pa72q3adw7GX9fYmq1cm3ieGcTTVExE4kH0g/NNpntBvOgq0+j1NdNm3XM13a7sxNUzEcs9fh7X6NYpqosW6KpzVTTET78A9UfJ9rt+1Wkv2ts26ZjU3YjirjrGZxER7Zc+72a7QafTTqqNzrr1FMcU26btWfdE+Mg+9R812Q365u+muWdTidTYxmqIxx0z4+98ztN/etfu2p0ei1tyma+KKq665nu6Yq6x5T0j4g/THP3vV3dDs+p1Vjh7y1TmnijMdXxG66Xe+zNyzqqdyuXqK6uHM1TMZ64mJ6vpt31ca/sXe1UU8Pe2IqmPKcxmANh3PXbv2f1GozbjV5rotTEYpzwxj9sseylG90U6n9MTXNMzHdxcqias889PDo0ux8zT2R1dVMzExVcmJjw+jCfyf6nUam1rp1F+7dmmqjHeVzVjr5g+wH5ptN/etfu2p0ei1tyma+KKq665nu6Yq6x5T0j4vXddLvfZm5Z1VO5XL1uurhzNUzGeuJieoP0ZXE1W+0WOzdO7cH0qrdM00f8AWnw92fyfNbdtm9dorE6+/uldiiuZ7umJnE4nwiJiIgH36vh9m3TcNo36nZ91vTft1zFNFdVWZiZ+rMTPPE9MPuAfK7hv2t03a2xttvu/R7lVuJzT9Ln15vqnwG8//uHpP8Sz+50u12/arSX7W2bdMxqbsRxVx1jM4iI9sg+sHwd3s12g0+mnVUbnXXqKY4pt03as+6J8Zdbsn2hq3PRXqNZMd/p44qq4jHFT5+8H06PzqnVbv2t3S5RpL9Wn01HPEVTTTRT4Zx1mTerO/bFoe5u66u/pbtURTdprq4qKo54z1jPP2A+13qNZVtOojbpxquH6Hz54z44y1ey9G6UbdVG7TVN3jng4piauH2/HLlaXUXp/k7rvzeuTe4K/5ya54vtJ8er07K6m9e7Kau7dvXLlyKrmK6qpmY+jHiD6wfmnZ79N7vGo02n3C5btfRqu3a65mqOuIjx58/kz1de8dk9xs1XNZXqLNzniapmmuI6xiek8wfpA87dcXbdFynpVEVR7pegAAAAAAAAAAAAAAAAAAAAAAAAAAAAAAAAAAAAAAAAAAAAAAAAAADW1X1rfxbLW1X1rfxAoZwwoZwgoAAAAAAAAACKgMKksfbz+qtSWPt5/VBtIqKPje01mbe6Tcxyu0ROfbHL9zz2LcqdBfmLtMTauYiqqI50/8Hc7S6OdRoe+ojNdmeL/ALPj/H4Pj3OfEvnaudPUzD7bc9ts7pp4rommLkRmiuOkx5T7Da9ss7ZYmuuaZuTGa656RHlHscHZN5q0VcWL8zVYqnl/1P8Agu97zVrKpsaeZjTxPOfv/wDBcx7dt3Tx1/pve81a2qbGnmY08Tzn7/8AwcYGJnLx3vN5zI+z7M2Zt7VRVMYm5VNf7v3PktJpq9Xqrdi39auce6PGX6BZtU2bNFuiMU0UxTEeyGqQ9Pxa+Zs9FRXR7gAHxn8oOvmjSafQUT9K7V3lcR5R0j5/k1NBf7S6Db6NDZ2e3NmmJj6dEzNWeufpe19HrOzWj12629wv3L9Vy3NM00cUcH0ekYxnHxdsH512Lv3dr7QXNv1VE2pv08M0VeFUc4/Zn5vTtPnbu2Wl196JmzM27mceFOIn48v2vptd2b0ms3Wjcqrt+1qKJpmO7qiImaekzmJb25bbpNz03cay1FyjrE9JpnzifAGvrN/23SaGdXOqt3KcZppt1RNVXsiGWzbva3nS1X7Fm9btxVwxNyIji92Jci32E2ui5xVXNTXTH9yaoiJ+UZfSaexa01iizYt027dEYpppjlAPz/sJqbGi3HV06q9bsTNvEd5VFOZiecc3R/lEqirQ6GqmYmma6piYnlPKHU1/Y7a9fqK79UXrNdc8VXdVRETPniYlsbn2f0m66TTaa/cv00aeMUTRVETPLHPMT5AztaSnX9mbOlr+rd0tNOfKeGMT83wmi3avbdi3Ta7mab1dcU0x5Z5V/sh+l6exTp9NasUTM02qIoiZ64iMOFruxu267W3dXduaiiu7VxVU0VUxTn5Az7GaD0HYbVVUYuaie9q909P2Y+b5fs9qrexdqNVZ1093TVxWprq8JzExM+ycftfotNMUUxTTGKYjERHg5W8dnNDvExc1FNVF6IxF23OKseU+YOd2r3vQ07Lf09rUWr169Tw0026oqxGes46MP5O/6k1H+0T/AJaWxpuxm16exdo/nbldymae8qqjipifLliPk6Wy7PY2XS16fTV3a6K6+OZuTEznER4RHkD4vsJqbGi3HV06q9bsTNvEd5VFOZiecc2x/KFYqnU6LWU5qsVUcHFTPLOc9fbE/sd3X9jtr1+orv1Res11zxVd1VERM+eJiXVu7fpr+gjRX7cXbMURRiv2Ryn3g+Qp2PYatB6Z+mdR3PDxfa0592MZz7Hp2b2/a9R6bc2u9q7lc2KrUzepiKfpe7x5Nyewe1zd4ovaqKM54OKPzw+g0Gh0236enT6S1Fu3T4R4z5zPjIPh+xG5afbNVq9Jrqos1XZjFVfKIqpzExM+HVvduN50d3badFYvW71yuuKquCqKopiPbHi627dldv3W/N+5Fyzdn61dqYji98TDyo7F7XRoq9PHfcVcxNV7ijj5eEcsRHwB69iv7L6T31/55bvaD+odf/s9f5PXa9vt7XoKNHYrrqt288M1zEzzmZ8Ijzems01Gs0d7TXJqii9RNFU09YiY8AfM/wAnP9Wav/Gj/LDkdntRb2PtTq7Gvqi1FUVW+OvlETmJiZnymH2Wy7LptlsXLOlru103KuKZuTEznGPCIYbv2f0O8RFWotzTdiMRdonFWPL2/EHL7ZbzoY2W7pLWotXr1/hiKaKoqxGYnM49zS0Wluab+TvVTdiaZvRNyInwiZiI/LPxdLR9itr0t6Ltfe6iYnMU3Zjh+URzdvX6K3rtDd0lyaqbdynhmaMRMR7AcH+T+P8AzBX7dRV+VL6lztn2mxs+knTaau5XRNc15uTEzmceUR5OiD8+7U52/thpdwuRM2Zm3XnH3ZxMe/l+19XqN/2uxop1XplmujhzTTTXE1VT5RHXLZ3HbtLuWmmxrLUXKOseE0z5xPg4NHYPa6bvFVe1VVH3JqjHzwDnfye6e5XrNZrZpmLfD3cT4TMzn9mP2sewv9o9w/w6v88Pt9LpbOjsUWNNbpt2qIxFNMObtPZ3SbVrL2qsXL1Vy9ExVFyqJiMznliIBofyhf1Db/2in/LU8v8A/G//APr/AO87m8bTY3nSU6bU13KKIrivNuYicxEx4xPmx/Q2n/Qv6K47vccHBxZjixnPXGP2A4XY/wDsdrf1rv8Akh5fyb/Y7h+tR/vPodt2bTbbttzQ2a7tVq5NUzNcxNXOMT0hjsmxabZKb1OluXq4uzE1d7MTjGemIjzB8v2F/tHuH+HV/nh1v5Qv6ht/7RT/AJam/tPZ3SbVrL2qsXL1Vy9ExVFyqJiMznliIbG8bTY3nSU6bU13KKIrivNuYicxEx4xPmD5jXaa5qP5O9LNuJmbUU3JiPKJmJ/PLR2DaNq3Lbqa7u5XrF+jMXLfeU0xHPlMZjph93oNDa0OgtaO3NVdu3Twxx4mZj2uJq+xG1am9Ny3N6xmczRbqjh+ETE4Bxtu27Ybu+WbOl1muv37dyKqaoimaJ4efXHTk++cvaNj0Oz0T6LbnjqjFVyuc1T/AM+x1AfA7z/+4ek/xLP7mPanO39sNLuFyJmzM2684+7OJj38v2vqNT2d0mq3i3udy5fi/bmmYppqjh+j08M/tbm47dpdy002NZai5R1jzpnzifAGtqO0G12NFOq9Ms10cOaaaa4mqqfKI65fJ9idDe1VO6Xojhou2KrNM+E1Vc/2fvdejsHtdN3iqvaqqj7k1Rj54fSaXS2NHYpsaa1TbtURyppgHwfYjctPtmr1ek1tUWKrsxiqvlEVU5iYmfDq3u3G86O7ttOisXrd65XXFVXBVFUUxHtjxL9rs72k3Kuiar2m1n96cRRxzHhzzEz+1q9pNq2rY9lmxp549Xerp+lXVE18Mc590A29J/8AtnX+pX/8yXp2P/sdrf1rv+SG7sG3RqexljR6ia6Kb1FUzNPKcTVMx19mG/tuzabbdtuaGzXdqtXJqmZrmJq5xiekA+d/k3+x3D9aj/eP5SPs9v8Afc/3X0GybFptkpvU6W5eri7MTV3sxOMZ6YiPM3rYdNvdNmNVcvUdzMzT3UxGc465ifIG5oP6u0v+FR+UNp42bVNizbtUzM00UxTGeuIh7AAAAAAAAAAAAAAAAAAAAAAAAAAAAAAAAAAAAAAAAAAAAAAAAAAANbVfWt/FstbVfWt/EChnDChnCCgAAAAAAAAAIqAwqSx9vP6q1MbE41HvgG2iookxExiYzl8Vvm11aHUTXbpnuLk/Rn7s+T7Z537FvUWqrd2mKqKoxMSkxly1dONSMPzkdnc9gv6Wqbmmib1nyj61P8XHnlOJcpjD51qTWcSi9XpZsXtRXFFm3Vcqnwph9PtGw06Sab+qxXejnTT4U/xlYjLWnpWvPhl2f2udJa7+/Ti9cjpP92PL3u4DpEYfSpWKxiFEVWgAAAAAAAAAAAAAAAAAAAAAAAAAAAAAAAAAAAAAAAAAAAAAAAHzm8dkNFumoq1FFdemvV86poiJpqnzmPNp6HsFpLF2m5qtTXqYpnPBFPBE+/nL68BjTTFNMU0xEREYiI8GQAAAAAAAAAAAAAAAAAAAAAAAAAAAAAAAAAAAAAAAAAAAAAAAAAAAAAAANbVfWt/FstbUz9OiPeBQzhhQzhBQAAAAAAAAAEVAYVPGau7uU1+UveqHlcpzANuJiYzHSVamnv8AB/N1zy8JbaiooCNTUbfpdTVxXrFFdXnjn822CTET7edmxasUcFq3TRT5Uxh6AL6BQAAAAAAAAAAAAAAAAAAAAAAAAAAAAAAAAAAAAAAAAAAAAAAAAAAAAAAAAAAAAAAAAAAAAAAAAAAAAAAAAAAAAAAAAAAAAAAAAAAAAAAAAAAAABo1195fmY6Ryh6ai/GJt25zM9ZjwedunEIPWlnDGmGQKAAAAAAAAAAACSwqhmkwDXroylF27a5ROafKXvNLCaAZRrI/vW6o93M9Lt+VfyhhwHADP0u35V/KD0u35V/KGHAcAM/S7flX8oPS7flX8oYcBwAz9Lt+Vfyg9Lt+VfyhhwHADP0u35V/KD0u35V/KGHAcAM/S7flX8oPS7flX8oYcBwAz9Lt+Vfyg9Lt+VfyhhwHADP0u35V/KD0u35V/KGHAcAM/S7flX8oPS7flX8oYcBwAz9Lt+Vfyg9Lt+VfyhhwHADP0u35V/KD0u35V/KGHAcAM/S7flX8oPS7flX8oYcBwAz9Lt+Vfyg9Lt+VfyhhwHADP0u35V/KD0u35V/KGHAcAM/S7flX8oPS7flX8oYcBwAz9Lt+Vfyg9Lt+VfyhhwHADP0u35V/KD0u35V/KGHAcAM/S7flX8oPS7flX8oYcBwAz9Lt+Vfyg9Lt+VfyhhwHADP0u35V/KD0u35V/KGHAcAM/S7flX8oPS7flX8oYcBwAz9Lt+Vfyg9Lt+VfyhhwHADP0u35V/KD0u35V/KGHAcAM/S7flX8oPS7flX8oYcBwAz9Lt+Vfyg9Lt+VfyhhwHADP0u35V/KD0u35V/KGHAcAM/S7flX8oPS7flX8oYcBwAz9Lt+Vfyg9Lt+VfyhhwHADP0u35V/KD0u35V/KGHAcAM/S7flX8oPS7flX8oYcBwAz9Lt+Vfyg9Lt+VfyhhwHADP0u35V/KD0u35V/KGHAcAM/S7flX8oPS7flX8oYcBwAz9Lt+Vfyg9Lt+VfyhhwHADP0u35V/KD0u35V/KGHAcAM/S7flX8oPS7flX8oYcBwAz9Lt+Vfyg9Lt+VfyhhwHADP0u35V/KD0u35V/KGHAcAM/S7flX8oPS7flX8oYcBwAz9Lt+Vfyg9Lt+VfyhhwHADP0u35V/KD0u35V/KGHAcAM/S7flX8oPS7flX8oYcBwAz9Lt+Vfyg9Lt+VfyhhwHADP0u35V/KD0u35V/KGHAcAM/S7flX8oPS7flX8oYcBwAz9Lt+Vfyg9Lt+VfyhhwHADP0u35V/KD0u35V/KGHAcAM/S7flX8oPS7flX8oYcBwAz9Lt+Vfyg9Lt+VfyhhwHADP0u35V/KD0u35V/KGHAcAM/S7flX8oPS7flX8oYcBwAz9Lt+Vfyg9Lt+VfyhhwHADP0u35V/KD0u35V/KGHAcAM/S7flX8oPS7flX8oYcBwAz9Lt+Vfyg9Lt+VfyhhwHADP0u35V/KD0u35V/KGHAcAM/S7flX8oPS7flX8oYcBwAznWU/3aKp9/J5V37tzl9WPKGXAsUA86LeHtTCxSyiAIZIoAAAAAAAAAAAACKAmEwyAY4MKAmDCgJgwoCYMKAmDCgJgwoCYMKAmDCgJgwoCYMKAmDCgJgwoCYMKAmDCgJgwoCYMKAmDCgJgwoCYMKAmDCgJgwoCYMKAmDCgJgwoCYMKAmDCgJgwoCYMKAmDCgJgwoCYMKAmDCgJgwoCYMKAmDCgJgwoCYMKAmDCgJgwoCYMKAmDCgJgwoCYMKAmDCgJgwoCYMKAmDCgJgwoCYMKAmDCgJgwoCYMKAmDCgJgwoCYMKAmDCgJgwoCYMKoJgUAAAAAAAAAAAAAAAAAAAAAAAAAAAAAAAAAAAAAAAAAAAAAAAAAAAAAAAAAAAAAAAAAAAAAAAAAAAAAAAAAAAAAAAAAAAAAAAAAAAAAAAAAAAAAAAAAAAAAAAAAAAAAAAAAAAAAAAAAAAAAAAAAAAAAAAAAAAAAAAAAAAAAAAAAAAAAAAAAAAAAAAAAAAAAAAAAAAAAAAAAAAAAAAAAAAAAAAAAAAAAAAAAAAAAAAAAAAAAAAAAAAAAAAAAAAAAAAAAAAAAAAAAAAAAAAAAAAAAAAAAAAAAAAAAAAAAAAAAAAAAAAAAAAAAAAAAAAAAAAAAAAAAAAAAAAAAAAAAAAAAAAAAAAAAAAAAAAAAAAAAAAAAAAAAAAAAAAAAAAAAAAAAAAAAAAAAAAAAAAAAAAAAAAAAAAAAAAAAAAAAAAAAAAAAAAAAAAAAAAAAAAAAAAAAAAAAAAAAAAAAAAAAAAAAAAAAAAAAAAAAAAAAAAAAAAAAAAAAAAAAAAAAAAAAAAAAAAAAAAAAAAAAAAAAAAAAAAAAAAAAAAAAAAAAAAAAAAAAAAAAAAAAAAAAAAAAAAAAAAAAAAAAAAAAAAAAAAAAAAAAAAAAAAAAAAAAAAAAAAAAAAAAAAAAAAAAAAAAAAAAAAAAAAAAAAAAAAAAAAAAAAAAAAAAAAAAAAAAAAAAAAAAAAAAAAAAAAAAAAAAAAAAAAAAAAAAAAAAAAAAAAAAAAAAAAAAAAAAAAAAAAAAAAAAAAAAAAAAAAAAAAAAAAAAAAAAAAAAAAAAAAAAAAAAAAAAAAAAAAAAAAAAAAAAAAAAAAAAAAAAAAAAAAAAAAAAAAAAAAAAAAAAAAAAAAAAAAAAAAAAAAAAAAAAAAAAAAAAAAAAAAAAAAAAAAAAAAAAAAAAAAAAAAAAAAAAAAAAAAAAAAAAAAAAAAAAAAAAAAAAAAAAAAAAAAAAAAAAAAAAAAAAAAAAAAAAAAAAAAAAAAAAAAAAAAAAAAAAAAAAAAAAAAAAAAAAAAAAAAAAAAAAAAAAAAAAAAAAAAAAAAAAAAAAAAAAAAAAAAAAAAAAAAAAAAAAAAAAAAAAAAAAAAAAAAAAAAAAAAAAAAAAAAAAAAAAAAAAAAAAAAAAAAAAAAAAAAAAAAAAAAAAAAAAAAAAAAAAAAAAAAAAAAAAAAAAAAAAAAAAAAAAAAAAAAAAAAAAAAAAAAAAAAAAAAAAAAAAAAAAAAAAAAAAAAAAAAAAAAAAAAAAAAAAAAAAAAAAAAAAAAAAAAAAAAAAAAAAAAAAAAAAAAAAAAAAAAAAAAAAAAAAAAAAAAAAAAAAAAAAAAAAAAAAAAAAAAAAAAAAAAAAAAAAAAAAAAAAAAAAAAAAAAAAAAAAAAAAAAAAAAAAAAAAAAAAAAAAAAAAAAAAAAAAAAAAAAAAAAAAAAAAAAAAAAAAAAAAAAAAAAAAAAAAAAAAAAAAAAAAAAAAAAAAAAAAAAAAAAAAAAAAAAAAAAAAAAAAAAAAAAAAAAAAAAAAAAAAAAAAAAAAAAAAAAAAAAAAAAAAAAAAAAAAAAAAAAAAAAAAAAAAAAAAAAAAAAAAAAAAAAAAAAAAAAAAAAAAAAAAAAAAAAAAAAAAAAAAAAAAAAAAAAAAAAAAAAAAAAAAAAAAAAAAAAAAAAAAAAAAAAAAAAAAAAAAAAAAAAAAAAAAAAAAAAAAAAAAAAAAAAAAAAAAAAAAAAAAAAAAAAAAAAAAAAAAAAAAAAAAAAAAAAAAAAAAAAAAAAAAAAAAAAAAAAAAAAAAAAAAAAAAAAAAAAAAAAAAAAAAAAAAAAAAAAAAAAAAAAAAAAAAAAAAAAAAAAAAAAAAAAAAAAAAAAAAAAAAAAAAAAAAAAAAAAAAAAAAAAAAAAAAAAAAAAAAAAAAAAAAAAAAAAAAAAAAAAAAAAAAAAAAAAAAAAAAAAAAAAAAAAAAAAAAAAAAAAAAAAAAAAAAAAAAAAAAAAAAAAAAAAAAAAAAAAAAAAAAAAAAAAAAAAAAAAAAAAAAAAAAAAAAAAAAAAAAAAAAAAAAAAAAAAAAAAAAAAAAAAAAAAAAAAAAAAAAAAAAAAAAAAAAAAAAAAAAAAAAAAAAAAAAAAAAAAAAAAAAAAAAAAAAAAAAAAAAAAAAAAAAAAAAAAAAAAAAAAAAAAAAAAAAAAAAAAAAAAAAAAAAAAAAAAAAAAAAAAAAAAAAAAAAAAAAAAAAAAAAAAAAAAAAAAAAAAAAAAAAAAAAAAAAAAAAAAAAAAAAAAAAAAAAAAAAAAAAAAAAAAAAAAAAAAAAAAAAAAAAAAAAAAAAAAAAAAAAAAAAAAAAAAAAAAAAAAAAAAAAAAAAAAAAAAAAAAAAAAAAAAAAAAAAAAAAAAAAAAAAAAAAAAAAAAAAAAAAAAAAAAAAAAAAAAAAAAAAAAAAAAAAAAAAAAAAAAAAAAAAAAAAAAAAAAAAAAAAAAAAAAAAAAAAAAAAAAAAAAAAAAAAAAAAAAAAAAAAAAAAAAAAAAAAAAAAAAAAAAAAAAAAAAAAAAAAAAAAAAAAAAAAAAAAAAAAAAAAAAAAAAAAAAAAAAAAAAAAAAAAAAAAAAAAAAAAAAAAAAAAAAAAAAAAAAAAAAAAAAAAAAAAAAAAAAAAAAAAAAAAAAAAAAAAAAAAAAAAAAAAAAAAAAAAAAAAAAAAAAAAAAAAAAAAAAAAAAAAAAAAAAAAAAAAAAAAAAAAAAAAAAAAAAAAAAAAAAAAAAAAAAAAAAAAAAAAAAAAAAAAAAAAAAAAAAAAAAAAAAAAAAAAAAAAAAAAAAAAAAAAAAAAAAAAAAAAAAAAAAAAAAAAAAAAAAAAAAAAAAAAAAAAAAAAAAAAAAAAAAAAAAAAAAAAAAAAAAAAAAAAAAAAAAAAAAAAAAAAAAAAAAAAAAAAAAAAAAAAAAAAAAAAAAAAAAAAAAAAAAAAAAAAAAAAAAAAAAAAAAAAAAAAAAAAAAAAAAAAAAAAAAAAAAAAAAAAAAAAAAAAAAAAAAAAAAAAAAAAAAAAAAAAAAAAAAAAAAAAAAAAAAAAAAAAAAAAAAAAAAAAAAAAAAAAAAAAAAAAAAAAAAAAAAAAAAAAAAAAAAAAAAAAAAAAAAAAAAAAAAAAAAAAAAAAAAAAAAAAAAAAAAAAAAAAAAAAAAAAAAAAAAAAAAAAAAAAAAAAAAAAAAAAAAAAAAAAAAAAAAAAAAAAAAAAAAAAAAAAAAAAAAAAAAAAAAAAAAAAAAAAAAAAAAAAAAAAAAAAAAAAAAAAAAAAAAAAAAAAAAAAAAAAAAAAAAAAAAAAAAAAAAAAAAAAAAAAAAAAAAAAAAAAAAAAAAAAAAAAAAAAAAAAAAAAAAAAAAAAAAAAAAAAAAAAAAAAAAAAAAAAAAAAAAAAAAAAAAAAAAAAAAAAAAAAAAAAAAAAAAAAAAAAAAAAAAAAAAAAAAAAAAAAAAAAAAAAAAAAAAAAAAAAAAAAAAAAAAAAAAAAAAAAAAAAAAAAAAAAAAAAAAAAAAAAAAAAAAAAAAAAAAAAAAAAAAAAAAAAAAAAAAAAAAAAAAAAAAAAAAAAAAAAAAAAAAAAAAAAAAAAAAAAAAAAAAAAAAAAAAAAAAAAAAAAAAAAAAAAAAAAAAAAAAAAAAAAAAAAAAAAAAAAAAAAAAAAAAAAAAAAAAAAAAAAAAAAAAAAAAAAAAAAAAAAAAAAAAAAAAAAAAAAAAAAAAAAAAAAAAAAAAAAAAAAAAAAAAAAAAAAAAAAAAAAAAAAAAAAAAAAAAAAAAAAAAAAAAAAAAAAAAAAAAAAAAAAAAAAAAAAAAAAAAAAAAAAAAAAAAAAAAAAAAAAAAAAAAAAAAAAAAAAAAAAAAAAAAAAAAAAAAAAAAAAAAAAAAAAAAAAAAAAAAAAAAAAAAAAAAAAAAAAAAAAAAAAAAAAAAAAAAAAAAAAAAAAAAAAAAAAAAAAAAAAAAAAAAAAAAAAAAAAAAAAAAAAAAAAAAAAAAAAAAAAAAAAAAAAAAAAAAAAAAAAAAAAAAAAAAAAAAAAAAAAAAAAAAAAAAAAAAAAAAAAAAAAAAAAAAAAAAAAAAAAAAAAAAAAAAAAAAAAAAAAAAAAAAAAAAAAAAAAAAAAAAAAAAAAAAAAAAAAAAAAAAAAAAAAAAAAAAAAAAAAAAAAAAAAAAAAAAAAAAAAAAAAAAAAAAAAAAAAAAAAAAAAAAAAAAAAAAAAAAAAAAAAAAAAAAAAAAAAAAAAAAAAAAAAAAAAAAAAAAAAAAAAAAAAAAAAAAAAAAAAAAAAAAAAAAAAAAAAAAAAAAAAAAAAAAAAAAAAAAAAAAAAAAAAAAAAAAAAAAAAAAAAAAAAAAAAAAAAAAAAAAAAAAAAAAAAAAAAAAAAAAAAAAAAAAAAAAAAAAAAAAAAAAAAAAAAAAAAAAAAAAAAAAAAAAAAAAAAAAAAAAAAAAAAAAAAAAAAAAAAAAAAAAAAAAAAAAAAAAAAAAAAAAAAAAAAAAAAAAAAAAAAAAAAAAAAAAAAAAAAAAAAAAAAAAAAAAAAAAAAAAAAAAAAAAAAAAAAAAAAAAAAAAAAAAAAAAAAAAAAAAAAAAAAAAAAAAAAAAAAAAAAAAAAAAAAAAAAAAAAAAAAAAAAAAAAAAAAAAAAAAAAAAAAAAAAAAAAAAAAAAAAAAAAAAAAAAAAAAAAAAAAAAAAAAAAAAAAAAAAAAAAAAAAAAAAAAAAAAAAAAAAAAAAAAAAAAAAAAAAAAAAAAAAAAAAAAAAAAAAAAAAAAAAAAAAAAAAAAAAAAAAAAAAAAAAAAAAAAAAAAAAAAAAAAAAAAAAAAAAAAAAAAAAAAAAAAAAAAAAAAAAAAAAAAAAAAAAAAAAAAAAAAAAAAAAAAAAAAAAAAAAAAAAAAAAAAAAAAAAAAAAAAAAAAAAAAAAAAAAAAAAAAAAAAAAAAAAAAAAAAAAAAAAAAAAAAAAAAAAAAAAAAAAAAAAAAAAAAAAAAAAAAAAAAAAAAAAAAAAAAAAAAAAAAAAAAAAAAAAAAAAAAAAAAAAAAAAAAAAAAAAAAAAAAAAAAAAAAAAAAAAAAAAAAAAAAAAAAAAAAAAAAAAAAAAAAAAAAAAAAAAAAAAAAAAAAAAAAAAAAAAAAAAAAAAAAAAAAAAAAAAAAAAAAAAAAAAAAAAAAAAAAAAAAAAAAAAAAAAAAAAAAAAAAAAAAAAAAAAAAAAAAAAAAAAAAAAAAAAAAAAAAAAAAAAAAAAAAAAAAAAAAAAAAAAAAAAAAAAAAAAAAAAAAAAAAAAAAAAAAAAAAAAAAAAAAAAAAAAAAAAAAAAAAAAAAAAAAAAAAAAAAAAAAAAAAAAAAAAAAAAAAAAAAAAAAAAAAAAAAAAAAAAAAAAAAAAAAAAAAAAAAAAAAAAAAAAAAAAAAAAAAAAAAAAAAAAAAAAAAAAAAAAAAAAAAAAAAAAAAAAAAAAAAAAAAAAAAAAAAAAAAAAAAAAAAAAAAAAAAAAAAAAAAAAAAAAAAAAAAAAAAAAAAAAAAAAAAAAAAAAAAAAAAAAAAAAAAAAAAAAAAAAAAAAAAAAAAAAAAAAAAAAAAAAAAAAAAAAAAAAAAAAAAAAAAAAAAAAAAAAAAAAAAAAAAAAAAAAAAAAAAAAAAAAAAAAAAAAAAAAAAAAAAAAAAAAAAAAAAAAAAAAAAAAAAAAAAAAAAAAAAAAAAAAAAAAAAAAAAAAAAAAAAAAAAAAAAAAAAAAAAAAAAAAAAAAAAAAAAAAAAAAAAAAAAAAAAAAAAAAAAAAAAAAAAAAAAAAAAAAAAAAAAAAAAAAAAAAAAAAAAAAAAAAAAAAAAAAAAAAAAAAAAAAAAAAAAAAAAAAAAAAAAAAAAAAAAAAAAAAAAAAAAAAAAAAAAAAAAAAAAAAAAAAAAAAAAAAAAAAAAAAAAAAAAAAAAAAAAAAAAAAAAAAAAAAAAAAAAAAAAAAAAAAAAAAAAAAAAAAAAAAAAAAAAAAAAAAAAAAAAAAAAAAAAAAAAAAAAAAAAAAAAAAAAAAAAAAAAAAAAAAAAAAAAAAAAAAAAAAAAAAAAAAAAAAAAAAAAAAAAAAAAAAAAAAAAAAAAAAAAAAAAAAAAAAAAAAAAAAAAAAAAAAAAAAAAAAAAAAAAAAAAAAAAAAAAAAAAAAAAAAAAAAAAAAAAAAAAAAAAAAAAAAAAAAAAAAAAAAAAAAAAAAAAAAAAAAAAAAAAAAAAAAAAAAAAAAAAAAAAAAAAAAAAAAAAAAAAAAAAAAAAAAAAAAAAAAAAAAAAAAAAAAAAAAAAAAAAAAAAAAAAAAAAAAAAAAAAAAAAAAAAAAAAAAAAAAAAAAAAAAAAAAAAAAAAAAAAAAAAAAAAAAAAAAAAAAAAAAAAAAAAAAAAAAAAAAAAAAAAAAAAAAAAAAAAAAAAAAAAAAAAAAAAAAAAAAAAAAAAAAAAAAAAAAAAAAAAAAAAAAAAAAAAAAAAAAAAAAAAAAAAAAAAAAAAAAAAAAAAAAAAAAAAAAAAAAAAAAAAAAAAAAAAAAAAAAAAAAAAAAAAAAAAAAAAAAAAAAAAAAAAAAAAAAAAAAAAAAAAAAAAAAAAAAAAAAAAAAAAAAAAAAAAAAAAAAAAAAAAAAAAAAAAAAAAAAAAAAAAAAAAAAAAAAAAAAAAAAAAAAAAAAAAAAAAAAAAAAAAAAAAAAAAAAAAAAAAAAAAAAAAAAAAAAAAAAAAAAAAAAAAAAAAAAAAAAAAAAAAAAAAAAAAAAAAAAAAAAAAAAAAAAAAAAAAAAAAAAAAAAAAAAAAAAAAAAAAAAAAAAAAAAAAAAAAAAAAAAAAAAAAAAAAAAAAAAAAAAAAAAAAAAAAAAAAAAAAAAAAAAAAAAAAAAAAAAAAAAAAAAAAAAAAAAAAAAAAAAAAAAAAAAAAAAAAAAAAAAAAAAAAAAAAAAAAAAAAAAAAAAAAAAAAAAAAAAAAAAAAAAAAAAAAAAAAAAAAAAAAAAAAAAAAAAAAAAAAAAAAAAAAAAAAAAAAAAAAAAAAAAAAAAAAAAAAAAAAAAAAAAAAAAAAAAAAAAAAAAAAAAAAAAAAAAAAAAAAAAAAAAAAAAAAAAAAAAAAAAAAAAAAAAAAAAAAAAAAAAAAAAAAAAAAAAAAAAAAAAAAAAAAAAAAAAAAAAAAAAAAAAAAAAAAAAAAAAAAAAAAAAAAAAAAAAAAAAAAAAAAAAAAAAAAAAAAAAAAAAAAAAAAAAAAAAAAAAAAAAAAAAAAAAAAAAAAAAAAAAAAAAAAAAAAAAAAAAAAAAAAAAAAAAAAAAAAAAAAAAAAAAAAAAAAAAAAAAAAAAAAAAAAAAAAAAAAAAAAAAAAAAAAAAAAAAAAAAAAAAAAAAAAAAAAAAAAAAAAAAAAAAAAAAAAAAAAAAAAAAAAAAAAAAAAAAAAAAAAAAAAAAAAAAAAAAAAAAAAAAAAAAAAAAAAAAAAAAAAAAAAAAAAAAAAAAAAAAAAAAAAAAAAAAAAAAAAAAAAAAAAAAAAAAAAAAAAAAAAAAAAAAAAAAAAAAAAAAAAAAAAAAAAAAAAAAAAAAAAAAAAAAAAAAAAAAAAAAAAAAAAAAAAAAAAAAAAAAAAAAAAAAAAAAAAAAAAAAAAAAAAAAAAAAAAAAAAAAAAAAAAAAAAAAAAAAAAAAAAAAAAAAAAAAAAAAAAAAAAAAAAAAAAAAAAAAAAAAAAAAAAAAAAAAAAAAAAAAAAAAAAAAAAAAAAAAAAAAAAAAAAAAAAAAAAAAAAAAAAAAAAAAAAAAAAAAAAAAAAAAAAAAAAAAAAAAAAAAAAAAAAAAAAAAAAAAAAAAAAAAAAAAAAAAAAAAAAAAAAAAAAAAAAAAAAAAAAAAAAAAAAAAAAAAAAAAAAAAAAAAAAAAAAAAAAAAAAAAAAAAAAAAAAAAAAAAAAAAAAAAAAAAAAAAAAAAAAAAAAAAAAAAAAAAAAAAAAAAAAAAAAAAAAAAAAAAAAAAAAAAAAAAAAAAAAAAAAAAAAAAAAAAAAAAAAAAAAAAAAAAAAAAAAAAAAAAAAAAAAAAAAAAAAAAAAAAAAAAAAAAAAAAAAAAAAAAAAAAAAAAAAAAAAAAAAAAAAAAAAAAAAAAAAAAAAAAAAAAAAAAAAAAAAAAAAAAAAAAAAAAAAAAAAAAAAAAAAAAAAAAAAAAAAAAAAAAAAAAAAAAAAAAAAAAAAAAAAAAAAAB6YjygxHlCiiYjygxHlCgJiPKDEeUGTmBiPKE5eS4UGOI8jEfdZAMcR90xH3WQDHEfdMR91kAxxH3TEfdZAMcR90xH3WQDHEfdMR91kAxxH3TEfdZAMcR90xH3WQDHEfdMR91kAxxH3TEfdZAMcR90xH3WQDHEfdMR91kAxxH3TEfdZAMcR90xH3WQDHEfdMR91kAxxH3TEfdZAMcR90xH3WQDHEfdMR91kAxxH3TEfdZAMcR90xH3WQDHEfdMR91kAxxH3TEfdZAMcR90xH3WQDHEfdMR91kAxxH3TEfdZAMcR90xH3WQDHEfdMR91kAxxH3TEfdZAMcR90xH3WQDHEfdMR91kAxxH3TEfdZAMcR90xH3WQDHEfdMR91kAxxH3TEfdZAMcR90xH3WQDHEfdMR91kAxxH3TEfdZAMcR90xH3WQDHEfdMR91kAxxH3TEfdZAMcR90xH3WQDHEfdMR91kAxxH3TEfdZAMcR90xH3WQDHEfdMR91kAxxH3TEfdZAMcR90xH3WQDHEfdMR91kAxxH3TEfdZAMcR90xH3WQDHEfdMR91kAxxH3TEfdZAMcR90xH3WQDHEfdMR91kAxxH3TEfdZAMcR90xH3WQDHEfdMR91kAxxH3TEfdZAMcR90xH3WQDHEeRy8mQCYjygxHlBg5gYjygxHlBlQTEeUGI8oUBMR5QKAAgKnXonX3KBhQAAAAAAAAAAAAAAAAAAAAAAAAAAAAAAAAAAAAAAAAAAAAAAAAAAAAAAAAAAAAAAAAAAAAAAAAAAAAAAAAAAAAAAAAAAAAAAAAAAAAAAAAAAAAAAAAAAAAAAAAAAAABMHTqqAox6e5QUABjPOcLM4giMQAoAAAAACAKCAogCiAKIAogCiAKIAogCiAKIAogCiAKIAogCiAKIAogCiAKIAogCiAKIAogCiAKIAogCiAKIAogCiAKIAogCiAKIAogCiAKIAogCiAKIAogCiAKIAogCiAKIAogCiAKIAogCiAKIAogCiAKIAogCiAKIoAgCgAAAiRynDJJjMAokTmAE61MmNHjPmyAAAAARUBGF69RZo4rlXDBeu02bc11dIcLU6ivUXOOueXhHk46urGnH+uulpTef8bl3dapnFqiIjzqa/p+q9b+GGsPDOtef17Y0qR+Nn0/Vet/DB6fqvW/hhrCbl+V2qcNn0/Vet/DB6fqvW/hhrBuX5Xapw2fT9V638MHp+q9b+GGsG5fk2qcNn0/Vet/DB6fqvW/hhrBuX5NqnDZ9P1Xrfwwen6r1v4Yawbl+Tapw2fT9V638MHp+q9b+GGsG5fk2qcNn0/Vet/DB6fqvW/hhrBuX5NqnDZ9P1Xrfwwen6r1v4Yawbl+Tapw2fT9V638MHp+q9b+GGsG5fk2qcNn0/Vet/DB6fqvW/hhrBuX5NqnDZ9P1Xrfwwen6r1v4Yawbl+Tapw2fT9V638MHp+q9b+GGsG5fk2qcNn0/Vet/DB6fqvW/hhrBuX5NqnDZ9P1Xrfwwen6r1v4Yawbl+Tapw2fT9V638MHp+q9b+GGsG5fk2qcNn0/Vet/DB6fqvW/hhrBuX5NqnDZ9P1Xrfwwen6r1v4Yawbl+Tapw2fT9V638MHp+q9b+GGsG5fk2qcNn0/Vet/DB6fqvW/hhrBuX5NqnDZ9P1Xrfwwen6r1v4Yawbl+Tapw2fT9V638MHp+q9b+GGsG5fk2qcNn0/Vet/DB6fqvW/hhrBuX5NqnDZ9P1Xrfwwen6r1v4Yawbl+Tapw2fT9V638MHp+q9b+GGsG5fk2qcNn0/Vet/DB6fqvW/hhrBuX5NqnDZ9P1Xrfwwen6r1v4Yawbl+Tapw2fT9V638MHp+q9b+GGsG5fk2qcNn0/Vet/DB6fqvW/hhrBuX5NqnDZ9P1Xrfwwen6r1v4Yawbl+Tapw2fT9V638MHp+q9b+GGsG5fk2qcNn0/Vet/DB6fqvW/hhrBuX5NqnDZ9P1Xrfwwen6r1v4Yawbl+Tapw2fT9V638MHp+q9b+GGsG5fk2qcNn0/Vet/DB6fqvW/hhrBuX5NqnDZ9P1Xrfwwen6r1v4Yawbl+Tapw2fT9V638MHp+q9b+GGsG5fk2qcNn0/Vet/DB6fqvW/hhrBuX5NqnDZ9P1Xrfwwen6r1v4Yawbl+Tapw2fT9V638MHp+q9b+GGsG5fk2qcNn0/Vet/DB6fqvW/hhrBuX5NqnDZ9P1Xrfwwen6r1v4Yawbl+Tapw2fT9V638MHp+q9b+GGsG5fk2qcNn0/Vet/DB6fqvW/hhrBuX5NqnDZ9P1Xrfwwen6r1v4Yawbl+Tapw2fT9V638MHp+q9b+GGsG5fk2qcNn0/Vet/DB6fqvW/hhrBuX5NqnDZ9P1Xrfwwen6r1v4Yawbl+Tapw2fT9V638MHp+q9b+GGsG5fk2qcNn0/Vet/DB6fqvW/hhrBuX5NqnDZ9P1Xrfwwen6r1v4Yawbl+Tapw2fT9V638MHp+q9b+GGsG5fk2qcNn0/Vet/DB6fqvW/hhrBuX5NqnDZ9P1Xrfwwen6r1v4Yawbl+Tapw2fT9V638MHp+q9b+GGsG5fk2qcNn0/Vet/DB6fqvW/hhrBuX5NqnDZ9P1Xrfwwen6r1v4Yawbl+U2qcOjZ3WqJxdoiY86XRtXqL1HFbq4ofOvXTaiuxXx0Ty8Y83bT+RMTizjqfHiYzV9CPOzdpvW6a6OkvR7onPl4pjCiKoAAAAx6VBV4T5AFPKmPcyTwUAAAAAEByt3uZqotx0j6Uuc2dx/ptz4flDWfL1pzeX0tGMUgAc3UAAAAAAAAAAAAAAAAAAAAAAAAAAAAAAAAAAAAAAAAAAAAAAAAAAAAAAAAAAAAAAAAAAAAAAAAAAAAAAAAAAAAAAAAAAAAAAAAAAAAAAAAAAAAAAAAAB0douYqrtz0n6UOq4O3f0238fyl3n0Pjzmj52vGLqA9DiAAAAxq50z7hfABQAAAAAEVAcHcf6bc+H5Q12xuP8ATbnw/KGu+VqfeX09L6QAMOgAAAAAAAAAAAAAAAAAAAAAAAAAAAAAAAAAAAAAAAAAAAAAALFFVUZimZ90JMTE4mJifaYMgERNU4iJn3ACzTVT1pmPfCAAAAAA9dPZi7MzM4iCIzOEmcRl5D11FmLUxMTmJYW7dVyrEfGVms5wRaMZYjZr0tNNuauKZmIy1iazHsi0T6AEUAAAAAAAAAAAAAAAAAAAAAAAAAAAAAAAAAAAAAAAAAAAAAAAAABsbd/Tbfx/KXecHbv6bb+P5S7z3/G+jwfI+6gPS84AAAAAAAAAAAAioDg7j/Tbnw/KGu2Nx/ptz4flDXfK1PvL6el9IAGHQAAAAAAAAAAAAAAAAAAAAAAAAAAAAAAAAAAAAAAAAAAAAABsaOvFU0efOF1lH1a/hLXt1cFcVeUt+5T3lqYjxjMOtf6rhyt/Nsue2tHRimavPlDVdCiItWoifCOaacecrqT4w1tVXm5FPk8IiZnERmVqqmqqap8W7YtxbozP1p6ykR1ysz0Q1Y092f7v7WNduuj61Mw2KtXEVfRpzHnl60V03qJ5cvGJa6Kz4iWeq0eZhoM+4uYzw8i9R3dyafDwb9MZpiPYlaZzEra+PMOfRarrjNNMzDKxNyJnu4z5w2ar9qj6OenlDy0X1qvcdMRMREnVMxOYed6bk1R3kY8obOlt1UUzxRiZl5av61Pue1i53lMzjGJw1WI6mLT/AC89TF2ZnhzwYeMWLkxnhe9+/wAEzRw55dcstLXxW8eNPImItbCxMxXLSmMTiSmmapxTGZl66mjhuzPhPN6aOjnNflyhziv9YdJt/OXjVarojNVOIYNjWV5mKI8OctdLRETiCszMZkARoAAAAAAAAAAAAAAAAAAAAAAAAAAAAAAAAAAAAAAAAAAAAABsbd/Tbfx/KXecHbv6bb+P5S7z3/G+jwfI+6gPS84AAAAAAAAAAAAioDg7j/Tbnw/KGu2Nx/ptz4flDXfK1PvL6el9IAGHQAAAAAAAAAAAAAAAAAAAAAAAAAAAAAAAAAAAAAAAAAAAAAAbumr4rUR408mk9tLXw3OHwqb05xLF4zDKm1/0vHhH0npqq+G3w+NT2xHFnx6NLU18V2Y8I5Olv5iXOv8AUvKPrRl0qscM8XTHNzW9YuRdt4nrHKYZ05/GtSP1jnTf9Vablij6sxGXnVpPpfRqxHtelNmi3R9KInHWZajq4YnHLw1VdNdcTTOeTb6UfBoXJiquZpjEeEN//wBH8EpOZlq8YiHObGi+tV7mu2NF9ar3OdPs3f6ms+tT7mej+zq97DWfWp9zPR/Z1e90j7sT9Hjqvtp9xpq+C7HlPI1X20+55Oczi2W4jNcNzV0cVvi8aWdumLVmM+EZlbVUXLcT59Xlq68URTHWp2nEf05Rmf5atdU11TVPigPO9AAAAAAAAAAAAAAAAAAAAAAAAAAAAAAAAAAAAAAAAAAAAAAAADY27+m2/j+Uu84O3f0238fyl3nv+N9Hg+R91Ael5wAAAAAAAAAAABFQHB3H+m3Ph+UNdsbj/Tbnw/KGu+VqfeX09L6QAMOgAAAAAAAAAAAAAAAAAAAAAAAAAAAAAAAAAAAAAAAAAAAAAARMxMTHWAB6ekXfv/sh5zOZzIEzM+0iIgImaZzE4kBXrGouxHWJ+DCu5XX9arLEXqlOmB6d/dxji5e6HmJEzBMRIyorqozwzjLEFZV3KrkxNU5wUXa6IxTViPcxDM+0xHpaqqq6s1TmUGVqmKrkRVMRHjk9yeobmno4LUZ6zzal+vjuzPh0htXrtNNqeGqJmeUYlpOt5xGIc6RmcyAOTqAAAAAAAAAAAAAAAAAAAAAAAAAAAAAAAAAAAAAAAAAAAAAAAA2Nu/ptv4/lLvODt39Nt/H8pd57/jfR4PkfdQHpecAAAAAAAAAAAARUBwdx/ptz4flDXbG4/wBNufD8oa75Wp95fT0vpAAw6AAAAAAAAAAAAAAAAAAAAAAAAAAAAAAAAAAAAAAAAAAAAAAAAAAAAAAAAAAAAAAAAAAAAAAAAAAAAAAAAAAAAAAAAAAAAAAAAAAAAAAAAAAAAAAAAAANjbv6bb+P5S7zg7d/Tbfx/KXee/430eD5H3UB6XnAAAAAAAAAAAAEUByd3tYqoux0n6Muc+ivWqb1uqivpLhajT12LnBXHLwnzeD5GnMT1Q9vx9SJjpl5APM9QAAAAAAAAAAAAAAAAAAAAAAAAAAAAAAAAAAAAAAAAAAAAAAAAAAAAAAAAAAAAAAAAAAAAAAAAAAAAAAAAAAAAAAAAAAAAAAAAAAAAAAAAAAAAAAAAD109iu/XwURy8Z8liJmcQkzERmW5tFrNVdyekfRh1XnZtU2bdNFHSHo+np06K4fM1L9dsqA6MAAAAAAAAAAAACKgDzvWaL1HDcp4oegkxn2ROHKu7VVE5tVxjyqa/oGq9V+KHdHCfj0l2jXvDhegar1X4oPQNV6r8UO6J21Gu5u4XoGq9V+KD0DVeq/FDuh21DubuF6BqvVfig9A1XqvxQ7odtQ7m7hegar1X4oPQNV6r8UO6HbUO5u4XoGq9V+KD0DVeq/FDuh21DubuF6BqvVfig9A1XqvxQ7odtQ7m7hegar1X4oPQNV6r8UO6HbUO5u4XoGq9V+KD0DVeq/FDuh21DubuF6BqvVfig9A1XqvxQ7odtQ7m7hegar1X4oPQNV6r8UO6HbUO5u4XoGq9V+KD0DVeq/FDuh21DubuF6BqvVfig9A1XqvxQ7odtQ7m7hegar1X4oPQNV6r8UO6HbUO5u4XoGq9V+KD0DVeq/FDuh21DubuF6BqvVfig9A1XqvxQ7odtQ7m7hegar1X4oPQNV6r8UO6HbUO5u4XoGq9V+KD0DVeq/FDuh21DubuF6BqvVfig9A1XqvxQ7odtQ7m7hegar1X4oPQNV6r8UO6HbUO5u4XoGq9V+KD0DVeq/FDuh21DubuF6BqvVfig9A1XqvxQ7odtQ7m7hegar1X4oPQNV6r8UO6HbUO5u4XoGq9V+KD0DVeq/FDuh21DubuF6BqvVfig9A1XqvxQ7odtQ7m7hegar1X4oPQNV6r8UO6HbUO5u4XoGq9V+KD0DVeq/FDuh21DubuF6BqvVfig9A1XqvxQ7odtQ7m7hegar1X4oPQNV6r8UO6HbUO5u4XoGq9V+KD0DVeq/FDuh21DubuF6BqvVfig9A1XqvxQ7odtQ7m7hegar1X4oPQNV6r8UO6HbUO5u4XoGq9V+KD0DVeq/FDuh21DubuF6BqvVfig9A1XqvxQ7odtQ7m7hegar1X4oPQNV6r8UO6HbUO5u4XoGq9V+KD0DVeq/FDuh21DubuF6BqvVfig9A1XqvxQ7odtQ7m7hegar1X4oPQNV6r8UO6HbUO5u4XoGq9V+KD0DVeq/FDuh21DubuF6BqvVfig9A1XqvxQ7odtQ7m7hegar1X4oPQNV6r8UO6HbUO5u4XoGq9V+KD0DVeq/FDuh21DubuF6BqvVfig9A1XqvxQ7odtQ7m7hegar1X4oPQNV6r8UO6HbUO5u4XoGq9V+KD0DVeq/FDuh21DubuF6BqvVfig9A1XqvxQ7odtQ7m7hegar1X4oPQNV6r8UO6HbUO5u4XoGq9V+KD0DVeq/FDuh21DubuF6BqvVfig9A1XqvxQ7odtQ7m7hegar1X4oPQNV6r8UO6HbUO5u4XoGq9V+KD0DVeq/FDuh21DubuF6BqvVfig9A1XqvxQ7odtQ7m7hegar1X4oPQNV6r8UO6HbUO5u4XoGq9V+KD0DVeq/FDuh21DubuF6BqvVfig9A1XqvxQ7odtQ7m7hegar1X4oPQNV6r8UO6HbUO5u4XoGq9V+KD0DVeq/FDuh21DubuVa2qqZzdr5eVLo2bNFmjgt08MMx1pp1p6hyvqWv7VUV0YAAAAAAAAAAAAAAAAEUAAAAAAAAAAAAAAAAAAAAAAAAAAAAAAAAAAAAAAAAAAAAAAAAAAAAAAAAAAAAAAAAAAAAAAAAAAAAAAAAAAAAAAAAAAAAAAAAAAAAAAAAAAAAAAAAAABBQAAAAAAAAAAAedquK6fbHV6AAAAAAAAAAAAAAAAAAAAAAAAAAAAAAAAAAAAAAAAAAAAAAAAAAAAAAAAAAAAAAAAAAAAAAAAAAAAAAAAAAAAAAAAAAAAAAAAAAAAAAAAAAAAAAAAAAAAAAAAAAAAAAAAAAAAADzu1xRT7Z6AJ3NuJzETE+yZeigAAAAAAAAAAAAAAAAAAAAAAAAAAAAAAAAAAAAAAAAAAAAAAAAAAAAAAAAAAAAAAAAAAAAAAAAAAAAAAAAAAAAAAAAAAAAAAAAAAAAAAAAAAAAAAAAAAAAAAAAAAAAAAAAAACKA8u5tzVmYmZ9syPUAAAAAAAAAAAAAAAAAAAAAAAAAAAAAAAAAAAAAAAAAAAAAAAAAAAAAAAAAAAAAAAAAAAAAAAAAAAAAAAAAAAAAAAAAAAAAAAAAAAAAAAAAAAAAAAAAAAAAAAAAAAAAAAAAAAAAAAAAAAAAAAAAAAAAAAAAAAAAAAAAAAAAAAAAAABAUa9Ws01FXDVqLNM+U1xCenaT/WrH/eQDZGt6dpP9asf95DKjV6e5PDRqLVU+VNcSD3AAAAAAAAAAAAAAAAAAAAAAAAEfNb32pt6OqrT6GKb1+OU1zzppn98g+mY5jOMxnyfBWtH2g3uO8uV3KbVXjcq4KZ90f8Hr/oVrojMaizxeXMH3Q+AuWu0OxYr47k2o8aauOj4x4O9sXaazuU06fURFnUz0+7X7v4A+hAAAAAAAAAAAAAAAAAAAAAAAAAABOgKODuHanQaG/wBzHFfricV930p+Pi7Vuum7bpuU/VqiJgHoAAAAAAAAAAAAAAAAAAAAAAAAAAAAAAAAAAAAAAAAAAAAAAAAAAAAAAAAAAAAAAAAAAAAAA+Z7Z7he0uks2LFc0TemeKqJxOI8H0z43t79fR+6r9wPkeoACxMxMTE4mPGEAfoPZHcLmt2uab9U13LNfBxTzmYxmHffKdgv6Hq/wDEj8n1YAAAAAAAAAAAAAAAAAAAAAAPm+1u8VaLTU6axVw370c5jrTT/wAWv2Y7PUW7VGt1tviu1c7durpTHnPtcyuid47YzRXObcXcT+rT4fs/a+t3vX/o3art+nHHEcNEe2egMN037RbZ9G9XNd31dHOfj5ONHbe1x89DXw+fHGfyfH3Lld65VcuVTXXVOaqpnMzLEH6dtu86LdaJixX9PH0rdcYqj4eL57tRsFNimrcdDTwRTOblFPh/1ofLafUXdLfov2a5ouUTmJh+nbdqqNy2y1fmmMXaMV0+GekwDQ7LbtO56KaL0/8ASLOIqn70eEu6+B2bO19rKtLn6FVdVqfdPT9z74AAAAAAAAAAAAAAAAAAAAAAAYV1026JrrqimmmMzMziIh8vvPa+3azZ22IuV9JuzH0Y93mDvbhuek2213mquxTy+jTHOqr3Q+I3ntLq9xzatTNjT/dpnnV75cfUai7qr1V6/cquXKutVU5eYD9Y0P8AQdP/AIdP5Pyd+saH+g6f/Dp/IGwAAAAAAAAAAAAAAAAAAAAAAAAAAAAAAAAAAAAAAAAAAAAAAAAAAAAAAAAAAAAAAAAAAAAAA+N7e/X0fuq/c+yfG9vfr6P3VfuB8iAAAD7XsF/Q9X/iR+T6t8p2C/oer/xI/J9WAAAAAAAAAAAAAAAAAAAAAigPhOzc8Hay9TX9aZuRHvy63biiqrZ6Kqfq03omr5TDjbzTc2btVTq6Y+hVXF2nHjE8qo/N9jqrFjddtqt8WbV+jMVR84kH5YNvcdt1O26mqzqKJjn9GqOlUecNQB+idj6aqdgtcXjVVMe7L4raNq1G6amm3apmLcT9O5jlTD9Dqq0+07bmfo2dPRiPOcfvkHx+s+n25jg/1ij9mMvvnwvZazXuO/Xdfcjlbmquf1p5RH5/J90AAAAAAAAAAAAAAAAAAAAAAD5ztboNdrtJbnRzNVFvM12onnV0xPt9z4OqmqiqaaqZpqjlMTGJh+vuTu2w6PdKc3Ke7veF2mOfx8wfmo6W67JrNrrnvaOO1n6N2nnE/wAHNAfrGh/oOn/w6fyfk79Y0P8AQdP/AIdP5A2AAAAAAAAAAAAAAAAAAAAAAAAAAAAAAAAAAAAAAAAAAAAAAAAAAAAAAAAAAAAAAAAAAAAAAHF7SbRVuujp7mqIv2pzTE9KvOHaAfmFWw7rTVidDen3RlP0Fun+oX//AIX6gA/L/wBBbp/qF/8A+Flb7P7rcrimNFdjPjVGIfpwDlbBtf6K2+LNVUVXKquOuY6Z8o+TqgAAAAAAAAAAAAAAAAAAAAAADk7/ALTTu2im3GKb9H0rdXt8p9kvmNj3y9sl6rQbhbrizTVjExztz/B965u67NpN0t4v0cNyI+jcp5VR/EHrRVo900uae61NmesTETHy8Ja0dnNpivi9Coz5ZnHyy+cvdktz0dya9BqKa/KaauCr/n4sfQO1U/Qzfx/j0/nkH12o1Oh2rTR3lVrT2o+rTGIz7ofGbpump7RaujR6K3VFnP0afGr/AK0tjT9kdfqbvea/UxRnr9LjqfU7ZtWk2u1waa3iZ+tXVzqq98gmzbZb2rQ02KMTXP0rlX3qnQAAAAAAAAAAAAAAAAAAAAAAAAAGFdFNyiaK6YqpqjExMZiXym8dkKK83tsmKKus2ap5T7p8H1wD8jv2LumvVWr9uq3cp601RiYfqmh/oWn/AMOn8mOq0Gk1k0zqdPbuzR0mqOjYiIiIiIxEeAMgAAAAAAAAAAAAAAAAAAAAAAAAAAAAAAAAAAAAAAAAAAAAAAAAAAAAAAAAAAAAAAAAAAAAAAAAAAAAAAAAAAAAAAAAAAAAAAAAAAAAAAAAAAAAAAAAAAAAAAAAAAAAAAAAAAAAAAAAAAAAAAAAAAAAAAAAAAAAAAAAAAAAAAAAAAAAAAAAAAAAAAAAAAAAAAAAAAAAAAAAAAAAAAAAAAAAAAAAAAAAAAAAAAAAAAAAAAAAAAAAAAAAAAAAAAAAAAAAAAAAAAAAAAAAAAAAAAAAAAAAAAAAAAAAAAAAAAAAAAAAAAAAAAAAAAAAAAAAAAAAAAAAAAAAAAAAAAAAAAAAAAAAAAAAAAAAAAAAAAAAAAAAAAAAAAAAAAAAAAAAAAAAAAAAAAAAAAAAAAAAAAAAAAAAAAAAAAAAAAAAAAAAAAAAAAAAAAAAAAAAAAAf/9k=;" vertex="1" parent="1">
          <mxGeometry x="100" y="49.16" width="194.62" height="421.67" as="geometry" />
        </mxCell>
        <mxCell id="DQa-gl1qMOEUVgbhVwgR-3" value="" style="shape=image;verticalLabelPosition=bottom;labelBackgroundColor=default;verticalAlign=top;aspect=fixed;imageAspect=0;image=data:image/jpeg,/9j/4AAQSkZJRgABAQAAAQABAAD/4gIoSUNDX1BST0ZJTEUAAQEAAAIYAAAAAAIQAABtbnRyUkdCIFhZWiAAAAAAAAAAAAAAAABhY3NwAAAAAAAAAAAAAAAAAAAAAAAAAAAAAAAAAAAAAQAA9tYAAQAAAADTLQAAAAAAAAAAAAAAAAAAAAAAAAAAAAAAAAAAAAAAAAAAAAAAAAAAAAAAAAAAAAAAAAAAAAlkZXNjAAAA8AAAAHRyWFlaAAABZAAAABRnWFlaAAABeAAAABRiWFlaAAABjAAAABRyVFJDAAABoAAAAChnVFJDAAABoAAAAChiVFJDAAABoAAAACh3dHB0AAAByAAAABRjcHJ0AAAB3AAAADxtbHVjAAAAAAAAAAEAAAAMZW5VUwAAAFgAAAAcAHMAUgBHAEIAAAAAAAAAAAAAAAAAAAAAAAAAAAAAAAAAAAAAAAAAAAAAAAAAAAAAAAAAAAAAAAAAAAAAAAAAAAAAAAAAAAAAAAAAAAAAAAAAAAAAAAAAAFhZWiAAAAAAAABvogAAOPUAAAOQWFlaIAAAAAAAAGKZAAC3hQAAGNpYWVogAAAAAAAAJKAAAA+EAAC2z3BhcmEAAAAAAAQAAAACZmYAAPKnAAANWQAAE9AAAApbAAAAAAAAAABYWVogAAAAAAAA9tYAAQAAAADTLW1sdWMAAAAAAAAAAQAAAAxlblVTAAAAIAAAABwARwBvAG8AZwBsAGUAIABJAG4AYwAuACAAMgAwADEANv/bAEMAEAsMDgwKEA4NDhIREBMYKBoYFhYYMSMlHSg6Mz08OTM4N0BIXE5ARFdFNzhQbVFXX2JnaGc+TXF5cGR4XGVnY//bAEMBERISGBUYLxoaL2NCOEJjY2NjY2NjY2NjY2NjY2NjY2NjY2NjY2NjY2NjY2NjY2NjY2NjY2NjY2NjY2NjY2NjY//AABEICSQEOAMBIgACEQEDEQH/xAAbAAEBAAIDAQAAAAAAAAAAAAAAAQQGAgMFB//EAFcQAQABAwIDAgcOAwUEBgkDBQABAgMRBAUSITEGQRNRUlNhktEUFRYiMjVxcoGCkaKxwjOhwQcjNEJzNnSy8CVUYpOj4RckN0NVVrPS8WNlg+ImRITD/8QAGgEBAQEBAQEBAAAAAAAAAAAAAAECAwQFBv/EACwRAQACAQMCBwEBAQACAwEAAAABAhEDEhMxUgQUITNBUWEycSKBoQUjNEL/2gAMAwEAAhEDEQA/APoAAAAAAAAAAAAAAAAAAAAAAAAAAAAAAAAAAAAAAAAAAAAAAAAAAAAAAAAAAAAAAAAAAAAAAAAAAAAAAAAAAAAAAAAAAAAAAAAAAAAAAAAAAAAAAAAAAAAAAAAAAAAAAAAAAAAAAAAAAAAAAAAAAAAAAAAAAAAAAAAAAAAAMDWbtoNDVw6nVW6K/J6z+EcwZ4wNFu2g11XDptVbrr8npP4TzdtWv0tOsp0lV+iNRVGYt55gygAAAAAAAAedrd527QVxb1Wqoorn/LETVMfTEZx9oPRHjfCnZv8Arn/hV+w+FOzf9c/8Kv2A9keRY7R7TeuRbp1tEVT046aqY/GYiHrgAAAAAAAAAAAAAAAAAAAAAAAAAAAAAAAAAAAAAAAAA6bN+1fpmqzXTcppqmmZpnOJjuB3DD989D4fwHuyx4XOODjjOfEzAAAAAAAAAAAAAAAAAAAAABxmYpjMzER6XGi7br5UV01fROQdgAAAAAAAAAAAAAAAAAAAAAAAAAAAAAAADru3KLVuq5crppopjNVVU4iIdjUO12pr1Gv0210XIot1Yqu1TOI5zyz6IjMgzbna3QRqabNmm7ezVFPHERFP8+bYmt6Dduz23xTp9Pdppxym5NufjT45qw9/wlM2vCUfHpxxRw88/QDteRu3aDR7XMW7s1XL0xnwdHWI9PicNg3u5u9V+K9LNnwUxic5jn3fS6dBsFy1vd7cdVdovTXNVVFOJ+LMzy/COQOvT9sNFduxbv2bunz/AJqoiYj6WxRMTGYmMdctZ7cxZ97rM1RHhvCYonvxic/Z0d2pu3tL2Jia5mLnuemj0xnEfpIJqu12is3qrVi1d1HD1qoxEfYzto33SbtxU2Jqou0xmbdfXHjjxsLsZpqLWzReimPCXq6pqq78ROIj+TzNwpp27tvpq7McMXpomqI5R8aeGfaDdXm7xu1radPRevUV1xXVwxFGPFnvek1jt382af8A1v2yB8NtD/1bUfl9r0Ns7QaDc6/B2q6qLvdbuRiZ+jul27Lbtzs2imaKZzYo7vQ1ftdZtaDddNf0dMWr1UccxRGOcTynH/PQG0bxu1radPRdu267kV1cMRTjrjK7Pu1jdtNVes01UcFXDVTV1h4/bmZna9NMxifC/tlg9m652vfI0lcz4LV2qa6JnvmY4o/rAN3a9f7V6Szr6tJFm7XNNfg5rjGM5w9TdNZGh22/qZxmin4ue+rpH83zunS12qtBqLkzNWor4ufiiqIz+oPqINZ1u46mrdN40c1RFizoqq6IiMTFXDHPP3pBmdp90r2zbc2ZxfvVcFE+T45/58bzNn7LWb2no1W5zXdu3Y4/B8UxjPjnrMvF3Sqqezuy5mZ/jdZ8VUYbR2g36jarfgNPivV1x8Wnuojxz/SAeB2m0G3bbdtRoa7lvVZifB01ZimO6c9Yl6/ZzYrlq7747lxVaqv41NNU86c98+n9P0nZ7Ya7dz3y3PNeqrnippr5zT6Z9P6fpgXt4vbrtG9XZzbt0RZpt0RPyYmuc/bPeDdxrOi3HU07ps+jpqibN7RU11xMZmZ4Z55+7DZgRqeo7Z16e/cs3NsmmqiqaZiq9if+FtrTe3Ojs0xY1lNOLtdXBVMf5oxyBy+HX/7d/wCP/wD0nw6//bv/AB//AOk2/WblRoNPTb2K3doi3TFNzl8aMdftZPu7df8A5dt/yB27N2pt7nradLVpZs11xPDMV8UTiM+KGxNB2Wq5X2yoqu2YsXJrrmq3H+WeGeTfgY2vvVabQam/RETVatVVxE9MxEy+VV11XLlVdyqaq6pmaqpnMzPjfUd4+Ztd/u9z/hl8sAAAb/2N1F3UbNFN2eLwNybdMz14cRMfrj6MNAb52F+Zr3+8Vf8ADSDZAAdOpv29Lp7l+7Vw27dM1VS1PYu0t6/vFdvVV4s35xbjutz3R/RO2u65qp221VyjFV3Hj7o/r+DA3TatNo9g0WusccX7vBxTNXLnTM8vtgH0IeT2d3ON026m5VMeGt/EuR6fH9r1gAAAAAAAAAAAAAAAAAAAAAAAAAAAAaz2p33Ubbet6bSYpuV0cdVcxnEZxGM8u6Xh3N77Q27tq1Xfqiu9FNVunwVHxonpjk7u3PzzZ/3en/iqdm1a/SVbVb1OrqidVtkVRapmflxMfF/CfwwDDu9od+s3rlq5qZpuW5mKo8FRy/k6/hTvP/XP/Co9j1dm3K3732po19jS3YvVXNX4amM3omc8vs5Nb3K5Yu7jqLmlp4bNVyZojGOX0A3Dsrvt/crlzTavFV2injpqiMZjOJz+MNnaH2F+eb3+71f8VLfAeduN6uqqjRaaqab9/Oao/wDd0d9X9I9MvHtz7i7ObvGn+J4PUXaKMd0ZiP0e7qNt0mqveGvWIquY4eLMxOGFotjs2dPrLNymnGorrxNFU8qJnlHPvgF1lvbtHtlOj1FuabFVE0xwWpqxiOuYicT35l6Gjrt3NHZrt3JuW6qImmurrVGOsvP9z7tGlnSZ0tyiaODw9U1RVjGMzTjr9r0NHp40ujs6eKpqi1RFETPfiMAyB13btFm3Vcu1xRRTGaqqpxEQ8/bd60m56i9a0vHPgoieKqnEVR6O8GfVct0XKaKq6Yrq+TTM85+iGq9qd91uj1nuPSVRaiKYqmuIzVOf0eTt967f7W2q71yqurw8xmqc8ufJz7ZfP1f+nSDfNNXNzTWq6udVVETP04at2k7Q6vS7hOi0NUUTREcVc0xMzMxnHPljEw2jR/4Ox/p0/o+fdrP9o9X9z/gpBk+/PaP3b7i8LV7ozjwfgqM9M+LxMee029xnOrn4s4n+6o5fyejG56b3pjdeOPfKLPuXGeefL+nHf9jI23cNLb0Gk4dbp7Olt2pp1Wmroia7lWOcx3zmQeL8Kd5/65/4VHsbV2X3i5uuluxqIjw1mYiqqmMRVE5xP08pfP7k0zcqmiJimZnET3Q27sB//n//AMf7gbgAADyt13zRbVim/VVVdnnFu3GaseP0A9SZxGZ6MLX66nTbXf1liaLsW6JmnE5iZ+mHh9tNTX72abwNyqmi9VmqInHFGOWXRt3+wmq+/wDrAMjspu2s3PWar3Vd4qYpiqmmIiIp59zaWk9gv8Zqv9OP1bsDF1us0+g083tTciiiPxn0Q1DX9qtdrbs2dutzbpnlHDGa59j1+0ew6jddRZuWb+KaY4aqKukemHnajcdD2conSbfapvaqOVy5V3SDCt9n981sxcvVTTM9925zc6uyW60Rmi7bmfFFcw6qZ7Qbv8emb00T0mPi0uU7P2g00cdE3ZmOfxLmZBxjV79sdUeF8L4OO6v41LZdl7Sabc5i1diLOo8mZ5VfQ8LSdpdXpq5027WZvW55VRXT8aPayNT2Zta65Z1mz3qaLFyczz+R6Y9gNyHXbpmi1TRNU1zTERNU9Z9LsB43aHdK9s0dE2KOPUXquC3Exn7cf89Xn29k3m/TFzV73esXKuc00TOI/CYh29p+e8bHE9PdH7qHt3/4n2A8L4Pa/wD+ZNT+b/71js5uM9O0Wqn1v/vetc4/B1eDxx4nh4ume54Go0FWj2u/q9Vul6NdRmqJpvTFOe6IpBk/Bzcv/mHV/hV/958HNy/+YdX+FX/3squ1uG47Vo4i/wC5Zrppq1FUZprxju8TEt0+9/aDSabRaq7etXqapvW67nHFMR0n0Avwc3L/AOYdX+FX/wB7o1e3b3tVmrVabdbmri38au3ciZzHfymZbY6r8RVp7kT0miYn8AY206+nctutaqmOGaoxVT4pjqzmj7Zu17aey1F2zRRXXVqZojjziIxnublprvh9NavYx4SiKseLMZB3AAAAAAAAAAAAAAAAAANF3rSxrO2dGnu/w7k0RPppxGf6t6a32k2fU6i/Z3DQc9RZxmnvmInMTHpB3bvsegq2q/4LTWrVdu3NdFdFOJzEZ5z3unsTqKru012q5mYs3Jin0RMZx+rB1m671uWkq0Nvartq5cjhrr4Zxjv6xiPxe3se21bRtfgeVd+c114nlNWOn8oB6zF12ts7fpa9RqKuGinu75nxQ8/YNduesq1EblpfAxRMcE8E058cc+rXd999NdutXhNv1VzS2Lk00UUW6uGqInrnHf4wZm26O/2i3D3y18cOkonFq13Tju+jxz3vX7WRM9ntViOnBP5oebb33drVum3b2C9TRTGKaYorxEfg9fTVXd42e7RrtNVpqrsVUTRVExMR3TzB09kJz2eseiqv/il4/aCOLtlt8RznNr/jlx0F/duzvhNJXt9eqszVxUVUZx9kxE/gyNn27Xa/ep3bcbU2Yp527dUYnOMRy8UA21rHbv5s0/8Arftls7XO2env6nb7FOnsXL1UXczFuiapiMT4gYG36HtJXoNPVptfaosVW4mimZ5xTjl/lZeh7MXZ11Os3XVe6btMxMUxmYzHTMz3eh7Oz0V0bRpKLlNVFdNmmJpqjExOGcDWO3fzZp/9b9ssHebFdGybRulnld09u3TM+jETE/j+r0u2env6nb7FOnsXL1UXczFuiapiMT4mbp9D7o7N2tHepmiqvTU0TFUYmmceL0SDxe0et99KNu0OlnnquG5PozyjP8/wdHai3RY3XbNPbjFFq3TTTHo4sf0c+ye06m3uNeo1ti5bixTw2/CUzGZnxZ+38Xb2p0mp1G96K5Y0967RTTTxVUUTMR8aeswDb2BqNs0t6rVXItxRe1NqbNd2OuJjHs/BnsTc69Tb0F6rRURXqIp+JTING7QxZ0tvRbVZuTeq0cV8deMZmqYnGHudnthrt3PfLc816queKmivnw+mfT+n6cez+wVaeZ3DcKJuamc1UW5mJmJ8c/8Aa/T9Jqrnay5qK69PYixamfi0RVaqxH0yDa3z3a9PFu9r9j1tU2bmp4KYuYzEVUzmPsnL0v8A+8v+fAsDWbP2j116m9qtPFd2mMRXFVumf5TANw022aWzVpbk24rvaa1Fmi7PXERj2/iz2Poqb9Ois06qqKr8URFyY7572QA1bt3/AIDTf6s/o2l5m97TRu+lps13ZtVUVcVNURn+QPC2/R7pXoNPVa3y3aom3TNNHKeGMdPseXuO67vodbc03vlVd4MfHoxicxl6nwF//cf/AAP/AOo+Av8A+4/+B/8A1A8rszeuajtPp7t6ua7lc1zVVPfPDL6K13Z+y1vbNbTqp1U3q6InhiKOGIzGPHLYgYW8fM2u/wB3uf8ADL5Y+ra+zVqdBqbFExFd21VRTM9MzEw+VV0VW66qK6ZprpnFVNUYmJ8UggADfOwvzNe/3ir/AIaWht/7G6a7p9m4rtPD4a5NymJ68OIiJ/l+GAbCwt119G26C7qa8TNMYpp8qruhmtZ7U7XuO53bNOliidPRTmYqqxPF/wDj+oNIv3q9RervXauKuuqaqp8cy9zdr+4V9ntDb1OjotaWng8HdiuJmr4s45Z5cnH4I7t5q3/3kMvU7N2h1WjtaO94KqxZxwU8VMYxGI59egPM7ObnO2blTVXP9xc+Jcj0d0/Y+kxMTGYnMS+ffBHdvNW/+8huWx2dVptrs2dbMTdtxw8pzy7v5A9EAAAAAAAAAAAAAAAAAAAAAAAAAAAGh9ufnmz/ALvT/wAVTB3HS6XR2trvU2eKLtmm5ep45jj58+fdn0Pc7Y7RqtXqLWs0tqq9FNvwdVFEZmMTMxOO/qwov62rS2LGo7O13/AURRTVXarzj8AcNbG02tm0+st7Vw16qLlNP/rFc+DmJxn0+NkavbdFpdutXKdst3Zq09Nyq7Vq5omKpjye95d+xul/bdLop23UxTppqmKos1ZninPiZ12/rL+nt27/AGdruV27UWqbk2q8xERy7gOwvzze/wB3q/4qW+NS7HbTqtJfu6zVW6rMVUeDoorjEzmYmZx3dG1XKZqoqppqmmZjlMdwMevVxRdvW+Cf7qia8568s/1YGx9oLG78dvg8Dfp5+DmrOY8cS50WNR4TVcdNVVVVmqmKu6qe5h9ldrt2dDbv6nS+D1dNdWKq6ZiqI6d4NieT2g3edn0lFyi1Fy5cq4aYmcRHLrLVe1Gs1+o3O9pqpueAt1YoopiYifT6Xp9r7d2rZ9D8SqZpmOLl0nh7wd/vhe3LsbqtRqIp8Jw1UzwxiOUsDsF/jNV/px+rI261c+A2pp8HVxTFcxGOcxl09hbdynV6qqqiqI4IjMx6QeXtP+1Vr/eJ/WXd2y+fq/8ATpcdqsXY7VW82q4xfqmfizy6u3tjauVb5MxbqmJt04mI6g3jR/4Ox/p0/o+fdrP9o9X9z/gpfQdJExpLNNUTExbpiYn6Gndq9m1tzdLms09iu/buxTnwccU0zERHSOfcDA3fT6LbN7op9y+F08W6aqrPhJjMzHj6xz5sjd7e2aexpaLO28FzV2aLsV+HqnweZ6Ynq56y/rNdbq8N2erm7Nvgi74KvMcsRPRia21uus9ycW2amn3NaptU4s184jvnkDP3/b9HoLV+mzttuIpxFN73VM1RM4/yMjsB/wD5/wD/AB/uYW4XdbuEXarnZ6um/ciI8LFqvijH2eh7XZDa9Rt+mv3dVTNuu/NOKJ6xEZ6/iDY0eV2i1Wp0m03LujzF3MRmKc4iZ6vD7FTqK9brLt/wlU1UxmqvPOcgyLPae/qt/taO1aoo083Joni51Ven0PH7ZfP1f+nS47VYux2qt5tVxi/VM/Fnl1dvbG1cq3yZi3VMTbpxMR1Bndr/AJm237P+GDbv9hNV9/8AWHPtfauTs+3xFFUzTMRViOnxTbrVz4DamnwdXFMVzEY5zGQY/YL/ABmq/wBOP1bs0vsLbuU6vVVVUVRHBEZmPS3QB4t/Ydvp19zcbluasRNdVHWJnrM4e0gNE1PaLc9wvzY2y3VaojlTTbpzVh13NV2j26PDXpvxR38cZhtG42qtt2/U39r0tEX6p4qsR3d8/wDk8Xs5u257jrarGopi/ppifCTVT8n/AJ8QMnQXtL2q0dy1q7HBftRH95TH6T/RnW67W36W3oNpqs3b8VYmK6+njql17nat7dpLGj0MU6anVX4t13I/yxPXn42Nc0VVjV+C0Gj02oizw1W64uYrt1eOrx5nMg9TbNdfvajUaTWW6ab9jhnNE8qonpL1HnbZoJ0lNy5er8Lqb8xVdueOe6I9EPRBrXaflvGxTPT3R+6h7l/+J9jA7RbVXueko8BVFGotVcduZnGfQ863ve82KYt6vZL1+5TymqiJxP4RMA9m7XNuzXXFE1zTTMxTT1n0Q8DV3tk1+139fVVRa1vDM0/HxciuI+Lyz6IZPwh1/wD8t6n83/2MadzuTe8NPZOubuc8fg5zn6eAHoxucafadD762q6qdVRwXa5jlTmP830x/VhUxo9Jv+ho2WumYu8Uaii1Xx08PdM859Lnc3/XXaJou9nNTXRPWmqKpifyOGn3jUaXPufstes568FMxn8KAbW6r8xTYuTPSKZmfwa/8I9y/wDl7V/jV/8AY6NXuO97rZq0um2q5pIufFruXJmMR385iAYe2bTd3bsxRas3KLdVOpmvNecTGMNy01rwGmtWc58HRFOfHiMMfadBTtu3WtLTPFNMZqq8cz1ZwAAAAAAAAAAA4cdMziJ/k5AoAAAAAAAAAAAAAAAAAAAAAAAAADx937PaPdaou3OK3eiMcdHf9Md72AHj7R2e0e1VTdt8Vy9MY46+76I7nsAAAAAAAAAA83W7Nt2uueF1OlprueOJmmZ+nExnp3vSAeN8Ftm/6n/4tftPgts3/U//ABa/a9kB49vs3tFquK6NFTMx04q6qo/CZxL2AAAAAAAAAAAAAAAAAAAAAAAAAAAAAAAAAAAAAAAAAAAAAARQEUAAAAAAAAARQAABFAAAB1WrNqzE+Ct0W+Kczw0xGZdoDo1Oms6uzNnUW6bluetMuvRaDS6CiqjS2abcVTmcdZ+1lgAAAAAAAAAAAAAAAAAAAICjhx0xOJn+QBRTw0+nvcwAAAAAAAAAAAAAAAAAAAAAAAAAAAAAAAAAAAAAAAAAAAAAAAAAAAAAAAAAAAAAAAAAAAAAAAAAAAAAAAAAAAAAAAAAAAAAAAAAAAAAAAAAAAAAAAAAAAAAAAAAAAAAAAAAAAABwrp4qfT3DmAAAAAAAAAAAAAAAAAAAAAAAAAAAAAAAAAAAAAAAAAAAAAAAAAAAAAAAAAAAAAAAAAAAAAAAAAAAAAAAAAAAAAAAAAAAAAAAAAAAAAAAAAAAAAAAAAAAAAAAAAAAAAAAAAAAAAAAAAAAAAAAAAAAAAAAAAAAAAAAAAAAAAAAAAAAAAAAAAAAAAAAAAAAAAAAAAAAAAAAAAAAAAAAAAAAAAAAAAAAAAAAAAAAAAAAAAAAAAAAAAAAAAAAAAAAAAAAAAAAAAAAAAAAAAAAAAAAAAAAAAAAAAAAAAAAAAAAAAAAAAAAAAAAAAAAAAAAAAAAAAAAAAAAAAAAAAAAAAAAAAAAAAAAAAAAAAAAAAAAAAAAAAAAAAAAAAAAAAAAAAAAAAAAAAAAAAAAAAAAAAAAAAAAAAAAAAAAAAAxNfrtPt+kr1Oprii3R+Mz4o9IGv12n2/SV6nU1xRbo/GZ8Uelquydqdfue/VWo0/HpbnSmnraiP80z+v8nh6vVa/tdu1NmzTMW4n4lGfi26fKlv2zbRptm0cWLEZqnnXcmOdc/8APcD0wAAAAAAAAAAAAAAAAAAAAAAAAAAAAAAAAAAAAAAAAa92q7RTs1ii3Yppq1V2Jmni6UR45BsKPllm72j3ma7li7rL0ROJmiuaaYn+UFjft82bV+DvXr0zTPxrOozVE/jzj7AfVBgbPuVrdtvt6uz8WKuVVM/5ao6wzwBJmI6yArB99tt8J4P3fpfCZ4eHw1Oc+LGWa+Q0/wC0cf73+8H18AASJiekgKCAokTE9JyoA1jtvuGq2/Qaa5o79Vmqq7iZp74w49htw1e4aPVV6y/VeqouRFM1d0YBtIAA+fds901+k3ybWm1l+zb8HTPDRXMRlt+wXbl/Y9Hdu11V3K7UTVVVOZmQeir5Pq953b3wv2rWv1X8Wqmmmm5V4+URDu8N2qo+NPvrGPHRX7AfUkfNND2x3bRXuDVzGooifjUXKeGqPtj+uW+7Tuum3fRxqdNVy6VUz1onxSDPAAAAAAAAAAAAAAAAAAAAAAAAAAAAAAAAAAAAAAAAAAAAAAAAAAAAAAAAAAAAAAABi67W2dv0dzVairht24zPj+h8t37e9RvWq8JczRZo/h2onlTHtfWLtui9bqt3aIrorjFVNUZiYfNe1HZqvars6nTRNeirn6Ztz4p9HikGZsvabadn0cWbOi1FVc87lyeHNc/j09D0/wD0gaL/AKnqPxp9rD7M6bs/vFjwV7Q0UauiPjU+ErxXHjjn/J7/AMEti/6hH/eV+0Hmf+kDRf8AU9R+NPtP/SBov+p6j8afa9T4JbH/ANQj/vK/anwS2L/qEf8AeV+0HqaPUU6vR2NTRE003rdNyInrETGWQ6bFm3p7Fuzap4bdumKKac9IiMRDuAAAAAAAAAAAAAAAAAAAAAAAAAAAAAAAAAAAAAfOv7QrNyneLN2qJ8HXYiKZ9MTOY/nH4vorC3LbdLummnT6u3x0dYnpNM+OJBrXY7fdvtbVa0F+7RZvW6qudc4ivMzPX7cPc3PYtu3mq3e1VE1zRTimqirGY+xq2v7A36JmrQaqi5T3UXY4Z/GOU/yeJFzeezmqi3xXtNV14JnNFX2dJB9L2ratLtNmuzo4qporq45iqrPPGP6NU7Wdqb9rVV7ft1zwfg+V27T1z4o8WPG2Ds/vUbvtU6maIpvWs03KY6ZiM5j0S+YWdTw66jU3qIvTFyLlVNU8q+ecSD17PZnfNwtRqqrMzxRmJvXMVVfj/Vx0e8bv2e1ngb83OGmfj6e7OYmPR4vph6//AKQb/wD8Pt/95PseH2g32d8u2blemos12omnNNWeKJ9nP8RX1DQay1r9Fa1Vic27tPFHo9D5TT/tHH+9/vbr/Z9dqr2K5RVPK3fqin6MRP6zLSqf9o4/3v8AeI+ra7WWtBoruqvzi3ap4p9PofNNXvG8dotb4DT1XOGqfiWLc4iI9Pj+mW0/2g3aqNktW6ZxFy/EVemIiZ/XDUuz+/TsVd6ujS0Xq7sRHFVVjhiO7/nxA7b/AGY3zbrU6qLVUcMZmbNzNVP4c/wez2S7U37uqo2/cbnhPCcrV2rrnxT48+Nw/wDSDf8A/h9v/vJ9jUrmomdbVqbVMWpm5NymmOlPPMR9gr61vO52tp265q7scWOVFHlVT0h84u6zee0msm3RVdvTPPwVE4opj9Ptl7v9ot2rh2+1HKmeOuY9PL2yzf7PdPRRtF+/ER4S5emmZ9ERGI/nIjU9VtG87FEamui5YpzEeEtXOUT6ZiW29kO0lzcpq0esmJ1NFPFTXjHHHfn0tm1Fi1qbFdm/RFy3XGKqauksLS7Jtmkv039Po7du7R8mqnOY7gaF2u0Ovs7jf1OooqjS3b0+Cma4mJ+zPJhbVte67hbuV7bbrqopnFXDdinn9sw27+0X5s0n+tP/AAy4/wBnP+A1n+rH6Cvf2Cxf02y6WxqomL9FMxXE1cU5zPe9JFEfM+3n+0NX+lT/AFbx2b/2e0H+jS0ft5/tDV/pU/1bx2b/ANntB/o0g+aU/wC0cf73+99efIaf9o4/3v8Ae+vg8DtRstrdNvu3Kbce6rVM1W64jnOP8stP7FbhXo99t2c/3Wp/u6o9PdP4/q+k6iumzp7tyucU0UTVP0RD5N2eoqudoNBTT1i/RV9kTmf0B9fAAAAAAAAAAAAAAAAAAAAAAAAAAAAAAAAAAAAAAAAAAAAAAAAAAAAAAAAAAAAAAAAdd23Ret1W7tEV0VxiqmqMxMOwB827Q7DqNh1VOv2+quNPFWaaqZ52p8U+j0/Z9O09me0VrebHgrvDb1lEfHo7qo8qHuXbdF63Vbu0RXRXGKqaozEw1vb+yOm0G81a2m5XNqieKzb6TTPpnvj/AJkG0AAAAAAAAAAAAAAAAAAAAAAAAAAAAAAAAAAAAAAAANM7Zbru+1a6zVo9R4PTXaPN0z8aJ585jxYbkxddodPuGnq0+qtRct1d090+OJ7pBrnZztZp7+i8Humqpo1VEzmuuIpiuO7pGPQ8rtvvOi3Cmxp9JXF6bVU1VXI6RmOkT3s3Vf2f2qq5nS6+qinyblvix9sTDt0HYPTWrkV63VV6iInPBRTwRP0zmZ/QHL+z3S3Le16i/ciYpvXMU574iOv4z/JqWu017YO0ExwfwLsXLeelVOcw+sWbVFi1TatUU0W6YxTTTGIiGDu+y6LeLMW9VRPFT8i5Tyqp+iQYek7S7LqdN4WdRaszj41u5GKonxen7Hha/tzTb1VdGh0dm7YjlFdyJiavTjxLc/s9q458FuMcHdxWucfzens/Y7Rbfdpv3651N6nnTxU4ppnx49oPZ2q5ev7davaqzRYu3I4pt0/5c9Ptxh8up/2jj/e/3vrzT47D43KNX749L3heDwHpzjPED1O1+317jsdym1TxXbNUXaYjrOOsfhMtM7Ib3Y2nVXberp/9XvxGa8Z4Jjv+jm+ntZ3jsdodxu137FdWmvVc6uGM0zPjx7AZGt7TbNpdNVdt37N+vHxbduMzM/0eRs3arWbruNrSW9u00RVOa6oz8Wnvl1W/7PquOPC7jTwd/Da5z/NtO0bLo9nsTb0tE8VXy7lXOqr6ZB4vb7b69VtlrV2qeKrS1TNUR5M9Z+yYh4nY3tDp9rpu6TWVTRZuVcdNzGYpq6Tn8IfRZiKqZiqImJ5TE97VNz7DaPU3armivVaWapzNHDxU/Z4gd289sNDpNJV7gvUajU1cqIiJmmPTLF7L7/u29bjNF2mzGmt0zVcqpomJ9EZz4/0lj6f+z6IridTr80d8W7eJn7Zn+jbNu27S7bpo0+ktxRRHOe+ap8cz3g17+0OiqraNNXETMU3+fozTLyuxW+aHbLGps6y9Nqa6oqpqmmZieXob3rdHZ12lr0+poiu1XGJiWpXv7PrNVczY3C5bp8VdqKp/GJgG26TU2dXpqL+nr47VcZpqxMZ/FkMHatD73bZY0fhPCeCjHHw4zzz0ZwPmfbz/AGhq/wBKn+reOzf+z2g/0aXmb/2S9+NwnV+7fA5oinh8FxdPTxQ9zbdJ7h27T6Tj4/A0RRxYxnHoB8pquU2t/m5XOKKNVxVT4oit9Eq7X7HTGfd2fRFqv2PH1HYHw9+7d98+Hwlc1Y8BnGZz5TjT/Z7GfjbnMx6LGP3AxO0va6nXaevR7fTXTar5XLlcYmqPFEeJ3dhNlueH99NRRNNERMWIn/NM8pq+jHL7Xrbf2L2vSXIrvRc1VcdIuT8X8I/q2SmIpiIpiIiOURHcDkAAAAAAAAAAAAAAAAAAAAAAAAAAAAAAAAAAAAAAAAAAAAAAAAAAAAAAAAAAAAAAAAAAAAAAAAAAAAAAAAAAAAAAAAAAAAAAAAAAAAAAAAAAAAAAAAAAAAAAAAAAAAAAAAAAAAAAAAAAAAAAAAAAAAAAAAAAAAAAAAAAAAAAAAAAAAAAAAAAAAAAAAAAAAAAAAAAAAAAAAAAAAAAAAAAAAAAAAAAAAAAAAAAAAAAAAAAAAAAAAAAAAAAAAAAAAAAAAAAAAAAAAAAAAAAAAAAAAAAAAAAAAAAAAAAAAAAAAAAAAAAAAAAAAAAAAAAAAAAAAAAAAAAAAAAAAAAAAAAAAAAAAAAAAAAAAAAAAAAAAAAAAAAAAAAAAAAAAAAAAAAAAAAAAAAAAAAAAAAAAAAAAAAAAAAAAAAAAAAAAAAAAAAAAAAAAAAAAAAAAAAAAAAAAAAAAAAAAAAAAAAACK6rdyMcNU4mHYCiAKIAogCiAKIAogCiAKIAogCiAKIAogCiAKIAogCiAKIAogCiAKIAogCiAKIAogCiAKIAogCiAKIAogCiAKIAogCiAKIAogCiAKIAogCiAKIAogCiAKIAogCiAKIAogCiAKIAogCiAKIAogCiAKIAogCiAKIAogCiAKIAogCiAKIAogAOu5cjHDTzmQHVMTLjw+mXbgwiurh9MnD6ZduDAOrh9MnD6ZduDAOrh9MnD6ZduDAOrh9MnD6ZduDAOrh9MnD6ZduDAOrh9MnD6ZduDAOrh9MnD6ZduDAOrh9MnD6ZduDAOrh9MnD6ZduDAOrh9MnD6ZduDAOrh9MnD6ZduDAOrh9MnD6ZduDAOrh9MnD6ZduDAOrh9MnD6ZduDAOrh9MnD6ZduDAOrh9MnD6ZduDAOrh9MnD6ZduDAOrh9MnD6ZduDAOrh9MnD6ZduDAOrh9MnD6ZduDAOrh9MnD6ZduDAOrh9MnD6ZduDAOrh9MnD6ZduDAOrh9MnD6ZduDAOrh9MnD6ZduDAOrh9MnD6ZduDAOrh9MnD6ZduDAOrh9MnD6ZduDAOrh9MnD6ZduDAOrh9MnD6ZduDAOrh9MnD6ZduDAOrh9MnD6ZduDAOrh9MnD6ZduDAOrh9MnD6ZduDAOrh9MnD6ZduDAOrh9MnD6ZduDAOrh9MnD6ZduDAOrh9MnD6ZduDAOrh9MnD6ZduDAOrh9MnD6ZduDAOrh9MnD6ZduDAOrh9MnD6ZduDAOrh9MnD6ZduDAOrh9MnD6ZduDAOrh9MnD6ZduDAOrh9MnD6ZduDAOrh9MnD6ZduDAOrh9MnD6ZduDAOrh9MnD6ZduDAOrh9MnD6ZduDAOrh9MnD6ZduDAOrh9MnD6ZduDAOrh9MnD6ZduDAOrh9MnD6ZduDAOrh9MnD6ZduDAOrh9MnD6ZduDAOrh9MnD6ZduDAOrh9MnD6ZduDAOrh9MnD6ZduDAOrh9MnD6ZduDAOrh9MnD6ZduDAOrh9MnD6ZduDAOrh9MnD6ZduDAOrh9MnD6ZduDAOrh9MnD6ZduDAOrh9MnD6ZduDAOERMDngBRQRBQEFAQUBBQEFAQUBBQEFAQUBBQEFAQUBBQEFAQUBBQEFAQUBBQEFAQUBBQEFAQUBBQEFAQUBBQEFAQUBBQEFAQUBBQEFAQUBBQEFAQUBBQEFAQUBBQEFAQUBBQEFAQUBBQEFAQUBBQEFAQUBBQEFAQUBBQEFAQUBBQEFAQUBBQEFAQUBBQAAAAAAAAAAAAAAAAAAAAAAAAAAAAAAAAAAAAAAAAAAAAAAAAAAAAAAAAAAAAAAAAAAAAAAAAAAAAAAAAAAAAAAAAAAAAAAAAAAAAAAAAAAAAAAAAAAAAAAAAAAAAAAAAAAAAAAAAAAAAAAAEBR5Ws37SaWqaKJm9XHdR0j7Xl3O0+pmf7uxapj/tZn2M5hytrUr6ZbSNT+E2t83Y9WfafCbW+bserPtN0M89G2DU/hNrfN2PVn2nwm1vm7Hqz7TdBz0bYNT+E2t83Y9WfafCbW+bserPtN0HPRtg1P4Ta3zdj1Z9p8Jtb5ux6s+03Qc9G2DU/hNrfN2PVn2nwm1vm7Hqz7TdBz0bYNT+E2t83Y9WfafCbW+bserPtN0HPRtg1P4Ta3zdj1Z9p8Jtb5ux6s+03Qc9G2DU/hNrfN2PVn2nwm1vm7Hqz7TdBz0bYNT+E2t83Y9WfafCbW+bserPtN0HPRtg1P4Ta3zdj1Z9p8Jtb5ux6s+03Qc9G2DU/hNrfN2PVn2nwm1vm7Hqz7TdBz0bYNT+E2t83Y9WfafCbW+bserPtN0HPRtg1P4Ta3zdj1Z9p8Jtb5ux6s+03Qc9G2DU/hNrfN2PVn2nwm1vm7Hqz7TdBz0bYNT+E2t83Y9WfafCbW+bserPtN0HPRtg1P4Ta3zdj1Z9p8Jtb5ux6s+03Qc9G2DU/hNrfN2PVn2nwm1vm7Hqz7TdBz0bYNT+E2t83Y9WfafCbW+bserPtN0HPRtg1P4Ta3zdj1Z9p8Jtb5ux6s+03Qc9G2DU/hNrfN2PVn2nwm1vm7Hqz7TdBz0bYNT+E2t83Y9WfafCbW+bserPtN0HPRtg1P4Ta3zdj1Z9p8Jtb5ux6s+03Qc9G2DU/hNrfN2PVn2nwm1vm7Hqz7TdBz0bYNT+E2t83Y9WfafCbW+bserPtN0HPRtg1P4Ta3zdj1Z9p8Jtb5ux6s+03Qc9G2DU/hNrfN2PVn2nwm1vm7Hqz7TdBz0bYNT+E2t83Y9WfafCbW+bserPtN0HPRtg1P4Ta3zdj1Z9p8Jtb5ux6s+03Qc9G2DU/hNrfN2PVn2nwm1vm7Hqz7TdBz0bYNT+E2t83Y9WfafCbW+bserPtN0HPRtg1P4Ta3zdj1Z9p8Jtb5ux6s+03Qc9G2DU/hNrfN2PVn2nwm1vm7Hqz7TdBz0bYNT+E2t83Y9WfafCbW+bserPtN0HPRtg1P4Ta3zdj1Z9p8Jtb5ux6s+03Qc9G2DU/hNrfN2PVn2nwm1vm7Hqz7TdBz0bYNT+E2t83Y9WfafCbW+bserPtN0HPRtg1P4Ta3zdj1Z9p8Jtb5ux6s+03Qc9G2DU/hNrfN2PVn2nwm1vm7Hqz7TdBz0bYNT+E2t83Y9WfafCbW+bserPtN0HPRtg1P4Ta3zdj1Z9p8Jtb5ux6s+03Qc9G2DU/hNrfN2PVn2nwm1vm7Hqz7TdBz0bYNT+E2t83Y9WfafCbW+bserPtN0HPRtg1P4Ta3zdj1Z9p8Jtb5ux6s+03Qc9G2DU/hNrfN2PVn2nwm1vm7Hqz7TdBz0bYNT+E2t83Y9WfafCbW+bserPtN0HPRtg1P4Ta3zdj1Z9p8Jtb5ux6s+03Qc9G2DU/hNrfN2PVn2nwm1vm7Hqz7TdBz0bYNT+E2t83Y9WfafCbW+bserPtN0HPRtg1P4Ta3zdj1Z9p8Jtb5ux6s+03Qc9G2DU/hNrfN2PVn2nwm1vm7Hqz7TdBz0bYNT+E2t83Y9WfafCbW+bserPtN0HPRtg1P4Ta3zdj1Z9p8Jtb5ux6s+03Qc9G2DU/hNrfN2PVn2nwm1vm7Hqz7TdBz0bYNT+E2t83Y9WfafCbW+bserPtN0HPRtg1P4Ta3zdj1Z9p8Jtb5ux6s+03Qc9G2DU/hNrfN2PVn2nwm1vm7Hqz7TdBz0bYNT+E2t83Y9WfafCbW+bserPtN0HPRtg1P4Ta3zdj1Z9rnb7T6mJ/vLFqqP+zmPaboOejaR5Wi37SaqqKK5mzXPdX0n7XqLl2raLesKAqgAAAAAAAAAAADVt73eu9dq0mlqngieGqqnrXPij0PY3zVzpdtuVUziuv4lM+mf/ACy8rszoaa66tZcjMUTw0RPj75Zn6efVtNrRSrlt3ZymaYu66ZzPOLUTjH0y9q3otNZjFrTWoj6sZZIYdaadax6Q6vAWcfwbfqwRYs99m36sO1FbxH06/A2M/wAG36sHgLHmbfqw7AMQ6/c9nzNv1YPc9nzNv1YdmOREYgNsOv3PZ8zb9WD3PZ8zb9WHOIknOfQG2HD3PZ8zb9WD3PZ8zb9WHZM4Mhth1+57Pmbfqwe57Pmbfqw7InIG2HX7ns+Zt+rB7ns+Zt+rDtA2w6vc9nzNv1YPc9nzNv1YdgG2HX7ns+Zt+rB7ns+at+rDsEMQ6p09mf8A3VHqwe57MR/Co9WHaC4h1RYtd9m36sHgbHmrfqw7QMR9OvwFnzVv1YPc9nzVv1Yc5jJjEcg2w4e57Pmbfqwe57Pmbfqw5xnvOLngNsOHuez5m36sHuez5m36sOeYMhthw9z2fM2/VhJsWfNW/Vh2GA2w6/AWfM2/Vg9z2fNUerDsUMQ6Z09rP8Kj1YXwFmP/AHNv1YdqBiHX4CxP/urfqweAs+at+rDsSIwG2HD3PZ81b9WD3PZ81b9WHPM5XMBth1+57PmrfqweAs+at+rDsyBth1+As+at+rB4Cz5q36sOwQxDq9zWc58HR6sHgLWf4Nv1YdoGI+nX4Cz5q36sHgLPmrfqw5zGTp0DbDh4Cz5q36sHgLPmrfqw5xKhth1+As+at+rB4Cz5q36sOxA2w6/AWfNW/VhJsWusWqPVh2gu2HX4CzHW1R6sL4Cz5q36sOZjEcg2w4eAs+at+rB4Cz5q36sOcSom2HX4Cz5q36sHgLPmrfqw7BTbDr9z2fNUerCTYteZt+rDtRDbH04eAs+at+rB4Cz5m36sOcxlc46hth1+57PmqPVg9z2fNW/Vh2Kpth1e57Pmrfqwe57Pmrfqw7QNsOmLFrP8G3j6sOXgLPmrfqw5pjE5DbDj7ns+Zt+rB7ns+Zt+rDnlQ2w6/c9nzVv1YTwFnzNv1Ydihth1Tp7XmbfqwRYszH8K36sO1J9AbYcPc9nzNv1YPc9nzNv1YdkAm2HX7ns+Zt+rB7ns+Zt+rDsQNsOqdPZz/Co9WHL3PZ8zb9WHYmOeRdsOHuez5q36sHuez5m36sOwVMQ6/c9nzNv1YPc9nzNv1YdgG2HV4GxnHgbfqwvuez5q36sOyYgicou2HX7ns+Zt+rB7ns+Zt+rDsMqm2HX7ns+Zt+rCeBsxP8G36sO0wGIdfuezP/ubfqwvuez5m36sOcT3KG2HX7ns+Zt+rB7ns+Zt+rDsyBth1+AseZt+rB7ns+Zt+rDsUMQ6vc9nzNv1YPc9nzNv1YdhkNsOv3PY8zb9WE9z2fM2/Vh24AxDr9z2fM2/Vg9z2fM2/Vh2GQ2w6/c9jzNv1YPc9mf/AHNv1YdmAMQ6/c9nzNv1YPc9nzNv1Ydh1DbDr8BZ8zb9WD3PZ8zb9WHYBiHX7ns+Zt+rB7ns+Zt+rDsA2w6/c9nzNv1YPc9nzNv1YdgGIdfuex5m36sHuez5m36sOwDEOv3PY8zb9WHXc0OkvRi5prVUfVjLI6gm2Gu7j2dpimbmimcxzm1M5z9EurZN3rs3KdJqpngmeGmqrrRPin0Nna12n0MUVU6y3GIrnhriPH3Skxj1h59SnH/3Rsw87Y9XOq263VVOa6PiVT6Y/wDLD0Veitt0ZgAVQAAAAAAAAAGvdrapijTUd0zVP4Y9r0NjoijabER3xMz9svN7W9dL9/8Aa9TZ8+9Wm+oz8vPT3ZZwkzPdBzwr0qJEmYBRMgKAAAAioCYgwoipOe6TpHjUBInPcZ5qYgDMCTBjl1BRIzBEz3wCjjxRlQUMAIYUBx4YWc9ygJGcGcqgCuOOeckzOeUA5DjNUR1XOQAwAJwwogk57jPLmqAsTkTCRmJByE4ozhVAQRSSMig4xOesOSJjnnIOQ45iFBQBEIzACkTlUwRnIKAqBMZAE+THKFiciT6AchInlzAAwAnDzysT3KmAUSKueFAEyoJPPoQqTAKAoCLhBxjlPociYSOXIFURUVxnEc1MCpHPmqdOTkICZASZwsc4CJ7gVUAAwAYFTIBk6gAqZAAAAADBmIAEmqmJxMxH0yx7Ous3rt+iJmPAfLqqjEfj9ibon0iUZPUdGk1dnV0zVZuRXEde6Y+x35WJiWpiYnEmQBAydQB5++URXtOoie6ImPsl6DC3j5p1P1CWL/zLzOyVUzRqqO6Jpn8c+xsLXOyXXV/c/c2NK9HPQ9uABp2AAAAAAAAAAa52t66X7/7Xq7P81ab6jyu1vXS/f/a9XZ/mrTfUZ+Xnp71maAr0oHc8La712vW0xVcrqjE8pqmXK+pFLRH26005tEz9PdlOUw8Hcbt2NfcoouVxHLERVMd0FdncbNPhOK5iOuK8/wAnKfEesxFejpGh6RMz1e9EYObzdt3Gb9Xgb2OPHKfG9KZxEzPSHal63jMOV6TScSTnuXOOrXtTrq69ZNdu9ci1mMRmY/k9T3z0/guPNXDnGeHvc669bTMfTVtG1Yj9ZsTkzl1afUW9Tb47U5jOHTf1+n09ybdVU8UdcRl1m9YjOWIpMzjDLGLf1unsVxTcmqKpji6Ou7uWnt4jjmZxnER0SdWsdZWNO09IZw6LGpt6ijit18WOvjhxv6yzp+VyrE+KOcrvrjOU2WzjDJGHZ3LT3a4piuaZnpxRhl8it626SWrNesLkBplDCgITGVATnEciM96gJnngEmIBVcZz3GZwZMKZSJiVAAAwmOSgJGSKsqiKokx4iZmO7IYUTPLmZEVAFEmJ7nIBM46hMZMcuQKOMTy5qCgAmEnOeS5OoGROGJ6nSPGChE5UBFBExiTKpiBVEziTIiiYUEmMkco5qTGQFcfkwsTlRUMmAEiZziVAUSnPSVAEUHHHPMLCpjE5BQMgJPMUEhUxzyqiiAhKZyqYiJyKqoZEVJkMARzjKpExHJQVAwAYVAVDJgDqYAFTIYA6itf33dL1m/Gn09XBiM1VR159zURmXTS07atttXqa7XU6XFMU8VcxnHief75V3LlE3qKZimc/F5S8axrb17U8F+ua5qj4sz15Mmu5TbjNU4fK8Tqakak1+Hvjw1dOP+ur3q6on+8zmmrnE+Nwu12b+lr09ziiK4xNUR+DzbOso8DboqiqIiPF45yyomJjMTmJfPnUvo6k2r8vPFaz0noxtPHvVNdFmuLtVeJqqmMRHijH2uyL8zfncL9+q3b01GKrVMcqs5x3+PH4R9nVrPA2qJvXrvg4iMdM5nxMbT7vtlVi5ptRRd4L3KquaYxHi6TL6ng51NSYt/8Ay66mna1JmkZs93bN10+5xcmxFdM25jiprjE8+k/qzurxdvs6fbor9x5rpuYma65zMx3YxyxzevauRdoiqOXjh6419O95rSXzq1vFf+urmA6KMLefmrU/UZvVhbz806n6hLF/5l5XZLrq/ufubG1zsl11f3P3NjSvRz0PbgAadgAAAAAAAAAGudreul+/+16mz596tN9R5fa3rpfv/ters/zVpvqM/Lz096zM54SJnvhyRXqcap5S8DaZxr6fon9GwVdJa/tP+Pp+if0eTX/ur06H8XNw57pX9NP6Q2COjXt0nG5XJ8WP0hyq3LU3KZpoiImeXxYnLlTUil7ZdL6c3rXH04WeW6RFvpF2YjHiy2KYiYmJ6S8nbNvrpr8PejhmPk0z1+l6sxPc7aFZiszPy469om0RE9Gu6qzRa11VqiMURMRjPoh6t3QWo0Vy3ZpxM/Gjnnmwd1sXLesm9FMzTViYnHKJh6G3amvVWapuU0xNM45OWlWu+1Zjq66lrbK2iXn7RqIs13Ldc4pmOL7YcNHROt3Djqjlnjq9jr3Gz4DV18PKmv40fb1eps9jwWn8JMfGuc/s7mdOJtaNOekN3mK1nUjrLC3rlrKfqR+ssixtVqvS0zXNXHVTnMT0Y+9f4yPqR+suMa/U6ezFmaYjl8WqY7kmaRqW3QRF5067ZcNvrqsa+KM8pmaZ9Lq8LRd1M3b/ABTTM5mKev0MvatLXcvxfriYpp6TPfLrv2bmg1fhKKc0Z+LOOWPFLO22yJ+Mt7q75iOuHTqatNXwzp6K6PHFXT9XtbZXN3R0TXzmMxl5k6zVam7FNmmKfRTGf1e3YprotU03KuKuI5zjvejQiJvMw4a04pFZc+4iJhUet5DM56E1QZABJjJEYBciRk4uaCmDIoAAYTHPqogkzMdDPLmqCqJjCZnPMMOQ45yuAMgoJgiMKA4xM55qJw88g5DjM4lQUEAMYAE4ueF6mExzyKuFTPNRBFASY5ciM96pICuMRwkTnoCgAYTnE8nIAHHHPMOWRAMoAdIUAhXGZwuVFQ6mASczC09OapMZBRI6c1ASeYoOMRjvckmMkeIFDKKLKRyVJjKCqkCipPQASPEqYxOVBRARJcuqY5LHQBUAAUEVDqBkFBAAdd+94KjPWZ5Q8DddLOsq8PFdNFdMYnMcph19o783NbFmJnhtUxmPTPPP4YebZ106amabtVVVmqOGafFnxPFq8m/dS3T4Y0/E7NTFY9XCzZqirjqr590U8sfayNLTXqNZ4CaartWPi/8Amx7N/N2mzNFUVVTinv4m47foaNHZiJiJu1fLqjv9H0Po6tdPV04n5ct3iLas8kyw7Wy8UxVfu4z1ppj+rLt7bbtUcNNdyY7szHsZg8s+H05jEw9NZmvRrPaLbNVXbt12KfC00Z4qaev0472rvp2MvF12x6SvU+6ponMzmuiJxTM+N0ranh9KcR6Q+j4bxu2NlnkaHW3rehs0U0ROInnXz5Z5fyXT7lct7l4S58qOUxE8pp8Ufq6q6K7Nc26uU08sMa9XNV+mmKY+LGZq7/oc9KfD1zeser5Wjqat/ETFo9J/9N9t1U10RXTMTTMZiY716vL7P35u6DhqzM26ppzM5zHWP1x9j1HWs7ozDteuy01GHvPzVqfqMxhbz806n6iy43/mXldkuur+5+5sbXOyXXV/c/c2NK9HPQ9uABp2AAAAAAAAAAa32t66X7/7XrbP81ab6jye1vXS/f8A2vV2f5q031GPl56e9ZmmEjJmc9FepcCTM+IifGCiRVEmYzg9BQADpATETGJ6A167VOv3DFPyapxHoiHvxRTTTFMRiIjEONFi1ROaKKaZ8cRh2ZcdLT2Zmesul9TfiI6Q8Le/8XT9SP1l62mpzpreYj5Mfo512rdyc126ap8cxlyjlGIjEQU09t5t9tW1M0iv0RE+Mme7CmHVyTlHSIhcmIMAGEiMd5zyC4EmZhc8lQDOQAAEmMndyUQSJnvMwZBVHHEz3k5j0hhQzyAMCgJgmJ7pADOAJjl4gVEjMdViYkFEM+IBJXACZmCOapjlyFVXGJmOqiAAJMZJmYlQBXGTPjBQUEwYUBIlUlIzHUHJDIAmOaqCZjOFTBE9wKIuBEOcSoArjmcrlQMnUBJicuSJGc+gHIEBXGY55csAJCpEYUAQwBHWVSYWOnMFEFQnokZwqRnMoq4URUEp6yvVJzmMCuQqCBk6gGBUADqAYVAGkbpqKp3PU8dM5i5Mc/FHKGJVZr1nDFumqZp51RHie5uFFM6y7FyimqYrmYzGerG09XBqaYopiIz0iMPBfVxnEerz6OjaNaLTPobJZm7uVqZomaaJmZ5comI5fzbe8nRVRGop54zyes34PU30mX0fE23XydQHseYca6eOiqnxw5OrVXo0+lu3eXxKZnmloiYmJM49XnV27dzHHRTVjxxl5u6aOmYpuWuGmYjHB0z9H4vJmZqmZmZmZ6zK29XctXo4qpqtxy4Znp9D49PCXpOYs51/+Qils7WwdmaLlHunjpmmPi4zMel7rytjmKqbtUc4nhmJ/F6r6mj/ABDtbUnUnfPydWFvPzTqfqM1hbz81an6jrLlf+ZeV2S66v7n7mxtc7JddX9z9zY0r0c9D24AGnYAAAAAAAAABrfa3rpfv/ters/zVpvqPK7W9dL9/wDa9XZ5/wCitN9Rj5eenvWZomVV6gRouj7b6z3bbp1lux7n4sVzRTMVRHj6qN7SYh0au/4Lb72ptTTVNNqq5TPWJxGYeB2V7Q6zeNZetaqizTTRb4o8HTMTnPpmUwNmmMnSMQlddFunirqppp8dU4hIu25o44uUTR5UTGAWOIniz6HHw1vgmqLlHDHfnk1bs/2r1O57lGm1NrT2rc0TVxU5ieX0yYMtqqrpojNU4jxy5RMTGWt9r9p1G629NVpb9qKaM5orr4YqzjnD1dj0t3RbRp9PfvReropxNUTmOvSJ9HQwM/I67l2zZx4S5RRnpxVRDlTNNURVTMTE98SDmOuu5RROKrlNM+KZwV3rduImu5RTE9M1RGQdiJTVxRmOiV3KLdPFXXTTHjqnEA5DhF63NHHFyiaPKiqMMfcL/Bteru2LkcduzXVTVTOcTFMzAMsah2L3bXbhrNRRrNTVdpptxNMTEcpy2/IJjBziWs7/ANrre3X6tLpLdN6/Tyrqqn4tM+L0y8Wjtrutuqmu7YsVUT3cExmPROTBl9AmrBl5mx71p95003LUTRdo5XLczzp9sPRuV0UU8Vyqmmnx1TiEVyMOEXbU2+Om5RNHlcXIpuU1RNUV01Ux1mJ6A5jhReornFNdNX0TlyprprjNNUVR05TkHIdfh7XhPB+Fo4/J4oz+DStz3rcbPaydJb1VdNjw1ungiIxicZ7vSuEbwRGFEVx555rlUxAKOM57pOIHJEic9FwBlMKAmJiTPPCpMZFVXGcx0XIgAAkRhQEieaomJzzFXIRhRAwAJnCxORJ5dAckSJyuAMmMig4xGFE+TAOSGcgBjvFBInKpJE5gFEVUQj0qk57kHISOgoJPPouAEpjlzcnGc9zkACATz6CpGcgoGVBImcyE5jGEFAVFcZnGFJ6CnUwR0UQSeUABE5hcJS5AgAAKAhkA6ioDxt10lyrV+EtxmK4jPPvjl7GNb0U2quOcVTPdHc93UW/CW8R1jnDAfC8da+nqY+Jd9GsdXibpqK7XBbtzNNXypmOUx4mxbVr6ddpaasxFyOVdMd0+xr2925i/buf5Zp4fw/8Ayw9JeuWKvCWq5oqiesPb4CYmsRHy999GNXTjHVvQ1+x2iiimPdVuI/7VE/0n2u2jtTt9dfBEXYnGczERH6vp7LT8PmamnbS/p7bW+0O60T/6nZnixP8AezHTPidup3e9dp4bUeCpnrMTmfxeFqdPPFNyiM56xDV9G0Vy+V4jxcTG2jhRXTV6J8Upct8XOnqx6qoojM8mZtlu7uGqosUU4jOa6vFT43k2T8PJWJv6No7PWarW10TXExVXM1c47s8nqONFNNuimimIimmMREd0OXV1iMRh9qldtYgYW8fNOp+ozWHvPzVqfqLJf+ZeT2S66v7n7mxtc7JddX9z9zY0r0c9D24AGnYAAAAAAAAABrfa3rpfv/ters8f9Fab6jyu1vXS/f8A2vV2f5q031GPl56e9ZmY59SYz3qK9Sdz5HoNBd3LV3LFj+JFFVdMeVjnh9dfN+xf+0tP1K/0WBndnd6mvZtZtepn+8t2Lk2pnrMcM5p+z/no6/7PpxuWq/0f6wvbPZ6tHqvfLSxNNu7OLnD/AJap7/on/nqn9n3PcdV/o/1hUYGu1Gr7Tb94G3X8Sa5i1TM/Fopjv/Dm7t57P63ZNvqro1UXtLdmKbtNMYxOcxOPpjqxtLdudmu0czetTVFmqaZp76qZ74+zEvU7Tdp9NuW3e5NFbuTFUxVXVXTjERPT8cAvZrbp3XsxrdJF2LU134nimM4xES8HZNrnd9fGlpuxamaZq4ppz0bb/Z/Gdr1P+t+2GtbDraNk3ubmsprxRFVuqKYzMSD1e2mmnRbbtGmmrjm1RVRxYxnEUvSo3Orauw2m1FvHhaqIot58czPP8ImWB251NGr0W16i1nguxXVTmMTiYpd+q0NzXdgtJFmmaq7MRdimOsxGYn+UoryNo7P6ztFTd1l7VcEcXDx1xNU1T7DQavWdmN99yXrmbMVxFynPxZpn/NH6srst2m0216KvSaymvEVzXRVRGevdLA1FdztP2kzZt1U03KojHk0R1mVRm/2gfPFj/d4/4qnKvsrr9bttOvvayK782oqptVR/lxyjPdy7sOPb/wCeNP8A7vH/ABVN20vzVZ/0Kf8AhRWo9gtxve6ruguVzVa4JroiZ+TMTGcfj/J5etv6vtNv3gLVfxKq5i1TM/Fopjv/AA5u/sJ8/Vf6NX6wxdLdudmu0czdtzVFmqaZp76qZ74+zmqMneez+u2Tb6qqdVF3TXZim7TTGMTnMcvpjqz+y3+ye7fRc/8ApuvtN2n0257d7k0du5MVTFVyquMYiJ6fjh29lv8AZPd/ouf/AE0+FdP9n3+P1f8ApR+rddZf8Bo792n5Vu3VVH2RlpX9n3+P1f8ApR+reblum7bqt1RmmqJpn6JSepD532N0dvcN7quamIueCom5irnmrMc5/F9A1mksa3TV6fUW4rt1xiYnu9MeKXzm1Vquyu/TNduaqYzT4ouUT3xP4Pd1vbmxOlqjRae9F+YxE3Ijhpnx8pnKyPa2zs9odq1M39L4WK5p4ZiqvMTDSdbf1fabfvAWq80VVzFqmZ+LRTHf+HNsnZPXbvudVzUa27nSUxw0x4OmOOr0YjpDV9Leudm+0czdtzVFqqaZp76qZ74+zmQMreez+t2Tb6qqdVF7TXZim7TTGMTnMcvpjq9Dst/snu/0XP8A6bq7Tdp9Nue3e5NHbuTFUxVXVXGMRE9Pxw7ey3+ye7/Rc/8ApnwNe2azuGru3dJt0zFV2j+8mJx8WJ758TYNwuavs52YsaGa6aNTeuV/Goq6U9ZxPj5w6v7PvnDV/wClH6vR7faKu/oNPqrdM1RYqmK8d0VY5/jEfifI8TaOyur3PRxrfdFNmKpmbeYmZqxPX0c2BFOpt9o7VGtqmrUUX6Ka5mc5xMRHP6MPe7P9rdLodqo0ust3eOzExTNERMVRnP2S8KrWVbh2lt6uqjg8LqKJinxRmMfyUfUzKcJGe9hVyGQDBiFQE7uREz3qARORMc8mcTzBQACYyJkDpHjIqiTBhFOa4SM96qAAiY5mYzgEVTLjmcrhQMKCJMeJYEkHJMplcAGBQcfkwp1TOJwDkh1AEnk5ICiZ5qICKCc8qJE+MHIQUJSM5xK4SZxgHIABxqmYxhQBUieSgE9BOoETmFSMdHJRBUEInuEiOaimBUEIxlXGI5zLkBhRMgAAKgAGFBGLqrE5m5RH0wyhx19CutTbZqtprOWsbnci9mxjlHOZ9PoeLcs3rFNVXOaY55if6NlrtaLcr2o9xX6ZvWK5ovU+KqPHH9enKXnbhor9GnuU126ozTymOcT9rxU0r6GIjo+poa9duIa7VVXfq4qv/wAOFUYqmHZajFOfG43YxVnxv0WlMzWMvBrzMszbNRVFyLNU5pq+T6Jeq8PQW5uay3EZ5TmcNp0216i/MTVT4Kjx1dfwdJtER6vheI0pnU/4h4Fym7q9b4K1RNdczw00w3DZ9ro23TTTMxXer511R0+iPQxNv1Wy6XcfcOl1Nu5rLmc4+NM9ZmOKOUYx09D3MPHq6u70jo9fh/D8f/VuoKjg9Ywt5+atT9RmsLefmnU/UJYv/MvK7JddX9z9zY2udkuur+5+5saV6Oeh7cADTsAAAAAAAAAA1vtb10v3/wBr1NonG16aMf5Hl9reul+/+16uz/NWm+ox8uFPdszMrlMZTCvSuYeboth2zQamNRpdN4O7ETHF4SqevomXoxGCaefUHDU6ezq9PXY1FEV2rkYqpnvhibfs237ZcquaLT+CqrjhmeOqrMfbLOmMnOI8YMPcdp0O5xEazT03Jp6VZmKo+2HRb7ObVb0tzTU6SmLdzHH8arM4nMc85enEz3wZ5mRi7ftuk2y1Va0VrwVFVXFMcU1Zn7ZdOt2LbNfdm7qtJRXcnrVEzTM/TMTD0JmI6rE5B52p2LbdXp7Fi/puO1p44bVPHVHDHLxTz6R1Zml01nSaejT6ejgtW4xTTmZxH2u0B5Wr7N7TrL03b2kp455zNFU05/CWVods0e3UTRo7FNqJ6zHOZ+mZ5yywHna/ZNv3O9Td1mn8Jcpp4Ynjqjl17p9LOpt00WabVMYppp4Yj0OYivN2/Ytt26/N/Sabwdzh4eLjqnl9suzcNq0O6REazT03Jp6VZmJj7YZyA8ujs9tNvS3NNTpKfB3Mcfxqszicxzzl3aXaNDo9Je0unscFm9njp46pzmMTzmc9GdMJMSDC2/Ztv2y5Xc0Wn8FVXGKp46qsx9syz054SKshh06vRabXWvB6qxRdo7oqjOPo8Tz7XZbZrVzjp0VMz4qq6qo/CZevk5mRKKKaKIoopimmIxERGIhh7htOg3OI92aem5NPSrMxMfbDNwYB5VHZ3aremr01Okp8Fcxx/GqzOJzHPOXdptq0Oj0l7S6fT8Fm9njp46pzmMTzmc9GeAwNv2bQbZXXc0djwVVcYqnjqqzH2yzqqKa6ZpqiKqZjExPSVnmnOIB5PwX2bw/hfcVOc54eKrh/DOHbc7P7Xd1kauvSR4aJiqKorqiImMY5ROO6HoxM98LE5MgACTESTmOigGQToCiRPjMgonMwCT6DPjUxlFFScx0IlUUAEI5GTmimRMYWJAFFRDnkMiqZccTnqsYAXACJMZXPPAk9cg5JlInK4AMQoCRPPCpPjInIBkACmcqkzgFAVBxmcdHIQIVxicqoqSZAInKpyiVAABMxnAk4zzcgAFROUT9KpMZmFRQUVExzEnrGFFAURKYxMq405zOXIAFAQyAdQAVMgBh5vaDXXNu2bU6mxRXXdinFuKac4qnlE/RHV6QDRtFte7dntZRTt+knUzqdJHhqq64i3RdirMzM+KInGOWcyy9q7QbhRsW4bvuPDfsW7mLFNujg4ueOUzHyczHOczylsm5aSddt9/Sxdm14a3NHFEROM+if+foeNv2y36+zFnbdqtxVFqqiKreYpm5THXn0zM4mftVGLqN3p0s3Lm89mbli3jM3bUUXYzM99XKI6+N26zVbHob+mt0bde1d3UW/C27di3NczT3TiZ+n8GNv+t3jctuubZXsGos3L80RTXRci7RGKonnVEYjp3srtToqIv6DUW9JuFU2ort+F26rFy3GOUYxOYnnHWMc+ucLulcy7tp3OqvcPAR2ev6KzdieG/Nrh6c/jREfF/Gebxd13DX7jsdyvU1zb9xauqzr7Omr4fCW84zHfjnMY5xPOe5Nl2vW073pdZpNDrdPapqqi/d1t6OKumY6cOIn+U85jxNls7LNrdtx1NVyirSa+3TTXZmjE5iMTz8WM/j6ObKPA0G1Xt0r0V7SbdY2zbrF2m9au1U8WouxEzMTnxTy6+iecN2Yu3aG1tuhtaOxNU27UYpmuczPPPP8WV1RQwKgMLefmrU/UZrB3n5q1P1CWL/zLyuyXXV/c/c2NrnZLrq/ufubGlejnoe3AA07AAAAAAAAAANb7W9dL9/9r1dn+atN9R5Xa3rpfv8A7XqbR81ab6jHy89PeszhxjPfJzyr1OSJM47ia4ppzVOI9IKOr3Ta8r+Unumz5f8AKTA7R1e6bPl/yk902fL/AJSYkdmB1+6bPl/ylPdNry/5SYMu2Iwc8ur3Ta8v+Unum15f8pMSZdszJnk6vdNryv5Se6bXlfykxKu2JyOn3Ra8v+Unh7Pl/wApMSejuMun3Raz8v8AlK+6bUf5v5SYkdpzdXum15X8pPdNry/5SYky7cGHV7pteX/KT3Ta8v8AlJgy7Mc8k5y6/dNry/5Se6bXl/ykwZdszgicur3Ra8r+Up7otY+X/KTEno7h0xqLcf5/5Svum15X8pMSO0dXum15f8pPdNry/wCUmJMu1Mc3X7pteX/KT3Ta8v8AlJgy7JmfsXLq902vK/lLjN+1P+b+UpiT0d5l0+6LWPlfykjUWvK/lJiR2jr902vL/lKxft1TiK4+3kYky54SIxLkCpxRnCpgmZgFEyCKk8wFTOFJTpCCqkTkVBFmUFIme9UwRmOqC4FFRDGJAVcplIjDkCLgBE6c1iciZiAUyAHVPkuSTGQFSJAAAI5qnKJyokgIoTMRKpMQsc4RRRFQnBlJ5rTGIAUASYyqT0SmOXMFUASYzMYcnGVieQAKo4znMYcnGZxMLkAAQp6y5OMTGZUAABRMgHUADqAAZMAAAZMAAAAKgKgYAYW8/NOp+ozmFvPzVqfqEsX/AJl5PZLrq/ufubG1zsl11f3P3NjSvRz0PbgAadgAAAAAAAAAGt9reul+/wDters/zVpvqPK7W9dL9/8Aa9TaPmrT/UY+XCnu2Zo4xVlR6cEzFMTM9IYFyuq5VmfsjxMy9/DliRTybqkuHCcLswcLSOvhOF2cJwg6+E4XZwnCDr4ThdnCcIOvhOF2cJgHXwnC7MGAdfCk08nZgmnkDhwmHPBgHDhThdmAHXwrhzwYBwwYdnCcIOvCYdvCcIOrBh28KYB18K8Lng4QcOFOF2cJgHXwnC7MLwg6uE4Xbwpwg7dNcmJ4Jnl3MjLEtx8en6WWxaPVqDIDLSTC5EnmCq45wuUCUyTDG19yu1pLlducVRjE/alpxGVrGZwyefdBHN4lrU6+9Ezbrqqx1xEMrRzrfCz4fi4OHviOrjXWi0+kS620ZrHrMPSHVa1Nm7Vw0XKaqvFErdvW7MRNyuKYnpl23RjLltnOHNIYeuvRXoLldqvMcsTE+l1bPXVXRd4qpnEx1lznVjdFXSNOds2elE4V4W2V11a2mKq6pjE9Ze7C6WpyRlL6eycGB1e6rHhPB+Fp484xnvSdZp4r4ZvUZ+lvfX7Y22+ndMZI5csmeWXRd1Vi3Vw13aaavFkm0R6yREz6QyEy6Z1Vimmmqq7TEVdJz1cqtRaot03Kq6Yoq6T4zdH2bZ+nZgmHV7r08UcfhaeHOM5crV+1eiZt101Y64ki1Z+TbMfDsiVY06vT0V8M3aIn6XfFUVRmmcxPesWieiTWY6qZdV2/as/xblNM+KZLWps3pxbuU1T4onmm6M4yu2cZw7MYnMqTGSGmVEAJInMGCIxyBQFQlI5RgIieLKKoKqJPQpjECRnikHJFATuKenNZSJBTKKokrHQkgFQyAkzzhTlMqAhlJjIix6FIjEKAgAdQOoBgADqAAAAAAYUEVDqBkFBFBQYW8/NWp+ozGFvHzVqfqJLF/wCZeV2S66v7n7mxtc7JddX9z9zY0r0c9D24AGnYAAAAAAAAABrfa3rpfv8A7XqbR81ab6jy+1vXS/f/AGvU2j5q031GPlwp7tmYYhQep13v4csdk3f4csZuvRmRUGkUAAAAABJHGqccwXJMsPUa2i1TMzVEPF1e9YqmKZmfFzBsdV2imPjVRH0y6p1un5xF63Mx/wBqGl3ddxzm7M1zPdxTiGLc1U1eKI8WAbvd3bR2s8V6n7Obonf9FFM8VU0+LlnLTPC+lJrzHVRs97tPbif7q3mI76u9w+FEYjFmM9/NrExnvcczANmudpa5uxNqnhpxziebu0naTMz7oopx3cLU+LmsVzHeD6LpNbZ1VvitVxMd8d8MnL57otdd01cVW6pj7W1bdvlnVTFu58Sv0z1QeyJFUT0AUAEUAEUAgAAAFp+XH0sjvY9Pyo+lkMWaquYMuOIXMRLDQYUUTBMzCoC9WHuf+BufZ+sMqZ8TF3T/AANf2frDnqfxLdP7h5Wk1V3TxVFuiKuLrmJeto79d+xNdymKZzMYhjbJ8i79MPTxycNCttsTl11rRumMPC2vPuuMeTLL3n+Db+t/RgW6q9Dq81U5mmcTHjhz1usnVxTiiaaKZ/m4xeI05rPV6JrM6kWjo76fmKr6f3Oey/IvfTDhT8xVfT+5z2b5F76Ybr/Vf8c7fxb/AFi7X/jqfon9HvTDwds/xtP0T+j3scnTw38S5+I/uGu3KJua+uimcTVcmM/ayNZt9OnseEormcTiYl1UfOn/APLP6vT3X/AV/TH6uNaRatpl2teYtWIYul1NdG23JzzonFM+LLH0OjnWV1zXXMU09Z75l3aCxN/QX6I6zPL6XRo9XXorlcVUZieU0zymJTtm/Re6KdU1ulnSXIp4uKiYzDJ1c/8ARFj6Y/SWLrdTXqq4rmnhpjlTDJ1Uf9E6f6Y/SSMZtt6LOcV3dcuGh0Eaq1Nddc0xE4iIY9Vu5p9TVaoqmKs8OY5Zy9bZv8HP1pedque6z9en+i204jTrMdUreZvaJ6O3U7ZFnTTdpuTVNPWJh27VqJo0t/i5xajij+fsZu4f4G79Dz9ooi5b1NE9KqYj9W5pFNSIr9OUWm2lM2+2Jam3fvzXqbs0xPOZiMzJd8FZvU1aa7VVEc8zGJiVoxpNRNOotRXEcpiY/nDsm/F6/FGn0tvn0iacy4RHpiev/t3mfXMdP/T29Pc8Lp7dyetVMTLnEc0t0cFumnERiO6MQsvpxnHq+dPX0VUVWRxx8bKpORXJFBBOeVSqcBCmQUMJHypckieYKCATJHNe5IxjkCgihMwqTHTLkgiiZVEiMTKpEc+aihPNXGc5jAjlHKAAAAAOoBgADqAAZMAdQAVDqACgAgAGADDD3n5q1P1Gawt5+atT9Qli/wDMvJ7JddX9z9zY2udkuur+5+5saV6Oeh7cADTsAAAAAAAAAA1ztb10v3/2vS2iM7Xpuf8Akeb2t66X7/7Xp7Rn3r031GJ6uGn71mZMHPBzOY9Thcz4OcsdkXf4csZuvRmVAaQAAVFABASqcPM3PVzZs/FnFUy9C7Vw0S1veLubkxGeXKQeVrdXXXXOa55coedVVPXLsuVc5+l0V1AuZSUiqI70zkFirHU4sz6HGesOOeviUdkV83Liy6MuUTjxA7cwkTDhxZWMSDnM4hyt3poriYqmJjphwxlwmMSDbNn3uuuqm1enM9Mtlt1xXTExPKXzG1cmirLbti3Ob8RRVPxu6AbGJE8iEFAAABFAAAFo+XH0sljU/Lj6WQxZqqoZObLSZ5rkwnOJQXmYFURxroiuJpqpiqmesTGYc0SRxt2rduJ8HRTRnrwxhzcek+hSCXC5at3f4lFNWPHGUmzZmiKJtUTTHSOGMQ7MCbYXMuvwNvg8HwU8Hk45OVu1btZ8HRTTnriMORHIxBmXCixZt1cVFqimrxxTEOwRYiI6JM5dfgLPHx+Co4s54uGM5c5oprpmmumKonumMqmExC5kot27UTFuimmJ8mMONzT2rtXFctUVT45h2QptjoZnq6qtPZqiIqtUVRT0zTHJarNuqmKKrdM0R0pmOUOxJNsGZSi3Rbp4aKaaY8URhxqsWaq+Oq1RNXXM0xlzieQuITMpVTTVTNNURVE9YmHGizbt58Hbpoz14Yxl2YDEGXCuzbuxi5RTX9MZLdm3a/h26afojDlT6VMR1Mz0VJ6GRUSJ5KlPRyBCVSQInMKkTmFEQnkqTjvBVQUEjquCI5goAE9EjlBPOCmMQCgKiTGZhUjrKooT0Vxmeiix0A6iGUp6zlZ5QROYBQAAAMAdQAADqACodQMmBQRRFAMCBgUUBDIKwt5+atT9RmMLePmrU/USWL/zLyuyXXV/c/c2NrnZLrq/ufubGlejnoe3AA07AAAAAAAAAANc7W9dL9/9r0tomfevT8v8jze1vXS/f/a9PaPmrTfUYnq4afvWZczPiWJAepwuzE25wxmRdx4OWO3XozKgNIKgCooCCoDrvUzXTMQ1veLWeKrxxifpbPPOPE8zdLNM2aq+KIx4waNcnEyx5yy9Vw1XJ4fG4WrE3KuQsRlj00zPc76NPVPdyehZ0kRGcM61YiI6Oc3w6108vC9yV+KT3JXHc2OLVPica9PTNMs8jfFDXKrE09YcPBzPc9q5oomvxkaOOnC1vY4niTTiOji9udDGecfyYuo2/EZpWLwk6cw8+Mxzco5wlyiq3ymMFEtuckxjoytt1lek1NN2nu6x42NU40zieQj6ToNVTqtNTepnlUy2p9mNXX4T3NxfE51RDa4BQAAAAAAAWn5UfS7888Oij5cfSyGLtVFTPMZaVDICc4lcmCIQDCiiYIeP2h36nZKLOLMXrl2ZxTxcOIjv6S4dn+0FO9zeomxFi5axPDx8WYn7IMfI9wTJzASfQuBAEjlLkoIAFPRXHnlywgGBVRxj5Tkkzhrva7T7tfo0/vZN3wcTPhKbVXDOe77OpA2MYOy0ay3tWno19XFqYp+PMzmevLM+PGGbgDPxlwnRQFEAzzwJn4zXLfaqqvf52z3HER4ebXhPCeKcZxggbIPL37e7Oy6amuqnwl6ucUWs4z45+hNg3XUbxp6tRc0caeznFE8fFNc9/dHIwPVjpyVI5Qogk88Kkx0FXACoqRHOZJnklPTmCqAJOeSpM8wFSei4SZAp6OSCgmczjxKRjrCBgyHRUTvckiI6qBkMABkAAOoBgAVMnUAwKgKgYABQBMgAYAMCgDC3n5q1P1Gawt5+atT9Qli/8y8nsl11f3P3Nja52S66v7n7mxpXo56HtwANOwAAAAAAAAADXO1vXS/f/a9LaJj3r0/1Hm9reul+/wDteltER716b6jE9XDT96zM5GCcHcPW43f4csZkXP4c82O3XoxKgNIEgAAAADjV/JqvaHW1V3fARPKOuJ/k2uro0HdK+LcL8x045j+YMPGXoaK18WKmBTznD19LGLcQzfo6acertppdtKRDnTDhL1Q5RC4ytMclwiuE0QnA7Jgwg6po9DqroiYmJZMuuuFHlavS8cel5U25omYmGyVUxMYl5ets4nOOXjdaW+HDUp8vMzk6OU04lJjk6vO9bYLvg9zszEZzOMfY3ymcxyaR2Xt017jTnrTTMw3eO8FAAAARUBRFAp+XH0snmx6Plx9LJYs1VMJHpcklhoVIMqKk9DIgQZSYnLF3bWRt+16jVTjNuieHPfV0j+eAaRvdyre+1lOltzmimuLMY7oj5U/r+Djt8zsPa+bNU4teEm1OfIq6T+ksHZqtyt6udbt+mr1FyjMTV4Oa4iZ/qu+Tueov06vctJXYqmIoirwc0xOP6ujLe+1Nddrs/q67ddVFURTiqmcTHxoafsvv5ulq9ptHqq6aImKrlyu5MfRGevj6Pf3DXe+PYOvUTOa5oopr+tFcRLp/s/8A8JrP9Sn9GY9IXq8S1r907O7tFrU3rlUUzHHbmuaqa6Z74y9jt3qb1mdBNi9ctxVFczwVTGfk+J5vbv58o/0Kf1lndurVU6Tbb0R8SmKqZn0zFMx+kqjY9irqr2LR111TVVNqJmZnMy1HZ9Xqa+2NNqrUXarfh7kcE1zMdKu57Gw9otts7HZo1Goi3dsUcNVExOZx4vG13s7d8P2tsXojHhLtdWPFmKpSI6q7+1Ou1On7S3ot37sUUTRPBFcxHyY7nqbFXvFe6V7lulN6jS+Cqq+NOKaY68qfoeR2niKu19yJjMTVbz6tLfdwsVanbtTYo+VdtVUR9MxMLKPn9zXbt2k3ObemuV0xOZpt018NNFPjn2ru3v5tWnt6XV6i5Nqqrit3Kbkz06xnr39JTspudnaN0ue7M0UXKeCasfInPezu2W96PcLNjTaSvwvBXx1VxHKOWMfzPkZdnUX5/s+u3pvXPCxPy+KeL+JHe8jZffzdLV7S6PVV00RMVXLldyY+iM9fH0elZ/8AZxd+n/8A6QyP7Po/9U1n+pT+gPDt6/dezu7Ra1N65VFMxNdua5qprpnvjP6vb7d6m9Zt6CqxeuW+LjzwVTGfk+J5fbz59o/0Kf1lm9u/8Jtn0V/pSD0rW617d2MsayqZuXpoimjjnOapmev/AD3Na2/Tb7v1y5qLOqufFnncruzTGfFGP6PU3HT13+wGiqoiZ8DNNyqI8Xxo/qnY/ftFotvr0msuRZqiua6apicVRP8AUHibtrd3tavwGt1F6i9ZpiieGuY4o6xPLr16tg7b6m/Y0u2zZvXLc1RVngqmM8qfE8DtPuVndN3qv6fPgqaYopqmMcWO/wDm9rt5/hdr+iv9KQYul0XaHeNstXbepmmxRE00Uzdmma8d/p5+N3dkN51dG6Rt2ruV3KLmYiLk5miqIz/SWzdmP9ntF/p/1lpu1f7c/wD+zc/cD6Njm+Z3dTb0XbG9qbueC1qq6pxHPrL6Xjnl828Db1Hba5Zu0RXbr1ddNVM98ZlIJduisajtZv1d7UTw2aMTXifk0d1Mf8+OX0Gi1RY08WrNMUUUU8NNMdIh871VjVdk98pu2Zmq1Vzomelyjvpn0/8AlLf9DrbO46GjU6erNFyPtie+J9KyQ0nsVq9Te32KLuou3KfBVTiquZjuex27v3bG3aaqzdrtzN3EzRVMZ5T4ms9m9Zb2ff4nWZopp4rVc4zwz/8AmHp9td40evs6fT6S7F6aaprqqp6RyxEHyMu1qL8/2e13pvXPC5+XxTxfxPG8XZ/fzdbV7TaLU3OCJiq5XVcmMeKM9fsh6tr/ANm1z6Z/+q7v7Pf8LrPr0/oDw7e47v2c3ObV+5XXNPyrVdc1U1x449rK1uh7SarSVbnevV8PD4TwdNyaZpp68qY6cvtcO3nz7R/oU/rLe7vzVX/oT/wqjXexW86jXRe0eruTdrtU8dFdXOZjOJifH3PF3beNx3vd50ehuXKbfHNFu3bq4eLHfM/zc+wPz3e/3er/AIqWFtGojYe0cTq6Z4bVVVuvlziOmT5VlbjY7QbJoJo1Goqq096YjiouTVwTnPXrHT6HqdmdTfudlt1uXL1yuumK+GqqqZmPid0p2t7QaDV7V7k0l2L1dyqJmYicUxE57+919lv9k93+i5/9MR4m17lu9Vd3T6K5fvXr1OM8U1TTHfMZ6fS3zszY1en2ei3r4ri/x1TPHVxT15c2sf2exHvjqpxzi1HP7W+pIJymTJEd6KoChOBIjnlQCfEJFOZzIixHJQAAADqAYVAAFBAOoAKCKh1ABQRQUABAABhbz81an6jNYW8/NWp+oks3/mXk9kuur+5+5sbXOyXXV/c/c2NK9HPQ9uABp2AAAAAAAAAAa52t66X7/wC16W0fNen+o83tb10v3/2vS2j5r0/1GJ6uGn71mZgTmcSPWl3+HLGZF2f7uWO6V6MSKkK0gAAAACAlXyZaBulPDuF+P/1J/Vv89Gj9oLUWt0uRHSrFQPPtzip6+mj4sPIp+VH0vb09OLdLF3bSh3Uw7IhwiYjrLnTXTM4y4O+XZTC4cqeHxrykXLhheHk58KTMU9Qy65h11Q7K79uOssevV2o/zRJg3QTDG1FvjpmFnW2pnnOHOZiqOXOJaxMJmJa/qafB3Jh0ZejudmYmK4jlLz6Y5u9ZzDy2jEti7JUZ19VXk2/6twhrvZHT0xpbl7/PNXD9mGxwssKAAAACAoALR8uPpZDGp+VH0smGLNVMnMVlpxlRImcoKqCgwd12y1u2ljT6i5dotxVFU+DmImfpzEs7KTlBh7Tten2jSzp9NNc0zVNU1VzEzM/ZEeJd122zu2knTaia4o4oqiaJiJiY+mJZmBR49js5pbO1X9upvaibF+qKpzVTmJjHTl6Id2z7Np9mouW9NXdri5MTPhJif0iHppPIHj7t2a0e76uNTqLl+muKIoxbqiIxGfHE+N6Gq0Wn1ejnS6i34S1MRGJ/X6WQGRr1jsZtdq/Fyqb92mJzFuuqOH+UZd2k7L6HR7nTrrVy/wCEpqmqKZqp4Yznux6Xt5SfHJkw8bW9mdFrtynXXbuoi7M0zimqnh5RER3eh7QoPE3Pstt+5X5v1+Es3audVVqYji+mJh1T2P2udJGnjw1M8XFNyKo4quWMZmOnPubAneZHm07Dpadkq2qLl7wFU5mrMcXys9cY6+hy2fZdNs1u5b01d2uLkxM+EmJ6fREPRMmUePu/ZrRbvq41Oou36a4oijFuqIjEZ8cT42vdutRprkaKxYv0XK7M101xTVEzT8mMTjpPKW84azd7GaXUa+7qb+pu1RduVXJopiI6znGViR6XZyiKuzmjorpiaarWJiY5TE5YN7sVtd2/Nymq/apmczboqjH84y2C1aos2qLVqmKaKIimmmO6Icwa9qux22aiq3NM3rMUURRFNuqMT6ZzE8+bN3fYdLu9uxRqLl6mLETFPg5iM5x1zE+J6dS5TJh0aHSW9Bo7WltTVNFqMRNU83l6fsxotPuvvjRd1E3vCVXOGaqeHM59Hp8b28AJGeJ41HZjRUbv75Rd1HhvCzd4eKnhzM58Wcfa9qJypBLC3TbNNu2knT6qJ4c5pqp5VUz6GPtGx2Nlmv3Nf1FdFzrRcqiYz4+URzeokzzMjx917L7dud+b9yLlq7V8qq1MRxfTExLoq7HbXVpKbFPhqMVcU3Iqjjq5Y5zMdPobCLlHl07Dpadjq2mLl7wE/wCbMcXyuLrjHX0OWy7NptmtXKNNXdqi5MTPhJien0RD0ZnCwDxt37M6Ld9XGp1F3UU1xRFGLdVMRiM+OJ8b1qrVNWnmzMzwzTw578Yw5gPG2fs3oto1dWo01y/XXVRNExcqiYxMxPdEeJz3fs5oN3ri5fprt3ojHhLc4mfp8b1oiOqg1632N2u3pLlj++mq5jN2ao4oiJziOWI/BmaDYNJt+36jRWbl6q3qM8U1zEzGYxyxD1XHnnJkeVs3Z7SbLeuXdNcv11XKeGfCVRMfyiHrdVwKJhY5RhI5yqAT0ExMyCxyjACoEcoSImZ9DkAABkAADAAqAGQAAyAdTABgUUABAEFUTJzQDJgAywt5z706n6jNYe8/NWp+oSxf+ZeT2S66v7n7mxtc7JddX9z9zY0r0c9D24AGnYAAAAAAAAABrna3rpfv/teltEf9F6f6jze1vXS/f/a9PaPmvTfUYnq4afvWZeEwoPW67v8ADlj9zIuz/dy6G69GLIorSAAAACKA4y1HtVbxuFNflUNvlr3aqzxae3e8mcT9orWtLb8JqKY7o5y9a7epsW4mevdDD2unN2ufRDMu2Ka7sVVdKY6Odp9XakejBuX71dU1RTOJ8Tqi9eo6cUfY9Oq7btxFMU/ZDhVdpx8bhp+mUyTX9YVGuvUT1mfpenodbVd5VdYYs00zGYimY9Du03DTXExGEtLVYl6nHOHna+/cozwThncuHMsLVcMz0y5w6TDx67mouVTnilyt6e9XPOMfTLOmIjr0T3RZpzHOrx4jLrEy4zWPl1UbdM86q1i1d01yOGZmnvh2eFpnHDXNMzzjPLLuouccYq/FJmWorHw4XrcXbWJ74eHNE01zHilscU/FiHjaq1w6muGqSzqR8tw7O2fA7Ta8deaperDC2yuiNFYtxXTxRRGac82bDo4KigCKACKCCp3gtHy6fpZPexqflx9LIwxduqmYSIyuGFMpM8lwYFOphO9ciKhl139Rb09MVXZmImcdMkzEesrETPpDsicq6bN+3fo4rU5jOOi3r1Fijju1cNOcJujGTbOcOzJLGp1tiq1VdiqeCjlM4lzsaq1fiqbVWYp68sJvrPyu20fDtjmuGFG5aWP88+rLtt6/TXKsU3Yz6YwkalJ+Vml4+GQSJLbChGTCgmOeVO9BcKgqBT05mUpzMc0Vyyi4FRxnk5JnnhQVDKT6QInMKRGFBMHLPpCIjqCgCJOJXCRHPLkKhIneqLEYgUBJjkRGITnn0KC5SczC4TvBaYxGDIKJOVjokdV6gZTEqR45EWOgAAAAKCAAGABUyAGBQAEVFEyc0UMmAAwoCKCoAAMLefmrU/UZrC3n5q1P1Elm/wDMvJ7JddX9z9zY2udkuur+5+5saV6Oeh7cADTsAAAAAAAAAA1ztb10v3/2vS2iP+i9N9R5va3rpfv/ALXpbR816f6jE9XDT96zMwmFJHrdd7+FUx4ZF3+HLHbr0YsoDSKCAoigIqA4XrkWrVVdXSmMy1zc9dXq9LXbm1E0Vc44esPc3KcaKuJ7+TxfBRwVTHWO5i1sS7UpExl521Ucrk/Qyr0Tjk46Ojhm9jy2TNOWLT6ulYxDya6a6rkRM8NOec97K3HSRFi3c01uK4iJiYjnOfGyK7FNXc4+AqpjETyIthJpliaLSx7nrru4szOIojP88OdvOY8cO+nTzE85c/B4lJnLVa4dtM5oYl+J4vtZdHR13Kcyw6Ma1FMXYru0zNMdIdOp0lFy/wCEs6iaKZzPDj5OerPpt+Nfc9LcWw5zSJYepi3ds0WaKPkRERPe5abTzREcWZ+lmU6emJ6OzhxCTbKxGHTwYebrLM1aqiKeU1R1etVDD1EROos55c1rKWjLtsZ09duq3yxMZbTE5jMNduRTVETGJ5Pf09WdPbme+mG6S56sdHYA6OAAAAAneAOVPy6fpZLGo+XH0sjLFmqnSQlInLDShgwCTK9SY5EAmGNrrPhtLXTjMxGY+llolq5jDVbYnLyNmu4uV2p744oN5uZrotx3fGl0Vx7j3LlypirP2SR/67uPjpmr+UPBunZx/OXt2xv5PjDKuWfA7LNMxiZiKp+2YXZv4d76YZG5/wCAufZ+sMXZvkXfph1mNupWPxzid2laZ+2Fo7NN/Uxbrzwznoy9ZtlNqzVcs1VfF5zE+J0bX/jqfol6m4X6LWlrpmqOKqmYiHOlKTSZs1qXvGpEVY+0aiq5RVarnM0c6foelh5Gy0T4S5c7ojD13p8PMzpxlw1oiLzgjoqRPLmZdnFUzzCPlYBTCiidCOhPpOUAohjxiETGVSIhyBCYyrjj42QUDAE8yIMc/QoBInPIi0xiDJ1FEnnC0xiOac5lyQEmfEJHyp8SixnHNRAJme5YjxpSoCVTOYwTlY6KAJOe4Q5zPJywRGAAAAVAAAAydQMgoIoioqGTCKZBQRQUABAAAAAABhbz81an6jNYW8/NWp+oks3/AJl5PZLrq/ufubG1zsl11f3P3NjSvRz0PbgAadgAAAAAAAAAGudreul+/wDteltHzXp/qPN7W9dL9/8Aa9LaPmvT/UYnq4afvWZmDAD1uF3+HLGZF7+FUx269GJXIitIogC4EUAAGHukZ0kz4qol5EVzM8FPyp8T29bTxaW5HoeFE+DuxcnnT6O5yv1ejSn0ddqibVdyirrxZZNMRLpqqoqvTNuriiYz9DtoYluHLhOFyhzxllp1cHjdVyYh31ziGHXVNVXLoNQ7rfOHXczFTIsW809XXqKOEMuNucu+IY9ueGcMmmcwJIkr0capBwqY9VEXL0RV3RLuqljTXXNyeCYj0ysI7aJ+LMeJslmMWaI8VMNbsW5m7FunnMzGZhs8dIj0OtHHWlQHRwAAAAEVAcqflR9LIY1E/Hj6WUxZqqEcg78sNKJk5gJHJcJEYBcnMUHn7joatTVRXbmmKojE5Nv0FemrrruTTNUxiOFnz0HLiru3fLry227fhj621Vf01dqmYiqrGM/S6tu0lzTU1xcmmeKYxwyzZSJamkTbd8sxeYrteN706jPyrf4z7HK3tFyav725TEf9nm9fM5XDlGhRude7qsWqLFuLduMRH83ZKkvREYjEOUzmckAKipGMhHoQUyYFEnnyXBjnlQElXGecg5RGDIYESc4KYxHMnOVABJmc8gWnOOaooiT0KenMzzwoKkyZSM5UWM4UJnAJM4Ej40ZcgMJnngmcERy59QUVxmeeIUImc+hQEO4p6cyM55qBkAADAHUAAADCiKKhkQMgoIoKgAACAohlFVDmYAMmAA5igjC3iP8AonU/UZzC3n5q1P1CWL/zLyeyXXV/c/c2NrnZLrq/ufubGlejnoe3AA07AAAAAAAAAANc7W9dL9/9r0toj/ovT/Ueb2t66X7/AO16e0fNem+oxPVw0/esy8GAHqdd6P7uWOyb38OWM3XozIqK0igAAAAAlURVExPSXgamxXp7tVOOXd6Ye+67tmi9Tw1xlm0ZbpbbLXMVcXFMYd9D0r2gtxaqmJqmYjMPNpcpjDvW0S7Ycol15wk14YbL08mDeu1WoxFE1TLJuXacc3Rdq4o5KZcbWsqojFcYnxRKX9RVcnFPX0uPBPDmaU4M0ZiJyuITMuViq7Xjj6+OHo2o5dXnW7lVHKYZVq/FSS1lkzLqrlZqy66pQddcp7luRPx6aqZnxx3O3T25vaiijxzz+hsPDHLlHLo61rmHG18S8za9FVbqi7XExjpnveqQOkRhxtOZyKiqyAAigCAAtHy4+lksan5dP0spi7VUwkw5JPRhohUgyAnPK5TPMFDACTOIViavc9Do6+DU6uzbr8mqqM/g7tNqrGrteE016i7R0zRVEg7cGEqqpopmqqYppiMzMziIYMb5tc3OCNw0/F0+XGPxUZ0TmXJwiYmImmcxPfDr1GqsaW34TUXrdqjx11RCQO9JwwtPu+36q5FuxrbNdc9KYrjM/QzMcwUYN/edt012bV7W2aK45TTxc4+llWNRZ1NqLunu0XaJ6VUVZhR2YWIwwq91263XVRXr9LTVTOKqZu0xMT4up787Z/8AEdJ/31PtBnI4xcom3FyK6ZomOKKs8sePLz6t92vwnB74afiz5cY/HoD0o5QJTNNdMVUzFVMxmJieUuQJgph03dZprVc0V6mzRXHWmquImHK/qtPpbdNzUX7VqiqcRVXXFMTP0yI7kYXvztf/AMR0n/fU+12afcNJqq5o0uqs3qojMxbuRVMR9gMiJzCujVazS6KiKtVqLdmmenHVEZ+hw0m56HW1TTpdVZu1Rz4aaoz+AMqSnoZ54Yuq3TQaKvg1Ors2q/JqqjP4Ay0mcOrT6rT6u34TTXrd2jyqKomHTe3PQWL1Vq/rdPbrp6013aYmPsyIy4nkuGF787X/APEdJ/31PtZVq9avWYu2blFy3VziumcxP2qOUzjo5POq33a6LnBXr9PFUTiY445M+ium7RFduqmqiqMxVTOYkHJxzzwxLm77bauVW7mv01NdM8NVM3aYmJ8U83H362r/AOI6T/vqfaDP6JLo1Gu0mliidTqrNmK4zT4SuKeL6M/S46bcNHq7k29NqrF6uIzNNu5FU48fIGTTz5q6tRqbGlteE1F6i1RH+auqIhj6fd9u1Vzwen1ti5cnpTFcZn6FGZMrCRzYur3XQaKvg1WrtWq/Jqq5/gDLTnM8nRpdbp9dRx6S/bvUx14Ks4+lkxGBDCoAAoIGTAAKAIAZBQRQUAQRRBFDJgAyCgmBRQAEAAAAGFvPzVqfqM1hbz81an6iSzf+ZeT2S66v7n7mxtc7JddX9z9zY0r0c9D24AGnYAAAAAAAAABrna3rpfv/ALXpbRH/AEXp/qPN7W9dL9/9r0to+a9P9Rierhp+9ZmYMGQetwvR/dyxoZN7+FLGbqxKiK0iiKAAAAAigONUZpmHhXaJt3qqZ7pe88zc7OMXYj0SxeMw3pziWFl13J+KvFycK55c3F6WJcvU25+NmfRCxfrqj4lucOcW6ZnnGThmicxP2NZhIiXHju+RK1V3KulE/g5xqYpjE5I1cdO9WvRj1VXsZqpj7XHT3Kqqp4ommXbX8erOeSxRHdGEyzMMm3Xmkql1cUxCcWUiCZxD1totZqruz9Ef1eqx9Hbi1prdHijM/SyHeIxDzTOZMmRFZchAFVxyoKIAAgLR8un6WVli0fLp+llMWbqJOcKT0YUiOQQoId4nLuByYm66qdDtmp1MY4rduZpz4+7+bKy8ntTTVV2d1kR14Yn80KNS7P7Ja3qjU63cNTcopivHFFURNVXWZmZ+mHq7Bsev2zd/D6e/Zu6KqZpqmmvM1U9048fR43Z7Y7u92LlNWqmzp7VeYpiM5qmOuPoiHLb6tR2f7U06OLvHTN2m3XEcorirGJx4+cNMvR7ebjci5Z2+iqYomnwlyI/zc8RH8pY97sbctbRVqvdOb9Nvwk2uHl0zMZ8bp7dUzG+xM9KrNMx+Mt51l2iNrvXcx4PwNVWe7GDpC9Wt9g9wuXbN/RXapqi1iu3nuiesfp+Lx+0HhNd2snS37k0UeFptU56UUzjn/PLJ7AUVTuuor/yxYxP0zVHsl09oL1W+do40Wls26a6K5tRXPKapjrMz4o5nynwnajYdNs1Gnuaa/cqm5MxNNyYzy74xENl01e463shbmxP/AK5dtcMVVVYnGcZz48c2q75ses2mmzqdRfo1VHFFPPM4nriYnu5S3bZtyta3aLOqqiixExwzTnEUzHLEJKw1rb+xdVVm7Xul6bNUfI4KomPpmWP2HvXbe9XLFFU1WqrdU1RHTl0n/nxvb7SbNqN8m1d0WpszTbpmmaZrnFU9e55fYvXUaXXXNtu6eii9XMx4SPlTNPWmf59F+E+WfquxdrV6y9qJ1ldM3blVcxwRyzOfG1fdtro0e7xt+lu1X6/i0zMxj409384fStdq6NDob2qu/JtUzV9Pij8WldjtLXuO93tx1HxvBTNcz466v+Z/kkSssztpfu6La9Bt9uueCqnFcxy4uGIiI/mxLPZK3d2CNd7pqi/Nnw0U4jh6Zw2PtNs3vxoqKaK6aL9qZm3NXSc9Yn+TXLOy9o/c1WiuXps6KInimbsTHD34xz+xYRn9gNdcuWNRo7lUzTaxXRnuiesf8+N7m/btb2jb6r04m7V8W1R46vZDVewPxdZrLk/JptRn8f8AyeduG52t73yi7rbs2dFTOIjEzMUfRHfJj1HmaunUVVU6jU8U1ajNyKqutXOYz+MS+l7ttFO9bZY09d6bUUTTXmIz/lmP6tJ7Va7Ra7Waedvq4rNqzFvEUzTjEzy5t/2ncNNuOki5pLk10UTwVTwzGJiI8f0kjUd17I6XbNuvauvXXJ8HT8Wngj4090dfG7P7P9LVFer1tXK3FPg49M9Z/Dl+KdvNwm7qLG22pmeH49cR31T0j8P1bLte3e9+xUaSmP7yLc8WO+qY5/zPgaNat3+1XaGuKrs0U1ZqzMZ4KI6REfh+K77st3s7qdPe0+pqriqZmiuI4Zpqhkdg6op325E9arFUR9OaZ/o9P+0Gun3Jo6MxxTcqmPoiP/M+R7U7tM9mZ3OIjj8Bx47uLGP1ah2e2O1vdGp1u46m5RRFeOKKoiaquszMz9MPXi1XH9nHDzz4Pi+zwmf0eJ2d2K7venu016qbOntV5imIzmqY64+iIB7OwbFr9r3fw+nv2buiqmaapprzNVPdOPH0Zm69kLW57jd1lWrrtzcx8WKInGIiPH6Gt7bVqOz3amnRxdmqmbtNu5EcorpqxicePnEvo1y5Tat1XLlUU0URNVUz3RAPmPaPZ7Gzam1p7WoqvXKqeKqJpxwx3f1bHuOk3LT9lNHt2jtXK7lUf33BHOI6zH4zj7HkbVTX2h7WVaq7TM2qa/CzE91MfJj9P5vonKOZI+f/AAS8F2fu67U3LlrVUUVV+CmIxER3T6Wd/Z9qrtVvV6aqqZtUcNdMT/lmc5/R09qu0Hu+r3r23NymqqIuVUc+OfJj0Pe7L7N706CabuJ1F6YquY7vFH2f1JGl3NFRuPa7U6Wu74Km5qLua8Z4ccU/0epY7J7XqLvgrG+W7lzyaIpmf1ctX2Q1ur3i/fm/YosXr1VWYqmaopmZ7sdcMDtLsFOxTp72m1FyqK5mPjcqqZjnmJhUbL2p2Odw0Vm5Go8H7jtVzjgzx8o9PL5LwP7P/ny9/u1X/FS2rT6qvW9kp1N3ncr0tXFPjmKZiZar/Z/8+Xv92q/4qQdW9Xb+/wDamdHRXiim5Nm3E9KYj5U/ymTtB2Zq2XTW9VZ1E3aOOKZzTwzTPdP8jZv7rtzEV8pjUXaefjxVDZe3NdNPZ+YqmM1XaYp/X+gOe17xdv8AZKvXVfGv2LVcVTPfVTHKf0an2d2b4Q6vU3NVqK44MVVTHOqqas+P6Gx9idPF3s1et3ozbvXa4x46ZpiJ/q8mOze+7VrKq9qucdNXKK6LlNM49MSDGs26+zXa23Zt3prt8dNNU9OKirHX6M/yfSMvlm46HV6TfLFvW3vDaq7NFdcxOcTM4xn7IfUyQAygBhQRUMgAAYUAARRUDCBkFBMCigAIAAAAAAAAAAMLefmrU/UZrC3n5q1P1Elm/wDMvJ7JddX9z9zY2udkuur+5+5saV6Oeh7cADTsAAAAAAAAAA1ztb10v3/2vS2j5r0/1Hm9reul+/8AteltHzXp/qMT1cNP3rMzBgB63C9H91LGZN7+FLFbr0YlVQaRQyAoigAAAAjrvUxXarirpwy7HVqc+AuRHWaZSeix1a3NURMx4jOXXXnOe9ONxemPR3RGei8EylFcfa7aaqZ72W4dNWl4o5pGlpjoy44ScYBiTbxDgyK5jvYtyrHQgmSanKxHHfojumqIdMZr+hkaeuLd2iqY5UzmW4Yn1hs8RiIiHLLhRVxUxPjjLk7Q8y5EAckARRFAyqAKgAtHy6fpZbEo+XT9LKwxdqok4wuCYzDDRzCFBMERgnoQCurU2KNVprunuc6LtE0VfRMOwyD59b0faDs9qLtOjtXLluuflW7fHTV4px3MnYti3HW7xTuW6UV0RTX4SfCRiquqOnLujo3eJmVw1lMPA7V7HXu2nt3dNj3RZzERM4448TV50faWvTRoJtaqbEcuCfk48WfF9r6Okc0yYeL2Y2SraNHX4aYnUXpia8dKYjpH6vB3zZNx2/eKty22iu5TVXN2JojimiqesTHfHVvSGTD55rbu/wDaGbenuaOuKaas4i1NFOemZmWzU9no+DHvVNyPCTHFx93HnP4dz3YnJJkw+eaSO0ew+E0+n0t3grnPxbXhKc9MxMPR7KbDrKNy98dfRVbmnM001/KqqnrMx3dZblkjmuTDWO206y/p7Oi0elv3aap47lVu3NUcukZiPt+yHpdmdunbdmtW66eG7X/eXImOcTPd9kYh62CZwmfQeP2l2mreNu8FamIvW6uOjPSZ8TVbdXabS6Kdro0t/wAHMTTExaziJ6xFXTD6HAsSPA7LbHXte33fdURF/UfLiJ+THdH085cI7GbTP+W//wB5/wCTYc88L0TI+c9oezt3SbhFvbdHqrtjwcTNVNE188z3xH0N12zQafZduqosUXJpnN2qmfjVTOI5RH2dHopjKzJhomybZrtx7TTrtw0t61RFU3p8JbmmJn/LEZ8XL8G+BnAjQ957Objod0q1u1U11UVVTXT4OfjW5nrGPEx7ex77vesoq3CLtFMcpuXuXDHoh9EiOeVMjGq0Vmrbp0PDixNrwWPFGMNEt6LtB2d1N2nR2rly3XPyrdvjpq8U47n0OZwGRo2xbFuOt3inct0oroimuLk+EjFVdUdOXdD3O19zVe9M6fR6e9duX54avB0TVw09/Tx9Pxe90SJyZGv9i9qr2/bKruot1W79+rM01RiaaY5REx+M/avbC3uN/Q2rG3UXa4uVTF2LfWYx0n0NgJnBkfNNv2/f9tvTd0uhuU3JjHFVapqmPoz0bT2b1G+3dZdp3eium1FvNHFbpp+NmPF6MtiVcjRt+7Pbjpt2q3Laqaq4qr8Jij5VFXfy74Yd7Qdou0GptU6yzcppo5RVco8HTTHfOO99EiZmfQpkYFejjSbDc0diKq+DT1UU4jnVPDP85ap2I0Gt0u8Xa9RpL9mibExFVy3NMZ4qeXNvM57lgGl9qOzWsr3Cdx2yma5rmKqqaZxVTVHfDzK9s7R7zdt29ZRfmmmeVV74tNPpfR5lIp55kyjE23brWg223oqfjUU0cMzP+aZ6z9uZaVVtW99ndxuXtutV37VWYiqijj4qfFMdcvoQDR9l2bc9z3unc92t1W6aKorxXHDNUx0iI7ojk3gFAVEFQAOooACZUVAwgGBQRQVAAAAAEFUQygqHMADBgDIAHMUBMMLePmnU/UZzC3n5q1P1CWL/AMy8nsl11f3P3Nja52S66v7n7mxpXo56HtwANOwAAAAAAAAADXO1vXS/f/a9LaPmvT/Ueb2t66X7/wC16W0fNen+oxPVw0/eszMGBR6nXe/hSxmTf/g1MZuvRmQBpBcoAqoZBQAAQB138xaqnxQ595XTxUzT44ZtLVWr14qmZ8bqrpZN234O9XRPWmrDhVTmHF6o9YYvFNMehyi9y6rNOJl11W4kZw7qb+OcyTqc97omzmfQvgIjqei+q13/ABuMTNfXoeDxPoc4jEYgMOUREdFgiHZbpiq5RTPfVEENT0bHZ/hU/Q5rTTw0xHoTDtEvLKiDTKmUyA5dVcVEUAAAFo+XT9LLYlHy6fpZXNi7VVcZjmqc8sNKZMAJOcLCZ5uQJgnkGeYCpkyBMiRzXAGUme7CkYnmBgwqKJ3uREHRAOUmY6EAqTJg5SoRGZyoTOBD0ERgxzyoIcpM88EcgVJnBJHxoAiM81EmZ7lQzzwsQqTOAJnBHPmRz6qAmZynOZcgCSUiJUWOUczJ06kRnmBFPPKh1EMgoIB1AyYFBFEUVMhhAMKgKJmEyDkOOZQyYcjMOIZMOWYMuImVwvEcXoQBcyZQBcwuYcQyOWYHEXKYcxwyvFJkw5DjxLmAURVQYW8/NWp+ozWFvPzVqfqJLN/5l5PZLrq/ufubG1zsl11f3P3NjSvRz0PbgAadgAAAAAAAAAGudreul+/+16W0R/0Xp/qPN7W9dL9/9r0to+a9P9Rierhp+9ZmYMAPW678f3VTGyyr/wDCqYjdejEqA0igAAARJlYhyiEyuHGDDsxyhxnkmWohxphyiEjrJnCK8bd9PNnUe6I50V8qvRLEiMw2Sqim9bqorpzTMYnLXLturR6mqxXnh/yzPfDnaHals+jprpxLrmjMcmTXTmMw66cdGHR0xE0ONdzPKIZFVGY8bh4HmqMfGXZRRMufg8TGXfRTiDKuEUcndt1nw+voiPk2/jz/AEdN65wU/wDanpHje5tWk9y6WKq/4lfOr2LWGLziGUY54I6r/my6uDjVThxd3eTTCxKYdKuc24no4TTMdYXLIGRRcmUBFyIA5UfLp+mGWw6P4lP0wzMsWaqEJMqw0qSc0nxARK5MAJM4S5VTbomuqcUxGZlynmwd3qmnSYjpNURLN7bazLdI3WiGFd3HUXq+GxE0x3REZmXGNbrLFUeF4seKunqy9nppjT3LmImrOPsw6Lm50XeVzTU1R4pqz/R4/XbFrW9Zev03TWtfSHp6S/TqLMXKeXdMeKVu6mzZnFy5TTPizzedZ1tMaW/VatU25piOnfM8mFYps3K6qtTdqj6IzMuk6+IiI6uUaOZmZ6Pft3rV6P7uuKvokuaizZq4blymmcZxLwIrp0+piuxcmqmOk4xn0O/dp4tTRPjoj9ZTzE7ZnHrBwRuiM+kvWr1Vi3jiu0xnn1dlFdFymKqKoqp8cS8mnbOPSxcm5PhJp4sdybPcmnUVW8/Fqpzj0tRrW3RFo6k6VdszWej1r1+3apzcqppj0y4W9XYvTw0XaZnxZeJXdp1Wqmu9cmmiZ64ziPEmoosUTTOnu1VePMYmGZ8RPWOixoR6RPV79y5bsxxXKopjpmXH3XY4PCeFp4M4zl5eqvTf2y1XV14sT/N1aXRXNVb4uOKaKZxGfGs69t2KwzGlXbm0vdqu0U0cdVURT45l1WtXp654aLtMz4svJ3KuqrURZzmLcRGPHOHdO0zTY46bs+FiM47l5rzaYrHQ4aRWJtPV6VvVWblfDRcpqnGcRLy9TuF33ZMWrseCzGOUOvaY4tXMeOiXTqbFNnWTZiZmImIzPpcr617UiY+3WmlSt5ifpsNq9bvUzNuuKojlOHXc1mntVcNdymJ8WWFqKI2/RVU2q6pm5VjM93/OGBpremqpmdRdqonuimP/ACdba1q4r8uNdKsxNvhsFu5Rdp4rdcVR44lbl23Zp4rlcUx6Za/pL3ufWx4KvipmrhmemYctZXXqtdNET0q4KY8SeY/5zj1Xg/6xn0epqNVau6S94K7EzFM9J5sXZa66rl3iqmrlHWXXqNrmxp5u03JmaY5xPfDlsf8AEvfRDO686td3o3tpGlbbOXsTydV3VWbM4uXKaZ8Weaau9NjSXLkfKiOX0vG0GjnXV11XK5iI6z3zLvqas1tFax6y4aenFqza0+kPctai1eifBXKaseKS5qLVnHha4oiemXg6mzXt+rp8HXPjplkbvX4W1pq4jHFTM/o588xWcx6w3wRujE+kvUq1enoopqm7TEVdOfVzt3aL1PFarpqj0S8fSbbGo00Xa66omrpEdzr2yqqzuEW88pmaaoI175jdHpJOjXE7Z9YbATKZIjnl63mIjvlZnBPJI5qL1jKmAQwqGQAAMKICoH0gGDKZBUyAGZBMoqoAAqAAAAAAAAAAAAAAAIoihxCKjlFWWHvPzTqfqMph7v8ANWp+oZY1I/5l5nZLrq/ufubG1zsl11f3P3NjK9HLQ9uABp2AAAAAAAAAAa52t66X7/7XpbR816b6jze1vXS/f/a9PaPmrTfUYnq4afvWZeDAD1Ou/wDwqvsYrKv/AMGpiZbr0ZlRFaRchEZc6aUyuEimaujnFGDo5RzSZaiHGY5rELVCQimeWHCevNySUEiMSleXKSVRypywd10camzmn+JT8mWXcvU2bU11ziI/m8qu9c1OojM4p7qY6MWlusT1eXFdVEzbuRiqOXMnx972tdoLeqo4qcUXe6qO/wCl4NdVVq9Vauxw10zjDExh2rbLtpqmOq1VT3OMTno48eWW3OmMzzcq7sW6ebp48JYsXddqIt0RPDnnOOixGUmcM3aNJXq9RGouRi1RPLPfLYKujjprduzaii3jhp5cnKrm6xGHnmcpSLHROrTK085c5giMQvcDjEZXBEqDrm24TTMO9xmDKYdA7poiYddVExLWWcOITGEVHO3/ABKfphmYYVv+JT9MM1i7VU5TKkRhWGkOUzkkiMAqCTzUWIdOrsRqLFVHSZ6T6XcMzETGJWJmJzDwbGovbfdqoqo5T1ply1Gvr1FHgrdvh4uvfMvZrtUXPl001R6YyW9Patzmi3RTPjiHm4LxG2Lej0c1ZndNfV5+n0FUaG7RVyuXIzjxY6MDT10WK6qL9mK/RMc4bE6q9PauTm5bpqn0wtvD9NvwzXX67vl5Nm5N+/FFrTWYpme+jOIN3jGqpiPIj9ZezRbotxi3RTTHiiMJcsWrs5rt0VT45jJOhM0xn1I1Yi+Yhwsx/wCqUT/2I/R5O0f4z7svdiIinERGMYw66LFm3VxUWqKZ8cUxDdtLdNZ+krq4i0fbwbludHq8XLcVURPKJ6TDnVqaK64ps6W3z7qqczL3a7VFyMXKYqjxTGUt2LVqc27dNM+OIc/LzE+k+jfNEx6x6vN3Gibe32oqpppq4omYpjEROJd2zxnRz9aWbcoouxw3KKao64mMrbt0WqeG3TFMeKIw6xpYvucp1M02vG3azVb1HhoieGrHPxStW63K7Hg6bX95VGMxP9Hs1xTVTMVRExPdLqo0tq3VxUW6KZ9EMTo2i0zWerca1ZrEWjo8faP8Z92U3Omq3rpuTHKrEx6Xt27Fm3Vmi1RTV44piHKuii5HDXTFUeKYynBOzbleb/vdh5t2udy0Vc0W+Gq3VmIznLB01+1Ziqm9YprnPKZjnHobBat27UTFuimmJ7qYw4XdPZuTxV2qKp8c0rbRtOLZ9UrrVjNcejydFXVqL8RTprMUROZmKOjq1tqvS62bkRymrjpnue/bt00U4ppimPFEYLlFFdPDXTFUeKYyT4fNcTPqka0RbMR6PF1G516mzNqi3wzMfGnOeTs2P+Ld+iHp0aW1TExTaoimeUxEdXO1ZtWpmbduijPXhjBXRvvi1pJ1q7JrWHXq7Ph9Lctx1mOX0vE0mqr0FyumuiZz1pnlMNgnMzycbli1d53LdNX0w3qaU2mLVnEwmnqxWJraMxLwLty7uOrjgoxyxEeKPSyd4oi3a09uOlMTH6PWt2bduJpt0U0x/wBmMFdi3diPCW6a8dOKMseXnbMTPrLXPG6JiPSHTtv+At/R/V5On+do/wBSf6vepppt0xTRTFMR0iIcI01mmvji1RFec5imMt20ZtFYz0YrqxWbT9u3HPJMnXoUx43ocUjM9XIBFQMACgCGUBcp9ICmQAAyiCooCCgAIAAAAAAAAAAAIZBRDmiqJzMAqGADJkAObD3f5r1P1GYw93+a9T9QY1P5l5nZLrq/ufubG1zsl11f3P3NjWvRx0PbgAadgAAAAAAAAAGudreul+/+16W0R/0Xp/qPN7W9dL9/9r09o+a9N9Rierhp+9Zl4MKD1Oq//BqYbM1H8Gr7P1Y1FGYzLdeiSkRmeTnFEQ50xGDlBMmCKV5QROUwjTkJlYlBJI6FXcKDjPJ2dzjMIOJ3EciVHn7hFV2qIifk9zq0Wnrt3ImecT0ZfBm5VPpd9NtjHq3n0wTMRR05vK3jQ0XLcajlFyiOfph7GIqxOO8uaei5RNNUfFmMTDWMsxOJafaq4evRzrq4ujN3TQxpa4miJ4KujptW4mmJcph6YmJh0W7Nd2umimPjVdHt3KY0eki1anhiIjMx3yxtHZmdTRc5xTTmeX0M3UWvDUcKx0c7z6vL0mrrsaqmec0VTiqGwZ4p5PKo0tMdz1LcfFj6GqsWmJcpKYxJLlENMuSz0cYXPJUcY6rAsArjJMpHVBcJLkgOCVU8uTnPNMclTDroiYuU58cMyebHjnVT9LviEsQpkwSyqdZXmRGFBMJELPUBUlUiPGBEYURQxmVIjACLEYhIjnl0bjq40O339VMcXgqJqiM4zPdAMgxl4fZ3fbu9+HmrTRZptY5xVnMzn0eh7kRgRUmSZiDGZyKRiFyYTqIYzKsDe9yjaNsr1Xg4uVUzEU0TOMzMuns/u9zeNFXqK9PFmIr4KYirOcRHP+YPUmYzg6dFwoJnCx05pHpOYLMpjM+hMZcsgrjOZ6E816QqKmc8kzmcOUREAkU4WZwTOOiRAC/qZjoRGFQiMdVMgBgMgqJk5yGFzCZmTABgAUDKAqKIACgAACIAAAAAAAAGQAQURUUAAABAAAAABh7v816n6jMYe7/Nep+oMan8y8zsl11f3P3Nja52S66v7n7mxrXo46HtwANOwAAAAAAAAADW+1vXS/f/AGvU2j5r031Hl9reul+/+16e0T/0Xp/qMfLhp+9ZmiZMj1ON2M25h0RHN33Z/u5dNPVqBYjkYcqY5YcagcYnE4c3CrxuVM5hFMCgONXWFJ6woEhjkKJMZJjkoDhFERzwsxmHIQcM8M5np3u2mcw4FM8M46wsDE3e14TSVTHWjm8vR2pv4pj7Z8T2tRzpmmedM8sOjSab3Pa4e+ess2j1arbEYc+Gm3RFNEYiFoomebsi3lzinBEJLqm3HDOI5lmeUx3w7scnGaPjZieai0+NckRgEIUiCQSOqpHVQcZ6rEHeoCSqSCFXSCeWCVEp+VH0sh0R8qPpd6SB35J5wMipPQI5qEKJIGJmfQ437tFizXeu1RTRbpmqqZ7ohziMQ8Ttjcqt9ndRwzjjmmmfozBA1/VdtNfe1FVOgsUUW4+TFVM1VTHjl6HZ3tXVrtXTo9dboouV8qK6OUTPimDsBYojbtRfxHHVd4JnvxERP9XidqaadD2pm9ZjhnNF3EeP/mGvToy3HtBvVGy6Om5weEu3J4bdGcRPjmfQ1We1m+RbjU1WKPATOOLwM8H0Zz/Vumu23R7hwTq7FN2aM8PFnlnq1LtJvtuzp9Rsmn0cW6KMUcfFyiIxPKEhWzbDu9G86Dw9NHg7lM8NdGc4n0eh5/bnU+B2PwMTzv3Ip+yOf9Icux23zodqm5Vcorq1FXH8SriiI6RGY73idvtRNev02mic+DtzVP01T/5fzPk+Hr9jrdvQ9nKtXenhprqqu1VT3Uxy/o8q/wBsNz1eorp23Sx4OnnEeDmurHjnDarO2W52O3t13iijwNNFfDOJ6c3Totu27s9ptRetzVRbmIquVV1Z6dP1B5nZrtRXuWqjR623RTeqiZoro5RVjumPGyO0vaX3nrp0+nt03NRVTxTNXyaY7vpa32YtV7h2q91W6Jpt0113qv8AsxOcR/Nl9vNHFGuta2m7RmumKZtzPxuXfjxLiMo4Vdq9800UXtVpKYs19OO1VTFX0S3DaNytbpt9vVWYmmKuVVM9aZjrDSd97UUbrtlGlo0s26pqiquZqzEY8Tauyuip0GyWqabtF2bszcmqicxme6PwSR5H9oOpxY0mliflVTcn7IxH6y9TaK7Oydk7F/UZimm34SrxzNU5iPp5xDWO1VU7j2qo0tMz8Xgsx9M8/wBzd9w23T7hoY0l/iizExOKJx06L8DTrnbDeNRVcu6TTUU2aOc4tzXwx6Z//D3ezHaOd5muxqKKbepop4vi9Ko8fod9dnQ9mtlvzRmLXOYpqnM11TGIhrfYHS3K9zvarExat25pz45mY5fyk6j0N+7WX9Nr6tDttqmu5RVw1V1RNWavFEQw9N2w3DTaum1uuniKMxxRwTRXTHjw2LW6LbdttXt1p0VFV61m5MxPOZ7/ANWm67V19qt6sU002tLHDFEcdfdnx8szz6ED6TTVFVMVUzmJjMSTGXGzRFuzRap+TRTFMfY5/QgYxHJMzM4O9yASZzHInn0kiMQBHKDijODPPC4AjEGTCqiZOYAACmABAMgplFEABQAAEEFQAAAAAAAAAAAAAAEUAARUAAAAAAAYe7/Neo+ozGHu/wA16n6gxqfzLzOyXXV/c/c2NrnZLrq/ufubGtejjoe3AA07AAAAAAAAAANb7W9dL9/9r1No+a9N9R5fa3rpfv8A7XqbR816b6jHy4afvWZgA9Thd5W5dVLsvfw5+x1UzzwsDnE83GY5uST1VUnm4xycu5JjMZQconMGEpnuclHGesKk9VkFDuARYRYARQET0q41dJQcJjNee5ypp4p9CRzj6XZTmnlglYMAAJ3qCGDCoopPRF7gcY6qioIqZUBO9UBxq6rKZzU5dwJHyo+l3semc1x9LInOSQjPeqE8kCeuFIJBCInvOefQqCvK7TaSvW7FqbVuJmuIiumI78TnD1MpGYUaD2S7QaXarF/T6zjpoqq46aqYzzxiY/lDF1N6e0XamibFFXg666aYiesUR1mf5y27W9lNq1l6q7VartV1TmrwVWImfoZe17JodqzOltYrqjE11TmqY+lcphg9pN81OyeAm3p6Ltu7mJqqmYxMdzy903TZNx2G5erosxrq6PkxR8emv6fE2zW6PT6/TVWNVai5bq7p7vTHieB8CNrm5xRd1PDn5HHGP0yRgYv9n03atPrIqmfAxVTw+LixOf6PLv8A/S3bnhzmj3RFP3aOv/DLd4tabZ9que57cW7Ni3VXiO/EZ+2Wm9hbNV/eL+qr+NNu3POfKqn2ZX9RvGr1VrR6a5qL9XDat05qnGXzveN8u75q6LM3I0ujirlFWcR/2qsdZfRNZpLet0lzTXonwdyMVYnEvFnsZtEf5b3/AHiQsuGwa3YtBat6LRauLl67VETVNFUTcq/BrvauZp7V1Tq4mbETbxHjoxGcfbltWl7J7ZpNTa1Fqm74S3VFVOa8xmGbuuz6LdrcU6u3M1U/JrpnFVP2mUa72n1ex3dj4NJVpqr2afAxaiM08+fTpyz1ZPYKq5Ts9+bkzFqLs8Mz06Rks9h9vpuRVcvai5TH+XMRn8IenvVVrauzepixTFqii1NFFNPdM8o/UGodnM7n2vq1VWZiKq785/l/OYbzuevsbXo69VqZq4KeURTGZme6Gsf2faXNOs1U98026f1n+jaNz27T7npfc+p4pt8UVfFnE5gnqPnet3SvtBuVE67U06XTU/JjEzFEfRHWW6bHuGy0UWtu22/FU4mYjhqiap6zMzMdXRHYzaJn5N7H+oy9u7M7dturp1Wmi7FymJiOKvMc4wvpI8ie1ng91r0G5aW1b09Nyq3XVOZ5d048XR4nay9td3XWatqi3GKf7ybVOKZnPL7W57r2f2/d6/CX7dVF3GPCW5xVP090sbQdj9s0V6m9MXb9VM5pi7VExE/RER/MjA9bbJuztulm/nws2aJrz14sRlkzE9xMZEFTqROTlAERgnMzyJiZn0OQJhRFRUOoAAKAAIoAAAAAIIGQUEAAAAAAAAAAAAAAAFAEBAADJkATmcwUQwBkyAGWHu/zXqPqMxibv816j6gzqfzLzOyXXV/c/c2NrnZLrq/ufubGtejhoe3AA07AAAAAAAAAANb7W9dL9/8Aa9TaPmvTfUeX2t66X7/7XqbR816b6jHy4afvWZgA9Thd/hyx64xOWRc+RLpqjKwLROYysuumrhn0S7Mqrj34I6YSeqRPNBYnEux1z1c4lRJ6qneoKJCgAAAAjjX8mXJxr+TKDjTE8MO2npz6uNMcochSespMLPKUEAUAhO9VAAEBJQFSOigkuNc8NLl3uu9PKIBaI5LHRKJxRJE8pCSj5cfSyu5jWvlRPpZOUkEjmmZzjDlhASZ8SkRjqCRlQxmcgRHjUSeahic+hTomeeAM5OnQinCzygHXet0XrdVu7RTXRVGKqaozEw4aXRaXRxV7l09qzxY4uCmKc/g74JnAhM4II9IBlIiZnPcY55cpnAHR1X9PZ1drweotUXbcznhrjMOzrHNQdWn01jSW5t6azbs0TOeGimIjP2OyMzJieL0OSoOMTMz6DnM+hZnAHKDqdVxiAQickZzmSZAmYhOHM83LGeqgCZMKgAAAKBgAAABMgplBAFARQAQAAAAAAAAyZAHHigmqEXDkJ9oAZADIoCczmAGDAAAAAAAAIADE3f5r1H1GWw93+a9T9QZ1P5l5vZLrq/ufubG1zsl11f3P3NjWvRw0PbgAadgAAAAAAAAAGt9reul+/wDteptHzXpvqPL7W9dL9/8Aa9TaPmvTfUY+XDT96zMAHqcLv8OXVLsvzi1VLq6wsDhMc3KJ5JKRIqz0mO9xiecwTVziXGeVcCu7OYiXKHCieUw5qgABCpC5AAABAHC58mXNwufJlBzp6QpTHKFFcZ+Uiz1+xAUTvURQQABRJTqpAL3AIJhj3as148TImWFeuRTNU+JJWHbbqzNUeLk7M8sd7H0ufARVPWrmyKYiIyQS524xVT9LvmcQxaa5quU46RLLjmShAJzz6AWInPNRJnPQDGV6JEYMATOehjEc+REYYm6zVGir4e+Yz9DNp21mVrG6Ygr3LS0VY45q+iMu/T37OojNquKsdY74eJoaNNc4qdRViqfk5nEMzSbdXp79N2m9TNPiiOsPNp6t7YnHo76mlSuYz6sy/rLFivguV8NUxnGJd9E8VMVdYnnDXdbcuV6mqbsYmOUcscsvR2/VXpt1zqI4bdumJieHDVNfdeayl9DbSJh6UzhIzPV4te6ai5cxZpiI7oxmZWvddREUxw001x8rML5iicF3r3btFm3NdyrFMdZcdPftajM26+KI68sPL1+ovXNHazHxblOa5iO907ffv2q+G1TmmqqOL4uWZ8Ri8R8LGhmk2+WwOOcvK1Gvv0a6bdPDwcURzh6GquTa01yujHFTGYy7Rq1tnHw5zpTXH67+iYy87bNXd1M3PCzGKYieUYdFe5ai7dmnTUxiOnLMs89NsT9rw23TH09nKYmZeXotwruX4s6inFUziJxjn6XqzOIdKXi8Zhi9JpOJJnEEc45kRPeue5tgcYjnmViOZPoAlYjxkdOZlRUMAgBkAMApgAADICZUQRQAAUARAAAA5gGUnkdY5AuUymJ71iEVMzkmMqAmOWCIwoCYXAAYSIwoCcPPOSZnuUFTOI5kTEhgRcjjEYkzOeYOQmYUAAAABAAAAYe7/Neo+ozGHu/zXqPqIzqfzLzeyXXV/c/c2NrnZLrq/ufubG1Xo4aHtwANOwAAAAAAAAADXO1vXS/f/a9PaJ/6L0/1Hmdreul+/wDtentHzXpvqMT1cNP3rMvJlQep13udqqHRTPLm77/8Kpj0SsCy45xLn3uuvlORXC5OHKrnTEunUzVERVT0dtmqLlmJhMq5xOMS7YnLpxywUTicS0jvEicqCKAESqAGQAHCv5MuTjV8mQdkdFhxp+TCoqVdfsCeqRIkipIC5EUAAHHvcnHvcgDKTLjMglyrEPMv18ddNEda6sfYzL9fDRVVPdEy8vQTN/UzdnpHOGbN1+3q04ooiPFHRyiKq+vKPE4xGZ5O6mmI6y1DMuVERTVER42Rl0UzEV0xHjd89OSSiTmVwRGFmcAnLJEYIjvWeQhlIjnkxmcrM4AmcQ6r9y1btTVfxFE8pzGXZEzLjetUXrVVuv5NSTnHosYz6vKnRaTURVVpbsxMdYxy/m6NBeuafV02uLNM1cMx3O6radRTVPgrlOJ78zEsjQ7Z4C5F27VFVcdIjpDxRp3m0TFcPXN6RWYmcsTef8ZH1I/WWbq+e1TNPkU/0ctw0HuuaaqaoprpjHPpLr0Whr08XYvTTVTXGMRMt7LRe0Y9JZ31mlfX1h0bLNuKrsTjjxGPocN4midRRw44op+NhyubRdivNmumae7inEwV7Pd4aeG5RNX+bMy5bb7Nm10i1OTfud16P+go+rT+sOOyTii79MMyjS50MWLk/wCXEzDz6NrvW7tNUXKJpiqJ74l1mlq3raI+HOLVmtq5+XTr54dzrmekVUz/ACh6m4V0+4bmaoxNPL0uvXbf7qmLluqKa8YnPSWNTtN7gnwlynlHxYiZxlnbes2iI6rupaKzM9E2WaYm/NUxFOIzn7XCdJVTdmrR3qK8c4imqM4Zm36C5p5ueFmiqK4iMRLoubVdouzVprmI7szMTCcdtkZg5KzeZiU0mtqjUxa1Fuma5nHFwxExL2aY8by9HtddF6L1+uKqonMRHPM+mXqcXPEPRoRaK/8ATjqzWZ/5OLuMd56ZOVUO7idY5L0I9AoKIIGQFAAAAAwAAAAACCCpkAAAASJnvA4ozgnMz1MCKYAABJnAKJMz3HOYBRIjBw8+oEzEGYxlcQYBImJMwYMcxQSYz3nOI5AokTPeRVEoKAqJMZJmY6RlRFInKuM84SJ4YBzRIqz0XmoAAZAQRibt816j6jMYe7/Nep+oMan8y83sl11f3P3Nja52S66v7n7mxtV6OGh7cADTsAAAAAAAAAA1vtb10v3/ANr1No+a9N9R5fa3rpfv/teptHzXpvqMfLhp+9ZmAD1OvUfwamLE82VqP4NX2MHOJWB3TPJwqnJM5hx7hXVNXKaKunc5aSqMV0RHyZcLvVx09XDdnxyis2XXM83KZcVR20VcnKKnRTOJdmVHZky6+I4gdmTLryuQc8plwyZBzylU/Flxy41VfFkHdE4iFiebq4ukd6zFVPPlhFy5TPMzzdfFz5nFzEduUy4RUTUDnxHE4ZMg55MuGTIYcs81y65lx4hcOyanXVW41VOFVcREzM8o5mTDH3K9FnR3JmecxiIde10cOniaoxMvIrv16/V03KuVqmfi0/1e7p+Vmn6GM5lvGIZFM83bE+N0US7ctsOdM5uU/TDLiPGw7X8Sn6YZuUQmcJiJ5p8pywBnCfKMRKiGEjr6DnlQCYz9B8qDpACTGfoPlfQuAEjmsZmVnEQB0TGZ9BMZAJnEERmOa0x4yZxAEziD6UgicyqL1IiIIiKSYmQSZnOIXodIWmmao6AnKqOaufB6SaZjpzXCZcUJkAMCioBkAMAGAAAMgCCBkFBFQABJnlyBUzmDu5gqREQoCATySZ5ckVTOeiRHLmsRgE556nDGcqCgGRATMGYBRxyZyiqJxZ7zPpBRFwogKDjjmTMwomAyExlOcR4wXAROQDHiIme8AUcYjErxQCgAMPd/mvUfUZjD3f5r1H1BjU/mXm9kuur+5+5sbXOyXXV/c/c2NqvRw0PbgAadgAAAAAAAAAGt9reul+/+16m0fNWm+o8vtb10v3/2vU2j5r031GPlw0/esy8GFB6nXej+6qYNT0asTExPe86/brs1c8zT3VLARPJxmuI73CK3XVOZ6rKudyqJiXRNc01RVDlVnDorrmmWZVnUXoqjrzc+P0vIuXq6aZqonGO5k2dR4W1TcjlFUdPEsSTDPirLlEsW3c54d0VKjtyZdfEk1A7OI4nVxLxA7OI4nXxJxA7Zqcap5S4TUk1cgd1M5xLlFXLE+N1UVfFhy4kFmqMplwmrmZgHPK1VxTTNU5xHidc1LxCkamxNvj8LTFPfMzjDhTrtNVVFNN6mZnphwnT6eq54SbVE1T3zDs+LHSIjHoPRHbM+Iy6+I4kVzmXGZ5OE1+lxmsVzqqYO6XptbfericTFLImt5u+VT713e7p+sAxtBFMU0Y8UPconFuGu7Jc47OJ60y96KviwzWGrSyKJw5cbpip2U85bc3dZqmbtER42fylj6azwTx1Rie6GTEYRDomYnkueeCIwBjBOcpM90KAmYnkd6xEQBhJmnHOYj6V5TyeJ2v0HuzYbs0xmux/e0/Z1/lkHtxjHKcmcc55Q1HsBrZr02o0VU/w6vCUx6J6/zj+bl2/1vg9Hp9FTPO7Vx1fRHT+c/wAlx6o2zipxymJ+g+U8DslpLe3dnqb9+Yo8Lm9XVM8op7v5R/Nj3u3OgovTRb09+5bicccYjP0RJgbRhjarX6XQ8M6zUW7PHnh45xnDwtR2126zXRNFu7eiuiKs04jHomJ7+TB/tBriuzt1Ud/HP/CYGz6zdtLpNsq3Ca/CWIjlNHPizOIw6dk3vTb1buVWKa6KrUxxU1xzjPSf5PN09Wlt9hbVets1XrEW44qKZxM/GxGPtc+yFzbrmn1HvbprlmIqiK5uTmauXJRsXe6NVrNNobcV6q9RZpqnETXOMy8bdO1+g2/U1aeiivUXKJxXwYiKZ8WfG8HtPv2j3naLPgOKi7ReiardfWI4Z5+mDA3nT6izrLUXtPdpuW56VUzmJdzwexf+zdj61f8AxS92InvQcqIz16Q1vdu0Fc3KrGiqiminlNyOs/Q9XfdROn2i7wTiqv4kT9PX+WWmxYuzZqvRbqm1TOJqxyiSZx6PH4jUmJ21WvU366uKu9cqnxzVMs3Q7zrdJXH95Vdt99Fc5/Ce559uiq5XTRRTNVVU4iI73v27Wn2LSeFvxTd1lynEU9YiPYzGXm090znOHvaPVWtfp6b1meU9YnrE+KXa1jsvqaqdwuWeUUXaZnhjpEx/zLZ55TLcTl9DSvvrkMnUHUAABAUyioIKAAKCAgEzhJnHQ7uYE/GARQEyCpM8+ScM55uWASefVQBF5iZgDmdO9Jme4xnqir3JGZXACcPMwoBgwAJiCYUBJjkRGIUBxjPeZjOHIBAmEziAUInIoJGVEDImOZnnjAKY7wBIq54lyRIzkHJh7v8ANeo+ozGHu/zXqPqDGp/MvN7JddX9z9zY2udkuur+5+5sbVejhoe3AA07AAAAAAAAAANc7W9dL9/9r09o+a9N9R5na3rpfv8A7Xp7R816f6jE9XDT96zME5nOR6yCefU5gjrnTWJnM2Lcz9SE9y6fzFr1IduTIOr3Jpv+r2vUhJ0el/6tZ9SHdkyDH9w6Seulsf8AdwsaLSxGI01mP/44d2TIrqjS6eOmntepC+5rHmLfqQ7MmQdfuax5m36kHuax5m36sOzJkyOv3NY8zb9SE9zWPM2/Uh25TMSZHXGmseZt+rC+5rHmbfqQ7EmTI6/c1iZ/g2/Vhfc1jzFv1Ic4jC8wdXuaxjlZt+rCxprGP4Nv1Yc8SoOv3PY8zb9WCNNp/M2/Vh2Yie9cA6p0+n8zb9SE9zWOvgbfqw7ZjK4B1e57HmLfqQkaexM/wLfqQ7s81wDp9y2PM2/UhPc1jOPA2/Uh3TJEA6/cun8xb9SHGdLp+kWLXqQ7p5QQDq9yab/q9r1Icbmi0tdPDXpbNUT3TbiWRM4hI59RGPRt2hoj4mi09P0WqY/o5zo9NjHuez6kO4gHTGk08f8AuLXqQ5027Vuc0W6KZ9FMQ5TOII59wLCTVicE8lxHUD7EnOHKUiMARGIM88Ez3LAGMJnM4M88ALyhxrpi5TNNUZpqjEx41xly6QD5vtMzsXbD3PXOKPCTZmZ76avkz/wyu8VVb52v9zUTmjwkWYmO6I+VP/FL0e2u06m9rrGs0enu3aqqeGvwVE1TEx0nl/zyOxW06m1uF/W66xetVUU8NHhaJpmZnrPP0fq1+o9HtvcnTdnqbNr4tFdym3MR3UxEz/SGD2L2bQ6rbq9VqrNF+5VcmiIrjMUxGO7x82x73tlO7bbd001cNU86Kp7qo6NG0VHaLY79yxptPf8AjzziLXHRM+OJ6HwOjtVoLG3bzXa00cNuqmK4pz8nPd/J7HbyMaTbPor/AEpePum0b1XqovarTai/eu0xXVVRbmrHozEYzy6Ng7a6LVarTbdGn0169NEVcUW7c1cPKnrhUctRn/0cx4vBU/8AHDF7H3qtPsG7Xrfy7dM1U/TFMy9C/ptRPYKNNFi7N/wdMeC4J4vlx3dXDsTob9nQa21rNNdtRcqiOG7RNPFGJz1RXg9jtu0+57pc92Uxcpt0cfBM/KnMRzZ/bfadForOn1OktU2aqq+CqijlE8s5wwdRtG77Buc3dBRduUxM8Fy1TxZp8VUG6aPtBuWno1et096vFXDRaptzmImMzPDEcuneqNq7FR//AG5Yn/tV/wDFL33idkLF7Tdn7Nu/artXIqqzTXTNMxznul7XVB53aCzN7aLnDGZtzFWPRHX+Twdo3SNLnTamOPTXOUxMZ4c/0bfiKommqImmYxMS1Pdtku6W5Vd01E3NPPPlzmn/AMvSk/bya9bRbfVnV06DZKKtRamLt27ztRM5xHs9LXtRfu6m9Vdu1TNVXWXXMzOMzPJkaPRajW3IosW5q8dXdH0yzM5ea1pv6RD0Oy1mqvcZu4+LbonM+meXtbXPWZY226C3t2li1RPFVPOqrxyyWojEPfo02VxIBlXYAQTCgAAoCCCpkSZiAJnCTmei4yIoAoAkZ70CJzPRcRHMAAJnABlM5giMCmZlMRnKiAAACZnIKJMZMAZgzBgxAGYgzEGIMAZyqYSIx3g5Djmc9FmcdQAiQCUiJjvyoCZhUwmZyK5ACOPOJckTHPOQchM9ygmJz1Yu7Tna9R9RlsPdo/6M1E/9iRjU/iXndkuur+5+5sbXOyXXV/c/c2NqvRw0PbgAadgAAAAAAAAAGt9reul+/wDteptHzXpvqPL7W9dL9/8Aa9TafmrTfUY+XDT96zLlUhR6gAEFAQVAQUFQUBAUEIg6iAmMys9CIxAKk85FiAEnxLKRHeCxGCQxmcqERgmcQqcpAjnzWZwmYMxIGInmqd3Q55AhcmE7xCJyuRJ+MBjM5legmcyBHNZ5QqRz7gI5qdExzyBEc8yTOIJnl0Iie8CCZnoTy6OQJg6nXlBEYVFiMQkZymZys8oAmcQYzzkj6CZ54AzzwYiDlB8r6ASYzPoWeUL0jkkZ7wIzjmZzODnM47nKIwCREQqCoAALFUx0QBxrs2K6uKuxbqq8c0w5xyjFMRTEd0IBiAyiiooAAmQVAQBUABJz3ATIoAgAJnJHPqsRhFSIwoABM4ScyBM8uRGccyOQKAACTJMZ6oEzy5HWOZHJQSIwoAAgKhmDijxgCTMGYBRMxKgACpMEZiOaiCROVROcSDkJlVHHHNcqmMgo45xPRRDBnnhUBWHu3zXqPqMrMxPoYu7fNeo+oMan8y87sl11f3P3Nja52S66v7n7mxtV6OGh7cADTsAAAAAAAAAA1vtb10v3/wBr1Np+atN9R5fa3rpfv/tets8Z2nTfUY+XCnu2ZOTK4B6jIJgAMGBQMGAAmEwCiYMAEmExlBYjCphJgFiOYuOSSCZ5uWSOhIJPNSIwSCTmVgiMLM4UcZ8S4XHeTyBOXRYjCRHes8oEJIIz3kziAJkIMgdSIwRGEmfF1BZnnhUjJPXAJnnjuVUn40AYz3r0gjokZmfQBGe9Z6cieUEdOaoQZ54Jq54IjAHKEmJmfQsxlekAk8oWOcc0jM9SZx0AmeeID6TqB8qFPQmOeQI5dTnMkxMuQCZBUAOooAAGTAAAAJkFTIqCCgAIAEzhOoE8xUBUDr0An0JET3kRhUUAASZnuJzkFMeMVAATOUFzCYmZMKCKAAmUzMyCpM+IxzyCk84IjkAGDEAAABhMc+qiBMz3GeXMAInIJGcgoZAMJnHVQFHGcrkFcZznk5CiKkxzMgrD3WJ969T9RmMbd4xtOp+ouHPUn/mXl9kuur+5+5sbXOyXXV/c/c2Na9HDR9uABp2AAAAAAAAAAa32t66X7/7Xr7N806b6jyO1vXS/f/a9fZvmnTfUZ+Xnr7tmXMJhzRcPTlwHPEeIxHiTC5cBzxHiMR4jBlwHPEeIxHiMGXWOzEeIxHigwZdY7MR4oMR4oMGXURDtxHigxHigwZdRDtxHigxHiMGXWkdXbiPEYjxGDLrMZnLsxHigxHiMGXBx5zLtxHiMR4jBlwSMTLsxHiMR4oMGXBOsuzEeIxHigwZcEicy7MR4jEeKDBlwykTM9zsxHigxHiMGXBOHM5dmI8RiPEYMuE8iHPEGDBlwmVhyxHiDBlx68iIw5YjxC4MuE5z6HJTEJgy4RmZ8RM49MuZiPEYMuMR3nXo5GFwmUxhIznm5Bgy4zM45EelyDBlxzmcYJmIcsR4jEeKAy4xHPJPPo5BgynSDqoCCgIKAgoCCgIjkYDKCgZQUDKCgZcUqqw54MR4oMLlw6wOeIMR4kwZcBzxHiMR4jBl1xOViIhzxEdIgxHiMGXAc8R4jEeIwZdczgmMy7OGPFBiPEYMusdmI8RiPFBgy6zLsxHiMR4oMGXVGe8duI8UGI8UGDLrHZiPFBiPFBgy6pnCZy7uGPFBwx4oTau50xGFduI8UGI8UG03Okd2I8UGI8UG03Okd3DHig4Y8UG03OnMEzEO3hp8mPwOGnyY/A2ybnVkzEu3hp8mPwOGnyY/A2m505jxq7eGnyY/BeGPFBtNzpHdwx4oOGPFBtNzpHdwx4oOGPFBtNzoxBmYd/DHig4Y8UG03Okd3DHigxHig2m50pMZd/DHig4Y8UG03OnOFdnDT4o/BcR4oNpudRwTMu3EeKBdpuSmnDE3n5q1P1Gawt5+atT9Rfhy1P5l5PZLrq/ufubG1zsl11f3P3NjSvRz0PbgAadgAAAAAAAAAGt9reul+/wDtevs3zTpvqPI7W9dL9/8Aa9fZvmnTfUZ+Xnr7tmaA09ADG1ev02jpzfu00z3U9Zn7EJmI9ZZI1fWdpLteadJR4OPLr5z+HR5dG4ayi9N2NTc8JPWZqzn7E3Q81vE1ifRvg1zRdpulOstffo/rD29Nq7Gro4rF2muPRPOPphYnLtTVrfpLIAVsAAAAAAAAAAAAAAAAAAAAAAAAAAAAAAAAAAAAAAAAAAAAAAAAAAAAAAAAAAAAAAAAAAAAAAAAAAAAAAAAAAAAAAAAAAAAAAAAAAAAAAAAAAAAYW8/NWp+ozWFvPzVqfqJLN/5l5PZLrq/ufubG1zsl11f3P3NjSvRz0PbgAadgAAAAAAAAAGt9reul+/+16+zfNOm+o8jtb10v3/2vX2b5p031Gfl56+7ZmurU36dNp7l6qJmminMxHV2sPd/mrU/6cq72nETLXdb2g1WozTZxYo/7POr8Xk1VVVVTVVMzM9ZmeriOeXyrXtafWQBGBzt3K7VcV266qKo6TTOJcXfqdHqNNTbqv2poi5Gac/89VWInrD09F2j1FrFOqpi9T5Ucqv/ADbTTVFVMVR0mMvnb6FZ/gW/qx+jVZe7w17WzEuwBt6gAAAAAAAAGHRumhua6rRUam3Opp624nmDMAAAAAAAAAABwm7bpq4ZrpirxTPMHMHC7dt2LdVy9cpt0U85qqnER9oOYx9HrtLrqaqtJfovU0TiqaJzESyAAAAAAAAAAcK7tuicV100zPdM4BzGLrtw0m30U16y/RZpqnFPF3si3XTct03LdUVUVRmmqJzEwDkAAAACTMRGZnEQCjhRcouZ4K6asdcTlzAAAAAGJrNz0WhuW7er1Nu1Xc+TFU9WUCgAAAAAAAAAAAAAAAAAAAAAAAAAAAAAAAAAAAAAAAAAAAAAAAAAAAAAMLefmrU/UZrC3n5q1P1Elm/8y8nsl11f3P3Nja52S66v7n7mxpXo56HtwANOwAAAAAAAAADW+1vXS/f/AGvX2b5p031Hkdreul+/+16+zfNOm+oz8vPX3bM1h7v81an/AE5ZjF3Oma9t1MR18HV+iy7X/mWhg9/Sdnovbf4Su5i/XHFRic0xHpc4jL5dKTecQ8BXO9YuWLtVq5RNNdM4mJbHsey+C4dVq6f7zrRRP+X0z6SIytNObzg2PZfBcOq1dP8AedaKJ/y+mfS4dodztTbq0duKblWfj1Tzin6PS7N83rwHFptLV/e9K64/y+iPS1jqszj0h21L1pGyiPoVn+Bb+rH6Pn0RMzER1l9Dop4aKafFGFq14T5cgG3tAAeL2q3Cdv2O9Xbrmm7c/u7cxOJiZ74+zLWOym7621vdqxrtRfuW9RRimLtc1REzzpmM+Pp9rI7ZXqtx3zR7VZn5MxFXoqq9kY/E7baGNFVt+u0uKfBRFrl3cPOn+oreXm7lv23bZXFGq1ERcnnwUxNVX8ujstbhTe2aNwojMTYm7j6Izhp3ZDbbO863Wa3cY8PNExOKp5TVVnMz+ANr27tBtu53PBabUR4XuoriaZn6M9Xk9tt5nR2LWl0upuWdXNcVzwZj4mKo6/Th263sdpb2so1OhvToaqcTi3TmMx0mOfJjdvdNaja7GpqopnUeFptzcxiZjhqnH0ZBm9mt/wBNrdNptHXqK7mt4JmvipnnMeliaPSbJT2tuV2tRenWxXXV4GaZ4YqxMzOcfSzeyu3aOjadHrKNPbjUVW+dyI5y8Pbv/aNe/wBS5/wyDadNvu36rcKtDau1e6KZqiaKqJjnHXqy9Zq7Oh0tep1NfBatxmqcZ9DSu0tE7N2s025URi3dmK5x445VR+H6s3t9rv8A1HTaO1OZv1cc476Y6fjM/wAgbJt25abc9PN/SV1VW4q4eKaZp5/a8/U9q9n09+bVWpmqqmcTNFE1RH2vO3iivY+xNvTWp4blfDbrqjx1Zmr+sOvsn2d0F7abes1dmm/cvZmIq6UxE46fYD2dR2m2nT27VyvVRNF2JmiaKZq6denR5fbXeJ0entabSam5Z1c103J4Mx8TFUdfpw13tdtFnadwojS5ps3qeKKJnPDOcTH0dHvdvtNZ967Gp8HT4fwtNvj7+HhqnH4gzuzW/wCm1um02jr1FdzW8EzXxUzzmPS9Pcd30O10xOsv025q+TTEZqn7Ied2V27R0bTo9ZRp7caiq3zuRHOWnW9w0ep7Q39ZvMXLtnimaaKYz38onn0iAbvoe0+0669Fm1qeG5Vypi5TNOft6PXrqpoomuuqKaaYzMzOIiHzbf8AWbDrNNTVtumr0+opq7qIppqj04ll7xu2ov8AY/bqaq54r9VVNyryoonHP+Ug2OrtdstN7wfuqZ544ot1TT+jXN8vW7/bXQXbNdNy3XVZmmqmcxPxntbH2X22NpsV6nT037163FdVVUzyzGcR4mtavbaNq7Y6bTWpmbXh7VVGZzMRNUcgfS2idvdzovXbWgs3JzZqmb1OJjniOH6eUy3toX9oOms2tXpbtu3TTcuxXNyqOtWOHGQe/wBkveynb6qdsrrrxMeGmqJjNWPT/R26ztTtGjvTZuanjrp5VRbpmrH29GBvkWtl7LVzoLVNivUcFFVVHLrHOfwy6eyfZ3QXtot6vV2Kb929mfj84pjOOUfYDYdu3bQ7pRNWjv03OH5VPSqPpiXXuO96HbL1u1q7s0V3IzTEUTOeeO5pm76ens12m093QzNFquIr4M5xEziafo5O/wDtBiZ3LRxHWbU49YG22t40N/cKtBZvxc1FMTNUUxmIx159HoPG2fs3otprpvW+OvUxTw1XKquuevJ6mqve59LevYz4OiqvH0RkGFuW+bftdUU6vURTXPOKKYmqr8I6OG3do9r3G7FnT6jF2elFcTTM/Rnq1TsnttrfNdq9buWb80TE8NU8qqpzzn6MdHf2z2PSaDTWddoaPAVRciiqmicR0mYmPFPIG37huGm23Te6NXXNFviinMUzPOfoefe7UbRZsWrtWqzF2M00xTM1YzjnHd073jb7q69d2E0upuzm5XVRxT45jMTP8nf2U2Hb72yWtTqdPReu3szM188RmYiI/AHvbbu+h3WmqdHfiuaflUzExVH2S1Lt987aH/T/AHOnTaenaO3lGm0szTamuKYjP+WqnOP5/wAnd2++dtD/AKf7gex2v0+13rOmq3PUXbHDVVFuq3TnPTMYxPih6HuzQbRs2nuzXVTpIoppoqmmZmYmOTwv7RP8Jov9Sr9Icu0v+xGj+rZ/4Qepe7UbRZsWrtWqzF2M00xTM1YzjnHd072Ztu76Hdaap0d+K5p+VTMTFUfZLweymw7fe2S1qdTp6L129mZmvniMzERH4PK02np2jt5RptLM02primIz/lqpzj+f8gb1q9Xp9FYqv6q7Tat09aqpeRR2w2au7FHumqnM44qrdUQ1ztpq4vdobWl1FdcaWxFPFFPXnzmY9OF1m4dlr+grsWdHdtV8OKLlNuIqie7M55g363XRdt0126oroqjMVUzmJh07h83an/Sq/SWr/wBnuruXNLqtLXMzRZmmqjPdnOY/k2jcPm7U/wClV+kg1T+zr+Dr/rUfubDuW+bftdUU6vURTXPOKKYmqr8I6NZ7CXvc+37rexnwcU14+iKpY/ZPbbW+a7V63cs35omJ4ap5VVTnnP0Y6A2vbu0e17jdizp9Ri7PSiuJpmfoz1enXVTRRNddUU00xmZmcRENI7Z7HpNBprOu0NHgKouRRVTROI6TMTHinknaHdr+o7J7dmqYq1WfCzH+bh5T+M8we7V2v2Wm94P3TM4nHFFuqaf0ZFfaHbKNVZ03uniuXuHwfDTMxVxTiOccnnbH2X22NpsV6nT037163FdVVUzyzGcR4mtavbaNq7Y6bTWpmbXh7VVGZzMRNUcgbB2p0uy3dw09e5ai9ZvTRiIt0zMV05+jlzmXubjumi2i1anV3Jt0V/FpxTNXT6Gp9vvnbQ/6f7mX/aJ/hNF/qVfpAPW1PanadLNEV6niqqpirFFMzMRMZjPi+hn7duOk3Kx4bR3qbtETiccpifTHc8fZ+zW1zs2n8PpaLty9aprrrq65mM8p7nidlKatB2u1Wit1TNuPCW5z3xTPKf5A34AQAAAAAAAAAAAAAAAAAAAAAAAAAAAAAAAAAAAAAAAAAAAAAAAAAAYW8/NWp+ozWFvPzVqfqJLN/wCZeT2S66v7n7mxtc7JddX9z9zY0r0c9D24AGnYAAAAAAAAABrfa3rpfv8A7Xr7N806b6jyO1vXS/f/AGvX2b5p031Gfl56+7ZmuNVMVUzTPOJjEuQ09D59qbNWn1NyzV1oqmHpbLvFWirizfmZ09U+p6foZfabQTxU623HKfi3Mfyn+n4Ndc+kvmW3aV/RvtWm02pu2tTVRRXVRGaK+ryd83rwPFptLV/e9K64/wAvoj0vG0266rS6SvT26/i1dJnrR48MLqTZ0v4jMYqdUBl5WbtGnnU7lYoxmIq4qvojm3l4fZvQTY086m5Hx7sfF9FP/m9x0rHo+l4em2uZ+QBp3HC7cos2q7tycUUUzVVPiiHMB832ja6u1G6a3U37tdqjPHMxGZzM8o/CHp6vsLataS9csaq7XdoomqmmaYxVMR0bqCtR7C6unV7VqNuuznwcziP+xV1/nn8XlaW7rexu5X6L2nqvaW7iIqjlFUR0mJ8fOeT6GkxExiYzHpBpFO/b1v240W9ppq0tiOVVXDFUR45mZj+T2O2Ogv63YYosU1Xblm5TcmIjnVERMT+uXvxERGIiIj0KDUOyO/VXJ0+z3NLNFduiqPCcXi59MMPbv/aNe/1Ln/DLewHgdtNB7s2K5cpjNzTz4SPo7/5c/sat2fpu75v+j90fGt6O1Tn6KOn85h9IAeX2g22d12i9pqJiLnKq3M9OKP8AnDUNo7Sars/aq2/W6OquKJnhpmeGqnM9OnOMvobjNNMzEzETMdMwD5d2j1Wu1+ptazW2J09NymYs257qY7/59W59sdDe12wxGnom5XarpucNMZmYiJicfi2ABqHZHfqrk6fZ7mlmiu3RVHhOLxc+mGBqbGq7Lb9d1tGm8Por2foiJnOM90xLfk6g0i72n126ai3Y2XQRTVn401UxV+PdEel6naPZtTuOxWaIqpuayx8f4sRTFc4+NEf89zYqaYpjFMREeiHIGg7X2v1O26SnQanQ1XbtqOCjnNNXoiYw8+7c1t7tZo7+4W/B3rt61XweTTxRiPwh9N4aeLixGfHhQGj/ANov8XQfVr/a3gB5G67b769n/ctMxTcmimqiZ6cURy9jVtr7Ravs7Ynbtfoa6otzM0Zq4ZjM9OnOM976A41U01fKiJ+mAaFotLru1O+W9w1NmbWktzH0cMTmKY8efG7O33ztof8AT/c3pQHC5RTdt1W64zTXE0zHolzBHzzT3Nd2N3K9FzTze0l3EcXSKojpMT3Tz6G47lr+1t61pNHpJt2KKuKZmcxE+Oqe59CmImMTGYIiKYxEREeKBWqdqtJToOyFnS0Tmm1XRTnxzzzL1OyX+zWi+rV/xS9gBom4f+0W1/qW/wDhg7ffO2h/0/3N7Aaf/aJ/hNF/qVfpDl2l/wBiNH9Wz/wtuAeP2S/2a0X1av8Ailrm4f8AtFtf6lv/AIYb2A07tbteqo3CzvGhtzcqt8PhKYjMxNM8px3x3Sx7/bSq9p4taPbuHV1cufxoifRGObeXGKaYnMUxme/APO2GncPcPhNz4Kb9ycxRTRFPDHpx3svcPm7U/wClV+ksgBpX9n1FN3S7jbrjNNfBTMeiYqYOnua7sbuV6Lmnm9pLuI4ukVRHSYnunn0fQ0mImMTGYB893Hctf2tvWtJo9JNuxRVxTMzmInx1T3Pd33s9N7s5p9JpPj3tHETTHTj5fG/Hq2WIimMRERHih52+Va+3ttdzbJj3RRMVcPDxcUd8R6fYDU9q7XanbtJToNToart21HBRzmmr0RMYefdr1t7tZo7+4W/B3r161XFHk08UYj0dHtaDtxbt2OHc9NcnU0Zia7dMc/piZjDD22NR2k7U07jNmbems101TPdEU9Iz3zMg7e33ztof9P8Acy/7RP8ACaL/AFKv0huADE2r5p0X+hR/ww0/Zf8A2gav/UvfrLewAAQAAAAAAAAAAAAAAAAAAAAAAAAAAAAAAAAAAAAAAAAAAAAAAAAAAYW8/NWp+ozWFvPzVqfqJLN/5l5PZLrq/ufubG1zsl11f3P3NjSvRz0PbgAadgAAAAAAAAAGudreul+/+162zfNWm+o8ntbHPST9f9r1dmnO1ab6jPy89fdlnANPQ43LdN23VbuUxVTVGJie+Gm7ttVzb7vFTE1WKp+LV4vRLdHC5bou0TRcpiqmqMTExmJSYy5aulGpD54Nj1/ZvMzXoq4j/wDTrn9JeZTsu4VXeD3NVE+OZjH4ueJeC2jes4w897Gx7RVq7kX79ONPTPKJ/wA8+x6G39nLdqYuayqLtUf5I+T9vje7ERTERERERyiIairvpeHnObERiMQoNvaAAAAAAAAAAAAAAAAAAAAAAAAAAAAAAAAAAAAAAAAAAAAAAAAAAx72g0eor47+ksXavHXbiqf5u6iii3RFFuimimOkUxiIcgAAAAAAAAAAAAAAAAAAAAAAAAAAAAAAAAAAAAAAAAAAAAAAAAAAAAAAAABhbz81an6jNYO8zjadT9RJZv8AzLyuyXXV/c/c2NrnZKP8XP1P3NjSvRz0fbgAadgAAAAAAAAAHjdp7E3dvpu0xmbVWZ+ieXscezGpi7opsTPxrVXT0Tz/AFy9i7bpu2qrdcZpqiYmPQ06unUbHuWaecR8mZ6V0sz6Tl5tT/i8X+G6DE0G4WNfaiuzV8bHxqJ60stXoiYmMwAKoAAAAAAAAAAAAAAAAAAAAAAAAAAAAAAAAAAAAAAAAAAAAAAAAAAAAAAAAAAAAAAAAAAAAAAAAAAAAAAAAAAAAAAAAAAAAAAAAAAAAAAAAAAAAAAAAAA8XtPqYtaGLET8a7PT0Rz/AFw9DX7hY0Fqa7tXxsfFojrU1a3TqN83LNXKJ+VMdKKWZn4cNa/psjrL2uzFibW31XaoxN2rMfRHL2vZcLVum1apt0RimmMRHoc1h1pXbWIAFaAAAAAAAAAAGPrNHZ1tmbV+nMd0x1ifQyBCYiYxLUtVsWt0dzwmlqm5THSqicVR9nsdcbzumm+Lcqq5d1y3zbiiYeedDH8zhqHwi3DyrfqHwi3DyrfqNvwYMScN+5qHwi3DyrfqHwi3DyrfqNvwYMScN+5qHwi3DyrfqHwi3DyrfqNvwYMScN+5qHwi3DyrfqHwi3DyrfqNvwYMScN+5qHwi3DyrfqHwi3DyrfqNvwYMScN+5qHwi3DyrfqHwi3DyrfqNvwYMScN+5qHwi3DyrfqHwi3DyrfqNvwYMScN+5qHwi3DyrfqHwi3DyrfqNvwYMScN+5qHwi3DyrfqHwi3DyrfqNvwYMScN+5qHwi3DyrfqHwi3DyrfqNvwYMScN+5qHwi3DyrfqHwi3DyrfqNvwYMScN+5qHwi3DyrfqHwi3DyrfqNvwYMScN+5qHwi3DyrfqHwi3DyrfqNvwYMScN+5qHwi3DyrfqHwi3DyrfqNvwYMScN+5qHwi3DyrfqHwi3DyrfqNvwYMScN+5qHwi3DyrfqHwi3DyrfqNvwYMScN+5qHwi3DyrfqHwi3DyrfqNvwYMScN+5qHwi3DyrfqHwi3DyrfqNvwYMScN+5qHwi3DyrfqHwi3DyrfqNvwYMScN+5qHwi3DyrfqHwi3DyrfqNvwYMScN+5qHwi3DyrfqHwi3DyrfqNvwYMScN+5qHwi3DyrfqHwi3DyrfqNvwYMScN+5qHwi3DyrfqHwi3DyrfqNvwYMScN+5qHwi3DyrfqHwi3DyrfqNvwYMScN+5qHwi3DyrfqHwi3DyrfqNvwYMScN+5qHwi3DyrfqHwi3DyrfqNvwYMScN+5qHwi3DyrfqHwi3DyrfqNvwYMScN+5qHwi3DyrfqHwi3DyrfqNvwYMScN+5qHwi3DyrfqHwi3DyrfqNvwYMScN+5qHwi3DyrfqHwi3DyrfqNvwYMScN+5qHwi3DyrfqHwi3DyrfqNvwYMScN+5qHwi3DyrfqHwi3DyrfqNvwYMScN+5qHwi3DyrfqHwi3DyrfqNvwYMScN+5qHwi3DyrfqHwi3DyrfqNvwYMScN+5qHwi3DyrfqHwi3DyrfqNvwYMScN+5qHwi3DyrfqHwi3DyrfqNvwYMScN+5qHwi3DyrfqHwi3DyrfqNvwYMScN+5qHwi3DyrfqHwi3DyrfqNvwYMScN+5qHwi3DyrfqHwi3DyrfqNvwYMScN+5qHwi3DyrfqHwi3DyrfqNvwYMScN+5qHwi3DyrfqHwi3DyrfqNvwYMScN+5qHwi3DyrfqHwi3DyrfqNvwYMScN+5qHwi3DyrfqHwi3DyrfqNvwYMScN+5qHwi3DyrfqHwi3DyrfqNvwYMScN+5qHwi3DyrfqHwi3DyrfqNvwYMScN+5qHwi3DyrfqHwi3DyrfqNvwYMScN+5qHwi3DyrfqHwi3DyrfqNvwYMScN+5qHwi3DyrfqHwi3DyrfqNvwYMScN+5qHwi3DyrfqHwi3DyrfqNvwYMScN+5qHwi3DyrfqHwi3DyrfqNvwYMScN+5qHwi3DyrfqHwi3DyrfqNvwYMScN+5qHwi3DyrfqHwi3DyrfqNvwYMScN+5qHwi3DyrfqHwi3DyrfqNvwYMScN+5qHwi3DyrfqHwi3DyrfqNvwYMScN+5qHwi3DyrfqHwi3DyrfqNvwYMScN+5qHwi3DyrfqHwi3DyrfqNvwYMScN+5qHwi3DyrfqHwi3DyrfqNvwYMScN+5qHwi3DyrfqJO87pqfi26qufdbt824YXEGJOG/c1LS7FrdZc8JqqqrdM9aq5zVP2e1sui0dnRWYtWKcR3zPWZ9LIFiMOlNKtOgAroAAAAAAAAAAAAAAAAAAAAAAAAAAAAAAAAAAAAAAAAAAAAAAAAAAAAAAAAAAAAAAAAAAAAAAAAAAAAAAAAAAAAAAAAAAAAAAAAAAAAAAAAAAAAAAAAAAAAAAAAAAAAAAAAAAAAAAAAAAAAAAAAAAAAAAAAAAAAAAAAAAAAAAAAAAAAAAAAAAAAAAAAAAAAAAAAAAAAAAAAAAAAAAAAAAAAAAAAAAAAAAAAAAAAAAAAAAAAAAAAAAAAAAAAAAAAAAAAAAAAAAAAAAAAAAAAAAAAAAAAAAAAAAAAAAAAAAAAAAAAAAAAAAAAAAAAAAAAAAAAAAAAAAAAAAAAAAAAAAAAAAAAAAAAAAAAAAAAAAAAAAAAAAAAAAAAAAAAAAAAAAAAAAAAAAAAAAAAAAAAAAAAAAAAAAAAAAAAAAAAAAAAAAAAAAAAAAAAAAAAAAAAAAAAAAAAAAAAAAAAAAAAAAAAAAAAAAAAAAAAAAAAAAAAAAAAAAAAAAAAAAAAAAAAAAAAAAAAAAAAAAAAAAAAAAAAAAAAAAAAAAAAAAAAAAAAAAAAAAAAAAAAAAAAAAAAAAAAAAAAAAAAAAAAAAAAAAAAAAAAAAAAAAAAAAAAAAAAAAAAAAAAAAAAAAAAAAAAAAAAAAAAAAAAAAAAAAAAAAAAAAAAAAAAAAAAAAAAAAAAAAAAAAAAAAAAAAAAAAAAAAAAAAAAAAAAAAAAAAAAAAAAAAAAAAAAAAAAAAAAAAAAAAAAAAAAAAAAAAAAAAAAAAAAAAAAAAAAAAAAAAAAAAAAAAAAAAAAAAAAAAAAAAAAAAAAAAAAAAAAAAAAAAAAAAAAAAAAAAAAAAAAAAAAAAAAAAAAAAAAAAAAAAAAAAAAAAAAAAAAAAAAAAAAAAAAAAAAAAAAAAAAAAAAAAAAAAAAAAAAAAAAAAAAAAAAAAAAAAAAAAAAAAAAAAAAAAAAAAAAAAAAAAAAAAAAAAAAAAAAAAAAAAAAAAAAAAAAAAAAAAAAAAAAAAAAAAAAAAAAAAAAAAAAAAAAAAAAAAAAAAAAAAAAAAAAAAAAAAAAAAAAAAAAAAAAAAAAAAAAAAAAAAAAAAAAAAAAAAAAAAAAAAAAAAAAAAAAAAAAAAAAAAAAAAAAAAAAAAAAAAAAAAAAAAAAAAAAAAAAAAAAAAAAAAAAAAAAAAAAAAAAAAAAAAAAAAAAAAAAAAAAAAAAAAAAAAAAAAAAAAAAAAAAAAAAAAAAAAAAAAAAAAAAAAAAAAAAAAAAAAAAAAAAAAAAAAAAAAAAAAAAAAAAAAAAAAAAAAAAAAAAAAAAAAAAAAAAAAAAAAAAAAAAAAAAAAAAAAAAAAAAAAAAAAAAAAAAAAAAAAAAAAAAAAAAAAAAAAAAAAAAAAAAAAAAAAAAAAAAAAAAAAAAAAAAAAAAAAAAAAAAAAAAAAAAAAAAAAAAAAAAAAAAAAAAAAAAAAAAAAAAAAAAAAAAAAAAAAAAAAAAAAAAAAAAAAAAAAAAAAAAAAAAAAAAAAAAAAAAAAAAAAAAAAAAAAAAAAAAAAAAAAAAAAAAAAAAAAAAAAAAAAAAAAAAAAAAAAAAAAAAAAAAAAAAAAAAAAAAAAAAAAAAAAAAAAAAAAAAAAAAAAAAAAAAAAAAAAAAAAAAAAAAAAAAAAAAAAAAAAAAAAAAAAAAAAAAAAAAAAAAAAAAAAAAAAAAAAAAAAAAAAAAAAAAAAAAAAAAAAAAAAAAAAAAAAAAAAAAAAAAAAAAAAAAAAAAAAAAAAAAAAAAAAAAAAAAAAAAAAAAAAAAAAAAAAAAAAAAAAAAAAAAAAAAAAAAAAAAAAAAAAAAAAAAAAAAAAAAAAAAAAAAAAAAAAAAAAAAAAAAAAAAAAAAAAAAAAAAAAAAAAAAAAAAAAAAAAAAAAAAAAAAAAAAAAAAAAAAAAAAAAAAAAAAAAAAAAAAAAAAAAAAAAAAAAAAAAAAAAAAAAAAAAAAAAAAAAAAAAAAAAAAAAAAAAAAAAAAAAAAAAAAAAAAAAAAAAAAAAAAAAAAAAAAAAAAAAAAAAAAAAAAAAAAAAAAAAAAAAAAAAAAAAAAAAAAAAAAAAAAAAAAAAAAAAAAAAAAAAAAAAAAAAAAAAAAAAAAAAAAAAAAAAAAAAAAAAAAAAAAAAAAAAAAAAAAAAAAAAAAAAAAAAAAAAAAAAAAAAAAAAAAAAAAAAAAAAAAAAAAAAAAAAAAAAAAAAAAAAAAAAAAAAAAAAAAAAAAAAAAAAAAAAAAAAAAAAAAAAAAAAAAAAAAAAAAAAAAAAAAAAAAAAAAAAAAAAAAAAAAAAAAAAAAAAAAAAAAAAAAAAAAAAAAAAAAAAAAAAAAAAAAAAAAAAAAAAAAAAAAAAAAAAAAAAAAAAAAAAAAAAAAAAAAAAAAAAAAAAAAAAAAAAAAAAAAAAAAAAAAAAAAAAAAAAAAAAAAAAAAAAAAAAAAAAAAAAAAAAAAAAAAAAAAAAAAAAAAAAAAAAAAAAAAAAAAAAAAAAAAAAAAAAAAAAAAAAAAAAAAAAAAAAAAAAAAAAAAAAAAAAAAAAAAAAAAAAAAAAAAAAAAAAAAAAAAAAAAAAAAAAAAAAAAAAAAAAAAAAAAAAAAAAAAAAAAAAAAAAAAAAAAAAAAAAAAAAAAAAAAAAAAAAAAAAAAAAAAAAAAAAAAAAAAAAAAAAAAAAAAAAAAAAAAAAAAAAAAAAAAAAAAAAAAAAAAAAAAAAAAAAAAAAAAAAAAAAAAAAAAAAAAAAAAAAAAAAAAAAAAAAAAAAAAAAAAAAAAAAAAAAAAAAAAAAAAAAAAAAAAAAAAAAAAAAAAAAAAAAAAAAAAAAAAAAAAAAAAAAAAAAAAAAAAAAAAAAAAAAAAAAAAAAAAAAAAAAAAAAAAAAAAAAAAAAAAAAAAAAAAAAAAAAAAAAAAAAAAAAAAAAAAAAAAAAAAAAAAAAAAAAAAAAAAAAAAAAAAAAAAAAAAAAAAAAAAAAAAAAAAAAAAAAAAAAAAAAAAAAAAAAAAAAAAAAAAAAAAAAAAAAAAAAAAAAAAAAAAAAAAAAAAAAAAAAAAAAAAAAAAAAAAAAAAAAAAAAAAAAAAAAAAAAAAAAAAAAAAAAAAAAAAAAAAAAAAAAAAAAAAAAAAAAAAAAAAAAAAAAAAAAAAAAAAAAAAAAAAAAAAAAAAAAAAAAAAAAAAAAAAAAAAAAAAAAAAAAAAAAAAAAAAAAAAAAAAAAAAAAAAAAAAAAAAAAAAAAAAAAAAAAAAAAAAAAAAAAAAAAAAAAAAAAAAAAAAAAAAAAAAAAAAAAAAAAAAAAAAAAAAAAAAAAAAAAAAAAAAAAAAAAAAAAAAAAAAAAAAAAAAAAAAAAAAAAAAAAAAAAAAAAAAAAAAAAAAAAAAAAAAAAAAAAAAAAAAAAAAAAAAAAAAAAAAAAAAAAAAAAAAAAAAAAAAAAAAAAAAAAAAAAAAAAAAAAAAAAAAAAAAAAAAAAAAAAAAAAAAAAAAAAAAAAAAAAAAAAAAAAAAAAAAAAAAAAAAAAAAAAAAAAAAAAAAAAAAAAAAAAAAAAAAAAAAAAAAAAAAAAAAAAAAAAAAAAAAAAAAAAAAAAAAAAAAAAAAAAAAAAAAAAAAAAAAAAAAAAAAAAAAAAAAAAAAAAAAAAAAAAAAAAAAAAAAAAAAAAAAAAAAAAAAAAAAAAAAAAAAAAAAAAAAAAAAAAAAAAAAAAAAAAAAAAAAAAAAAAAAAAAAAAAAAAAAAAAAAAAAAAAAAAAAAAAAAAAAAAAAAAAAAAAAAAAAAAAAAAAAAAAAAAAAAAAAAAAAAAAAAAAAAAAAAAAAAAAAAAAAAAAAAAAAAAAAAAAAAAAAAAAAAAAAAAAAAAAAAAAAAAAAAAAAAAAAAAAAAAAAAAAAAAAAAAAAAAAAAAAAAAAAAAAAAAAAAAAAAAAAAAAAAAAAAAAAAAAAAAAAAAAAAAAAAAAAAAAAAAAAAAAAAAAAAAAAAAAAAAAAAAAAAAAAAAAAAAAAAAAAAAAAAAAAAAAAAAAAAAAAAAAAAAAAAAAAAAAAAAAAAAAAAAAAAAAAAAAAAAAAAAAAAAAAAAAAAAAAAAAAAAAAAAAAAAAAAAAAAAAAAAAAAAAAAAAAAAAAAAAAAAAAAAAAAAAAAAAAAAAAAAAAAAAAAAAAAAAAAAAAAAAAAAAAAAAAAAAAAAAAAAAAAAAAAAAAAAAAAAAAAAAAAAAAAAAAAAAAAAAAAAAAAAAAAAAAAAAAAAAAAAAAAAAAAAAAAAAAAAAAAAAAAAAAAAAAAAAAAAAAAAAAAAAAAAAAAAAAAAAAAAAAAAAAAAAAAAAAAAAAAAAAAAAAAAAAAAAAAAAAAAAAAAAAAAAAAAAAAAAAAAAAAAAAAAAAAAAAAAAAAAAAAAAAAAAAAAAAAAAAAAAAAAAAAAAAAAAAAAAAAAAAAAAAAAAAAAAAAAAAAAAAAAAAAAAAAAAAAAAAAAAAAAAAAAAAAAAAAAAAAAAAAAAAAAAAAAAAAAAAAAAAAAAAAAAAAAAAAAAAAAAAAAAAAAAAAAAAAAAAAAAAAAAAAAAAAAAAAAAAAAAAAAAAAAAAAAAAAAAAAAAAAAAAAAAAAAAAAAAAAAAAAAAAAAAAAAAAAAAAAAAAAAAAAAAAAAAAAAAAAAAAAAAAAAAAAAAAAAAAAAAAAAAAAAAAAAAAAAAAAAAAAAAAAAAAAAAAAAAAAAAAAAAAAAAAAAAAAAAAAAAAAAAAAAAAAAAAAAAAAAAAAAAAAAAAAAAAAAAAAAAAAAAAAAAAAAAAAAAAAAAAAAAAAAAAAAAAAAAAAAAAAAAAAAAAAAAAAAAAAAAAAAAAAAAAAAAAAAAAAAAAAAAAAAAAAAAAAAAAAAAAAAAAAAAAAAAAAAAAAAAAAAAAAAAAAAAAAAAAAAAAAAAAAAAAAAAAAAAAAAAAAAAAAAAAAAAAAAAAAAAAAAAAAAAAAAAAAAAAAAAAAAAAAAAAAAAAAAAAAAAAAAAAAAAAAAAAAAAAAAAAAAAAAAAAAAAAAAAAAAAAAAAAAAAAAAAAAAAAAAAAAAAAAAAAAAAAAAAAAAAAAAAAAAAAAAAAAAAAAAAAAAAAAAAAAAAAAAAAAAAAAAAAAAAAAAAAAAAAAAAAAAAAAAAAAAAAAAAAAAAAAAAAAAAAAAAAAAAAAAAAAAAAAAAAAAAAAAAAAAAAAAAAAAAAAAAAAAAAAAAAAAAAAAAAAAAAAAAAAAAAAAAAAAAAAAAAAAAAAAAAAAAAAAAAAAAAAAAAAAAAAAAAAAAAAAAAAAAAAAAAAAAAAAAAAAAAAAAAAAAAAAAAAAAAAAAAAAAAAAAAAAAAAAAAAAAAAAAAAAAAAAAAAAAAAAAAAAAAAAAAAAAAAAAAAAAAAAAAAAAAAAAAAAAAAAAAAAAAAAAAAAAAAAAAAAAAAAAAAAAAAAAAAAAAAAAAAAAAAAAAAAAAAAAAAAAAAAAAAAAAAAAAAAAAAAAAAAAAAAAAAAAAAAAAAAAAAAAAAAAAAAAAAAAAAAAAAAAAAAAAAAAAAAAAAAAAAAAAAAAAAAAAAAAAAAAAAAAAAAAAAAAAAAAAAAAAAAAAAAAAAAAAAAAAAAAAAAAAAAAAAAAAAAAAAAAAAAAAAAAAAAAAAAAAAAAAAAAAAAAAAAAAAAAAAAAAAAAAAAAAAAAAAAAAAAAAAAAAAAAAAAAAAAAAAAAAAAAAAAAAAAAAAAAAAAAAAAAAAAAAAAAAAAAAAAAAAAAAAAAAAAAAAAAAAAAAAAAAAAAAAAAAAAAAAAAAAAAAAAAAAAAAAAAAAAAAAAAAAAAAAAAAAAAAAAAAAAAAAAAAAAAAAAAAAAAAAAAAAAAAAAAAAAAAAAAAAAAAAAAAAAAAAAAAAAAAAAAAAAAAAAAAAAAAAAAAAAAAAAAAAAAAAAAAAAAAAAAAAAAAAAAAAAAAAAAAAAAAAAAAAAAAAAAAAAAAAAAAAAAAAAAAAAAAAAAAAAAAAAAAAAAAAAAAAAAAAAAAAAAAAAAAAAAAAAAAAAAAAAAAAAAAAAAAAAAAAAAAAAAAAAAAAAAAAAAAAAAAAAAAAAAAAAAAAAAAAAAAAAAAAAAAAAAAAAAAAAAAAAAAAAAAAAAAAAAAAAAAAAAAAAAAAAAAAAAAAAAAAAAAAAAAAAAAAAAAAAAAAAAAAAAAAAAAAAAAAAAAAAAAAAAAAAAAAAAAAAAAAAAAAAAAAAAAAAAAAAAAAAAAAAAAAAAAAAAAAAAAAAAAAAAAAAAAAAAAAAAAAAAAAAAAAAAAAAAAAAAAAAAAAAAAAAAAAAAAAAAAAAAAAAAAAAAAAAAAAAAAAAAAAAAAAAAAAAAAAAAAAAAAAAAAAAAAAAAAAAAAAAAAAAAAAAAAAAAAAAAAAAAAAAAAAAAAAAAAAAAAAAAAAAAAAAAAAAAAAAAAAAAAAAAAAAAAAAAAAAAAAAAAAAAAAAAAAAAAAAAAAAAAAAAAAAAAAAAAAAAAAAAAAAAAAAAAAAAAAAAAAAAAAAAAAAAAAAAAAAAAAAAAAAAAAAAAAAAAAAAAAAAAAAAAAAAAAAAAAAAAAAAAAAAAAAAAAAAAAAAAAAAAAAAAAAAAAAAAAAAAAAAAAAAAAAAAAAAAAAAAAAAAAAAAAAAAAAAAAAAAAAAAAAAAAAAAAAAAAAAAAAAAAAAAAAAAAAAAAAAAAAAAAAAAAAAAAAAAAAAAAAAAAAAAAAAAAAAAAAAAAAAAAAAAAAAAAAAAAAAAAAAAAAAAAAAAAAAAAAAAAAAAAAAAAAAAAAAAAAAAAAAAAAAAAAAAAAAAAAAAAAAAAAAAAAAAAAAAAAAAAAAAAAAAAAAAAAAAAAAAAAAAAAAAAAAAAAAAAAAAAAAAAAAAAAAAAAAAAAAAAAAAAAAAAAAAAAAAAAAAAAAAAAAAAAAAAAAAAAAAAAAAAAAAAAAAAAAAAAAAAAAAAAAAAAAAAAAAAAAAAAAAAAAAAAAAAAAAAAAAAAAAAAAAAAAAAAAAAAAAAAAAAAAAAAAAAAAAAAAAAAAAAAAAAAAAAAAAAAAAAAAAAAAAAAAAAAAAAAAAAAAAAAAAAAAAAAAAAAAAAAAAAAAAAAAAAAAAAAAAAAAAAAAAAAAAAAAAAAAAAAAAAAAAAAAAAAAAAAAAAAAAAAAAAAAAAAAAAAAAAAAAAAAAAAAAAAAAAAAAAAAAAAAAAAAAAAAAAAAAAAAAAAAAAAAAAAAAAAAAAAAAAAAAAAAAAAAAAAAAAAAAAAAAAAAAAAAAAAAAAAAAAAAAAAAAAAAAAAAAAAAAAAAAAAAAAAAAAAAAAAAAAAAAAAAAAAAAAAAAAAAAAAAAAAAAAAAAAAAAAAAAAAAAAAAAAAAAAAAAAAAAAAAAAAAAAAAAAAAAAAAAAAAAAAAAAAAAAAAAAAAAAAAAAAAAAAAAAAAAAAAAAAAAAAAAAAAAAAAAAAAAAAAAAAAAAAAAAAAAAAAAAAAAAAAAAAAAAAAAAAAAAAAAAAAAAAAAAAAAAAAAAAAAAAAAAAAAAAAAAAAAAAAAAAAAAAAAAAAAAAAAAAAAAAAAAAAAAAAAAAAAAAAAAAAAAAAAAAAAAAAAAAAAAAAAAAAAAAAAAAAAAAAAAAAAAAAAAAAAAAAAAAAAAAAAAAAAAAAAAAAAAAAAAAAAAAAAAAAAAAAAAAAAAAAAAAAAAAAAAAAAAAAAAAAAAAAAAAAAAAAAAAAAAAAAAAAAAAAAAAAAAAAAAAAAAAAAAAAAAAAAAAAAAAAAAAAAAAAAAAAAAAAAAAAAAAAAAAAAAAAAAAAAAAAAAAAAAAAAAAAAAAAAAAAAAAAAAAAAAAAAAAAAAAAAAAAAAAAAAAAAAAAAAAAAAAAAAAAAAAAAAAAAAAAAAAAAAAAAAAAAAAAAAAAAAAAAAAAAAAAAAAAAAAAAAAAAAAAAAAAAAAAAAAAAAAAAAAAAAAAAAAAAAAAAAAAAAAAAAAAAAAAAAAAAAAAAAAAAAAAAAAAAAAAAAAAAAAAAAAAAAAAAAAAAAAAAAAAAAAAAAAAAAAAAAAAAAAAAAAAAAAAAAAAAAAAAAAAAAAAAAAAAAAAAAAAAAAAAAAAAAAAAAAAAAAAAAAAAAAAAAAAAAAAAAAAAAAAAAAAAAAAAAAAAAAAAAAAAAAAAAAAAAAAAAAAAAAAAAAAAAAAAAAAAAAAAAAAAAAAAAAAAAAAAAAAAAAAAAAAAAAAAAAAAAAAAAAAAAAAAAAAAAAAAAAAAAAAAAAAAAAAAAAAAAAAAAAAAAAAAAAAAAAAAAAAAAAAAAAAAAAAAAAAAAAAAAAAAAA7MR4oMR4oUUTEeKDEeKFATEeKDEeKDJzAxHihOXiXCg44jxGI8lyAccR5JiPJcgHHEeSYjyXIBxxHkmI8lyAccR5JiPJcgHHEeSYjyXIBxxHkmI8lyAccR5JiPJcgHHEeSYjyXIBxxHkmI8lyAccR5JiPJcgHHEeSYjyXIBxxHkmI8lyAccR5JiPJcgHHEeSYjyXIBxxHkmI8lyAccR5JiPJcgHHEeSYjyXIBxxHkmI8lyAccR5JiPJcgHHEeSYjyXIBxxHkmI8lyAccR5JiPJcgHHEeSYjyXIBxxHkmI8lyAccR5JiPJcgHHEeSYjyXIBxxHkmI8lyAccR5JiPJcgHHEeSYjyXIBxxHkmI8lyAccR5JiPJcgHHEeSYjyXIBxxHkmI8lyAccR5JiPJcgHHEeSYjyXIBxxHkmI8lyAccR5JiPJcgHHEeSYjyXIBxxHkmI8lyAccR5JiPJcgHHEeSYjyXIBxxHkmI8lyAccR5JiPJcgHHEeSYjyXIBxxHkmI8lyAccR5JiPJcgHHEeSYjyXIBxxHkmI8lyAccR5JiPJcgHHEeSYjyXIBxxHkmI8lyAccR5JiPJcgHHEeSYjyXIBxxHkmI8lyAccR5JiPJcgHHEeSYjyXIBxxHkmI8lyAccR5JiPJcgHHEeI5eJyATEeKDEeKDBzAxHigxHigyoJiPFBiPFCgJiPFAoACAqdeidfoUDCgAAAAAAAAAAAAAAAAAAAAAAAAAAAAAAAAAAAAAAAAAAAAAAAAAAAAAAAAAAAAAAAAAAAAAAAAAAAAAAAAAAAAAAAAAAAAAAAAAAAAAAAAAAAAAAAAAAAAAAAAAAAACYOnVUBRx6fQoKAA4zznCzOIIjEAKAAAAAAgCiAKIAogCiAKIAogCiAKIAogCiAKIAogCiAKIAogCiAKIAogCiAKIAogCiAKIAogCiAKIAogCiAKIAogCiAKIAogCiAKIAogCiAKIAogCiAKIAogCiAKIAogCiAKIAogCiAKIAogCiAKIAogCiAKIAogCiAKIAoAAAIkcpw5JMZgFEicwAnWpycaO+fG5AAAAAIqAOnUai1pqOO7VFMGpv06azVcr+TS1jVaq5qr03Lk/RT3RDz6+vGnGPl30NCdSfx6F/fK55WbcUx46uc/gxPfTWef8Ayx7GIPmW19S05y+jXw+nWOjM99tb5/8ALHsPfbW+f/LHsYYnLqd0tcWn2wzPfbW+f/LHsPfbW+f/ACx7GGHLqd0nFp9sMz321vn/AMsew99tb5/8sexhhy6ndJxafbDM99tb5/8ALHsPfbW+f/LHsYYcup3ScWn2wzPfbW+f/LHsPfbW+f8Ayx7GGHLqd0nFp9sMz321vn/yx7D321vn/wAsexhhy6ndJxafbDM99tb5/wDLHsPfbW+f/LHsYYcup3ScWn2wzPfbW+f/ACx7D321vn/yx7GGHLqd0nFp9sMz321vn/yx7D321vn/AMsexhhy6ndJxafbDM99tb5/8sew99tb5/8ALHsYYcup3ScWn2wzPfbW+f8Ayx7D321vn/yx7GGHLqd0nFp9sMz321vn/wAsew99tb5/8sexhhy6ndJxafbDM99tb5/8sew99tb5/wDLHsYYcup3ScWn2wzPfbW+f/LHsPfbW+f/ACx7GGHLqd0nFp9sMz321vn/AMsew99tb5/8sexhhy6ndJxafbDM99tb5/8ALHsPfbW+f/LHsYYcup3ScWn2wzPfbW+f/LHsPfbW+f8Ayx7GGHLqd0nFp9sMz321vn/yx7D321vn/wAsexhhy6ndJxafbDM99tb5/wDLHsPfbW+f/LHsYYcup3ScWn2wzPfbW+f/ACx7D321vn/yx7GGHLqd0nFp9sMz321vn/yx7D321vn/AMsexhhy6ndJxafbDM99tb5/8sew99tb5/8ALHsYYcup3ScWn2wzPfbW+f8Ayx7D321vn/yx7GGHLqd0nFp9sMz321vn/wAsew99tb5/8sexhhy6ndJxafbDM99tb5/8sew99tb5/wDLHsYYcup3ScWn2wzPfbW+f/LHsPfbW+f/ACx7GGHLqd0nFp9sMz321vn/AMsew99tb5/8sexhhy6ndJxafbDM99tb5/8ALHsPfbW+f/LHsYYcup3ScWn2wzPfbW+f/LHsPfbW+f8Ayx7GGHLqd0nFp9sMz321vn/yx7D321vn/wAsexhhy6ndJxafbDM99tb5/wDLHsPfbW+f/LHsYYcup3ScWn2wzPfbW+f/ACx7D321vn/yx7GGHLqd0nFp9sMz321vn/yx7D321vn/AMsexhhy6ndJxafbDM99tb5/8sew99tb5/8ALHsYYcup3ScWn2wzPfbW+f8Ayx7D321vn/yx7GGHLqd0nFp9sMz321vn/wAsew99tb5/8sexhhy6ndJxafbDM99tb5/8sew99tb5/wDLHsYYcup3ScWn2wzPfbW+f/LHsPfbW+f/ACx7GGHLqd0nFp9sMz321vn/AMsew99tb5/8sexhhy6ndJxafbDM99tb5/8ALHsPfbW+f/LHsYYcup3ScWn2wzPfbW+f/LHsPfbW+f8Ayx7GGHLqd0nFp9sMz321vn/yx7D321vn/wAsexhhy6ndJxafbDM99tb5/wDLHsPfbW+f/LHsYYcup3ScWn2wzPfbW+f/ACx7D321vn/yx7GGHLqd0nFp9sMz321vn/yx7D321vn/AMsexhhy6ndJxafbDM99tb5/8sew99tb5/8ALHsYYcup3ScWn2wzPfbW+f8Ayx7D321vn/yx7GGHLqd0nFp9sMz321vn/wAsew99tb5/8sexhhy6ndJxafbDM99tb5/8sew99tb5/wDLHsYYcup3ScWn2wzPfbW+f/LHsPfbW+f/ACx7GGHLqd0nFp9sMz321vn/AMsew99tb5/8sexhhy6ndJxafbDM99tb5/8ALHsPfbW+f/LHsYYcup3ScWn2wzPfbW+f/LHsPfbW+f8Ayx7GGHLqd0nFp9sMz321vn/yx7D321vn/wAsexhhy6ndJxafbDM99tb5/wDLHsPfbW+f/LHsYYcup3ScWn2wzPfbW+f/ACx7D321vn/yx7GGHLqd0nFp9sPWsb5XE4vW4qjx08p/B69jUWtTb47VUVU+juak7tLqbmluxXbn6ae6YejS8VaJxf1h59XwtZjNPSW2jp01+nUWablHyavG7X04mJjMPnTGJxKqiqgAAADj0qCrunxAFPKmPock7lAAAAARUB4W/wB6ZuW7MTyiOKfp7v6/i8ll7r85Xvs/SGI+Jr2m2pL7Hh6xXTgAcncAAAAAAAAAAAAAAAAAAAAAAAAAAAAAAAAAAAAAAAAAAAAAAAAAAAAAAAAAAAAAAAAAAAAAAAAAAAAAAAAAAAAAAAAAAAAAAAAAAAAAAAAAAAAAAAAAB62w3pi5XZnpMcUfT3/0/B7vRq+0/OVn7f0ltD63hbTOm+R4qsRqCor1POAAAA41c6Z+gXuAUAAAAABFQGsbv853vs/SGGzN3+c732fpDDfD1fct/r7Wl7df8AHN1AAAAAAAAAAAAAAAAAAAAAAAAAAAAAAAAAAAAAAAAAAAAAABzos3LkZot11R46aZlxrort1cNdNVM+KYwuJxlndGcIC0W67lXDboqqnxUxlIjKzOOqDnVauW4iblFdET31UzDgTEx1ImJ6AAoAADO2zQ06yquq5VMUU90dZapSbzthi94pG6WCM7ctDTo6qZoqmaKu6esOjSaW5q7vBb5RHOap6Qs6dots+UjUrNd/w6B69/Z7dnTV3Ju11VU0zPdEPIXU0raf8ASaerXU/kAc3UAAAAAAAAAAAAAAAAAAAAAAAAAAAAAAAAAAAAAAAAAAAAAAAAABmbR852ft/SWzNZ2j5zs/b+ktmfU8F/E/6+X4z3P/CqivY8gAAAAAAAAAAAAioDWN3+c732fpDDZm7/ADne+z9IYb4er7lv9fa0vbr/AIAObqAAAAAAAAAAAAAAAAAAAAAAAAAAAAAAAAAAAAAAAAAAAAAA9XYb/Ddrsz0qjij6XPf7OKqL0R/2Z/p/V5emvTZv27sf5Zz9jZNbajU6KumnnM05p+nrD36X/wBmlNPp8/V/+vWi/wBtXe3sNjFu5emPlTiPoeJETM4jnMtps0U6PRUxPKLdOZn9XPwlM3m0/Dp4u+KxWPl5G+X+LVRbjpbjn9MvOppqrqimimaqp6REZW9cm7druVdapy2HbtHRpdPFdURx1RmqZ7vQlaTr6kz8LN40NOI+Xj07XrKoz4HH01Q6b+mvaef763VT6e56tzfYprmLdnipjvmrGWdp71ncNPM8OYnlVTV3OkaGlf8A5pb1c+fVp63j0auyfe/VcPF4GcYznMOOt0/ubU12utPWmfQ2eiImxET0mlz0fDxeZi3w3ra80iJr8tXs6O/fp4rduaqfH0h27dXqrdyudLTx8vjRPR693ctJp82on5PLFMcoYfZ+M3b30Q3GlWupWK29WZ1bWpabR6MTca9VXcpnVU8HL4tMdHrbNprlizc8LRw1VVfyYfaCMXrX1Zelt2r92WZq4ODhnGM5dNKsRrTmfVy1LTOjGI9GFu1Osrrqi1FXgYp54mIz43nRt2rqpiqLUzE84nMPU3LcvA13NP4LizTjiz44duzajw2k8HM/Gt8vs7i2np6mpiZ9Vpqamnp5iPRrsxNMzExiY5TDlat13a4t0U8VU9IZe72PA62qYj4tz40f1ZOw2OKu5en/AC/Fj+ryV0ZnV2PVbWiNPe8+9otRYtzXdtTTTHfmHS9bfb/Fcos0zyp+NV9Pc8lNataX21a0LWvXdYAcnYAAAAAAAAAAAAAAAAAAAAAAAAAAAAAAAAAAAAAAAAAAAAABmbR852ft/SWzNZ2j5zs/b+ktmfU8F/E/6+X4z3P/AAqor2PIAAAAAAAAAAAAIqA1jd/nO99n6Qw2Zu/zne+z9IYb4er7lv8AX2tL26/4AObqAAAAAAAAAAAAAAAAAAAAAAAAAAAAAAAAAAAAAAAAAAAAAANj2e/4bRU0zPxrfxZ/o1x6GyXvBavwcz8W5GPth6PDX26n+vN4mm6n+Oy3osb1NGPiUz4T7P8A8sze7/gtLFqJ53Jx9j0It0+Em5j40xjPoa5u9/w2tqiJ+Lb+LH9Xr1YjS05x8vJpTOrqRn4YdvHhKeLpmMttucHgKvCfI4fjfQ1Fsu3aqjV6WKapia4jFdMuXg7RGau3jKz6WdHFtP8A+l+Dts6vbrGfBV0UZ64hiXNizcmbd6IonumM4Zdvb9Jp7H97TRVwxmquqHeu+J/mIee3Hj+pl5W8X7Wo1NNVmqKoinEzH0vfzjS5jrFH9Gr6m5bu366rVEUUZ+LERjk2if8ACT9T+jGhbda8t61dtaQ1J63Z/wDi3voh5L1uz/8AFvfRDy6Huw9XiPalO0H8az9WWR2f/wANc+v/AEhj9oP41n6ssjs//hrn1/6Q9Nf/ANEvNb/88MHevnCr6sOO06jwGtpiZxTc+LP9HLevnCr6sMCJxOY6vLe001ptH29VKxbRis/TYN7seF0kXIj41uc/Z3u7SW6dHt1PHy4aeKr6ernor0arR01zicxiqPT3sTfL/g9PTZpnncnn9EPoW21zq/j59d1saX68S9dqvXa7tXWqcuAPkTOZzL68RiMQACgAAAAAAAAAAAAAAAAAAAAAAAAAAAAAAAAAAAAAAAAAAAAAMzaPnOz9v6S2ZrO0fOdn7f0lsz6ngv4n/Xy/Ge5/4VUV7HkAAAAAAAAAAAAEVAaxu/zne+z9IYbM3f5zvfZ+kMN8PV9y3+vtaXt1/wAAHN1AAAAAAAAAAAAAAAAAAAAAAAAAAAAAAAAAAAAAAAAAAAAAAFoqqoriumcVUzmJQE6sv3z1nn/yx7GJVM1VTMzmZ5zINWva3WWa0rXpAtFdduuKqKppqjviUGYnDUxlm07vq6accdNXpml0X9Ve1H8W5NUeLpDpG51LzGJlzjSpE5iBle+Or4MeG+LjGOGPYxRmtrV6S3atbdYHZY1N3TzVNqvhmrryiXWETMTmFmImMS7dRqr2omJvV8U09OUQun1l/T0TTZucMTOZjES6Rd9s5z6s7K4xj0c7t25fr8Jcq4qp78YcB3aO3Rd1NNNdUU0ZzVMzjkkZtZZxWv8Aj39psTp9HTxfKq+NMeJ4e4X/AHRq664n4sfFp+iHs7hrbVvR1+CuU1VzHDHDOWuvZ4m0RWNOrx+GrNrTqSAPE9wAAAAAAAAAAAAAAAAAAAAAAAAAAAAAAAAAAAAAAAAAAAAAAADM2j5zs/b+ktmaztHznZ+39JbM+p4L+J/18vxnuf8AhVRXseQAAAAAAAAAAAARUBrG7/Od77P0hhszd/nO99n6Qw3w9X3Lf6+1pe3X/ABzdQAAAAAAAAAAAAAAAAAAAAAAAAAAAAAAAAAAAAAAAAAAAAAAAAAAAAAAAAAAAAAAAAAAAAAAAAAAAAAAAAAAAAAAAAAAAAAAAAAAAAAAAAAAAAAAAAAGZtHznZ+39JbM1naPnOz9v6S2Z9TwX8T/AK+X4z3P/CqivY8gAAAAAAAAAAAAioDwt+szFy3eiOUxwz9Pd/X8Hktt1NijU2arVfyamsarTXNLem3cj6Ku6YfL8VpTFt8dJfS8LqxNdk9XSA8b2gAAAAAAAAAAAAAAAAAAAAAAAAAAAAAAAAAAAAAAAAAAAAAAAAAAAAAAAAAAAAAAAAAAAAAAAAAAAAAAAAAAAAAAAAAAAAAAAAAAAAAAAAAAAAAAAAO3S6a5qrsUUR9NXdELWs2nEMzMVjMvR2CzM3Ll6ekRwx9Pf/T8XuunTWKNNYptUfJjxu59rR0+OkVfG1b77zYVFdXMAAAAAAAAAAAARUAdOo09vUUcFymKqXcJMRMYlYmY9YeFf2OuJzZuRVHiq5T+LE96tZ5j80e1tEch5reF05l3r4rUiGse9Wt8x+aPae9Ot8x+aPa2YZ8lT7lvzmp+NZ96db5j80e096db5j80e1sweSp9yec1PxrPvTrfMfmj2nvTrfMfmj2tmDyVPuTzmp+NZ96db5j80e096db5j80e1sweSp9yec1PxrPvTrfMfmj2nvTrfMfmj2tmDyVPuTzmp+NZ96db5j80e096db5j80e1sweSp9yec1PxrPvTrfMfmj2nvTrfMfmj2tmDyVPuTzmp+NZ96db5j80e096db5j80e1sweSp9yec1PxrPvTrfMfmj2nvTrfMfmj2tmDyVPuTzmp+NZ96db5j80e096db5j80e1sweSp9yec1PxrPvTrfMfmj2nvTrfMfmj2tmDyVPuTzmp+NZ96db5j80e096db5j80e1sweSp9yec1PxrPvTrfMfmj2nvTrfMfmj2tmDyVPuTzmp+NZ96db5j80e096db5j80e1sweSp9yec1PxrPvTrfMfmj2nvTrfMfmj2tmDyVPuTzmp+NZ96db5j80e096db5j80e1sweSp9yec1PxrPvTrfMfmj2nvTrfMfmj2tmDyVPuTzmp+NZ96db5j80e096db5j80e1sweSp9yec1PxrPvTrfMfmj2nvTrfMfmj2tmDyVPuTzmp+NZ96db5j80e096db5j80e1sweSp9yec1PxrPvTrfMfmj2nvTrfMfmj2tmDyVPuTzmp+NZ96db5j80e096db5j80e1sweSp9yec1PxrPvTrfMfmj2nvTrfMfmj2tmDyVPuTzmp+NZ96db5j80e096db5j80e1sweSp9yec1PxrPvTrfMfmj2nvTrfMfmj2tmDyVPuTzmp+NZ96db5j80e096db5j80e1sweSp9yec1PxrPvTrfMfmj2nvTrfMfmj2tmDyVPuTzmp+NZ96db5j80e096db5j80e1sweSp9yec1PxrPvTrfMfmj2nvTrfMfmj2tmDyVPuTzmp+NZ96db5j80e096db5j80e1sweSp9yec1PxrPvTrfMfmj2nvTrfMfmj2tmDyVPuTzmp+NZ96db5j80e096db5j80e1sweSp9yec1PxrPvTrfMfmj2nvTrfMfmj2tmDyVPuTzmp+NZ96db5j80e096db5j80e1sweSp9yec1PxrPvTrfMfmj2nvTrfMfmj2tmDyVPuTzmp+NZ96db5j80e096db5j80e1sweSp9yec1PxrPvTrfMfmj2nvTrfMfmj2tmDyVPuTzmp+NZ96db5j80e096db5j80e1sweSp9yec1PxrPvTrfMfmj2nvTrfMfmj2tmDyVPuTzmp+NZ96db5j80e096db5j80e1sweSp9yec1PxrPvTrfMfmj2nvTrfMfmj2tmDyVPuTzmp+NZ96db5j80e096db5j80e1sweSp9yec1PxrPvTrfMfmj2nvTrfMfmj2tmDyVPuTzmp+NZ96db5j80e096db5j80e1sweSp9yec1PxrPvTrfMfmj2nvTrfMfmj2tmDyVPuTzmp+NZ96db5j80e096db5j80e1sweSp9yec1PxrPvTrfMfmj2nvTrfMfmj2tmDyVPuTzmp+NZ96db5j80e096db5j80e1sweSp9yec1PxrPvTrfMfmj2nvTrfMfmj2tmDyVPuTzmp+NZ96db5j80e096db5j80e1sweSp9yec1PxrPvTrfMfmj2nvTrfMfmj2tmDyVPuTzmp+NZ96db5j80e096db5j80e1sweSp9yec1PxrPvTrfMfmj2nvTrfMfmj2tmDyVPuTzmp+NZ96db5j80e096db5j80e1sweSp9yec1PxrPvTrfMfmj2nvTrfMfmj2tmDyVPuTzmp+NZ96db5j80e096db5j80e1sweTp9yec1Px4djY65nN67FMeKjnP4vX0+ntae3wWqIppdw76ejTT/mHC+re/9SArq5gAAAAAAAAAAAAAAAIKAgoCCgIKAgoCCgIKAgoCCgIKAgoCCgIKAgoCCgIKAgoCCgIKAgoCCgIKAgoCCgIKAgoCCgIKAgoCCgIKAgoCCgIKAgoCCgIKAgoCCgIKAgoCCgIKAgoCCgIKAgoCCgIKAgoCCgIKAgoCCgIKAgoCCgIKAgoAAAAAAAAAAAOu1XFdPpjq7AAAAAAAAAAAAAAAAAAAAAAAAAAAAAAAAAAAAAAAAAAAAAAAAAAAAAAAAAAAAAAAAAAAAAAAAAAAAAAAAAAAAAAAAAAAAAAAAAAAAAAAAAAAAAAAAAAAAAAAAAAAAAAAAAAAAAB13a4op9M9AE8DbicxExPomXYoAAAAAAAAAAAAAAAAAAAAAAAAAAAAAAAAAAAAAAAAAAAAAAAAAAAAAAAAAAAAAAAAAAAAAAAAAAAAAAAAAAAAAAAAAAAAAAAAAAAAAAAAAAAAAAAAAAAAAAAAAAAAAAAAAAAigOrwNuaszEzPpmR2gAAAAAAAAAAAAAAAAAAAAAAAAAAAAAAAAAAAAAAAAAAAAAAAAAAAAAAAAAAAAAAAAAAAAAAAAAAAAAAAAAAAAAAAAAAAAAAAAAAAAAAAAAAAAAAAAAAAAAAAAAAAAAAAAAAAAAAAAAAAAAAAAAAAAAAAAAAAAAAAAAAAAAAAAAAAICjpq1FimcVXrcT4pqhPdWn8/a9eAd46PdWn8/a9eFpv2a5xTdt1T4oqiQdwAAAAAAAAAAAAAAAAAAAAAAAAjxdz32jTVVWdNEXLscpq7qfaD23HMZxnn4mq0abd9yjjrqriie+urhj8HP4NarGYu28/aDaRqddvdtr+NxVzbjvieKn/AMnq7XvVvWTFq9EW709PFV9APXAAAAAAAAAAAAAAAAAAAAAAAAAABAUeVq980ulueDjN2qJ+NwdIelRXFdEVU9KozAOYAAAAAAAAAAAAAAAAAAAAAAAAAAAAAAAAAAAAAAAAAAAAAAAAAAAAAAAAAAAAAAAAAAAAADxO0eruWNPbtWqppm5M8Ux1xD22udqvlaf6JBr4ABEzE5icSANt7P6uvVaGYu1TVXbq4cz3x3PWeD2V/wAPf+vH6PeAAAAAAAAAAAAAAAAAAAAAAB42/wC4TpbMWbU4u3I5zHWKXTsez00U06nU0Zrq50UT3emfSwqqZ3DtFNNXOjjx92n/APD39z1XuLQ13accUcqfpBx1u66XQ/FuVTVc8innLzo7TUcXPTVcP1ubXq66rlc111TVVVOZme9xBu2i3HTa+n+6q+NjnRVyl5G97TTapnWaWOHHOumO70w8OzdrsXabtuqaa6ZzEw3bSX6ddoaLsxGLlPxo/WAYuybhOt0vDcn+9t8qvTHjeo1TbZnQb/Nj/LNU25+ju/o2sAAAAAAAAAAAAAAAAAAAAAAAcKqqaaZqqmIpjnMz3PD3HtBTRm3osVVd9yekfR4werrNbY0Vvjv1xHipjrLWdw3q/rM0UZtWvJiec/TLz7125fuTcu1zXXPWZlwAb7pf8LZ+pH6NCb7pf8LZ+pH6A7gAAAAAAAAAAAAAAAAAAAAAAAAAAAAAAAAAAAAAAAAAAAAAAAAAAAAAAAAAAAAAAAAAAAAAGudqvlaf6JbG1ztV8rT/AESDXwAAAbL2V/w9/wCvH6PeeD2V/wAPf+vH6PeAAAAAAAAAAAAAAAAAAAAARQGrbL8XfrkVdZ44/m9DtPTVO3UTHSm5Ez+EvN3Gmvbt8jURHxaquOPTHfH6tiv2rWv0c0Zzbu08pj+Ug0UZGs0d7RXpt3qceKruq+hjgNu7PUzTtNvPfVMx+LXNv0F7XXoot0zFGfjV90Q2+qbO36PPybVqnkDXdR8btRHD56n+ja2rbFbq1m7V6quOVGavtltIAAAAAAAAAAAAAAAAAAAAAAPH3/SanVWKJ08zVTRmarcT8r2tVqpmmZiqJiY6xL6E8/X7Vp9dTmqngud1dPX7fGDTBm6/bNRoap8JTxW+6unpPsYQDfdL/hbP1I/RoTfdL/hbP1I/QHcAAAAAAAAAAAAAAAAAAAAAAAAAAAAAAAAAAAAAAAAAAAAAAAAAAAAAAAAAAAAAAAAAAAAAA8zeduq1+np8HMRdtzmnPSfQ9MBpFW1a+mcTpbn2RlPevXf9Vu+q3gBo/vXrv+q3fVcqNp19dURGmrj0zGG7AMDadD7h0kW6pia6p4qpjxs8AAAAAAAAAAAAAAAAAAAAAAAefu2306/S8McrlPOif6PF2zc7m2XZ0uroq8HE9O+ifY2pha/bdPrqf72nFcdK6esA7KatNr7GY8Hetz3TzdEbNoIq4vc1P0ZnDx7mwa3T18WlvRV4pirhlPcm/T8XN3/vY9oNgu3tNobMcdVFqiOlMcvwhrev11/d9TTptNRPg88qfH6Zd1rs/q79fHq70U+PnxS9zRaDT6G3w2aOc9ap6yCbboqNBpqbVPOqeddXjlmAAAAAAAAAAAAAAAAAAAAAAAAADhVTTXTNNURNM8pie94W4dn6as3NF8We+3PSfolsAD5/dtXLNybd2iaK46xMN60v+FtfUj9HG/pNPqZpm9aormnpMw74jEYjoCgAAAAAAAAAAAAAAAAAAAAAAAAAAAAAAAAAAAAAAAAAAAAAAAAAAAAAAAAAAAAAAAAAAAAAAAAAAAAAAAAAAAAAAAAAAAAAAAAAAAAAAAAAAAAAAAAAAAAAAAAAAAAAAAAAAAAAAAAAAAAAAAAAAAAAAAAAAAAAAAAAAAAAAAAAAAAAAAAAAAAAAAAAAAAAAAAAAAAAAAAAAAAAAAAAAAAAAAAAAAAAAAAAAAAAAAAAAAAAAAAAAAAAAAAAAAAAAAAAAAAAAAAAAAAAAAAAAAAAAAAAAAAAAAAAAAAAAAAAAAAAAAAAAAAAAAAAAAAAAAAAAAAAAAAAAAAAAAAAAAAAAAAAAAAAAAAAAAAAAAAAAAAAAAAAAAAAAAAAAAAAAAAAAAAAAAAAAAAAAAAAAAAAAAAAAAAAAAAAAAAAAAAAAAAAAAAAAAAAAAAAAA//2Q==;" vertex="1" parent="1">
          <mxGeometry x="380" y="55" width="189.23" height="410" as="geometry" />
        </mxCell>
      </root>
    </mxGraphModel>
  </diagram>
</mxfile>
